<?xml version="1.0" encoding="UTF-8"?>
<svg id="Layer_1" data-name="Layer 1" xmlns="http://www.w3.org/2000/svg" viewBox="0 0 500 500">
  <defs>
    <style>
      .cls-1 {
        fill: #112148;
      }

      .cls-2 {
        fill: #3b9bbc;
      }
    </style>
  </defs>
  <path class="cls-1" d="M375.61,166.9c-.76,21.52-6.66,39.96-14.39,57.75-25.89,59.54-60.47,113.78-101.22,164.17-7.35,9.09-9.15,9.43-15.21,1.93-46.71-57.8-87.18-119.32-111.57-190.21-21.53-62.6,22.98-141.48,99.87-153.06,65.45-9.85,128.4,34.06,140.24,100.7,1.2,6.76,1.68,13.65,2.28,18.71ZM211.26,166.84c.1,22.41,17.95,40.21,40.3,40.2,22.38-.01,40.18-17.81,40.27-40.26.08-22.55-18.43-41.1-40.71-40.78-22.18.31-39.96,18.53-39.85,40.84Z"/>
  <path class="cls-2" d="M248.14,438.5c-31.67-.54-66.47-2.49-100.36-12.24-6.63-1.91-13.09-4.24-18.98-7.84-12.11-7.4-12.15-15.76-.03-23,10.86-6.49,22.98-9.68,35.23-12,12.74-2.42,25.67-3.84,38.47-5.97,4.39-.73,7,.75,9.55,4.28,7.76,10.75,15.66,21.42,25.14,30.77,10.57,10.42,18.3,10.39,28.81-.19,9.19-9.25,16.88-19.77,24.6-30.23,2.18-2.96,4.15-5.41,8.6-4.83,20.69,2.72,41.44,5.03,61.31,11.94,5.07,1.76,10.02,3.77,14.53,6.68,11.12,7.19,11.08,15.16-.29,22.23-9.19,5.71-19.51,8.63-29.94,11.04-30.71,7.09-61.94,9.14-96.66,9.36Z"/>
</svg>