<?xml version="1.0" encoding="UTF-8"?>
<svg id="Layer_1" data-name="Layer 1" xmlns="http://www.w3.org/2000/svg" viewBox="0 0 500 500">
  <defs>
    <style>
      .cls-1 {
        fill: #112148;
      }

      .cls-2 {
        fill: #3b9bbc;
      }
    </style>
  </defs>
  <path class="cls-1" d="M168.22,430.71c-4.04-2.37-5.32-5.91-5.44-10.54-.44-16.45-6.07-30.9-17.25-43.14-17.23-18.86-28.79-40.75-33.8-65.86-4.19-20.98-1.4-41.33,6.69-61.05,1.11-2.71,1.95-2.52,4.07-.99,18.82,13.6,39.89,20.55,63.08,20.65,49.15.21,92.44-31.74,105.39-79.28,5.56-20.39,19.18-29.82,37.72-34.98,2.92-.81,5.97-1.14,8.97-1.65,3.58-.61,6.51.57,8.57,3.55,2.05,2.97,2.2,6.14.38,9.3-2.81,4.89-5.25,9.92-6.69,15.43-1.78,6.8-1.33,13.48.27,20.2.3,1.27,1.14,2,2.04,2.75,16.57,14,29.03,30.91,36.28,51.48.64,1.83,1.63,2.26,3.36,2.23,3.16-.04,6.36-.15,9.49.19,7.33.8,12.77,6.13,12.95,13.45.31,12.57.33,25.17-.02,37.74-.21,7.68-6.51,13.1-14.22,13.21-3.17.05-6.84-.9-9.35.41-2.59,1.34-2.54,5.51-3.72,8.4-7.06,17.29-17.65,32.06-31.64,44.32-12.2,10.69-19,23.64-18.07,40.17.06,1.06-.07,2.12.02,3.17.4,4.75-1.13,8.5-5.48,10.83h-52.84c-4.13-2.5-5.66-6.2-5.16-10.93.17-1.62-.08-3.29.05-4.92.19-2.36-.33-3.15-3.07-2.89-9.09.88-18.23.91-27.32,0-7.37-.74-7.52-.92-7.3,6.38.16,5.01-.23,9.56-5.11,12.37h-52.84ZM318.81,249.46c-.06,6.56,4.88,11.75,11.3,11.88,6.57.13,12-5.05,12.11-11.56.12-6.34-5.08-11.72-11.45-11.84-6.74-.13-11.9,4.85-11.97,11.53Z"/>
  <g>
    <path class="cls-2" d="M180.33,128.18h-12.95v29.34h15.33c9.12,0,14.8-5.42,14.8-14.8s-3.83-14.54-17.18-14.54Z"/>
    <path class="cls-2" d="M275.91,147.6c-5.77-38.18-28.2-62.95-64.83-74.87-5.26-1.71-10.78-2.01-16.08-3.43h-17.61c-5.13,1.08-10.34,1.9-15.39,3.3-45.61,12.66-73.55,57.66-64.98,104.48,8.72,47.62,54.46,80.59,101.88,73.44,50.09-7.56,84.57-52.91,77.01-102.91ZM202.4,207.34l-18.63-35.02h-16.39v35.02h-17.05v-93.82h30.26c10.18,0,14.8.79,18.9,2.64,9.38,4.23,15.33,13.21,15.33,25.64,0,11.23-5.95,21.67-15.86,25.63v.26s1.32,1.32,3.17,4.62l19.29,35.02h-19.03Z"/>
  </g>
</svg>