<?xml version="1.0" encoding="UTF-8"?>
<svg id="Layer_1" data-name="Layer 1" xmlns="http://www.w3.org/2000/svg" viewBox="0 0 500 500">
  <defs>
    <style>
      .cls-1 {
        fill: #112148;
      }

      .cls-2 {
        fill: #3b9bbc;
      }
    </style>
  </defs>
  <path class="cls-1" d="M246.61,425.45h-4.39c-46.84,0-93.68,0-140.52,0-16.75,0-27.05-10.29-27.05-27.01,0-98.9.15-197.79-.16-296.69-.05-15.49,11.89-27.31,27.18-27.19,52.05.43,104.11.23,156.17.05,4.15-.01,4.83,1.23,4.77,4.97-.22,14.09-.09,28.18-.09,42.27,0,17.72,10.23,28.02,27.84,28.03,14.61,0,29.23.06,43.84-.06,2.63-.02,3.56.52,3.55,3.38-.13,20.48-.1,40.97-.02,61.45,0,2.24-.81,4-1.86,5.82-26.46,45.8-52.76,91.7-79.42,137.38-12.08,20.7-16.01,42.38-10.23,65.73.12.5.21,1,.38,1.87ZM191.62,346.08c0-2.77.03-5.2,0-7.63-.05-2.79-1.43-4.62-4.06-5.58-3.41-1.25-5.77.12-7.65,2.89-4.25,6.27-8.61,12.45-14.55,17.29-2.56,2.09-5.26,4.03-9.39,4.23,10.61-11.73,18.36-24.61,24-38.75,2.63-6.58,4.32-13.36,2.84-20.58-1.53-7.46-6.35-10.9-13.78-9.7-5.3.85-9.52,3.71-12.87,7.59-14.66,17.01-21,36.8-19.09,59.18.15,1.75.03,2.97-1.59,3.94-2.68,1.6-5.36,3.22-7.88,5.06-2.58,1.88-3.67,4.51-2.13,7.53,1.53,3,3.98,4.32,7.45,3.26,1.78-.54,3.47-1.28,4.85-2.44,3.94-3.33,7.97-5.69,13.18-2.62.61.36,1.53.18,2.31.24,9.09.76,15.95-3.74,22.34-9.43,1.08-.97,1.86-2.46,3.82-2.67,0,1.12.07,2.03-.01,2.92-.3,3.33.68,5.99,4.01,7.21,3.09,1.14,5.48-.11,7.63-2.42,6.22-6.68,12.57-13.24,18.81-19.9,3.34-3.56,3.4-6.75.36-9.51-2.8-2.53-6.06-2.17-9.27.96-2.93,2.86-5.92,5.67-9.32,8.93ZM206,189.05c24.13,0,48.27,0,72.4,0,1.17,0,2.36.09,3.52-.05,3.32-.41,5.23-2.47,5.46-5.67.22-3.17-1.25-5.62-4.56-6.35-1.63-.36-3.36-.39-5.04-.39-47.75-.02-95.49-.02-143.24,0-1.68,0-3.41.04-5.04.41-3.31.76-4.76,3.21-4.53,6.38.24,3.2,2.17,5.25,5.49,5.62,1.16.13,2.35.05,3.52.05,24,0,48.01,0,72.01,0ZM205.7,232.9c24.26,0,48.53,0,72.79,0,1.17,0,2.37.1,3.52-.06,3.3-.46,5.2-2.55,5.38-5.75.18-3.17-1.35-5.58-4.66-6.3-1.51-.33-3.1-.35-4.66-.36-47.88-.02-95.75-.01-143.63,0-1.3,0-2.62-.04-3.9.14-2.32.33-4.15,1.39-5.1,3.71-1.89,4.62,1.12,8.61,6.68,8.62,24.53.03,49.05.01,73.58.02Z"/>
  <path class="cls-2" d="M311.54,386.82c-.94-.53-1.62-.9-2.3-1.29-12.62-7.31-25.2-14.68-37.89-21.86-2.41-1.37-2.56-2.37-1.21-4.71,25.78-44.49,51.49-89.01,77.12-133.59,1.55-2.7,2.7-2.91,5.33-1.35,12.32,7.3,24.74,14.42,37.2,21.48,2.24,1.27,2.8,2.17,1.35,4.67-25.87,44.6-51.62,89.27-77.41,133.91-.6,1.03-.91,2.41-2.19,2.75Z"/>
  <path class="cls-2" d="M392.38,171.74c19.03.09,31.05,18.88,22.89,36.02-2.51,5.28-5.65,10.26-8.64,15.3-1.1,1.86-1,2.89,1.04,3.92,2.9,1.47,5.68,3.18,8.44,4.91,9.02,5.64,12.06,16.27,6.84,25.51-10.12,17.92-20.49,35.69-30.82,53.49-2.39,4.11-5.67,5.12-9.11,3.13-3.39-1.96-4.11-5.41-1.77-9.48,9.73-16.94,19.51-33.84,29.27-50.76,3.78-6.55,3.2-8.68-3.42-12.51-16.23-9.39-32.45-18.81-48.74-28.11-2.26-1.29-2.84-2.21-1.34-4.67,4.68-7.67,8.99-15.56,13.56-23.3,4.89-8.3,11.81-13.4,21.81-13.44Z"/>
  <path class="cls-2" d="M275.08,79.23c19.45,19.44,38.65,38.63,57.9,57.87-.61.65-1.71.2-2.66.2-13.94.04-27.88.04-41.82.02-8.28-.01-13.39-5.1-13.41-13.36-.03-14.85,0-29.7,0-44.73Z"/>
  <path class="cls-2" d="M255.97,405.17c0-12.15,1.87-21,5.3-29.57.87-2.18,1.63-2.64,3.87-1.31,12.55,7.43,25.18,14.73,37.87,21.91,2.32,1.31,2.16,2.24.73,4.06-9.56,12.19-21.74,20.46-36.62,24.72-4.71,1.35-7.86-.52-9.08-5.32-1.45-5.71-2.02-11.54-2.06-14.5Z"/>
  <path class="cls-1" d="M149.37,346c-.67-12.71,8.55-40.43,21.48-44.97-.91,17.86-11.11,30.95-21.48,44.97Z"/>
</svg>