<?xml version="1.0" encoding="UTF-8"?>
<svg id="Layer_1" data-name="Layer 1" xmlns="http://www.w3.org/2000/svg" viewBox="0 0 500 500">
  <defs>
    <style>
      .cls-1 {
        fill: #112148;
      }

      .cls-2 {
        fill: #3b9bbc;
      }
    </style>
  </defs>
  <path class="cls-1" d="M284.95,166.34c-2.24-10.35-5.06-19.67-9.35-28.47-.74-1.52.18-2.25.87-3.17,4.52-6.01,8.97-12.08,13.61-18,3.89-4.97,8.93-6.31,15.12-4.45.96.29,1.87,1.06,3.31.57-4.61-9.8-11.4-17.55-20.3-23.44-21.66-14.34-50.27-12.36-69.95,4.64-2.15,1.86-2.66,2.59.45,4.15,31.2,15.66,49.48,40.95,54.42,75.41,7.04,49.08-28.11,97.53-76.84,106.64-5.42,1.01-10.87,1.91-16.38,1.75-2.96-.09-4.11,1.17-5.06,3.81-14.41,39.82-28.95,79.6-43.39,119.42-.87,2.4-2.12,4.07-4.39,5.37-12.58,7.19-25.1,14.48-37.57,21.86-2.31,1.36-3.22,1.25-4.18-1.48-4.91-14.04-10.01-28.01-15.14-41.97-.66-1.79-.57-3.3.07-5,2.07-5.52,4.16-11.04,6.05-16.62.66-1.96,1.72-3.14,3.59-3.95,3.93-1.71,7.75-3.69,11.69-5.39,1.78-.77,2.09-1.6,1.21-3.33-1.94-3.83-3.59-7.79-5.55-11.61-1.02-1.98-.8-3.02,1.36-3.91,3.47-1.43,6.74-3.35,10.25-4.67,3.04-1.14,3.94-2.37,2.12-5.44-1.91-3.22-3.14-6.82-4.9-10.13-1.2-2.25-.62-3.21,1.62-4.14,3.84-1.58,7.5-3.6,11.32-5.23,1.95-.83,2.37-1.82,1.24-3.57-.29-.45-.39-1.02-.7-1.45-6-8.33-5.94-16.79-1.3-25.81,2.43-4.73,3.55-10.11,5.69-15.02,1.27-2.92.48-4.45-1.71-6.44-16.67-15.12-27.07-33.78-30.82-56.03-7.98-47.3,19.89-93.24,65.52-107.97,16.99-5.49,34.24-6.32,51.63-2.21,2.68.63,4.12.01,5.89-1.82,14.21-14.75,31.6-22.48,52.08-22.56,30.56-.12,58.2,20.17,67.45,49.39.94,2.96,2.51,4.27,5.2,5.29,28.95,10.95,57.85,22.07,86.83,32.95,3.2,1.2,3.74,2.39,2.44,5.42-2.33,5.41-4.43,10.94-6.33,16.52-1.02,3.02-2.06,3.76-5.35,2.49-32.63-12.6-65.37-24.92-98-37.51-2.96-1.14-4.36-.75-6.17,1.76-5.56,7.69-11.43,15.16-17.63,23.32ZM194.73,156.15c8.69-.04,16.03-5.68,18.34-14.09,2.29-8.33-1.28-17.2-8.51-21.57-2.21-1.34-3.42-1.53-4.11,1.52-.83,3.66-1.52,7.32-2.13,11.02-.61,3.7-3.6,5.9-7.16,5.52-3.42-.37-5.59-2.9-5.67-6.61-.06-2.98.69-5.83,1.32-8.71.24-1.11,1.15-2.56-.07-3.29-1.11-.66-2.19.6-3.16,1.25-6.98,4.7-10,13.52-7.42,21.6,2.58,8.07,9.97,13.39,18.56,13.35Z"/>
  <path class="cls-2" d="M258.68,258.85c-.17-.72.89-1.5,1.65-2.4,14.95-17.62,23.92-37.99,25.54-60.93.6-8.48,3.75-14.61,8.73-20.71,4.59-5.61,8.87-11.47,13.16-17.32,1.21-1.65,2.22-2.16,4.26-1.38,28.51,10.95,57.05,21.84,85.6,32.66,1.89.72,2.67,1.9,3.18,3.7,9.67,33.88,19.34,67.76,29.14,101.6.76,2.63.24,3.38-2.32,4.08-12.4,3.39-24.77,6.91-37.07,10.63-2.93.89-3.61-.01-4.34-2.61-7.53-26.55-15.24-53.04-22.73-79.6-.85-3.03-1.82-3.7-4.88-2.8-18.23,5.42-36.5,10.71-54.81,15.83-2.87.8-3.16,1.76-2.38,4.45,7.72,26.63,15.23,53.33,23,79.95.82,2.82.24,3.77-2.36,4.5-12.38,3.46-24.74,6.99-37.08,10.58-2.03.59-3.3.81-4.05-1.84-7.18-25.39-14.49-50.75-21.75-76.12-.15-.51-.23-1.05-.5-2.29Z"/>
</svg>