<?xml version="1.0" encoding="UTF-8"?>
<svg id="Layer_1" data-name="Layer 1" xmlns="http://www.w3.org/2000/svg" viewBox="0 0 500 500">
  <defs>
    <style>
      .cls-1 {
        fill: #112148;
      }

      .cls-2 {
        fill: #3b9bbc;
      }
    </style>
  </defs>
  <path class="cls-1" d="M259.5,333.99q-12.79,7.99-23.61-2.82c-23.55-23.55-47.11-47.11-70.66-70.66-7.88-7.88-7.91-8.79-.6-17.23.5-.57.9-1.23,1.89-2.6-14.97-2.16-29.3-4.24-43.64-6.31-1.39-.2-2.78-.37-4.16-.6-2.91-.49-5.35-1.56-6.36-4.7-1.03-3.2.57-5.34,2.64-7.41,9.12-9.14,19.3-16.9,30.39-23.47,23.52-13.93,48.87-21.82,76.25-22.78,2.89-.1,4.79-1.15,6.7-3.16,36.53-38.56,80.83-63.06,133.02-73.13,11.04-2.13,22.19-3.33,33.46-3.2,7.29.09,9.33,2,9.31,9.23-.09,39.05-11.71,74.87-30.63,108.59-12.06,21.48-27.02,40.76-45.16,57.47-2.58,2.38-3.53,4.82-3.72,8.29-2.22,40.18-17.2,74.92-44.84,104.2-2.65,2.81-5.45,4.94-9.45,3.45-3.88-1.44-4.05-5.16-4.53-8.51-2.13-14.8-4.19-29.61-6.3-44.63ZM347.85,184.34c.11-18.04-13.71-32.06-31.69-32.16-17.82-.09-32.25,14.05-32.36,31.7-.11,17.49,14.41,32.22,31.9,32.37,17.64.15,32.05-14.16,32.16-31.91Z"/>
  <path class="cls-2" d="M154.86,301.62c22.33-.1,37.54,11.46,42.34,29.24,4.72,17.5-2.38,35.2-18.36,44.15-23.33,13.07-48.85,20.68-74.17,28.71-5.5,1.74-10.14-2.57-8.44-7.94,8.2-25.88,15.89-52.01,29.53-75.75,7.2-12.53,18.73-18.04,29.1-18.42Z"/>
</svg>