<?xml version="1.0" encoding="UTF-8"?>
<svg id="Layer_1" data-name="Layer 1" xmlns="http://www.w3.org/2000/svg" viewBox="0 0 500 500">
  <defs>
    <style>
      .cls-1 {
        fill: #112148;
      }

      .cls-2 {
        fill: #3b9bbc;
      }
    </style>
  </defs>
  <path class="cls-2" d="M389.15,279.62c-.62,2.24-.4,4.57-.61,6.85-.45,4.92-1.06,9.82-1.85,14.7-.85,5.24-5.84,8.8-10.93,7.91-5.66-.99-8.92-5.86-7.93-11.7,2.09-12.24,2.62-24.56,1.7-36.95-2.44-32.78-14.18-61.89-34.82-87.37-17.65-21.79-39.79-37.53-66.04-47.35-7.13-2.66-9.3-11.63-3.37-16.61,2.89-2.43,6.22-2.83,9.71-1.55,8.91,3.26,17.52,7.2,25.7,12.01,43.99,25.86,71.92,63.67,83.98,113.22,2.36,9.68,3.67,19.51,4.16,29.46.03.62.2,1.23.3,1.85v15.54Z"/>
  <path class="cls-1" d="M181.63,77.63c6.45,1.43,10.34,5.91,13.19,11.42,11,21.28,20.65,43.13,27.35,66.19,1.08,3.72,1.85,7.51,1.09,11.39-.65,3.29-2.73,5.61-5.47,7.42-4.82,3.18-10.3,4.71-15.73,6.35-1.54.47-3.11.82-4.62,1.35-1.11.39-1.58.12-2.04-.98-5.07-12.06-10.19-24.09-15.3-36.13-7.81-18.43-15.62-36.86-23.43-55.29-.27-.64-.85-1.22.08-1.91,5.52-4.09,11.26-7.74,18.07-9.33.65-.15,1.41.06,1.97-.49h4.83Z"/>
  <path class="cls-1" d="M366.74,391.27c-.06,5.76-2.91,9.77-6.73,13.21-4.36,3.93-9.51,6.57-14.86,8.88-.97.42-1.34-.03-1.82-.66-10.54-14-21.08-28-31.63-41.99-9.37-12.43-18.74-24.87-28.15-37.28-.71-.94-.88-1.49.09-2.39,4.17-3.86,8.11-7.99,12.77-11.31,2.49-1.77,5.12-3.33,8.2-3.82,4.12-.67,7.53.99,10.6,3.54,5.47,4.55,9.9,10.09,14.55,15.41,11.41,13.05,21.26,27.26,30.89,41.64,2.62,3.92,5.05,7.96,5.86,12.72.13.79.19,1.59.24,2.07Z"/>
  <path class="cls-2" d="M351.29,271.64c-.02,6.73-.29,13.45-1.5,20.09-.93,5.11-5.97,8.45-11.06,7.51-5.08-.94-8.46-5.86-7.75-10.94,1.3-9.31,1.51-18.65.58-28.03-1.58-15.85-6.08-30.8-13.73-44.75-13.53-24.69-33.34-42.45-59.35-53.25-3.73-1.55-6.1-4.17-6.38-8.22-.52-7.52,6.39-12.46,13.42-9.62,9.03,3.64,17.61,8.14,25.6,13.7,30.31,21.1,49.39,49.73,57.31,85.79,2.01,9.12,2.88,18.38,2.85,27.71Z"/>
  <path class="cls-2" d="M313.54,271.95c-.11,3.39-.05,6.8-.72,10.13-.99,4.94-5.93,8.06-11.12,7.18-4.62-.78-8.1-5.45-7.71-10.16,1.69-20.6-3.63-39.23-15.96-55.81-7.98-10.72-18.18-18.77-30.25-24.47-4.45-2.1-6.54-6.64-5.32-11.3,1.12-4.28,5.24-7.21,9.88-7,1.58.07,3.02.64,4.41,1.34,30.08,15.15,48.48,39.23,55.12,72.26,1.18,5.88,1.56,11.84,1.68,17.82Z"/>
  <path class="cls-1" d="M119.33,224.65c8.26,25.92,19.95,50.3,33.16,74,11.51,20.66,24.27,40.51,38.73,59.24,11.27,14.61,23.5,28.34,37.98,39.9,14.38,11.48,30.22,19.97,48.44,23.55,1.52.3,3.04.59,4.57.82,0,0,.01,0,.02,0,1.01.15,2.04.21,3.06.21h12.52c12.5,0,24.95-1.7,36.92-5.29.08-.02.15-.05.23-.07,1.28-.38,1.69-.65.69-1.97-19.24-25.44-38.44-50.92-57.62-76.41-.68-.9-1.05-1.17-2.07-.28-2.96,2.56-6.27,4.45-10.36,4.46-3.91,0-7.1-1.77-9.93-4.21-6.91-5.96-12.93-12.77-18.64-19.85-15.36-19.03-28.11-39.75-39.23-61.49-8.4-16.42-15.58-33.34-20.13-51.28-.92-3.63-1.65-7.32-.79-11.07,1.25-5.46,5.26-8.31,10.15-10.1,1.44-.53,1.48-.93.93-2.23-10.11-23.74-20.16-47.5-30.22-71.26-2.54-6-5.1-11.99-7.7-18.09-.38.3-.66.49-.91.71-8.99,8.16-16.91,17.23-23.29,27.59-7.44,12.08-12.23,25.12-14,39.23-.33,2.6-.62,5.21-.93,7.82-.02,4.45-.04,8.86-.06,13.31.33,2.96.65,5.92.98,8.88,1.27,11.56,3.98,22.81,7.5,33.86Z"/>
</svg>