<?xml version="1.0" encoding="UTF-8"?>
<svg id="Layer_1" data-name="Layer 1" xmlns="http://www.w3.org/2000/svg" viewBox="0 0 500 500">
  <defs>
    <style>
      .cls-1 {
        fill: #112148;
      }

      .cls-2 {
        fill: #3b9bbc;
      }
    </style>
  </defs>
  <path class="cls-1" d="M187.67,209.51c-32.44,43.17-18.55,94.04,17.06,119.39-6.41,4.63-13.18,8.8-19.1,13.93-23.13,20.04-34.57,45.7-35.02,76.18-.15,10.04-1.09,20.16,1.06,30.13.79,3.7-.82,4.46-4.14,4.45-29.43-.08-58.85.04-88.28-.12-7.74-.04-12.37-4.71-12.38-12.51-.09-51.7-2.3-103.52.55-155.06,4.12-74.53,84.85-109.28,140.26-76.39Z"/>
  <path class="cls-1" d="M295.54,329.04c6.5-5.37,12.66-10.25,17.61-16.48,23-28.92,24.59-67.25,3.29-97.35-3.69-5.21-2.79-6.84,2.4-9.29,61.97-29.26,134.9,16.62,135.12,85.25.16,49.03.05,98.07.02,147.1,0,11.23-4.04,15.23-15.32,15.25-27.57.03-55.13-.16-82.7.14-5.97.06-7.18-1.1-6.55-7.38,3.88-38.71-1.77-74.58-32.72-102.3-6.31-5.65-13.52-10-21.16-14.95Z"/>
  <path class="cls-2" d="M250.48,453.54c-20.12,0-40.24.02-60.36,0-11.47-.02-15.7-4.21-15.75-15.82-.05-14.52-.68-29.07,4.08-43.2,11-32.67,44.03-55.09,77.01-52,37.3,3.49,65.36,30.27,70.06,66.48,1.3,10.05.89,20.09.84,30.13-.05,10.04-4.66,14.37-14.72,14.4-20.39.06-40.77.02-61.16.02Z"/>
  <path class="cls-1" d="M142.15,46.33c34.54.09,63.02,28.56,63.23,63.22.21,34.64-28.89,63.87-63.6,63.87-34.97,0-63.37-28.62-63.31-63.81.06-35.24,28.37-63.37,63.67-63.28Z"/>
  <path class="cls-1" d="M422.31,110.28c-.12,34.68-28.53,63.07-63.19,63.14-34.68.07-63.82-29.08-63.72-63.76.1-34.94,28.82-63.4,63.92-63.34,35.06.06,63.12,28.55,63,63.95Z"/>
  <path class="cls-2" d="M250.7,318.46c-31.61.09-57.36-25.25-57.5-56.59-.14-31.3,25.43-57.14,56.88-57.47,31.1-.32,57.35,25.63,57.5,56.84.15,31.42-25.41,57.13-56.88,57.22Z"/>
</svg>