<?xml version="1.0" encoding="UTF-8"?>
<svg id="Layer_1" data-name="Layer 1" xmlns="http://www.w3.org/2000/svg" viewBox="0 0 500 500">
  <defs>
    <style>
      .cls-1 {
        fill: #112148;
      }

      .cls-2 {
        fill: #3b9bbc;
      }
    </style>
  </defs>
  <path class="cls-1" d="M249.09,366.4c-59.96-.08-108.85-49.24-108.74-109.35.1-60.89,48.96-109.73,109.65-109.62,60.03.11,108.77,49.42,108.62,109.9-.15,60.14-49.37,109.16-109.52,109.07ZM237.48,226.19c0,10.74-.04,21.48.01,32.22.04,7.99,4.79,12.98,12.68,13.04,15.08.11,30.17.1,45.25,0,7.32-.05,12.6-5.27,12.55-12.02-.05-6.89-5.18-11.62-12.76-11.65-10.1-.04-20.2-.11-30.29.06-2.81.05-3.55-.75-3.53-3.55.13-16.49.08-32.97.06-49.46-.01-8-5.17-13.77-12.18-13.71-6.96.06-11.77,5.59-11.79,13.6-.02,10.49,0,20.98,0,31.47Z"/>
  <path class="cls-2" d="M380.35,258.07c-.03-60.99-42.72-113.95-101.63-127.21-.97-.22-1.93-.51-2.91-.68-1.96-.35-4.06-1.22-5.86-.8-2.41.56-1.14,3.35-1.77,5.08-2.97,8.16-13.78,10.83-19.87,4.64-5.7-5.79-10.83-12.1-15.56-18.7-4.2-5.85-3.24-11.99,2.21-16.56,5.07-4.25,10.04-8.62,15.11-12.86,4.8-4.01,9.6-4.69,14.14-2.16,4.7,2.62,6.71,7.12,5.63,13.37-.44,2.54,1.19,2.28,2.6,2.51,20.79,3.37,40.22,10.5,57.99,21.77,38.59,24.46,62.79,59.1,70.68,104.25,12.58,72-27.95,155.81-112.72,177.24-85.17,21.53-171.05-32.35-188.68-118.83-14.21-69.71,21.38-140.56,85.66-170.62,3.86-1.81,7.76-2.9,11.86-1.18,4.6,1.92,6.95,5.67,7.11,10.54.17,4.99-1.82,8.82-6.64,11.12-28.1,13.4-49.3,34.02-63.38,61.82-38.19,75.41,7.08,168.16,89.98,184.53,71.37,14.1,140.34-32.44,153.76-103.79,1.53-8.12,2.09-16.34,2.26-23.45Z"/>
</svg>