<?xml version="1.0" encoding="UTF-8"?>
<svg id="Layer_1" data-name="Layer 1" xmlns="http://www.w3.org/2000/svg" viewBox="0 0 500 500">
  <defs>
    <style>
      .cls-1 {
        fill: #112148;
      }

      .cls-2 {
        fill: #3b9bbc;
      }
    </style>
  </defs>
  <path class="cls-1" d="M109.31,42.63c1.04.83,8.83,18.98,12,23.72,5.76,8.61,26.4,40.74,32.2,44.87,7.17,5.11,56.06,21.98,65.59,22.9,47.56,4.59,88.22-2.43,130.87-22.82l40.61-62.91c1.17-3.36,8.97-3.83,9.92-2.9,3.29,3.25-18.93,82.36-23.24,89.48-9.26,15.28-65.35,46.07-68.6,54.36-10.78,73.51-1.82,147.78.48,221.52l-58.49-119.92-58.49,119.9c2.03-26.97,1.42-54.33,2.85-81.31,1.67-31.36,6.95-62.66,5.65-94.2-.34-8.28-3.33-42.47-5.8-47.71-3.85-8.17-61.73-41.59-71.4-52.79-3.22-21.81-23.88-65.29-22.52-85.31.32-4.7,5.44-9.21,8.36-6.89Z"/>
  <path class="cls-1" d="M239.82,48.94c55.57-12.84,65.73,66.21,15.77,73.04-47.16,6.44-53.81-64.26-15.77-73.04Z"/>
  <path class="cls-2" d="M92.61,370.54c-12.74-20.61,44.35-23.25,55.24-22.43,49.02,3.68,53.06,30.01,2.87,34.16-9.89.82-53.62-4.44-58.12-11.72Z"/>
  <path class="cls-2" d="M315.37,327.6c-10.1-16.78,21.35-21.32,32.38-22.32,15.23-1.38,44.21-.64,56.68,8.86,20.16,15.36-29.01,25.18-39.77,25.44-7.95.19-46.13-6.72-49.29-11.98Z"/>
  <path class="cls-2" d="M294.42,416.13c-.55.89-16.55,6.96-19.38,7.71-16.98,4.44-46.33,4.71-62.06-3.86-23.34-12.72-1.74-23.87,15.07-26,12.38-1.58,82.34-3.82,66.37,22.16Z"/>
  <path class="cls-2" d="M186.4,422.28c7.45,21.24-33.11,25.36-47.39,25.38-15.04.03-54.15-3.78-46.78-25.39,31.29,11.81,62.97,11.77,94.16,0Z"/>
  <path class="cls-2" d="M405.51,373.05c-11.82,11.82-80.99,11.88-89.25-2.11-11.62-19.69,16.08-6.63,25.76-5.78,17.59,1.55,36.37.42,53.45-3.58,5.96-1.4,12.6-9.36,13.47,2.01.17,2.18-1.79,7.82-3.43,9.46Z"/>
  <path class="cls-2" d="M183.52,402.27c9.82,17.04-19.81,21.72-32.83,22.8-17.5,1.45-64.4.31-58.45-25.64,27.91,13.85,61.99,11.32,91.27,2.84Z"/>
  <path class="cls-2" d="M406.19,422.27c-.76,4.39,1.58,13.77-.34,16.75-1.42,2.21-38.86,9-44.01,9.03-13.9.1-54.67-5.22-46.95-25.77,29.01,11.26,62.65,12.85,91.3-.01Z"/>
  <path class="cls-2" d="M186.4,379.46c5.74,28.48-48.53,24.71-66.75,22.51-13.44-1.63-32.97-5.71-27.42-22.5,31.79,10.81,62.6,12.34,94.17,0Z"/>
  <path class="cls-2" d="M294.88,425.14c5.74,18.02-15.99,20.91-30.32,22.47-9.51,1.03-58.85-.36-61.14-10.09-1-4.23.78-10.52.16-15.24,29.36,16.07,60.45,12.08,91.3,2.87Z"/>
  <path class="cls-2" d="M405.73,416.09c-7.42,12.26-81.47,11.22-89.47-2.34-1.44-2.44-2.27-10.48-1.37-11.45,1.54-1.65,36.49,8.45,44.24,8.53,13.73.15,34.91-4.63,47.06-11.4-.72,4.6,1.63,13.19-.46,16.65Z"/>
  <path class="cls-2" d="M294.86,445.11c2.81,16.24-5.62,18.76-19.25,22.12-18.5,4.56-78.09,7.45-72.04-22.12,27.76,12.93,63.08,11.94,91.29,0Z"/>
  <path class="cls-2" d="M186.41,445.12c4.64,17.58-25.4,21.77-38.56,22.76-17.96,1.35-61.35.15-55.6-25.63,30.68,17.23,61.91,10.57,94.16,2.87Z"/>
  <path class="cls-2" d="M409.06,336.65c.93,27.11-48.09,24.77-66.75,22.5-13.44-1.63-32.97-5.7-27.42-22.51,31.72,11.7,62.37,11.09,94.17,0Z"/>
  <path class="cls-2" d="M315.37,393.25c-1.87-3.12.07-9.78-.48-13.78,20.19,7.94,42.24,10.7,63.9,8.25,7.68-.87,15.53-4.99,22.5-6.13,3.55-.58,3.67-3.79,7.79,2.21-.74,28.91-87.97,19.04-93.72,9.45Z"/>
  <path class="cls-2" d="M406.2,445.12c-.59,3.89,1.39,11.01-.39,13.85-1.48,2.37-30.14,8.56-35.31,8.91-12.51.86-52.87-1.91-55.66-15.62-.33-1.63-.2-6.88.05-7.14,1.63-1.76,37.74,8.8,47.08,8.8,15.33,0,29.38-6.76,44.23-8.8Z"/>
</svg>