<?xml version="1.0" encoding="UTF-8"?>
<svg id="Layer_1" data-name="Layer 1" xmlns="http://www.w3.org/2000/svg" viewBox="0 0 500 500">
  <defs>
    <style>
      .cls-1 {
        fill: #112148;
      }

      .cls-2 {
        fill: #3b9bbc;
      }
    </style>
  </defs>
  <path class="cls-1" d="M350.97,324.97c0,12.87.13,25.75-.09,38.61-.06,3.51,1.11,5.87,3.52,8.27,18.56,18.4,36.94,36.99,55.57,55.33,2.89,2.85,2.21,4-.59,6.07-50.45,37.29-122.7,8.84-134.05-52.85-8.59-46.68,22.62-91.44,69.33-99.13,7.53-1.24,6.23-1.76,6.27,5.09.08,12.87.02,25.74.02,38.61Z"/>
  <path class="cls-2" d="M219.57,269.4c0,32.51,0,65.01,0,97.52,0,6.18-.97,7.15-7.11,7.15-13.67,0-27.33.01-41,0-5.03,0-6.16-1.08-6.17-6.02-.02-65.81-.02-131.61,0-197.42,0-4.86,1.05-5.89,5.82-5.89,14.06-.02,28.13-.02,42.19,0,5.1,0,6.26,1.17,6.26,6.36.01,32.77,0,65.54,0,98.31Z"/>
  <path class="cls-2" d="M81.95,302.86c0-21.36,0-42.72,0-64.08,0-5.75,1.02-6.82,6.62-6.83,13.8-.02,27.6-.02,41.39,0,5.25,0,6.27,1.02,6.27,6.32.01,43.12.01,86.24,0,129.36,0,5.48-1,6.43-6.56,6.44-13.8.01-27.6.01-41.39,0-5.09,0-6.33-1.24-6.34-6.33-.01-21.63,0-43.25,0-64.88Z"/>
  <path class="cls-2" d="M386.01,200.93c0,20.97-.06,41.95.06,62.92.02,3.27-.71,4.06-4.02,3.25-15.46-3.8-30.99-3.88-46.45,0-3.33.84-4.04-.07-4.03-3.3.08-41.68.04-83.37.07-125.05,0-7.45,2.68-10.12,10.04-10.14,11.42-.03,22.83-.04,34.25,0,7.26.02,10.06,2.86,10.06,10.18.02,20.71,0,41.42,0,62.13Z"/>
  <path class="cls-2" d="M248.4,285.43c0-26,0-52,0-78,0-7.38,2.7-10.1,10.04-10.11,11.67-.02,23.35-.03,35.02,0,6.24.02,9.12,2.75,9.14,8.89.06,24.14,0,48.29.08,72.43,0,2.15-.84,3.31-2.48,4.5-23.58,17.24-37.33,40.43-41.35,69.29-.86,6.14-1.45,12.42-.51,18.65.49,3.21-1.15,3.29-3.45,2.75-4.29-1.01-6.49-4.22-6.49-9.61-.01-25.47,0-50.94,0-76.41,0-.8,0-1.59,0-2.39Z"/>
  <path class="cls-1" d="M342.89,67.13c-4.79-.48-8.57-.86-12.36-1.24-4.73-.48-8-4.07-7.7-8.44.3-4.31,3.72-7.71,8.26-7.37,11.5.86,22.99,1.91,34.44,3.2,4.74.54,7.43,5.2,6.05,10.28-2.93,10.72-6.05,21.39-9.29,32.02-1.46,4.78-5.59,6.92-9.86,5.58-4.44-1.39-6.51-5.19-5.39-10,.54-2.29,1.19-4.56,1.8-6.9-1.53-.46-2.06.69-2.77,1.27-24.27,19.77-48.53,39.56-72.77,59.36-6.14,5.02-7.71,5.2-14.59,1.52-25-13.36-50.04-26.65-74.96-40.18-3.03-1.64-4.8-1.19-7.25.79-20.44,16.49-40.97,32.87-61.48,49.28-.72.58-1.44,1.17-2.19,1.72-4.13,3.07-8.82,2.75-11.72-.79-2.94-3.59-2.39-8.23,1.65-11.55,7.17-5.9,14.46-11.66,21.71-17.46,15.74-12.59,31.6-25.05,47.18-37.85,4.7-3.86,8.76-4.17,14.04-1.29,25.01,13.61,50.19,26.9,75.22,40.48,2.82,1.53,4.51,1.19,6.86-.74,24.18-19.89,48.45-39.65,72.69-59.46.6-.49,1.14-1.05,2.41-2.22Z"/>
  <path class="cls-1" d="M404.93,357.2c-11.54,0-23.08-.07-34.62.05-2.69.03-3.71-.71-3.7-3.56.09-23.35.07-46.7.02-70.05,0-2.32.41-3.14,3.13-2.86,34.27,3.54,65.25,32.02,72.07,66.46q1.97,9.95-8.25,9.95c-9.55,0-19.1,0-28.66,0Z"/>
  <path class="cls-2" d="M378.37,372.79h12.49c15.9,0,31.8.11,47.7-.08,3.79-.05,4.95.56,4.27,4.74-2.35,14.56-7.9,27.62-16.8,39.34-1.27,1.67-2.02,2.31-3.84.47-14.17-14.31-28.44-28.52-42.68-42.76-.27-.27-.43-.63-1.15-1.7Z"/>
</svg>