<?xml version="1.0" encoding="UTF-8"?>
<svg id="Layer_1" data-name="Layer 1" xmlns="http://www.w3.org/2000/svg" viewBox="0 0 500 500">
  <defs>
    <style>
      .cls-1 {
        fill: #112148;
      }

      .cls-2 {
        fill: #3b9bbc;
      }
    </style>
  </defs>
  <path class="cls-1" d="M249.98,346.23c-53.17-.95-99.18-19.31-137.38-56.65-5.9-5.76-11.81-11.52-17.47-17.52-10.99-11.64-12.31-30-1.89-41.82,26.66-30.23,57.31-55.35,96.74-66.89,74.26-21.74,140.11-6.3,196.87,46.6,6.21,5.78,12.17,11.84,18,18.01,11,11.65,12.32,29.98,1.9,41.82-27.83,31.61-60.21,56.8-101.56,68.51-18.03,5.1-36.38,8.06-55.22,7.94ZM316.97,250.35c.12-36.64-29.73-67.01-66.13-67.28-37.01-.28-67.56,29.57-67.81,66.27-.25,37.04,29.64,67.47,66.46,67.65,37,.18,67.36-29.79,67.48-66.63Z"/>
  <path class="cls-2" d="M179.68,142.27c-3.04-.07-5.78-1.77-7.45-5.09-3.8-7.56-7.61-15.12-11.32-22.72-2.41-4.94-1.19-9.09,3.58-11.71,4.91-2.7,9.11-1.04,11.64,3.65,4.24,7.87,8.38,15.83,11.97,24.01,2.49,5.68-1.77,11.67-8.43,11.87Z"/>
  <path class="cls-2" d="M320.78,142.25c-6.54.02-11.4-5.66-9.19-10.89,3.75-8.89,8.17-17.54,12.91-25.95,2.21-3.93,6.42-5.11,10.77-2.81,4.49,2.37,6.3,6.29,4.18,10.93-3.82,8.35-8.05,16.51-12.31,24.66-1.43,2.74-4.12,3.97-6.35,4.06Z"/>
  <path class="cls-2" d="M188.89,366.74c-.27.93-.49,2.39-1.1,3.66-3.7,7.61-7.38,15.24-11.29,22.74-2.43,4.66-6.39,6.84-11.45,4.44-5.22-2.47-6.67-6.81-4.1-12.09,3.69-7.61,7.47-15.19,11.36-22.7,2.15-4.15,5.74-5.96,10.29-4.61,3.81,1.13,5.91,4.01,6.3,8.56Z"/>
  <path class="cls-2" d="M320.66,357.79c2.68.2,5.34,1.66,6.89,4.73,3.93,7.76,7.91,15.51,11.66,23.36,2.38,4.98.83,9.09-3.99,11.57-4.63,2.38-8.76.92-11.14-3.46-4.39-8.06-8.65-16.24-12.3-24.65-2.44-5.62,2.2-11.61,8.88-11.55Z"/>
  <path class="cls-2" d="M258.66,110.2c0,4.1.3,8.22-.07,12.28-.46,4.95-3.47,8.01-8.52,8.04-5.04.03-8.37-2.97-8.62-7.91-.41-8.17-.38-16.39-.02-24.56.22-4.97,3.48-7.97,8.51-8.03,5.07-.06,8.13,2.98,8.64,7.9.42,4.05.09,8.18.09,12.28Z"/>
  <path class="cls-2" d="M258.7,389.87c0,3.85.2,7.72-.05,11.56-.36,5.32-3.37,8.63-8.77,8.54-5.37-.09-8.39-3.45-8.53-8.79-.2-7.7-.24-15.42.03-23.12.19-5.35,3.38-8.6,8.75-8.54,5.41.06,8.27,3.47,8.54,8.79.2,3.84.04,7.71.03,11.56Z"/>
  <path class="cls-1" d="M240.36,202.3c16.38-6.07,39.5,3.18,50.87,20.35,12.68,19.15,10.62,44.07-5.04,60.94-15.8,17.02-40.87,20.71-61.04,8.99-18.36-10.67-28.57-33.58-22.9-52.5,13.24,9.3,26.42,10.43,38.2-1.91,9.03-9.45,8.67-19.67-.09-35.87Z"/>
</svg>