<?xml version="1.0" encoding="UTF-8"?>
<svg id="Layer_1" data-name="Layer 1" xmlns="http://www.w3.org/2000/svg" viewBox="0 0 500 500">
  <defs>
    <style>
      .cls-1 {
        fill: #112148;
      }

      .cls-2 {
        fill: #3b9bbc;
      }
    </style>
  </defs>
  <path class="cls-1" d="M146.88,283.19c9.36,0,18.72.13,28.08-.06,3.83-.08,5.11,1.04,5.35,5.11,2.27,38.88,33.21,68.66,73.45,71.01,36.35,2.12,70.34-25.62,76.89-62.74.19-1.07.53-2.11.71-3.18q1.7-10.13,12.3-10.13c16.54,0,33.09.14,49.63-.09,4.52-.06,5.98,1.31,5.99,5.9.01,13.6.38,14.14-12.32,18.16-8.21,2.59-13.2,6.5-14.91,15.36-1.44,7.42-5.15,14.3-9.13,20.79-1.96,3.18-1.93,5.73-.29,8.93,2.47,4.82,4.35,9.94,6.76,14.8,1.4,2.82.81,4.64-1.38,6.76-7.2,6.95-14.32,14.01-21.24,21.24-2.35,2.45-4.47,3.2-7.32,1.3-12.09-8.05-24.13-8.88-36.18.11-.84.63-1.96,1.07-3,1.21-13.39,1.76-20.12,10.07-22.54,22.7-.93,4.84-3.7,6.4-8.73,6.13-9.12-.48-18.28-.29-27.42-.06-3.52.09-5.82-.61-6.59-4.38-2.82-13.92-10.31-23.16-25.16-25.17-2.07-.28-4.28-1.29-5.92-2.6-8.69-6.94-17.46-6.15-26.06-.24-6.96,4.78-11.81,3.04-16.91-3.17-5.09-6.19-11.15-11.61-17-17.14-2.28-2.16-2.93-4.24-1.19-6.74,8.52-12.25,9.04-24.39-.06-36.63-.99-1.34-1.57-3.18-1.79-4.86-1.51-11.65-8.76-17.24-19.62-19.77-2.86-.67-7.49-.91-8.04-4.49-.81-5.3-.48-10.85,0-16.24.23-2.55,3.12-1.76,4.94-1.78,9.58-.07,19.16-.03,28.73-.03Z"/>
  <path class="cls-1" d="M256.32,283.19c19.59,0,39.19.19,58.77-.12,5.33-.08,6.6,1.65,6.24,6.67-2.01,28.11-26.97,54.69-54.96,58.22-37.39,4.71-67.98-17.43-75.1-54.37-.29-1.49-.32-3.02-.58-4.52-.78-4.47.85-6.03,5.56-5.97,20.02.24,40.05.1,60.08.1Z"/>
  <path class="cls-1" d="M159.65,264.06c-12.18,0-24.36.04-36.54-.01-8.72-.04-10.65-2.73-7.89-10.73,6.46-18.72,25.07-31.94,44.89-31.9,19.91.04,38.34,13.23,44.78,32.04,2.66,7.78.81,10.52-7.4,10.58-12.61.08-25.23.02-37.84.02Z"/>
  <path class="cls-1" d="M399.17,204.64c0,16.98-.17,33.96.09,50.93.09,5.98-1.61,8.7-8.12,8.6-18.34-.29-16.1,1.1-16.13-16.18-.05-31.12.12-62.25-.12-93.37-.05-6.16,1.79-8.57,8.16-8.39,18.06.5,16.01-2.21,16.11,15.98.07,14.15.01,28.29.01,42.44Z"/>
  <path class="cls-2" d="M367.65,119.12c-1.65-1.64-3.23-.88-4.63-1.08-3.05-.45-4.83-2.31-4.8-5.21.03-2.92,1.91-4.99,4.92-5.07,6.52-.19,13.06-.36,19.56.03,3.99.24,5.39,3.17,4.62,7.03-1.03,5.1-2.22,10.17-3.08,15.3-.6,3.55-1.66,6.56-5.9,6.28-4.27-.28-5.05-3.47-4.71-8.42-10.25,9.29-20.01,17.45-28.92,26.46-5.3,5.35-9.85,6.11-16.59,2.86-12.48-6.02-25.43-11.09-38.12-16.7-2.89-1.28-4.93-1.1-7.55.94-14.06,10.93-28.33,21.61-42.51,32.39-3.05,2.31-6.42,4.94-9.59.9-3.1-3.95-.16-6.62,3.05-9.04,15.43-11.65,30.84-23.34,46.14-35.16,3.53-2.73,6.71-3.02,10.79-1.19,12.86,5.75,25.98,10.94,38.76,16.87,4.77,2.22,7.67,1.43,11.3-2.12,8.82-8.6,18.11-16.7,27.28-25.05Z"/>
  <path class="cls-1" d="M273.07,220.04c0-11.53.2-23.06-.08-34.58-.13-5.46,1.46-7.94,7.35-7.79,19.19.49,16.73-2.52,16.83,16.46.11,20.66-.11,41.33.11,61.99.06,5.89-2,8.11-7.97,8.03-18.49-.23-16.14,1.08-16.22-16.05-.05-9.35,0-18.71,0-28.06Z"/>
  <path class="cls-1" d="M159.78,214.84c-13.34-.09-24.15-11.08-23.84-24.23.31-13.02,10.98-23.42,24.04-23.45,13.34-.03,24.16,10.75,24.1,23.99-.07,13.35-10.76,23.77-24.3,23.69Z"/>
  <path class="cls-2" d="M324.03,228.82c0-9.36.12-18.73-.05-28.08-.09-5.02,1.96-7.04,7.01-6.93,19.12.4,17.11-2.73,17.18,16.9.06,15.24-.13,30.48.08,45.72.08,5.58-1.96,7.78-7.65,7.72-18.96-.21-16.47,1.24-16.58-16.37-.04-6.31,0-12.63,0-18.94Z"/>
  <path class="cls-2" d="M222.11,240.53c0-4.77,0-9.54,0-14.31,0-1.08-.04-2.17.03-3.25.37-6.07,5.19-5.54,8.67-4.8,5.18,1.11,13.95-4.71,15,4.71,1.33,11.99.33,24.24.25,36.38,0,1.02-.29,2.59-.96,2.97-6.27,3.52-13.1,2.03-19.58,1.24-4.7-.57-3.28-5.36-3.38-8.64-.14-4.77-.04-9.54-.04-14.31Z"/>
</svg>