<?xml version="1.0" encoding="UTF-8"?>
<svg id="Layer_1" data-name="Layer 1" xmlns="http://www.w3.org/2000/svg" viewBox="0 0 500 500">
  <defs>
    <style>
      .cls-1 {
        fill: #112148;
      }

      .cls-2 {
        fill: #3b9bbc;
      }
    </style>
  </defs>
  <rect class="cls-2" x="168.78" y="313.67" width="45.69" height="67.57"/>
  <rect class="cls-1" x="133.55" y="394.44" width="345.45" height="15.67"/>
  <rect class="cls-2" x="251.12" y="265.67" width="45.69" height="116.16"/>
  <rect class="cls-2" x="334.9" y="216.78" width="45.69" height="165.45"/>
  <rect class="cls-2" x="414.74" y="188.45" width="45.69" height="193.78"/>
  <path class="cls-1" d="M236.79,45.22c98.92-14.27,181.32,67.04,152.81,166.02-43.52,151.08-280.32,113.73-256.86-58.69,6.72-49.37,54.04-100.12,104.04-107.33ZM342.1,98.37C250.23,4.17,94.69,131.36,174.84,240.86c87.81,119.97,275.96-31.02,167.26-142.49Z"/>
  <path class="cls-1" d="M143.9,259.27c3.59-.64,27.57,25.85,27.58,27.84,0,2.09-11.58,8.69-12.4,13.58-.8,4.78,5.2,11.88,1,17.69l-91.19,90.64c-31.92,15.78-65.19-15.17-44.17-47.46,6.32-9.7,68.38-73.74,79.04-82.75,13.45-11.36,20.5-4.61,27.94-8.12,4.31-2.04,8.28-10.72,12.2-11.42Z"/>
  <path class="cls-2" d="M468.11,113.22l-17.22,55.78-16-17.43-32.56,28.2s-.19-20.16,0-21.21l22.67-20-16.89-16.44,60-8.89Z"/>
  <path class="cls-1" d="M279.72,87.08c-54.97-6.71-105.99,29.7-104.9,89.39h16.55c-4.88-40.35,29.83-73.02,68.16-75.76,4.9-.35,9.59.5,13.91,1.62,2.31-5.01,4.46-9.96,6.29-15.25Z"/>
</svg>