<?xml version="1.0" encoding="UTF-8"?>
<svg id="Layer_1" data-name="Layer 1" xmlns="http://www.w3.org/2000/svg" viewBox="0 0 500 500">
  <defs>
    <style>
      .cls-1 {
        fill: #112148;
      }

      .cls-2 {
        fill: #3b9bbc;
      }
    </style>
  </defs>
  <path class="cls-1" d="M109.76,341.74c3.51-.59,5.4-8.47,7.46-11.54,25.13-37.31,91.04-36.86,117.91-2.08,16.01,3.04,56.05-4.31,68.94,2.58,11.03,5.9,9.46,29.58-8.76,31.2-24.91,2.21-52.99-1.76-78.24-.02-11.06,6.61-3.36,12.65,6.63,13.43,15.59,1.22,67.85,1.98,81.08-1.71,6.33-1.77,13.65-7.86,16.19-13.98,3.61-8.68,2.38-11.21,11.18-17.88,8.29-6.29,15.37-4.18,22.93-9.48l50.79-84.43c5.27-5.58,12.06-7.59,19.59-6.66l-54.49,133.8c-34.92,20.76-72.05,39.09-108.23,58.07l-149.75-25.23c-10.96-1.24-23.88,1.17-34.56-.08-1.13-.13-3.85-.51-3.85-1.73v-62.58c0-.12,1.56-1.68,1.68-1.68,9.28,0,25.23,1.39,33.52,0Z"/>
  <path class="cls-2" d="M264.53,135.56c-8.98-11.85-37.73-31.24-39.11-45.81-1.53-16.12,13.31-27.7,28.31-20.49,6.77,3.25,12.2,14.44,19.13,13.23,3.53-.61,9.68-9.6,13.64-12.12,19.54-12.45,39.31,12,25.55,30.02-9.15,11.98-25.33,24.29-35.23,36.29v44.14c8.97-10.62,17.37-21.65,30.98-26.57,10.63-3.84,29.13-5.31,39.96-2.46,1.55.41,1.73-.99,1.74,1.65.04,10.45-6.84,26.5-13.98,34.11-15.02,15.99-38.7,14.89-58.69,12.27v63.7c31.1,1.29,59.19,13.66,84.87,30.27.93,1.32-14.61,26.82-16.09,27.89-2.34,1.7-9.66,2.85-13.33,4.55-3.79,1.76-6.89,4.9-10.74,6.57-1.47-6.83-10.88-15.15-17.59-16.51-12.45-2.53-55.18,2.82-62.39-1.31-2.18-1.25-6.16-6.57-9.07-8.81-12.49-9.6-29.47-14.77-45.07-15.85,22.23-16.06,49.68-24.94,77.11-26.81v-44.7c-35.18,9.5-71.56-7.07-71.36-46.78,23.14-6.53,49.34.73,64.63,19.42l6.73,9.47v-65.37Z"/>
</svg>