<?xml version="1.0" encoding="UTF-8"?>
<svg id="Layer_1" data-name="Layer 1" xmlns="http://www.w3.org/2000/svg" viewBox="0 0 500 500">
  <defs>
    <style>
      .cls-1 {
        fill: #112148;
      }

      .cls-2 {
        fill: #3b9bbc;
      }
    </style>
  </defs>
  <path class="cls-1" d="M255.22,58.37c8.94,2.02,16.23,7.3,23.79,12.03,51.53,32.2,103.07,64.4,154.61,96.6,9.02,5.64,10.24,11.07,4.55,20.16-3.17,5.07-6.31,10.16-9.5,15.22-4.61,7.33-10.73,8.72-18.09,4.12-50.49-31.55-101.01-63.05-151.39-94.76-6.57-4.14-11.97-4.03-18.53.1-50.05,31.52-100.27,62.78-150.44,94.11-8.62,5.39-14.1,4.09-19.58-4.62-4.08-6.49-8.19-12.97-12.29-19.45,0-2.25,0-4.49,0-6.74,1.87-3.81,4.97-6.26,8.53-8.48,51.6-32.16,103.14-64.4,154.7-96.63,7.36-4.6,14.46-9.71,23.16-11.66h10.48Z"/>
  <path class="cls-2" d="M185.6,58.37q6.22,3.89-.21,7.94c-22.38,14-44.77,27.99-67.17,41.96-1,.62-1.88,1.65-3.64,1.45,0-6.33,0-12.64,0-18.95,0-5.74.29-11.49-.07-17.2-.44-6.93,1.84-12.09,8.21-15.19h62.88Z"/>
  <path class="cls-1" d="M122.22,299.67c0-27.81.04-55.63-.06-83.44-.01-2.82.78-4.45,3.24-5.99,40.51-25.2,80.98-50.48,121.38-75.87,2.54-1.6,4.17-1.4,6.56.09,40.2,25.22,80.44,50.37,120.74,75.42,2.79,1.74,3.87,3.57,3.75,6.86-.27,7.35-.16,14.72-.04,22.07.04,2.61-.52,3.27-3.16,2.29-8.27-3.08-16.51-2.63-24.83.29-13.37,4.68-26.87,8.98-40.28,13.54-2.43.83-3.41.79-3.4-2.3.03-6.9-4.58-11.58-11.45-11.6-29.81-.08-59.62-.09-89.42,0-7.1.02-11.45,4.94-11.46,12.42-.01,46.15,0,92.29-.01,138.44,0,5.38.56,4.71-4.85,4.72-17.84.03-35.67.02-53.51,0-8.61,0-13.16-4.5-13.17-13.14-.03-27.94-.01-55.87-.01-83.81Z"/>
  <path class="cls-2" d="M441.59,319.55c0,14.32.74,28.69-2.99,42.76-10.2,38.48-34.01,64.59-71.28,78.47-3.04,1.13-6.08,1.15-9.13,0-40.79-15.47-65.33-44.52-73.06-87.57-1.13-6.27-1.43-12.62-1.41-18.99.05-12.72-.01-25.45.03-38.17.02-5.93,2.6-9.85,8.07-11.69,22.39-7.54,44.83-14.95,67.23-22.46,2.9-.97,5.65-.64,8.41.28,21.81,7.26,43.62,14.51,65.41,21.83,6.22,2.09,8.69,5.75,8.71,12.35.01,7.73,0,15.47,0,23.2ZM399.94,339.09c-.04-8.73-9.09-13.88-16.83-9.4-7.97,4.62-15.75,9.55-23.63,14.32-2.55,1.55-5.23,4.36-7.68,4.19-2.83-.2-3.96-4.32-5.86-6.7-4.28-5.36-11.08-6.62-16.13-2.81-4.99,3.77-5.84,10.45-1.9,15.95,3.69,5.17,7.46,10.28,11.29,15.35,3.93,5.2,9.62,6.5,15.19,3.18,13.46-8.04,26.84-16.23,40.21-24.43,3.53-2.17,5.4-5.43,5.34-9.66Z"/>
  <path class="cls-1" d="M281.77,263.48c-10,5.41-16.83,13.04-19.39,24.11-.56,2.41-.92,4.93-.91,7.4.06,16.34-.45,32.68.29,49.01.78,17.15,5.1,33.39,12.29,48.92.46,1,.89,2.02,1.33,3.02-.98,1.16-2.18.66-3.2.66-17.46.04-34.93-.04-52.39.09-2.95.02-3.77-.79-3.76-3.74.09-42.04.07-84.07.05-126.11,0-2.01-.09-3.46,2.83-3.44,20.95.13,41.9.07,62.86.07Z"/>
</svg>