<?xml version="1.0" encoding="UTF-8"?>
<svg id="Layer_1" data-name="Layer 1" xmlns="http://www.w3.org/2000/svg" viewBox="0 0 500 500">
  <defs>
    <style>
      .cls-1 {
        fill: #112148;
      }

      .cls-2 {
        fill: #3b9bbc;
      }
    </style>
  </defs>
  <path class="cls-1" d="M248.27,336.04c0-30.11.43-60.23-.17-90.33-.35-17.35,13.09-28.34,28.17-28.19,47.01.46,94.02.16,141.04.17,16.54,0,27.43,10.43,27.46,26.97.12,61.07.13,122.15,0,183.22-.04,16.34-10.9,26.65-27.26,26.65-47.44,0-94.88,0-142.32,0-16.29,0-26.87-10.52-26.9-26.89-.05-30.54-.02-61.07-.02-91.61ZM346.34,254.26c-20.73,0-41.46-.02-62.18.01-5.7,0-7.72,2.04-7.75,7.63-.03,5.82,0,11.64,0,17.46,0,8.3,1.21,9.5,9.68,9.5,35.35,0,70.7,0,106.05,0,5.54,0,11.07.05,16.61-.02,6.01-.07,7.65-1.7,7.69-7.58.04-6.25.03-12.49,0-18.74-.02-6.57-1.72-8.26-8.33-8.26-20.59-.01-41.17,0-61.76,0ZM298.32,336.06c1.56,0,3.12,0,4.68,0,11.71,0,12.5-.83,12.04-12.61-.18-4.57-1.89-6.43-6.5-6.56-5.1-.15-10.2-.04-15.3-.05-10.84,0-12.16,1.41-11.56,12.34.25,4.61,2.3,6.71,6.88,6.85,3.26.1,6.52.02,9.78.02ZM346.21,336.06c2.69,0,5.38,0,8.08,0,7.26-.01,8.94-1.71,8.96-9.04,0-1.13.05-2.27-.02-3.4-.26-4.69-2.16-6.61-6.92-6.73-4.81-.12-9.63-.03-14.45-.04-11.71,0-12.73,1.16-11.99,13.03.25,4,2.36,5.95,6.14,6.13,3.39.16,6.8.03,10.2.05ZM394.39,336.06c1.56,0,3.12,0,4.68,0,11.62,0,12.36-.75,12.1-12.21-.11-4.93-1.98-6.86-7.03-6.97-4.68-.1-9.36-.03-14.03-.03-11.99,0-12.85.89-12.28,12.78.19,4.06,2.25,6.23,6.37,6.4,3.4.14,6.8.03,10.21.04ZM394.72,398.95c-1.56,0-3.12.06-4.68-.01-13.54-.64-12.3,2.25-12.18,13.17.04,3.7,2.29,5.76,5.95,5.82,7.09.12,14.18.08,21.26.01,3.47-.03,6.02-1.96,5.92-5.35-.14-4.62,2.43-10.25-3.57-13.29-.94-.48-2.23-.32-3.35-.34-3.12-.04-6.24-.01-9.36-.02ZM346.24,377.03c2.69,0,5.38,0,8.07,0,7.26,0,8.92-1.69,8.94-9.04,0-.85.02-1.7,0-2.55-.13-5.51-1.97-7.44-7.39-7.54-4.67-.08-9.35-.02-14.02-.02-11.69,0-12.72,1.17-11.96,13.03.26,3.98,2.34,5.95,6.17,6.08,3.4.12,6.8.03,10.2.03ZM394.21,377.03h5.1c11.4,0,12.22-.86,11.85-12.42-.14-4.52-1.94-6.53-6.42-6.67-4.96-.16-9.92-.06-14.88-.06-11.81,0-12.49.71-12.05,12.56.16,4.3,2.25,6.44,6.61,6.56,3.26.09,6.52.02,9.78.02ZM298.78,398.98s0-.02,0-.03c-3.26,0-6.52-.03-9.77,0-5.24.07-7.18,1.95-7.33,7.1-.05,1.7-.07,3.4,0,5.1.21,4.64,2.28,6.73,6.86,6.8,4.82.08,9.64-.16,14.45.05,13.58.6,12.1-2.73,12-13.38-.03-3.54-2.02-5.51-5.57-5.62-3.54-.1-7.08-.02-10.62-.02ZM346.57,398.96c-3.54,0-7.08-.02-10.62,0-3.72.03-5.73,1.88-6.05,5.64-.74,8.69.39,12.18,4.39,13.2.41.1.84.14,1.26.14,7.22,0,14.45.08,21.67-.02,3.76-.05,5.55-2.38,5.99-5.91.91-7.39-.38-11.67-3.92-12.75-1.05-.32-2.24-.29-3.37-.3-3.12-.04-6.23-.01-9.35,0ZM298.12,377.03c1.56,0,3.12,0,4.68,0,11.98,0,12.81-.88,12.23-12.79-.21-4.3-1.93-6.19-6.29-6.29-6.8-.15-13.6-.04-20.4-.05-3.62,0-6.25,1.62-6.5,5.3-.5,7.58-.77,11.46,3.63,13.28,1.01.41,2.19.51,3.3.54,3.12.07,6.23.02,9.35.03Z"/>
  <path class="cls-1" d="M252.11,45.49c33.81,0,67.61-.02,101.42.02,6.58,0,5.7-1.06,5.74,5.94.06,11.08-.02,22.16.03,33.24.05,12.3,6.9,19.22,19.29,19.32,11.79.1,23.58.14,35.37-.05,3.2-.05,4.04.86,4.02,4.05-.12,30.68-.13,61.36.01,92.04.02,3.48-1.08,4.17-4.31,4.17-46.02-.09-92.04-.09-138.07-.05-19.59.02-34.75,11.3-39.6,29.24-1.28,4.72-1.39,9.51-1.36,14.35.06,7.53-.04,15.06.04,22.58.02,2.28-.33,2.55-2.85,2.14-8.25-1.34-10.96-7.39-13.26-14.08-.47-1.36,0-2.46.55-3.64,1.7-3.74,3.26-7.55,5.02-11.26.84-1.78.68-2.98-.79-4.43-8.61-8.46-17.16-16.99-25.6-25.62-1.62-1.65-2.93-1.68-4.77-.74-2.01,1.03-4.24,1.68-6.17,2.84-4.59,2.75-8.81,2.97-13.85.48-3.71-1.84-6-3.84-7.39-7.76-3.92-11.06-4.09-11-15.71-11q-9.38,0-9.38-9.24c0-43.32,0-86.65,0-129.97,0-1.28-.03-2.56.01-3.83.21-6.29,2.67-8.73,8.93-8.73,34.23-.01,68.46,0,102.7,0ZM219.98,183.87c27.19.14,49.45-21.94,49.49-49.09.04-26.88-22.08-49.17-48.91-49.29-27.21-.12-49.41,21.74-49.7,48.93-.29,27.02,21.85,49.3,49.13,49.45ZM324.85,174.23c9.65,0,19.3.03,28.95-.01,5.08-.02,7.99-2.59,7.94-6.81-.05-4.02-2.88-6.66-7.72-6.68-19.3-.08-38.6-.08-57.89,0-4.81.02-7.71,2.7-7.77,6.67-.06,4.17,2.93,6.79,7.97,6.81,9.51.04,19.01.01,28.52.01ZM325.02,108.63c9.5,0,19.01.02,28.51,0,5.23-.02,8.12-2.36,8.21-6.53.09-4.22-2.77-6.89-7.91-6.91-19.15-.07-38.3-.07-57.45,0-5.1.02-8.08,2.71-8.03,6.82.05,4.13,3.02,6.59,8.15,6.61,9.5.03,19.01,0,28.51,0ZM325.29,128.06c-9.65,0-19.29-.02-28.94,0-4.89.02-7.78,2.35-7.99,6.31-.22,4.15,2.71,7.08,7.75,7.11,19.29.1,38.58.1,57.87,0,5.07-.03,7.93-2.88,7.75-7.08-.17-4-3.02-6.32-7.93-6.34-9.5-.03-19.01,0-28.51,0Z"/>
  <path class="cls-2" d="M102.11,358.63c-3.12,1.37-6.47,2.57-9.54,4.28-3.02,1.69-5.01,1.22-7.29-1.35-3.47-3.93-7.29-7.56-11.1-11.18-1.57-1.49-2.19-2.87-.9-4.76,4.86-7.13,5.21-14.21-.16-21.28-.49-.65-.82-1.55-.91-2.36-.86-7.53-5.67-11.09-12.55-12.57-3.45-.74-4.73-2.67-4.49-6.32.35-5.23.17-10.5.05-15.75-.04-2.01.58-3.35,2.57-3.72,8.67-1.63,12.33-7.26,15.63-15.27,3.29-7.98,4.82-14.56-.21-21.83-1.18-1.7-.67-3.01.79-4.41,4.3-4.13,8.53-8.34,12.64-12.66,1.46-1.53,2.8-1.77,4.43-.66,7.09,4.82,14.13,5.32,21.22-.04.76-.57,1.81-.92,2.76-1.05,7.06-.95,10.85-5.21,12.08-11.95.76-4.16,3.17-5.26,7.18-4.97,4.94.35,9.93.18,14.9.04,2.17-.06,3.58.5,4,2.74,1.57,8.49,6.43,13.63,15.12,14.96,1.09.17,2.28.61,3.11,1.31,5.58,4.69,11.1,3.36,16.53-.12,3.5-2.24,5.97-1.42,8.6,1.63,3.23,3.75,6.89,7.16,10.52,10.55,1.6,1.49,2.1,2.87.89,4.73-4.62,7.09-3.76,13.43-.38,21.41,3.44,8.11,7.01,13.91,15.87,15.56,1.94.36,2.62,1.7,2.58,3.74-.12,5.96-.12,11.93,0,17.89.04,1.9-.69,3.09-2.41,3.39-9.1,1.59-12.65,7.69-16.09,15.85-3.28,7.78-4.43,14.05.34,21.01,1.38,2.02.79,3.46-.94,5.08-4.14,3.88-8.14,7.93-12.06,12.03-1.5,1.57-2.87,2.18-4.77.88-7.13-4.85-14.22-5.14-21.31.12-.66.49-1.55.8-2.36.91-7.45.96-11.21,5.62-12.58,12.58-.71,3.62-2.8,4.58-6.31,4.38-5.09-.3-10.22-.18-15.33-.03-2.32.07-3.84-.45-4.32-2.92-1.58-8.3-6.32-13.12-14.86-14.76-3.76-.72-7.17-3.28-10.94-5.1ZM100.58,296.13c0,22.26,17.73,40.04,39.93,40.06,22.34.02,40.53-18.17,40.28-40.28-.25-22.13-18.26-39.99-40.29-39.94-22.06.04-39.93,18.02-39.92,40.16Z"/>
  <path class="cls-1" d="M234.47,318.97c.08,1.38.18,2.34.18,3.29,0,26.26-.05,52.52.08,78.79.02,3.27-.98,4-4.08,3.98-26.97-.12-53.94-.05-80.92-.08-5.42,0-8.26-2.16-9.07-6.45-.46-2.43-.07-3.72,2.87-3.61,4.96.19,9.94-.03,14.9.09,2.13.05,3.51-.43,4.03-2.71.31-1.36,1.21-2.6,1.5-3.96,1.55-7.47,5.92-12.05,13.4-13.85,1.58-.38,2.92-.87,4.38.05.24.15.51.24.77.35,4.43,1.8,9.01,5.98,13.15,4.99,3.91-.93,6.86-5.98,10.18-9.27,5.65-5.6,11.17-11.32,16.92-16.81,1.97-1.88,2.47-3.5.98-5.82-.76-1.18-.98-2.71-1.8-3.84-4.63-6.39-3.16-12.64.18-18.93.54-1.02,1.02-2.01,2.2-2.44,3.29-1.21,6.57-2.44,10.13-3.76Z"/>
  <path class="cls-2" d="M372.83,46.88c14.57,14.65,28.94,29.11,43.42,43.67-2.65,0-5.69,0-8.73,0-9.78,0-19.56-.03-29.34.01-3.4.02-5.38-1.25-5.37-4.95.04-12.89.01-25.79.01-38.74Z"/>
  <path class="cls-2" d="M201.33,106.4h17.2c5.78,0,8.41.45,10.74,1.5,5.33,2.4,8.71,7.51,8.71,14.57,0,6.38-3.38,12.32-9.01,14.57v.15s.75.75,1.8,2.63l10.97,19.9h-10.82l-10.59-19.9h-9.31v19.9h-9.69v-53.33ZM219.73,131.41c5.18,0,8.41-3.08,8.41-8.41s-2.18-8.26-9.76-8.26h-7.36v16.67h8.71Z"/>
</svg>