<?xml version="1.0" encoding="UTF-8"?>
<svg id="Layer_1" data-name="Layer 1" xmlns="http://www.w3.org/2000/svg" viewBox="0 0 500 500">
  <defs>
    <style>
      .cls-1 {
        fill: #112148;
      }

      .cls-2 {
        fill: #3b9bbc;
      }
    </style>
  </defs>
  <path class="cls-1" d="M188.11,142.43c12.87-11.08,24.47-21.07,36.07-31.04,8.14-6.99,16.33-13.92,24.4-20.98,2.07-1.81,3.51-2.63,6.07-.41,19.57,16.98,39.28,33.8,58.92,50.69.24.21.27.67.65,1.74-6.63,0-13.03.35-19.37-.11-5.19-.37-6.79.95-6.75,6.51.29,37.66.15,75.33.15,112.99,0,19.24-.12,38.48.1,57.71.05,4.31-.77,6-5.56,5.93-20.65-.27-41.31-.27-61.96,0-4.79.06-5.56-1.63-5.55-5.94.13-56.9,0-113.81.24-170.71.02-5.56-1.57-6.88-6.75-6.51-6.24.45-12.54.11-20.67.11Z"/>
  <path class="cls-1" d="M189.42,398.46c2.72-5.6,5.21-10.8,7.77-15.97,5.54-11.23,11.27-22.37,16.59-33.7,1.76-3.74,3.74-5.41,8.15-5.35,20.03.27,40.06.2,60.1.04,3.69-.03,5.79.99,7.47,4.48,7.42,15.48,15.12,30.82,22.79,46.17,1.56,3.12,2.25,4.84-2.65,4.82-39.05-.16-78.11-.09-117.16-.11-.75,0-1.51-.18-3.06-.38Z"/>
  <path class="cls-2" d="M370.3,252.45c-5.23,0-8.86.26-12.43-.07-4.5-.41-5.91,1.2-5.86,5.77.22,20.02-.15,40.05.24,60.06.12,5.99-1.67,7.54-7.46,7.29-10.9-.47-21.84-.37-32.75-.03-4.69.15-5.64-1.46-5.62-5.86.19-31.95.13-63.9.05-95.86,0-2.79.64-4.98,2.49-7.11,4.52-5.18,8.83-10.53,13.2-15.83,1.3-1.58,2.31-3.53,4.55-.81,14.15,17.12,28.38,34.17,43.58,52.45Z"/>
  <path class="cls-2" d="M133.97,251.7c13.26-15.92,26.14-31.45,39.09-46.92,5.78-6.9,5.39-6.37,11.96.03,9.42,9.18,12.93,19.45,12.41,32.81-1.05,27.26-.45,54.59-.19,81.88.05,4.96-1.55,6.07-6.14,5.95-11.11-.29-22.25-.37-33.36.03-5.24.19-6.36-1.68-6.3-6.56.25-20.22,0-40.44.19-60.66.04-4.4-1.07-6.23-5.74-5.92-3.72.25-7.59.68-11.92-.64Z"/>
  <path class="cls-2" d="M96.31,398.86c15.46-18.54,29.95-35.91,44.41-53.31,1.13-1.36,2.45-1.98,4.19-1.98,16.38.08,32.77.12,49.15.21.33,0,.66.39,1.45.89-7.02,14.19-14.77,28.12-20.84,42.75-3.84,9.28-8.89,12.2-18.84,11.72-19.33-.95-38.75-.28-59.52-.28Z"/>
  <path class="cls-2" d="M307.61,343.58c17.95,0,34.52.02,51.09-.02,2.04,0,3.39.92,4.62,2.4,14.33,17.25,28.68,34.49,43,51.69-.97,1.94-2.58,1.17-3.83,1.17-21.04.05-42.09.05-63.13.02-2.11,0-4.27.54-5.61-2.22-8.45-17.36-17.06-34.65-26.14-53.04Z"/>
</svg>