<?xml version="1.0" encoding="UTF-8"?>
<svg id="Layer_1" data-name="Layer 1" xmlns="http://www.w3.org/2000/svg" viewBox="0 0 500 500">
  <defs>
    <style>
      .cls-1 {
        fill: #112148;
      }

      .cls-2 {
        fill: #3b9bbc;
      }
    </style>
  </defs>
  <path class="cls-1" d="M330.14,436.82c-5.76-8.14-12.5-15.48-18.94-23.06-36.53-43.07-73.42-85.85-107.16-131.2-14.36-19.3-27.77-39.21-39.73-60.14-10.01-17.52-13.69-35.61-10.09-55.59,3.76-20.86,9.68-40.87,19.62-59.63.39-.74.87-1.44,1.76-2.87,1.86,11.89,5.23,22.56,9.76,32.87,9.77,22.24,22.78,42.58,36.65,62.4,28,40,59.46,77.23,91.5,113.99,17.78,20.4,35.87,40.53,54.24,60.4,2,2.17,2.02,3.58.44,5.97-12.52,18.9-24.89,37.89-37.3,56.86h-.75Z"/>
  <path class="cls-1" d="M169.21,436.82c-8.14-12.52-16.27-25.05-24.43-37.55-4.36-6.68-8.69-13.38-13.2-19.95-1.3-1.9-1.22-3.07.34-4.76,22.4-24.32,43.58-49.68,64.4-75.35,1.95-2.41,2.68-2.13,4.41.17,12.44,16.54,25.31,32.75,38.57,48.65,2.03,2.44,2.13,3.89,0,6.4-22.78,26.79-45.41,53.71-68.07,80.59-.47.56-.85,1.2-1.27,1.8h-.75Z"/>
  <path class="cls-1" d="M322.82,101.08c5.72,9.65,10.05,19.11,13.63,28.93,6.56,18.03,10.2,36.6,11,55.8.4,9.6-2.83,18.12-6.72,26.49-10.62,22.82-25.07,43.27-39.64,63.65-1.06,1.49-1.76,1.73-3.04.2-13.88-16.66-27.63-33.43-41.02-50.5-1.77-2.25-.25-3.39.77-4.79,13.26-18.25,26.07-36.8,37.52-56.25,10.37-17.61,20.02-35.57,25.52-55.43.68-2.45,1.22-4.94,1.99-8.1Z"/>
  <path class="cls-2" d="M249.46,53.48c20.48.34,37.37,7.17,52.5,19.62,8.17,6.72,9.92,14.63,8.35,24.21-2.05,12.53-6.9,24.08-12.19,35.5-1.13,2.44-2.07,2.72-4.37,1.43-13.17-7.39-27.34-11.03-42.46-11.26-17.4-.26-33.5,4.2-48.29,13.2-2.96,1.8-3.71,1.09-4.89-1.67-4.52-10.55-8.43-21.25-9.76-32.76-.59-5.14-.24-10.18.69-15.23.7-3.82,2.55-6.87,5.3-9.6,15.53-15.39,34.18-23.17,55.12-23.44Z"/>
</svg>