<?xml version="1.0" encoding="UTF-8"?>
<svg id="Layer_1" data-name="Layer 1" xmlns="http://www.w3.org/2000/svg" viewBox="0 0 500 500">
  <defs>
    <style>
      .cls-1 {
        fill: #112148;
      }

      .cls-2 {
        fill: #3b9bbc;
      }
    </style>
  </defs>
  <path class="cls-2" d="M250.12,429.51c-56.03,0-112.06-.47-168.08.21-26.28.32-41.94-17.11-41.19-41.33,1.14-37.23.32-74.51.28-111.77,0-4.72-.13-9.25,4.88-11.99,4.85-2.65,8.25.32,11.9,2.62,6.93,4.35,14.6,5.52,22.62,5.51,42.16-.04,84.31.12,126.47-.17,6.68-.05,9.38,1.6,8.64,8.56-.57,5.38-.07,10.87-.1,16.31-.03,6.27,3.01,9.83,9.3,9.88,16.86.13,33.73.13,50.59,0,6.29-.05,9.33-3.62,9.3-9.88-.02-5.71.43-11.46-.1-17.12-.58-6.27,1.83-7.76,7.83-7.72,38.89.25,77.78.04,116.68.17,13.12.05,25.95.19,37.51-7.91,5.19-3.63,11.53.36,12.36,6.87.34,2.68.1,5.43.1,8.15,0,36.99.01,73.98,0,110.97-.01,24.18-14.2,38.58-38.45,38.62-56.84.09-113.69.03-170.53.03Z"/>
  <path class="cls-1" d="M140.72,244.78c-21.23,0-42.45.07-63.68-.02-20.99-.09-35.79-15-35.89-36.08-.07-16.06-.03-32.11-.01-48.17.03-23.08,14.4-37.65,37.65-37.81,25.31-.17,50.62-.27,75.92.11,6.74.1,9.14-1.67,8.67-8.59-.46-6.7-.75-13.54,1.65-20.17,5.19-14.32,17.38-23.39,33.81-23.53,34.01-.3,68.03-.34,102.04,0,21.94.21,35.77,14.68,36.12,36.68q.25,15.47,15.35,15.47c22.59,0,45.17-.06,67.76.02,24.87.09,38.96,14.22,38.98,38.95.01,15.24.02,30.48,0,45.72-.04,22.75-14.49,37.4-37.01,37.42-43,.04-85.99-.07-128.99.11-5.74.02-9.28-.49-8.52-7.68.73-6.88-3.81-9.87-10.11-9.93-16.05-.16-32.11-.1-48.17-.03-7.24.03-11.46,3.51-10.7,11.09.59,5.82-2.18,6.6-7.12,6.55-22.58-.21-45.17-.09-67.76-.09ZM249.3,132.98c15.77,0,31.55-.31,47.31.13,7.54.21,5.73-4.65,5.72-8.61,0-3.96,1.82-8.69-5.71-8.62-30.99.32-62,.32-92.99,0-7.53-.08-5.72,4.65-5.72,8.61,0,3.96-1.83,8.84,5.72,8.61,15.21-.45,30.45-.13,45.68-.13Z"/>
</svg>