<?xml version="1.0" encoding="UTF-8"?>
<svg id="Layer_1" data-name="Layer 1" xmlns="http://www.w3.org/2000/svg" viewBox="0 0 500 500">
  <defs>
    <style>
      .cls-1 {
        fill: #112148;
      }

      .cls-2 {
        fill: #3b9bbc;
      }
    </style>
  </defs>
  <path class="cls-1" d="M418.35,285.99c0,32.37,0,63.87,0,95.38,0,10.67-.14,21.35.07,32.02.08,3.81-.98,5.38-5,5.15-5.2-.29-10.42-.07-15.63-.07-102.51,0-205.02-.09-307.52.19-7.4.02-8.84-2.05-8.78-9.04.36-38.96.24-77.93.08-116.9-.02-4.76.15-6.71,6.1-5.69,23.38,3.99,43.01-3.33,58.38-21.45,2.49-2.94,3.47-2.56,6,.13,28.32,30.11,66.68,30.42,94.29.51,4.58-4.96,5.82-1.32,8.2,1.26,22.04,23.98,56.11,27.78,82.07,8.86,5.28-3.85,9.63-11.96,14.69-12.21,4.32-.21,8.56,8.55,13.89,12.28,15.97,11.17,33.41,14.35,53.16,9.58Z"/>
  <path class="cls-1" d="M238.85,142.27c0,17.88-.14,35.76.09,53.63.07,4.98-1.15,6.97-6.57,6.89-21.35-.28-42.71-.22-64.06-.04-4.58.04-5.82-.96-4.95-5.81,6.68-37.04,13.12-74.12,19.41-111.23.63-3.72,2.28-4.29,5.39-4.27,15.15.08,30.3.24,45.44-.08,5.37-.11,5.29,2.78,5.27,6.53-.07,18.13-.03,36.25-.03,54.38Z"/>
  <path class="cls-1" d="M261.16,141.89c0-17.88.14-35.76-.09-53.63-.06-4.9.93-7.06,6.46-6.91,14.39.38,28.8.24,43.2.06,4.08-.05,5.9.76,6.69,5.42,6.09,36.14,12.47,72.23,19.05,108.28,1.12,6.16-.1,7.9-6.65,7.75-20.35-.47-40.72-.43-61.07-.02-6.45.13-7.84-2.07-7.71-8.06.37-17.62.13-35.25.13-52.88Z"/>
  <path class="cls-1" d="M101.94,202.68c-10.67,0-21.33-.13-32,.06-4.16.08-5.97-.66-4.33-5.32,13.16-37.29,26.24-74.61,39.19-111.98,1.11-3.2,2.79-4.05,5.92-4.02,14.88.12,29.77.15,44.65-.01,4.15-.05,5.57.77,4.73,5.45-6.52,36.28-12.82,72.59-18.98,108.93-.91,5.4-3.1,7.3-8.69,7.03-10.15-.49-20.33-.14-30.5-.14Z"/>
  <path class="cls-1" d="M397.57,202.68c-10.42,0-20.84-.17-31.25.08-4.1.1-6.31-.85-7.07-5.29-6.41-37.3-12.96-74.58-19.55-111.85-.64-3.6.95-4.19,3.97-4.18,15.38.07,30.76.14,46.14-.05,3.54-.04,4.6,1.73,5.58,4.53,12.93,37.11,25.88,74.22,38.94,111.29,1.49,4.22.68,5.66-4,5.55-10.91-.26-21.83-.08-32.74-.08Z"/>
  <path class="cls-2" d="M98.71,225c11.16,0,22.32.2,33.48-.08,5.26-.13,6.24,1.81,5.43,6.67-3.31,19.85-19.32,34.24-38.79,34.45-18.88.21-35.52-13.97-39.15-33.21-1-5.3-.53-8.33,6.31-7.98,10.88.57,21.81.15,32.73.15Z"/>
  <path class="cls-2" d="M401.9,225c10.66,0,21.35.39,31.98-.14,6.55-.33,7.51,2.28,6.48,7.83-3.61,19.5-20.81,34.01-39.78,33.33-19.64-.71-35.54-15.38-38.34-35.02-.68-4.75.82-6.15,5.43-6.07,11.4.22,22.81.07,34.22.07Z"/>
  <path class="cls-2" d="M199.33,225c11.16,0,22.32.15,33.48-.07,4.52-.09,6.02,1.22,5.67,5.99-1.41,18.85-19.03,34.99-38.81,35.12-19.27.12-37.16-15.65-39.12-34.06-.61-5.71,1.19-7.31,6.8-7.09,10.65.42,21.32.12,31.99.12Z"/>
  <path class="cls-2" d="M300.69,225c10.66,0,21.34.3,31.99-.12,5.64-.23,7.39,1.42,6.78,7.11-1.98,18.45-19.83,34.18-39.12,34.05-19.76-.13-37.39-16.29-38.81-35.13-.36-4.8,1.19-6.06,5.69-5.97,11.16.22,22.32.07,33.48.07Z"/>
</svg>