<?xml version="1.0" encoding="UTF-8"?>
<svg id="Layer_1" data-name="Layer 1" xmlns="http://www.w3.org/2000/svg" viewBox="0 0 500 500">
  <defs>
    <style>
      .cls-1 {
        fill: #112148;
      }

      .cls-2 {
        fill: #3b9bbc;
      }
    </style>
  </defs>
  <path class="cls-2" d="M153.26,294.86c3.19-3.98,6.72-7.7,10.51-11.11.09.29.21.58.37.87-3.9,3.11-7.54,6.54-10.88,10.24Z"/>
  <path class="cls-2" d="M221.51,438.78c-45.41,0-82.34-36.94-82.34-82.34,0-26.62,12.7-50.33,32.36-65.39,3.46,2.25,7.3,4.03,10.87,4.38,6.33.62,12.03-.1,18.09-2.02s12.36-8.18,15.09-13.93c.59-1.25,1.24-3.32,1.78-5.27,1.37-.07,2.75-.1,4.14-.1,45.4,0,82.33,36.94,82.33,82.33s-36.94,82.34-82.33,82.34Z"/>
  <path class="cls-2" d="M323.16,354.74c0,52.75-42.76,95.52-95.52,95.52-11.58,0-22.69-2.06-32.96-5.84,8.49,2.6,17.5,4,26.83,4,50.71,0,91.97-41.26,91.97-91.98s-41.26-91.97-91.97-91.97c-.43,0-.86,0-1.28.02.06-1.98-.44-4.01-1.63-5.26,3.56-.4,5.37,0,9.05,0,52.75,0,95.52,42.76,95.52,95.52Z"/>
  <path class="cls-1" d="M220.08,26.45c49.01-8.35,72.56,52.21,34.59,78.82-16.91,11.85-42.59,10.09-57.03-5.05-22.77-23.89-11.54-67.98,22.44-73.77Z"/>
  <path class="cls-1" d="M394.65,287.28c-2.21-7.07-11.56-10.86-18.38-11.78-18.04-2.44-53.26,3.78-67.79-.58-7.66-2.3-23.31-23.45-35.27-24.04-2.94-4.7,1.77-69.72-1.22-84.26-6.68-32.54-47.23-42.85-74.17-27.69-12.44,7-57.79,39.55-67.52,49.11-12.59,12.36-7.63,21.05.19,33.61,8.05,12.93,29.96,44.23,39.9,54.61,20.42,21.34,47.03,1.57,34.92-22.85-4.17-8.4-32.3-38.98-30.73-45.03.35-1.33,4.26-5.41,4.8-5.41,3.49-.03,35.67,44.65,39.28,61.51.42-.02,2.42,0,2.85,0,51.98,0,94.02,43.34,91.89,95.78-1.93,47.39-40.17,85.87-87.55,88.06-10.88.5-21.37-.89-31.17-3.9-36.51-13.42-62.55-48.5-62.55-89.67,0-22.68,7.91-43.51,21.13-59.89,3.34-3.7,7.13-7.24,11.03-10.35,0,0,.11.13.27.33-5.02-6.6-12.37-19.54-13.48-19.71-8.63-1.34-30.23,30.22-34.12,38.26-25.99,53.78-9.19,119.7,41.49,151.73,94.03,59.41,206.48-28.4,176.78-133.53h16.08s0,105.56,0,105.56c0,17.82,36.43,24.94,43.82,5.62l-.49-145.48Z"/>
</svg>