<?xml version="1.0" encoding="UTF-8"?>
<svg id="Layer_1" data-name="Layer 1" xmlns="http://www.w3.org/2000/svg" viewBox="0 0 500 500">
  <defs>
    <style>
      .cls-1 {
        fill: #449bbc;
      }

      .cls-2 {
        fill: #112148;
      }
    </style>
  </defs>
  <path class="cls-2" d="M344.06,225.15h-58.32c.56-1.2,2.24-1.3,3.49-2.41,8.75-7.81,5.26-20.23-5.98-22.52l-150.64-.09c-9.69-.23-16.27,10.58-11.32,19.02,1.08,1.84,5.85,6.01,7.88,6.01h132.96l-12.27,4.75c-10,5.84-17.5,16.08-18.29,27.89-3.18-3.33-5.55-7.38-10.75-7.64-28.9,1.92-61.09-2.55-89.6-.03-10.67.95-15.4,13.42-7.99,21.24,1.03,1.09,5.42,3.79,6.63,3.79h82.28c-1.4,2.58-2.57,5.31-3.26,8.19-2.79,11.55-.89,30.03.58,42.06,1.1,9.02,2.88,18.12,5.47,26.81-3.07-1.46-5.13-2.49-8.65-2.8-23.88-2.06-50.74,1.52-74.94.1-11.67,1.24-16.03,15.73-6.32,22.83,1.95,1.42,3.11,1.89,5.52,2.12,24.75,2.4,53.35-1.88,78.51-.02,2.5-.21,4.52-1.86,6.51-3.21l3.53-5.13c6.32,21.46,17.99,41.03,31.95,58.32H103.48c-13.91,0-30.94-15.99-32.67-29.82-1.75-104.23-1.51-209.08-.12-313.34,3.16-16.74,17.36-28.88,34.19-30.38h204.11c17.04.48,35.07,17.9,35.07,35.05v139.21ZM166.12,101.03c-13.29,4.49-11.54,23.03,2.7,24.76,23.99-1.91,52.79,2.85,76.22,0,14.56-1.77,15.89-20.86,2.12-24.87l-81.03.11ZM130.74,150.35c-14.12,2.46-14.91,21.38-.89,24.83h154.17c14.54-3.66,13.02-23.47-2.11-25l-151.17.17ZM128.63,300.3c-13.52,5.11-11.34,23.06,3.39,24.76,19.55,2.26,43.07-1.47,63.03,0,14.76-1.79,16.52-21.2,2.1-24.86l-68.52.1Z"/>
  <path class="cls-1" d="M403.53,253.86c5.26,5.63,2.39,13.3,5.52,19.83,4.56,9.5,11.28,4.74,17.11,9.78,5.35,4.63,4.28,15.24,4,21.88-2.51,57.61-31.26,116.63-86.32,140.04-10.6,4.51-12.32,5.17-23.16.7-46.65-19.25-76.35-65.24-84.71-113.86-1.73-10.04-5-34.03-2.67-43.2.59-2.32,2.7-5.08,4.71-6.4,5.1-3.35,9.82-.46,14.4-6.43,6.65-8.68-.77-22.89,13.71-25.87l129.01-.19c2.82.04,6.52,1.72,8.41,3.74ZM363.32,303.78c-1.05.18-2.09.68-3.06,1.1-11.58,9.02-21.08,20.62-31.82,30.66-8.45-5.92-13.32-18.95-25.81-13.3-6.25,2.83-8.37,10.82-5.47,16.82,3.43,7.12,19.57,18.15,24.74,25.25,4.58,2.23,8.45,2.49,12.94-.15l42-42.01c4.7-9.63-3-20.14-13.51-18.37Z"/>
</svg>