<?xml version="1.0" encoding="UTF-8"?>
<svg id="Layer_1" data-name="Layer 1" xmlns="http://www.w3.org/2000/svg" viewBox="0 0 500 500">
  <defs>
    <style>
      .cls-1 {
        fill: #112148;
      }

      .cls-2 {
        fill: #3b9bbc;
      }
    </style>
  </defs>
  <path class="cls-1" d="M286.61,263.58c-3.24-1.69-7.16-1.31-10.08.88-38.81,29.11-65.07,76.7-104.3,103.04-12.91,8.67-25.83,17.32-38.74,25.98-3.46,2.32-6.84,4.87-11.25,1.89-4.19-2.83-14.93-17.15-14.28-21.32,19.48-126.17,88.73-212.34,207.96-258.01,37.36-14.31,76.49-20.2,116.27-22.48,6.47-.37,11.27,1.06,12.87,8.15,16.43,73.24,17.75,145.89-15.36,215.05-34.4,71.85-92.71,114.51-170.99,128.6-36.06,6.49-71.5,2.07-104.84-14.18-4.4-2.15-7.41-1.2-11.26,1.03-22.82,13.22-46.77,24.03-71.65,32.78-5.7,2-11.8,4.04-14.32-3.54-2.37-7.14,3.8-9.11,8.96-10.92,89.24-31.4,175.16-99.25,230.76-175.32,1.96-2.69.98-6.5-2.04-7.9-2.5-1.16-5.37-2.52-7.7-3.74Z"/>
  <path class="cls-2" d="M93.37,314.2c-26.35-29.36-43.94-62.43-48.27-101.02-7.54-67.3,15.14-124.54,60.99-173.47,6.67-7.12,12.73-8.33,21.66-4.18,33.51,15.53,53.06,43.21,67.32,75.64,3.82,8.69,6.27,17.89,8.78,27.07,1.46,5.35.66,8.77-3.62,12.37-50.66,42.57-85.51,95.59-104.68,158.93-.42,1.4-1.24,2.68-2.18,4.66Z"/>
</svg>