<?xml version="1.0" encoding="UTF-8"?>
<svg id="Layer_1" data-name="Layer 1" xmlns="http://www.w3.org/2000/svg" viewBox="0 0 500 500">
  <defs>
    <style>
      .cls-1 {
        fill: #112148;
      }

      .cls-2 {
        fill: #3b9bbc;
      }
    </style>
  </defs>
  <path class="cls-1" d="M264.67,303.68c-1.87-6.71-17.21-8.15-17.35-19.87-.46-37.46,55.64-90.45,94.47-87.24l-31.42,155.64c.36,3.46,36.19,38.24,40.03,40.21,2.75,1.41,2.92,1.41,5.67,0,2.16-1.11,34.15-30.26,35.89-32.85,1.53-2.29,4.24-3.99,4.2-7.46l-31.48-155.54c38.06.64,74.25,30,88.63,64.18,11.58,27.53,12.3,130.87,8.55,162.97-.45,3.85-3.69,15.66-7.2,15.66h-189.98v-135.7Z"/>
  <path class="cls-2" d="M36.13,330.82c4.12-4.3,54.84,33.03,65.62,35.8,7.91,2.03,33.02.28,34.23,1.49,2,1.99-2.28,16,7.28,17.18,13.42,1.65,7.53-14.59,10.13-17.18,1.21-1.21,26.32.54,34.23-1.49,21.76-5.58,42.82-31.83,65.62-35.8v104.27c0,.49-4.41,5.04-5.76,5.67H41.88c-1.35-.63-5.76-5.18-5.76-5.67v-104.27Z"/>
  <path class="cls-1" d="M343.91,60.11c66.32-10.83,100.82,82.49,39.42,116.54-85.06,47.17-133-101.25-39.42-116.54Z"/>
  <path class="cls-2" d="M153.57,356.21c-1.2-1.04-1.53-14.56-7.49-16.81-8.43-1.9-9.04,15.73-10.27,16.81-1.99,1.75-26.17.3-31.21-1.02-4.08-1.06-68.04-38.86-68.22-42.89,4.03-15.76,31.51-1.83,42.63-8.6,8.51-5.18,11.82-37.48,29.76-44.52,11.43-4.48,60.5-4.44,71.83,0,19.48,7.63,20.5,38.9,29.75,44.53,7.66,4.66,45.96-4.2,42.88,8.5-.93,3.82-61.34,40.46-66.47,42.12-5.6,1.82-30.5,4.21-33.21,1.87ZM187.54,305.11c-1.17-6.44-9.17-24.7-14.27-27.16-5.31-2.56-39.48-2.35-47.32-1.58-17.22,1.7-18.99,14.28-24.12,28.73h85.7Z"/>
</svg>