<?xml version="1.0" encoding="UTF-8"?>
<svg id="Layer_1" data-name="Layer 1" xmlns="http://www.w3.org/2000/svg" viewBox="0 0 500 500">
  <defs>
    <style>
      .cls-1 {
        fill: #112148;
      }

      .cls-2 {
        fill: #3b9bbc;
      }
    </style>
  </defs>
  <path class="cls-1" d="M360.22,38c7.91,2.28,15.66,4.81,22.4,9.88,17.99,13.53,24.72,37.74,16.16,58.89-8.42,20.81-30.4,34.06-51.78,31.22-23.47-3.12-42.78-23.56-43.84-46.4-1.2-25.86,14.75-47.1,39.55-52.65.91-.2,1.97.04,2.61-.93h14.9Z"/>
  <path class="cls-1" d="M136.67,38c1.72,1.29,3.87,1.2,5.81,1.72,22.97,6.11,38.64,29.01,36.28,53.11-2.3,23.43-22.4,43.65-45.02,45.27-26.97,1.93-49.91-16.79-53.96-44.05-3.72-25,13.7-49.38,39.37-55.11.91-.2,1.97.02,2.61-.93h14.9Z"/>
  <path class="cls-1" d="M367.21,254.11c-3.59,0-7.53-.94-10.67.25-3.7,1.4-2.01,6.22-3.3,9.4-4.45,10.96-11.75,19.9-19.43,28.59-10.52,11.91-22.18,22.69-33.72,33.58-1.64,1.55-2.81,1.82-4.96.72-36.15-18.56-72.34-18.67-108.48.11-1.42.74-2.52,1.25-4-.15-15.57-14.66-31.4-29.08-44.32-46.27-5.42-7.21-10.13-14.81-11.18-24.06-.2-1.78-.98-2.25-2.66-2.23-6.48.07-12.97.13-19.46-.02-2.49-.06-2.57,1.18-2.51,3.07.4,12.02,5.21,22.44,11.74,32.17,11.63,17.31,26.49,31.73,41.48,46.02,5.29,5.05,10.78,9.88,16.05,14.95,7.79,7.49,10.3,16.63,6.86,26.82-3.36,9.95-10.91,15.3-21.25,16.53-4.76.57-9.05-.36-12.96-3.83-20.03-17.78-39.97-35.64-57.12-56.33-14.94-18.01-27.6-37.49-31.99-60.83-8.35-44.37,1.76-83.42,37.97-112.42,35.88-28.74,91.75-29.3,128.73,10.74,6.3,6.82,11.85,14.17,16.59,22.14q2.34,3.94,4.63.1c9.05-15.11,20.36-28.14,35.15-37.9,33.87-22.35,79.62-20.15,111.24,5.44,24.19,19.57,36.26,45.46,39.28,76.06,3.72,37.65-10.48,68.95-33.89,97.12-16.36,19.69-34.77,37.35-53.67,54.53-6.33,5.75-17.72,6.71-26.09,2.49-8.71-4.39-14.1-13.89-13.38-23.38.56-7.41,3.83-13.33,9.28-18.3,16.33-14.86,32.52-29.88,46.7-46.89,8.78-10.54,16.66-21.63,20.11-35.23.89-3.49,1.4-7.01,1.46-10.62.03-1.76-.5-2.48-2.32-2.43-3.31.1-6.62.03-9.93.03,0,0,0,.02,0,.03ZM240.98,212.71c-27.05,0-49.58,22.44-49.68,49.48-.11,27.2,22.5,49.9,49.69,49.9,27.02,0,49.58-22.47,49.69-49.5.11-27.2-22.49-49.89-49.7-49.88Z"/>
  <path class="cls-2" d="M310.6,415.95c-8.97,8.02-17.77,15.93-26.62,23.78-5.26,4.67-10.41,9.48-15.94,13.82-13.85,10.88-33.01,11.24-47.39,1.14-1.46-1.03-2.84-2.19-4.19-3.36-13.96-12.06-27.92-24.14-41.92-36.25,1.24-1.6,3.11-1.91,4.64-2.76,21.81-12.13,31.16-37.68,22.14-61.13-1.13-2.94-.84-4.23,2.13-5.54,25.24-11.19,50.39-11.19,75.55.18,1.98.9,3.12,1.57,2.03,4.23-11.33,27.73,3.7,56.35,27.89,64.85.5.18.92.56,1.67,1.04Z"/>
  <path class="cls-2" d="M265.81,262.65c-.06,13.82-11.14,24.62-25.19,24.55-13.78-.07-24.56-11.22-24.46-25.27.1-13.57,11.21-24.4,24.97-24.37,13.83.04,24.73,11.12,24.67,25.09Z"/>
</svg>