<?xml version="1.0" encoding="UTF-8"?>
<svg id="Layer_1" data-name="Layer 1" xmlns="http://www.w3.org/2000/svg" xmlns:xlink="http://www.w3.org/1999/xlink" viewBox="0 0 500 500">
  <defs>
    <style>
      .cls-1 {
        fill: none;
      }

      .cls-2 {
        fill: #112148;
      }

      .cls-3 {
        clip-path: url(#clippath);
      }

      .cls-4 {
        fill: #3b9bbc;
      }
    </style>
    <clipPath id="clippath">
      <ellipse class="cls-1" cx="258.67" cy="403.27" rx="183.66" ry="172.18"/>
    </clipPath>
  </defs>
  <path class="cls-2" d="M253.39,19.96c114.73-8.49,138.57,161.8,28.36,186.66C150.39,236.24,122.12,29.67,253.39,19.96Z"/>
  <g class="cls-3">
    <path class="cls-4" d="M401.54,335.43c-3.17-25-12.08-49.99-29.71-69.07-5.75-6.22-10.71-13.36-17.2-18.86-12.94-10.98-31.4-11.99-47.58-12.62-1.34-.05-2.67-.09-4.01-.14l-54.67,138.75-30.31-.22-4.23-138.66c-8.51.56-17.01,1.58-25.57,3.43-3.49.75-6.61,2.44-9.83,3.97-1.47.7-2.94,1.41-4.48,1.94-1.08.37-4.85.56-5.49,1.23-5.95,6.26.08,15.09-3.4,31.38-3.32,15.52-18.1,26.14-28.61,38.56-23.4,27.64-6.9,65.42-7.79,100.62-.28,11.24-.15,23.47,7.31,32.3,8.99,10.64,6.11,12.54,20.63,13.18,73.67,3.26,147.9-4.59,218.92-23.14,7.49-1.96,15.51-4.39,20.03-10.29,3.7-4.83,4.33-11.07,4.84-16.98,2.16-25.09,4.32-50.38,1.15-75.38Z"/>
    <path class="cls-2" d="M183.23,239.66l12.85,132.65c-23.71-1.1-43.48-.77-46.84,26.97-2.24,18.5-.8,45.2,22.18,47.95,32.15,3.84,101.32,2.31,134.79-.08,44.55-3.18,91.02-13.69,84.39-69.36l-55.46-137.07c.16-2.03,3.51-1.12,5.14-.87,21.19,3.21,64.75,35.27,69.23,57,3.6,17.48,1.38,67.1.57,87.31-1.05,26.29-3.42,59.37-6.53,85.46-.4,3.33-1.94,13.58-4.13,15.12l-279.31-1.17c-1.78-3.72-2.79-7.68-3.19-11.79-4.25-44.22-9.46-97.32-10.67-141.21-1.35-48.98,32.93-78.23,76.98-90.91Z"/>
    <polygon class="cls-2" points="291.29 233.25 241.6 360.24 230.97 360.11 227.08 233.25 291.29 233.25"/>
    <path class="cls-2" d="M241,383c2.59,2.63-15.97,47.72-19.17,54.64-25.34,4.54-70.4,2.02-60.65-34.99,1.81-6.88,12.14-19.64,18.85-19.64h60.97Z"/>
  </g>
</svg>