<?xml version="1.0" encoding="UTF-8"?>
<svg id="Layer_1" data-name="Layer 1" xmlns="http://www.w3.org/2000/svg" viewBox="0 0 500 500">
  <defs>
    <style>
      .cls-1 {
        fill: #112148;
      }

      .cls-2 {
        fill: #3b9bbc;
      }
    </style>
  </defs>
  <path class="cls-2" d="M178.88,196.08c-22.21-.22-49.67-4.42-75.48-16.63-11.21-5.3-21.49-11.97-29.54-21.59-15.2-18.16-14.67-39.51,1.36-57.12,12.14-13.34,27.48-21.74,44.3-27.22,45.32-14.78,90.63-14.73,135.52,1.91,15.34,5.69,29.17,14.02,39.78,26.88,14.98,18.17,14.33,40.24-1.68,57.58-12.25,13.27-27.83,21.02-44.64,26.63-20.62,6.88-41.9,9.58-69.63,9.58Z"/>
  <path class="cls-2" d="M215.86,215.82c-5.37,5.71-9.96,10.87-14.03,16.45-6.11,8.38-11.37,17.25-15.52,26.77-.61,1.39-.95,2.87-3.17,2.84-31.43-.48-61.69-5.77-89.3-21.77-9.79-5.67-18.34-12.82-24.47-22.53-4.32-6.85-6.71-14.24-6.52-22.42.12-5.34.02-10.69.02-16.21.5.12.9.09,1.1.28,17.82,16.21,39.14,25.55,62.14,31.44,29.19,7.48,58.78,9.08,89.75,5.14Z"/>
  <path class="cls-2" d="M62.87,309.8c8,7.33,16.08,13.07,24.91,17.76,17.88,9.5,36.98,15.2,56.88,18.47,10.09,1.66,20.23,2.8,30.46,3.01,1.67.04,2.87.25,3.4,2.37,3.56,14.24,9.24,27.62,16.95,40.11.18.29.21.66.3.97-.69.79-1.59.72-2.42.74-32.8,1.11-64.53-3.39-94.12-18.47-11.05-5.63-20.92-12.89-28.25-23.15-5.38-7.54-8.41-15.81-8.16-25.2.14-5.22.03-10.45.03-16.62Z"/>
  <path class="cls-2" d="M62.87,243.95c13.8,12.86,29.26,21.12,46.01,27.14,17.25,6.2,35.06,9.86,53.32,11.34,4.12.33,8.26.72,12.39.73,2.96,0,3.45,1.09,2.85,3.75-2.55,11.2-3.81,22.55-3.29,34.05.28,6.17.34,6.35-5.71,5.85-26.68-2.2-52.45-7.78-75.7-21.81-11.33-6.84-20.98-15.44-26.66-27.78-3.09-6.72-3.43-13.85-3.22-21.09.11-3.75.02-7.5.02-12.19Z"/>
  <g>
    <path class="cls-1" d="M316.03,276.51h-17.29v39.16h20.46c12.17,0,19.75-7.23,19.75-19.75s-5.12-19.4-22.93-19.4Z"/>
    <path class="cls-1" d="M434.17,289.65c-14.08-63.49-79.02-105.05-142.34-91.15-66.54,14.6-108.37,79.03-92.64,145.19,11.22,47.2,41.75,77.08,88.59,90.16,6.1,1.7,12.44,2,18.56,3.48h20.47c7.47-1.52,15.14-2.1,22.44-4.45,48.14-15.49,77.08-47.98,86.58-97.73.52-2.73.13-5.62,1.38-8.22v-20.47c-1-5.6-1.81-11.25-3.04-16.8ZM345.49,382.16l-24.87-46.74h-21.87v46.74h-22.75v-125.23h40.39c13.58,0,19.75,1.06,25.22,3.53,12.52,5.64,20.46,17.64,20.46,34.22,0,14.99-7.94,28.93-21.17,34.22v.35s1.76,1.76,4.23,6.17l25.75,46.74h-25.4Z"/>
  </g>
</svg>