<?xml version="1.0" encoding="UTF-8"?>
<svg id="Layer_1" data-name="Layer 1" xmlns="http://www.w3.org/2000/svg" viewBox="0 0 500 500">
  <defs>
    <style>
      .cls-1 {
        fill: #112148;
      }

      .cls-2 {
        fill: #3b9bbc;
      }
    </style>
  </defs>
  <path class="cls-2" d="M150.82,442.75c-6.48-3.26-8.75-8.67-8.06-15.65.31-3.19-1.37-7.33.73-9.36,2.08-2,6.19-.64,9.4-.64,63.74-.03,127.47-.05,191.21,0,13.34.01,24.01-4.85,31.2-16.36,2.95-4.72,4.62-9.91,4.71-15.53.03-1.99.09-3.99.09-5.98,0-88.81,0-177.61.01-266.42,0-6.24-.56-5.24,5.43-5.32,2.62-.03,5.24-.02,7.86,0,7.89.06,12.58,4.69,12.59,12.54.03,18.83,0,37.67,0,56.5,0,83.82-.05,167.64.1,251.45.01,6.84-2.01,11.8-8.27,14.76h-247.02Z"/>
  <path class="cls-1" d="M94.73,226.98c0-51.27.11-102.54-.12-153.8-.03-7.67,4.54-13.82,13.73-13.79,78.71.22,157.42.21,236.13,0,8.61-.02,13.58,5.57,13.57,13.6-.11,102.79-.07,205.57-.08,308.36,0,8.89-4.51,13.41-13.31,13.41-78.84,0-157.67,0-236.51,0-9.08,0-13.42-4.4-13.42-13.6,0-51.39,0-102.79,0-154.18ZM268.36,274.35c9.85,0,19.69.05,29.54-.02,6.74-.05,11.6-4.73,11.67-11.04.07-6.3-4.69-11.3-11.39-11.34-19.82-.12-39.64-.1-59.45,0-5.29.03-9.22,2.89-10.76,7.22-2.74,7.71,2.4,15.03,10.85,15.15,9.84.14,19.69.03,29.54.03ZM268.17,141.94c9.84,0,19.69.03,29.53-.01,6.88-.03,11.72-4.45,11.87-10.73.16-6.48-4.57-11.4-11.59-11.45-19.68-.13-39.37-.13-59.06.01-7.15.05-11.89,4.93-11.71,11.33.18,6.54,4.93,10.81,12.17,10.84,9.59.04,19.19,0,28.78,0ZM268.38,208.14c8.72,0,17.44.02,26.16-.01,1.99,0,4.01.02,5.96-.3,5.54-.9,9.34-5.81,9.06-11.48-.27-5.54-4.7-10.33-10.3-10.36-20.56-.13-41.12-.11-61.67,0-4.69.02-8.33,3.08-9.72,7.42-2.51,7.81,2.61,14.57,11.36,14.7,9.72.14,19.44.03,29.15.04ZM268.32,318.25c-9.72,0-19.43.01-29.15,0-2.94,0-5.68.5-7.99,2.5-3.6,3.11-4.85,7.95-3.19,12.56,1.55,4.32,5.26,7,10.42,7.02,19.68.08,39.37.08,59.05.04,7.35-.02,12.2-4.62,12.12-11.24-.08-6.43-4.92-10.83-12.1-10.87-9.72-.04-19.43-.01-29.15,0ZM166.18,346.3c3.26.17,5.98-1.15,8.28-3.45,7.66-7.66,15.37-15.27,22.96-23.01,5.1-5.2,5.31-11.59.76-16.29-4.65-4.8-11.22-4.62-16.55.55-3.93,3.81-7.76,7.74-11.64,11.61q-3.67,3.67-7.45.15c-5.18-4.83-11.75-4.94-16.3-.27-4.42,4.53-4.28,11.02.49,16.01,3.7,3.87,7.56,7.59,11.34,11.38,2.22,2.22,4.85,3.43,8.1,3.32ZM143.06,192.32c-.1,1.94,1.21,4.46,3.26,6.57,3.99,4.11,7.98,8.23,12.15,12.15,4.43,4.16,11.13,4.17,15.54-.12,8.12-7.9,16.16-15.9,24.03-24.06,4.73-4.9,4.43-11.54-.26-15.98-4.52-4.27-10.88-4.11-15.71.53-3.68,3.53-7.24,7.2-10.85,10.81q-4.67,4.67-9.66.46c-3.57-3.02-7.58-3.8-11.8-1.85-4.3,1.98-6.65,5.47-6.69,11.47ZM166.22,280.36c3.14-.24,5.92-1.34,8.25-3.69,7.63-7.71,15.37-15.32,23-23.05,5.07-5.14,5.26-11.62.64-16.28-4.79-4.83-11.18-4.59-16.54.66-3.83,3.76-7.59,7.58-11.39,11.37q-3.83,3.83-7.94.06c-5.11-4.7-11.47-4.7-16.02,0-4.3,4.43-4.26,11.03.28,15.77,3.88,4.05,7.93,7.95,11.89,11.93,2.14,2.15,4.82,2.98,7.83,3.24ZM166.42,147.92c2.95.11,5.68-1.17,8-3.48,7.66-7.67,15.38-15.29,22.98-23.02,5.23-5.32,5.37-11.91.56-16.55-4.75-4.59-11.04-4.33-16.29.76-3.75,3.65-7.42,7.38-11.12,11.08q-4.09,4.09-8.5.23c-5.02-4.39-11.35-4.33-15.76.16-4.36,4.44-4.37,10.96.18,15.74,3.95,4.15,8.09,8.12,12.16,12.15,2.05,2.03,4.57,2.93,7.8,2.93Z"/>
</svg>