<?xml version="1.0" encoding="UTF-8"?>
<svg id="Layer_1" data-name="Layer 1" xmlns="http://www.w3.org/2000/svg" viewBox="0 0 500 500">
  <defs>
    <style>
      .cls-1 {
        fill: #112148;
      }

      .cls-2 {
        fill: #3b9bbc;
      }
    </style>
  </defs>
  <path class="cls-2" d="M425.01,270.71c-2.86,19.05-1.79,39.59-3.62,59.96-1.98,22.04-8.99,42.02-25.31,57.97-9.2,8.98-18.2,18.13-28.17,26.3-22.13,18.15-46.78,22.15-74.11,14.69-15.41-4.2-28.09-12.31-39.64-22.97-18.33-16.92-33.46-36.65-49.39-55.68-10.65-12.72-21.17-25.56-31.83-38.29-4.76-5.68-6.18-11.87-3.16-18.74,5.16-11.74,20.24-13.52,28.62-3.32,13.3,16.21,26.46,32.52,39.69,48.78.63.77,1.3,1.52,1.9,2.31,1.54,2.01,3.42,3.2,5.71,1.4,2.32-1.83,1.49-3.85-.13-5.83-5.06-6.17-10.05-12.41-15.09-18.6-11.96-14.72-23.95-29.41-35.9-44.14-7.53-9.28-6.71-20.89,1.91-28,8.45-6.97,20.23-5.5,27.8,3.74,17.08,20.85,34.03,41.8,51.04,62.7.87,1.06,1.74,2.12,2.62,3.17,1.53,1.81,3.38,2.21,5.24.7,1.94-1.57,1.64-3.48.19-5.27-4.4-5.43-8.81-10.84-13.22-16.26-15.98-19.65-32.05-39.23-47.89-59-8.89-11.11-3.93-26.89,9.53-30.59,8.44-2.32,15.43.45,20.91,7.23,10.05,12.41,20.14,24.79,30.21,37.19,9.84,12.1,19.68,24.2,29.51,36.31,1.59,1.96,3.3,3.85,5.89,1.82,2.73-2.15,1.29-4.36-.4-6.44-16.3-20.03-32.57-40.09-48.91-60.1-4.32-5.29-6-11.21-4.33-17.81,1.92-7.56,6.9-12.29,14.54-13.96,7.36-1.61,13.69.63,18.48,6.3,8.86,10.48,17.46,21.18,26.15,31.81,15.09,18.45,30.16,36.91,45.24,55.36.55.68,1.09,1.37,1.68,2.01,2.66,2.83,5.58,2.28,6.71-1.44,1.59-5.24,2.87-10.57,4.42-15.82,1.73-5.86,3.78-11.61,7.13-16.79,5.34-8.23,12.34-11.32,20.98-9.24,8.28,1.99,13.35,8.09,14.36,17.52.35,3.22.37,6.47.6,11Z"/>
  <path class="cls-1" d="M212.91,392.57c-16.51.31-30.59-4.4-44.12-11.11-15.91-7.89-30.71-17.6-45.09-27.95-17.39-12.53-27.58-30.16-34.68-49.88-3.93-10.91-6.89-22.1-9.04-33.49-2.63-13.99-8.15-27.17-11.44-40.97-1.66-6.94-3.01-13.92-1.41-21.06,3.27-14.61,20.52-21.7,33.09-13.62,5.24,3.37,9.16,8.04,12.62,13.14,5.27,7.76,9.12,16.3,13.39,24.61.97,1.89,1.71,4.02,4.41,3.92,2.47-.09,3.18-2.11,4.09-3.87,19.98-38.61,39.99-77.21,59.91-115.85,4.27-8.29,10.57-13.5,20.11-13.95,17.42-.82,29.21,16.43,22.04,32.35-2.71,6.01-5.94,11.79-8.95,17.66-10.99,21.39-21.99,42.77-32.98,64.15-.46.89-.89,1.78-1.31,2.68-.99,2.11-.2,3.67,1.69,4.67,1.85.97,3.41.25,4.52-1.36.63-.92,1.08-1.96,1.59-2.96,16.51-32.13,33.05-64.25,49.5-96.41,3.87-7.56,9.34-12.86,18.05-14.09,8.59-1.22,15.88,1.44,21.29,8.16,5.49,6.82,7.15,14.9,3.39,22.83-7.09,14.96-14.95,29.56-22.48,44.32-.48.95-1.25,1.52-2.09,2.07-5.8,3.78-9.61,9.04-11.27,15.72-.77,3.12-1.8,3.25-4.23,1.4-9.7-7.4-21.46-7.88-31-1.47-9.52,6.39-13.75,17.69-10.69,29.21.77,2.89.22,3.69-2.8,3.74-20.23.34-32.24,19.38-23.93,37.94,1.3,2.9.65,3.82-2.33,3.95-4.22.19-8.05,1.7-11.43,4.17-2.41,1.76-3.81,1.57-4.3-1.55-1.92-12.27-10.01-20.61-18.36-28.75-1.57-1.54-3.46-1.43-4.96.21-1.52,1.65-1.24,3.41.23,5,2.7,2.94,5.46,5.83,8.13,8.79,5.85,6.49,8.61,14.19,8.79,22.86.09,4.37.07,8.73.2,13.1.18,5.93,2.14,11.18,5.96,15.77,19.3,23.23,38.57,46.48,57.82,69.74.97,1.18,2.87,2.19,2.14,4.01-.66,1.64-2.61,1.04-4.02,1.37-3.69.88-7.44.63-10.02.78Z"/>
  <path class="cls-1" d="M314.43,101.2c-.08-21.72,15.58-35.57,33.56-34.3,9.65.68,17.65,4.28,23.32,12.21,2.24,3.13,3.53,2.41,5.4-.21,12.6-17.67,41.51-15,52.52,2.57,5.47,8.74,5.23,17.97,2.35,27.36-3.73,12.19-11.13,22.21-19.31,31.69-10.79,12.49-23.05,23.5-35.16,34.66-1.93,1.78-3.88,2.21-5.93.31-16.1-14.91-32.74-29.33-45.31-47.59-6.44-9.36-11.29-19.36-11.43-26.7Z"/>
  <path class="cls-1" d="M311.5,144.55c18.45-.02,29.9,16.47,23.43,31.4-4.54,10.48-10.26,20.45-15.46,30.64-1.25,2.45-2.55,1.74-3.92.06-3.85-4.74-7.71-9.47-11.61-14.16-5.01-6.04-11.33-9.55-19.3-9.94-3.55-.17-3.98-.94-2.38-4.1,3.67-7.21,7.31-14.42,11.13-21.55,4.32-8.07,11.3-11.92,18.1-12.33Z"/>
  <path class="cls-1" d="M348.7,186.51c15.76,0,25.98,14.75,20.08,27.77-4.98,10.97-11.07,21.43-16.66,32.12-1.23,2.36-2.52,1.93-3.94.19-7.88-9.65-15.75-19.3-23.66-28.92-1.17-1.43-1.4-2.68-.49-4.39,2.94-5.48,5.56-11.14,8.61-16.55,3.8-6.73,9.87-9.91,16.06-10.23Z"/>
</svg>