<?xml version="1.0" encoding="UTF-8"?>
<svg id="Layer_1" data-name="Layer 1" xmlns="http://www.w3.org/2000/svg" viewBox="0 0 500 500">
  <defs>
    <style>
      .cls-1 {
        fill: #112148;
      }

      .cls-2 {
        fill: #3b9bbc;
      }
    </style>
  </defs>
  <path class="cls-1" d="M207.72,342.6c-2.81,0-5.61,0-8.42,0-6.74-.03-11.05-3.09-12.36-9.9-1.36-7.1-2.74-14.19-4.09-21.29-2.04-10.69-18.49-18.04-27.63-12.2-5.9,3.77-11.54,7.94-17.38,11.81-7.2,4.77-11.33,4.47-17.48-1.36-4.24-4.02-8.39-8.15-12.4-12.4-5.27-5.59-5.59-10.36-1.24-16.97,3.85-5.85,7.95-11.54,11.76-17.41,5.79-8.92-.73-25.26-11.13-27.69-6.12-1.43-12.35-2.4-18.56-3.46-10.6-1.81-13.66-5.25-13.74-15.78-.04-5.14-.1-10.29.03-15.43.18-6.88,3.22-11.52,10.42-12.82,6.42-1.15,12.81-2.51,19.23-3.65,13.6-2.42,20.29-18.47,12.48-30.05-3.66-5.42-7.4-10.78-10.99-16.24-3.69-5.61-3.4-10.99,1.39-15.87,4.42-4.51,8.9-8.95,13.38-13.4,4.85-4.81,10.18-5.27,15.81-1.5,6.02,4.03,11.88,8.29,17.94,12.23,9.52,6.2,26.02-.95,28.12-12.07,1.35-7.1,2.73-14.19,4.1-21.29,1.25-6.49,5.44-9.59,11.78-9.8,6.07-.19,12.16-.13,18.23-.03,7.96.13,11.96,3.56,13.48,11.39,1.38,7.09,2.46,14.25,4.12,21.27,2.32,9.8,18.78,16.24,27.26,10.77,5.88-3.8,11.54-7.94,17.39-11.8,7.19-4.75,11.4-4.4,17.45,1.44,4.37,4.22,8.67,8.53,12.88,12.91,4.47,4.64,5.11,9.81,1.48,15.26-4.01,6.02-8.19,11.94-12.16,17.98-6.61,10.04.38,26.44,12.12,28.63,6.87,1.28,13.75,2.51,20.61,3.87,6.69,1.32,10.09,5.41,9.95,12.3,0,.23,0,.47,0,.7-.08,6.54,2.17,14.66-.88,19.19-3.39,5.03-12.05,1.24-18.38,1.77-8,.67-13.63,4.49-17.15,11.47-2.73,5.41-5.22,10.94-7.62,16.51-1.11,2.58-2.41,2.98-4.52,1.25-.36-.3-.74-.57-1.13-.83-19.37-12.59-38.17-6.64-47.2,15.01-3.31,7.94-1.1,14.93,3.66,21.67,6.7,9.49,6.54,9.52-4.47,13.66-4.35,1.64-8.84,3.19-12.74,5.61-6.54,4.07-8.5,10.78-8.65,18.13-.02,1.17,0,2.34,0,3.51q-.02,14.86-14.75,14.86ZM165.94,209.14c-.04,23.93,18.63,42.72,42.51,42.78,23.6.06,43.05-19.32,42.85-42.7-.2-23.72-19.27-42.45-43.12-42.34-23.58.1-42.19,18.74-42.23,42.27Z"/>
  <path class="cls-2" d="M387.69,403.26c-5.27-.91-9.02-4.38-12.68-7.4-6.62-5.48-12.91-6.19-20.5-2.08-4.12,2.23-6.61,4.93-7.36,9.41-.27,1.61-.56,3.21-.86,4.82-3.2,17.24-1.11,15.82-20.16,16.03-5.83.07-8.64-2.48-9.53-7.9-.53-3.22-1.5-6.41-1.69-9.64-.44-7.51-4.3-11.54-11.31-14.17-5.51-2.07-9.86-1.86-14.26,1.76-.72.59-1.53,1.08-2.3,1.6q-15.05,10.24-27.21-3.66c-2.89-3.31-3.49-6.4-.86-10.04,2.05-2.84,3.97-5.77,5.95-8.66,9.08-13.28,4.04-25.25-11.76-27.91-.23-.04-.47-.03-.7-.07-15.95-2.75-18.98-7.15-15.87-23.1.7-3.6,2.74-5.74,6.49-6.33,3.91-.62,7.75-1.84,11.68-2.17,6.95-.58,10.59-4.21,13.16-10.61,2.28-5.67,2.29-10.28-1.54-14.93-.59-.72-1.11-1.5-1.64-2.27-9.92-14.5-9.39-17.37,4.82-28.04,2.84-2.13,5.53-2.19,8.37-.33,2.93,1.92,5.8,3.94,8.69,5.91,13.82,9.43,25.39,4.71,28.36-11.56,2.93-16.06,8.19-19.51,24.24-16.01,2.87.63,4.47,2.31,5.05,5.08.87,4.11,1.74,8.22,2.54,12.34,2.79,14.35,14.82,19.24,26.99,10.96.19-.13.39-.26.58-.39,15.79-10.7,12.15-11.53,27.57,3.9,2.92,2.92,3.19,6.03.78,9.42-2.03,2.86-3.68,6.04-6.01,8.61-5.88,6.52-5.67,13.24-1.73,20.56,2.03,3.77,4.67,6.2,9.04,6.84,4.38.64,8.66,2.01,13.05,2.48,5.5.58,7.55,3.35,7.73,8.73.6,18.05.71,18.05-17.27,21.07-14.35,2.41-19.73,14.83-11.62,26.82.65.97,1.39,1.89,1.94,2.91,2.23,4.2,7.93,7.55,6.09,12.69-2.22,6.2-8.29,9.91-13.11,14.29-.77.7-2.14.72-3.15,1.04ZM365.42,330.23c.16-19.4-14.92-35.08-33.98-35.34-19.54-.26-35.33,15.21-35.41,34.69-.08,19.21,15.28,34.89,34.41,35.12,19.05.23,34.82-15.32,34.97-34.48Z"/>
</svg>