<?xml version="1.0" encoding="UTF-8"?>
<svg id="Layer_1" data-name="Layer 1" xmlns="http://www.w3.org/2000/svg" viewBox="0 0 500 500">
  <defs>
    <style>
      .cls-1 {
        fill: #112148;
      }

      .cls-2 {
        fill: #3b9bbc;
      }
    </style>
  </defs>
  <path class="cls-1" d="M215.88,352.47c-47.83,0-95.66,0-143.49,0-3.55,0-7.18.27-10.47-1.24-7.54-3.44-8.75-12.56-2.22-19,30.7-30.28,47.88-67.72,57.72-108.98,3.58-15,5.91-30.3,6.22-45.72.13-6.19,2.17-7.49,7.88-7.47,58.71.17,117.43.11,176.14.11,42.77,0,85.54.16,128.31-.16,7-.05,8.15,1.91,7.7,8.62-2.93,44.22-13.5,86.16-35.61,124.85-8.7,15.22-19.11,29.13-31.19,41.86-4.89,5.16-10.38,7.25-17.48,7.22-47.83-.19-95.66-.1-143.49-.1Z"/>
  <path class="cls-1" d="M444.28,285.43c0,41.2.05,82.4-.05,123.6-.02,6.8-3.88,10.74-10.63,11.57-2.5.31-5.05.21-7.58.21-94.36,0-188.72.01-283.08,0-16.04,0-18.41-2.41-18.43-18.56,0-5.82.46-11.68-.12-17.44-.73-7.39,1.32-10.01,9.38-9.82,25.54.59,51.1.22,76.65.22,49.33,0,98.66-.23,147.99.15,14.11.11,25.32-4.33,35.11-14.5,19.51-20.27,34.55-43.4,46.26-68.84,1.04-2.26,2.12-4.5,3.18-6.75l1.31.16Z"/>
  <path class="cls-2" d="M284.03,147.43c-50.38,0-100.75-.12-151.13.14-6.53.03-9.08-1.43-8.54-8.35.63-8.05-.03-16.2.21-24.29.28-9.21,3.93-12.91,13.15-13.04,15.69-.21,31.4-.33,47.08.06,6.15.15,8.9-1.42,8.16-7.94-.43-3.75-.07-7.62,2.61-10.78,3.12-3.67,7.1-4.64,11.64-3.58,4.36,1.02,7.18,3.77,7.9,8.19.48,2.98.59,6.04.54,9.07-.06,3.53,1.37,4.96,4.94,4.94,15.69-.1,31.39-.14,47.08.03,4.09.04,5.4-1.56,5.04-5.39-.21-2.26-.23-4.58.04-6.83.77-6.43,4.53-10.03,10.97-10.42,6.2-.37,10.95,4.09,11.67,10.53q1.34,12.06,13.5,12.06c12.91,0,25.82-.14,38.73.07,4.23.07,5.61-1.26,5.67-5.6.18-12.33,3.48-17.03,11.13-17.12,7.75-.09,11.37,4.82,11.38,16.85,0,4.86,1.78,5.92,6.18,5.87,15.69-.19,31.39-.13,47.08-.05,11.73.06,15.19,3.68,15.21,15.55.01,7.34-.57,14.74.16,22.01.72,7.19-2.25,8.19-8.53,8.16-50.63-.23-101.26-.13-151.89-.13Z"/>
</svg>