<?xml version="1.0" encoding="UTF-8"?>
<svg id="Layer_1" data-name="Layer 1" xmlns="http://www.w3.org/2000/svg" viewBox="0 0 500 500">
  <defs>
    <style>
      .cls-1 {
        fill: #112148;
      }

      .cls-2 {
        fill: #3b9bbc;
      }
    </style>
  </defs>
  <path class="cls-2" d="M388.93,185.58c7.28,15,11.3,28.94,13,43.35,6.15,52.13-9.1,97.19-47.6,133.03-85.07,79.19-222.4,39.59-252.39-73.42-22.77-85.79,31.76-171.51,118.93-188.99,30.06-6.03,59.43-2.78,87.87,8.82,3.78,1.54,4.68,2.46,1.33,5.76-6.66,6.56-13.95,12.58-19.43,20.25-2,2.81-3.98.97-5.77.44-24.85-7.27-49.55-6.84-74.03,1.5-50.35,17.16-83.57,66.44-80.73,119.52,3.15,58.84,46.88,106,105.4,113.68,63.4,8.32,123.57-37.12,133.31-100.67,2.76-17.99,1.93-35.76-3.54-53.17-1.1-3.49-.2-5.2,2.51-7.75,7.22-6.8,13.7-14.37,21.13-22.35Z"/>
  <path class="cls-1" d="M147.81,250c0-59.1,49.75-105.69,108.79-102.04,9.02.56,17.71,2.38,26.3,5.03,2.92.9,4.18,2.51,4.26,5.55.11,3.98.48,7.96.99,11.9.32,2.45-.38,4.24-2.22,5.77-1.07.89-2.15,1.84-2.94,2.97-5.01,7.12-10.88,8.18-19.64,6.1-41.3-9.77-81.67,24.67-79.52,67.06,1.7,33.69,27.59,60.84,59.27,63.76,34.45,3.17,66.06-19.64,72.43-54.56,1.95-10.7,1.31-21.49-2.21-31.88-.9-2.66-.89-4.53,1.37-6.25.79-.6,1.61-1.28,2.1-2.12,6.23-10.7,16.11-9.48,26.12-8.24,3.15.39,3.65,2.57,4.35,4.88,11.01,36.54,5.13,70.14-19.99,98.9-27.3,31.26-62.6,42.31-102.61,32.03-39.75-10.22-64.45-36.99-74.52-76.93-1.81-7.19-2.12-14.57-2.34-21.94Z"/>
  <path class="cls-1" d="M349.71,195.79c-8.53-.7-17.08-1.28-25.6-2.14-3.5-.35-5.89.8-8.35,3.28-19.22,19.41-38.56,38.69-57.9,57.97-4.6,4.58-9.93,5.17-13.75,1.71-4.03-3.65-3.73-9.48.95-14.17,18.57-18.64,37.04-37.39,55.92-55.72,4.48-4.35,6.21-8.65,5.36-14.65-.93-6.5-1.17-13.09-2.01-19.61-.58-4.51.51-8.12,3.78-11.35,11.92-11.77,23.71-23.65,35.56-35.49,2.96-2.96,6.18-4.99,10.65-3.24,4.6,1.8,5.83,5.41,6.09,9.95.37,6.56,1.34,13.08,1.66,19.64.19,4.04,1.39,5.95,5.84,6.08,6.95.2,13.88,1.25,20.83,1.74,4.13.29,7.21,1.78,8.92,5.77,1.77,4.14.28,7.41-2.55,10.27-12.23,12.3-24.52,24.54-36.77,36.81-2.39,2.4-5.24,3.52-8.6,3.15Z"/>
  <path class="cls-2" d="M258.22,202.82c-.19,2.25-2.17,3.18-3.48,4.5-7.98,8.11-16.19,15.99-24.03,24.22-10.15,10.65-9.92,26.87.21,37.2,10.36,10.55,26.79,11,37.64.7,8.25-7.83,16.13-16.03,24.2-24.05,1.34-1.33,2.79-2.55,4.39-4,4.77,19.54-5.11,40.61-23.42,50.9-18.73,10.53-42.67,7.23-57.91-7.99-15.22-15.2-18.54-39.13-8.02-57.9,10.25-18.29,31.26-28.16,50.4-23.58Z"/>
</svg>