<?xml version="1.0" encoding="UTF-8"?>
<svg id="Layer_1" data-name="Layer 1" xmlns="http://www.w3.org/2000/svg" viewBox="0 0 500 500">
  <defs>
    <style>
      .cls-1 {
        fill: #112148;
      }

      .cls-2 {
        fill: #3b9bbc;
      }
    </style>
  </defs>
  <path class="cls-1" d="M161.93,323.38c-3.47,2.73-5.53,4.39-7.62,6-6.44,4.94-12.57,4.77-17.42-.46-4.68-5.05-4.2-12.82,1.58-18.11,10.02-9.16,20.28-18.05,30.42-27.07,38.15-33.9,76.32-67.8,114.44-101.73,10.44-9.29,14.38-9.24,25,.25,26.11,23.34,52.28,46.61,78.47,69.87,1.72,1.53,3.17,3.65,6.68,4.05,0-12.32-.04-24.41.01-36.51.05-9.76,4.27-15.03,11.99-15.18,8.08-.15,12.38,5.16,12.4,15.49.03,17.92.12,35.85-.07,53.77-.04,4.14,1.06,7.02,4.31,9.78,9.73,8.25,19.12,16.89,28.67,25.36,7.41,6.58,8.92,14.01,3.96,19.74-5.28,6.11-11.47,5.77-19.86-1.08-1.25-1.02-2.54-1.99-3.75-2.93-2.79,1.09-1.67,3.33-1.67,4.95-.07,34.22.08,68.43-.19,102.65-.05,5.88,1.87,7.69,7.42,7.11,3.49-.37,7.08-.31,10.58.04,6.93.7,10.95,4.87,11.18,11.71.23,6.91-3.88,11.06-10.5,12.46-2.35.5-4.87.19-7.31.19-127.09,0-254.18,0-381.27,0-2.17,0-4.37.16-6.51-.09-6.78-.78-11.56-6.15-11.39-12.59.17-6.46,5.1-11.56,12.12-11.7,12.49-.25,24.99-.38,37.47.03,5.85.19,7.38-1.82,7.23-7.41-.36-13.57-.13-27.15-.11-40.73,0-2.74.14-5.14-3.22-6.54-19.12-7.97-30.05-23.7-37.58-41.87-18.97-45.75-20.64-92.05-2.64-138.58,11.2-28.95,26.09-55.97,43.89-81.37,6.67-9.51,15.65-10.35,21.91-1.39,25.12,36.01,45.95,74.09,55.03,117.68.88,4.21-.24,6.39-3.19,8.97-17.34,15.23-34.81,30.33-51.66,46.08-14.88,13.92-15.37,36.52-1.91,51.27,3.89,4.26,8.47,7.72,14.05,9.39,3.81,1.14,5.07,3.34,4.67,7.11-.26,2.42-.37,4.94.02,7.32,1.15,7.01-1.78,11.6-8.28,13.59-5.77,1.76-6.96,5.34-6.79,10.91.39,13.02.32,26.07.03,39.1-.11,4.95,1.39,6.65,6.43,6.45,9.22-.37,18.46-.23,27.69-.05,3.72.07,5.33-1,5.32-5.03-.11-36.37-.06-72.73-.06-110.9ZM194.51,385c0,12.49,0,24.98,0,37.47,0,17.02,0,16.69,17.01,16.95,6.45.1,7.57-2.2,7.49-7.97-.3-21.99-.12-43.98-.12-65.98,0-17.64,0-17.38,17.32-17.47,5.84-.03,7.3,1.85,7.22,7.43-.29,21.99-.12,43.98-.12,65.98,0,18.65,0,18.49,18.43,17.96,4.63-.13,6.04-1.55,6.02-6.11-.15-31.77.02-63.54-.16-95.3-.05-9.24-5.01-14.06-14.2-14.18-14.93-.2-29.87-.19-44.8,0-9.78.12-14.04,4.74-14.09,14.8-.07,15.48-.02,30.95-.02,46.43ZM310.13,364.87c0,9.48-.1,18.97.03,28.45.12,9.64,4.11,13.78,13.88,13.88,18.42.18,36.85.18,55.28,0,9.44-.1,13.93-4.64,14.01-14.04.15-18.43.17-36.85,0-55.28-.09-9.21-4.88-14-14.15-14.1-18.42-.19-36.85-.19-55.28,0-9.27.1-13.62,4.81-13.74,14.27-.11,8.94-.02,17.88-.02,26.83Z"/>
  <path class="cls-2" d="M329.92,168.92c-4.15-3.73-6.33-5.72-8.54-7.67-15.98-14.07-35.5-14.08-51.42.06-21.7,19.28-43.34,38.63-65.03,57.92-7.08,6.29-7.17,6.26-9.61-2.37-9.16-32.32-23.98-62.04-41.93-90.24-3.2-5.02-4.05-9.34-2.32-15.01,12.41-40.63,52.73-68.45,94.38-64.83,42.94,3.73,77.14,36.19,83.15,78.49,1.95,13.74.72,27.42,1.33,43.65Z"/>
  <path class="cls-2" d="M403.67,154.12c-29.64-.09-53.33-24.28-53.07-54.19.26-29.91,24.09-53.46,53.99-53.34,29.55.12,53.54,24.6,53.17,54.25-.38,29.97-24.14,53.38-54.08,53.28Z"/>
  <path class="cls-2" d="M351.88,382.84q-17.38,0-17.38-17.25,0-17.44,17.12-17.44,17.35,0,17.35,17.17v.81q0,16.7-17.08,16.7Z"/>
</svg>