<?xml version="1.0" encoding="UTF-8"?>
<svg id="Layer_1" data-name="Layer 1" xmlns="http://www.w3.org/2000/svg" viewBox="0 0 500 500">
  <defs>
    <style>
      .cls-1 {
        fill: #112148;
      }
    </style>
  </defs>
  <path class="cls-1" d="M106.39,169.34c0-4.74-.15-9.48.03-14.22.31-8.2,4.32-13.66,12.15-16.57,33.34-12.41,66.63-24.95,99.93-37.44,8.39-3.15,16.78-6.28,25.13-9.51,4.17-1.61,8.29-1.6,12.4-.06,41.8,15.67,83.57,31.4,125.38,47.03,8.36,3.12,11.91,9.21,12.12,17.8.45,18.48-.38,36.87-2.81,55.21-3.45,26.03-9.64,51.33-19.54,75.66-20.83,51.22-54.77,90.69-104.37,116.06-16.63,8.5-17.33,8.42-33.89-.07-49.46-25.34-83.35-64.7-104.18-115.76-10.74-26.31-17.21-53.71-20.35-81.94-1.34-12.03-2.3-24.07-2.01-36.18ZM212.93,225.81c-1.16.12-2.75.13-4.33.68-11.47,3.92-14.65,17.77-5.94,26.64,9.79,9.96,19.73,19.77,29.6,29.64,9.13,9.12,17.73,9.04,26.74-.36,17.43-18.18,34.83-36.39,52.23-54.6,4.91-5.14,10.04-10.09,14.63-15.5,7.68-9.08,3.35-22.67-8.07-25.6-6.33-1.63-11.69.37-16.21,5.12-17.97,18.87-36.05,37.63-53.98,56.55-1.96,2.07-2.92,2.04-4.84.03-5.76-6.04-11.77-11.86-17.67-17.77-3.24-3.25-7.09-4.99-12.17-4.82Z"/>
</svg>