<?xml version="1.0" encoding="UTF-8"?>
<svg id="Layer_1" data-name="Layer 1" xmlns="http://www.w3.org/2000/svg" viewBox="0 0 500 500">
  <defs>
    <style>
      .cls-1 {
        fill: #112148;
      }

      .cls-2 {
        fill: #3b9bbc;
      }
    </style>
  </defs>
  <path class="cls-1" d="M189.01,173.63c-9.48,11.22-17.01,21.1-21.72,32.69-5.01,12.34-9.54,25.79,1.32,36.56,11.13,11.04,25.77,11.89,40.58,7.26,4.57-1.43,9.24-3.26,12.36-6.71,8.33-9.23,19.34-13.55,30.27-18.26,3.14-1.35,5.21-1.07,7.88,1.15,28.45,23.64,57.92,46.05,85.49,70.75,7.73,6.93,15.02,14.33,19.94,23.63,3.19,6.04,3.73,12.14-2.53,16.61-6.1,4.35-10.67,1.33-15.32-3.44-15.5-15.9-31.4-31.42-47-47.22-4.89-4.95-10.24-8.29-15.95-2.42-5.74,5.89-2.03,11.13,2.85,15.95,15.38,15.19,30.44,30.71,45.98,45.73,4.3,4.15,3.39,6.41-.65,9.56-7.01,5.46-15.01,5.28-21.43-1.09-13.87-13.77-27.69-27.58-41.44-41.48-4.64-4.69-9.81-7.73-15.33-2.4-5.92,5.72-2.75,11.06,2.21,15.94,11.61,11.42,22.93,23.13,34.65,34.45,4.47,4.31,7.8,8.13,2.47,13.96-4.88,5.33-12.74,5.99-18.08.82-10.63-10.3-20.99-20.88-31.46-31.35-1.67-1.67-3.24-3.47-5.03-5.01-4.38-3.78-9.16-4.49-13.45-.21-4.29,4.28-3.77,9.25.23,13.42,8.2,8.54,16.71,16.78,25.05,25.19,1.17,1.18,2.08,2.61,3.89,4.91-11.65-.06-21.06-3.08-29.27-9.08-29.63-21.64-58.62-44.13-86.86-67.58-12.13-10.08-19.4-19.74-11.88-38.09,11.38-27.76,16.93-57.7,23.14-87.15,1.18-5.58,3.11-7.41,8.62-7.19,9.39.37,18.8.1,30.49.1Z"/>
  <path class="cls-2" d="M477.57,231.08c0,27.25.04,54.49-.02,81.74-.02,9.77-2.89,12.86-12.54,12.96-16.58.17-33.17,0-49.75.08-8.02.04-12.13-3.88-14.43-11.53-14.97-49.79-31.77-98.92-54.07-146-3.37-7.12-1.36-11.41,7.36-14.55,24.32-8.75,49.5-13.65,75.17-15.96,11.48-1.03,23.04-1.5,34.57-1.78,11.12-.27,13.69,2.4,13.7,13.3.04,27.25.01,54.49.01,81.74Z"/>
  <path class="cls-1" d="M22.47,212.16c0-26.93-.03-53.86.01-80.79.02-12.27,3.28-14.77,15.53-13.78,23.28,1.87,46.52,3.83,69.29,9.34,1.15.28,2.33.42,3.46.74,24.7,6.92,27.71,11.83,23.14,36.83-8.35,45.66-22.69,89.75-35.14,134.33-1.59,5.71-5.69,7.81-11.37,7.79-17.76-.06-35.51-.11-53.27.02-8.23.06-11.75-3.77-11.71-11.91.13-27.52.05-55.04.05-82.57Z"/>
  <path class="cls-2" d="M379.54,301.47c-32.7-35.5-72.94-62.21-108-94.79-5.18-4.81-11.56-5.69-18.11-2.86-8.11,3.51-15.94,7.6-24.97,8.68-4.53.54-6.17,5.19-8.76,8.31-9.3,11.22-18.06,14.4-29.34,11.05-5.62-1.67-7.57-4.89-6.37-10.53,2.27-10.74,8.03-19.7,14.91-27.82,8.23-9.71,17.56-18.36,27.73-26.11,14.05-10.71,29.42-13.38,45.96-7.43,19.97,7.18,39.75,14.88,59.65,22.26,2.79,1.04,4.2,3.01,5.32,5.52,16.53,36.87,28.94,75.27,41.99,113.71Z"/>
</svg>