<?xml version="1.0" encoding="UTF-8"?>
<svg id="Layer_1" data-name="Layer 1" xmlns="http://www.w3.org/2000/svg" viewBox="0 0 500 500">
  <defs>
    <style>
      .cls-1 {
        fill: #112148;
      }

      .cls-2 {
        fill: #3b9bbc;
      }
    </style>
  </defs>
  <path class="cls-1" d="M139.07,212.52c7.59,0,15.18-.2,22.76.07,4.28.16,5.72-1.46,5.39-5.57-.25-3.19-.26-6.44.05-9.62.74-7.58,6.7-12.94,14.01-12.88,7.29.06,12.96,5.51,13.86,13.13.56,4.8-2.52,12.26,1.45,14.7l16.49.17,21.27-.27c1.56-.02,2.86,1.2,2.94,2.75l.22,4.35v9.19c.03,8.42-.52,12.2-11.21,14.7-11.07,2.59-17.69,15.26-17.1,26.78.6,11.61,8.1,22.13,19.87,24.85,7.49,1.73,8.46,5.37,8.24,11.85-.44,12.83-.36,25.69-.02,38.52.15,5.46-1.07,7.74-7.11,7.49-11.65-.48-23.35-.35-35.01-.04-5,.13-8.06-.81-6.97-6.58,2.51-13.34-3.32-21.97-14.06-29.72-15.09-10.89-29.59-22.76-40.56-38.28-12.58-17.79-19.46-37.59-22.18-59.06-.61-4.84.49-6.91,5.79-6.62,7.28.39,14.59.1,21.88.09Z"/>
  <path class="cls-2" d="M257.15,319.26c0-9.33-.42-18.68.14-27.98.38-6.4-2.01-8.27-7.91-7.5-2.58.34-5.31.38-7.85-.08-7.49-1.35-11.94-5.87-12.33-13.61-.37-7.3,5.14-13.23,12.68-14.18,4.83-.61,11.3,2.24,14.15-1.35,3.23-4.07.87-10.64,1.09-16.11.26-6.42-1.71-15.97-.23-21.74.47-1.86,2.15-3.15,4.07-3.13l20.89.25c.87-.07,1.75,0,2.62,0q13.95,0,14.72-13.6c.49-8.77,6.27-14.58,14.3-14.4,7.63.18,13.13,5.89,13.66,14.19q.88,13.81,14.51,13.81c6.71,0,13.44.38,20.11-.11,6.34-.47,7.84,1.61,7.03,7.88-4.37,34-19.79,61.7-46.34,83.28-4.52,3.68-8.82,7.7-13.66,10.89-11.86,7.82-20.25,17.1-16.73,32.74.99,4.42-1.56,5.78-6.31,5.39h-21.48c-5.38.44-7.4-.68-7.23-5.79.33-9.61.1-19.24.09-28.86Z"/>
  <path class="cls-1" d="M439.23,95.12c0,12.54-.31,25.09.11,37.61.28,8.48-3.33,11.84-11.48,11.03-.58-.06-1.17-.05-1.75,0-8.66.79-15.31.79-17.74-11.04-2.27-11.09-15.24-17.6-26.77-16.95-11.87.67-22.15,8.52-25.1,20.77-1.47,6.08-3.92,7.45-9.79,7.36-19.52-.32-19.52-.07-19.52-19.45q0-14.57-14.33-15.75c-8.12-.67-13.78-6.54-13.67-14.17.12-7.68,5.75-13.21,14.05-13.77,13.95-.95,14.04-.95,13.93-15.25-.17-20.87-.89-19.9,20.11-19.81,26.53.11,53.07.01,79.6.03,11.38,0,12.33.99,12.34,12.65.02,12.25,0,24.49,0,36.74Z"/>
  <path class="cls-2" d="M237.19,98.67c0,1.46.04,2.93.02,4.37-.09,8.07.19,13.5-10.28,15.61-11.14,2.24-18.06,14.79-17.75,26.33.31,11.62,7.97,21.52,19.08,25.81,2.94,1.13,8.02-.62,8.64,3.9,0,0,.16,11.3-.11,15.76-.11,1.89-1.77,3.31-3.66,3.13-4.82-.45-18.86-.39-18.86-.39-2.69.36-5.35.21-5.3-3.73.01-1.12-.52-2.26-.86-3.37-3.89-12.79-14.38-20.88-27.02-20.86-12.61.02-23.65,8.03-26.71,21.02-1.5,6.37-4.38,7.34-9.97,7.1-9.32-.41-18.67-.19-28.01-.08-3.51.04-5-.56-4.63-4.86,4.91-56.03,56.74-105.01,113.67-107.15q11.72-.44,11.72,11.3c0,2.04,0,4.09,0,6.13Z"/>
  <path class="cls-1" d="M244,371.6c17.19,0,34.39.06,51.58-.04,5.04-.03,10.05.48,10.31,6.6.28,6.76-4.9,7.45-10.33,7.44-34.97-.07-69.94-.07-104.91,0-5.03.01-10.05-.48-10.31-6.6-.28-6.76,4.9-7.47,10.33-7.44,17.78.09,35.55.04,53.33.04Z"/>
  <path class="cls-1" d="M243.41,434.29c9.31,0,18.63.18,27.93-.07,5.11-.14,5.96,1.6,4.28,6.16-4.54,12.31-18.04,21.71-31.93,21.89-14.32.19-28.01-9-32.98-21.63-2.11-5.37-.38-6.56,4.77-6.41,9.3.26,18.62.07,27.93.07Z"/>
  <path class="cls-1" d="M243.13,416.96c-13.11,0-26.22-.07-39.33.03-5.3.04-9.73-1.32-9.48-7.43.23-5.52,4.55-6.63,9.44-6.61,26.22.08,52.44.08,78.65,0,5.3-.02,9.73,1.33,9.48,7.43-.23,5.52-4.55,6.65-9.44,6.61-13.11-.11-26.22-.04-39.33-.04Z"/>
</svg>