<?xml version="1.0" encoding="UTF-8"?>
<svg id="Layer_1" data-name="Layer 1" xmlns="http://www.w3.org/2000/svg" viewBox="0 0 500 500">
  <defs>
    <style>
      .cls-1 {
        fill: #112148;
      }

      .cls-2 {
        fill: #3b9bbc;
      }
    </style>
  </defs>
  <path class="cls-1" d="M166.35,296.46l10.67,39.36,203.27-.14c24.99-.63,29.61,26.79,2.74,29.49l-220.93-.64c-8.3-2.55-9.68-8.7-11.9-16.16-21.6-72.73-34.5-151.01-54.67-224.45-.57-1.53-1.43-3.27-2.74-4.26-9.35-7.08-54.72,8.07-59.38-12.14-3.27-14.17,6.78-17.85,18.57-18.71,12.23-.89,35.89-1.28,47.75.06,25.62,2.89,16.93,24.04,24.24,38.88,5.18,10.51,21.23,4.72,30.39,4.54,88.34-1.7,176.86,1.46,265.21.01,14.23,1.28,22.03,8.91,17.92,23.65l-47.88,131.65c-.07,3.16-7.23,8.87-9.37,8.87h-213.9ZM403.39,161.81h-34.36c-.4,0-7.18,1.86-7.69,2.12-5.66,2.96-5.78,34.18-8.44,41.36h34.36c3.95,0,14.81-37.45,16.13-43.48ZM185.99,205.29c-.97-5.32-5.35-42.08-9.12-42.08h-42.78c5.26,13.5,5.15,29.39,11.92,42.08h39.97ZM256.12,163.21h-47.69l5.61,40.68h42.08v-40.68ZM330.46,163.21h-46.29v39.97c0,.15,1.96,2.1,2.1,2.1h38.57l5.61-42.08ZM186.69,233.34c-9.77-1.74-24.04,1.28-34.36,0,.69,7,5.16,36.47,13.32,36.47h30.16c-1.89-9.53-1.91-23.5-4.83-32.37-.66-2-2.28-3.74-4.28-4.1ZM318.53,233.34c-4.37-1.34-25.67,0-32.26,0-.15,0-2.1,1.96-2.1,2.1v32.26c0,.15,1.96,2.1,2.1,2.1h25.25c.53,0,4.55-1.56,4.92-2.41,3.18-7.35,1.38-22.37,4.24-30.56.05-1.25-1.13-3.18-2.15-3.49ZM379.55,233.34h-27.35c-5.92,0-5.84,28.32-7.65,33.09.3,5.94,20.34,3.61,22.47,1.02,1.16-1.41,13.85-32.87,12.53-34.11ZM256.12,234.74h-36.47c.52,4.23,3.17,33.66,6.31,33.66h30.16v-33.66Z"/>
  <path class="cls-2" d="M331.52,375.37c46.5-6.72,60.05,55.62,19.56,70.05-51.76,18.45-68.5-62.98-19.56-70.05Z"/>
  <path class="cls-2" d="M203.88,375.37c45.96-6.54,59.52,57.39,16.89,70.18-51.32,15.39-66.76-63.08-16.89-70.18Z"/>
</svg>