<?xml version="1.0" encoding="UTF-8"?>
<svg id="Layer_1" data-name="Layer 1" xmlns="http://www.w3.org/2000/svg" viewBox="0 0 500 500">
  <defs>
    <style>
      .cls-1 {
        fill: #112148;
      }

      .cls-2 {
        fill: #3b9bbc;
      }
    </style>
  </defs>
  <path class="cls-1" d="M59.39,195.4c.67-2.1,1.24-4.24,2.02-6.3,4.56-12.02,13.2-19.68,25.78-21.86,14.13-2.45,26.13,2.39,35.17,13.46,5.66,6.93,10.54,14.54,14.82,22.4,6.16,11.34,6.21,22.98-.66,34.08-6.51,10.52-16.42,15.35-28.67,14.97-8.66-.27-16.19-3.74-22.47-9.69-5.24-4.97-10.31-10.12-15.43-15.22-5.75-5.72-8.5-12.99-10.56-20.6,0-3.74,0-7.49,0-11.23Z"/>
  <path class="cls-1" d="M359.44,430.66c-23.03-.24-42.7-8.56-59.01-24.78-1.73-1.72-3.36-2.51-5.84-2.37-11.32.61-21.87-2.74-32.32-6.56-8.32-3.04-16.75-5.66-25.77-5.48-8.37.17-16.1,2.94-23.82,5.78-11.05,4.07-22.25,6.87-34.25,6.32-29.81-1.38-57.59-24.93-62.78-54.39-4.62-26.22,1.11-50.93,13.94-73.77,20.35-36.22,51.47-58.22,92.74-63.1,48.27-5.7,87.29,12.21,116.45,51.19,1.62,2.16,2.84,2.9,5.68,2.41,46.42-8.02,88.43,21.38,97.12,67.81,8,42.74-21.78,86.55-64.68,95.18-5.77,1.16-11.57,1.76-17.46,1.76ZM359.59,289.39c-32.15-.03-58.39,26.11-58.38,58.17,0,32.07,26.2,58.24,58.32,58.25,32.14.01,58.35-26.12,58.39-58.19.04-32.05-26.16-58.2-58.32-58.23Z"/>
  <path class="cls-1" d="M227.19,154.91c-.43,18.26-6.27,32.75-20.91,42.41-18.04,11.9-41.77,6.94-55.94-11.14-3.25-4.15-6.12-8.6-7.69-13.6-4.65-14.83-10.13-29.52-12.33-44.92-2.68-18.77,2.5-35.58,17.32-48.12,20.58-17.42,50.51-11.92,66.6,11.79,5.78,8.52,9.05,17.93,9.89,28.22.99,12.17,2.11,24.33,3.07,35.35Z"/>
  <path class="cls-1" d="M248.58,155.45c1.71-15.33,1.25-30.92,4.77-46.04,2.82-12.15,9.34-22.25,19.19-29.97,23.02-18.05,54.17-11.08,67.45,15.07,6.48,12.75,7.8,26.2,4.21,39.96-3.11,11.91-6.35,23.81-10.27,35.47-5.64,16.78-16.63,28.73-34.33,32.76-19.84,4.52-38.97-6.31-46.97-25.73-2.84-6.89-4.25-14.05-4.05-21.53Z"/>
  <path class="cls-1" d="M334.08,220.58c.2-7.27,1.57-13.08,4.8-18.24,4.43-7.07,8.85-14.17,13.82-20.85,16.01-21.49,48.47-19.27,60.04,3.95,6.49,13.03,4.27,29.32-6.08,40.68-5.7,6.26-11.68,12.35-18.17,17.76-10.73,8.95-23.05,11.19-35.92,5.19-12.37-5.76-17.98-16.24-18.5-28.49Z"/>
  <path class="cls-2" d="M350.62,380.37c-3.42.13-6.31-1.17-8.71-3.54-4.88-4.81-9.77-9.61-14.52-14.54-5.11-5.31-5.07-12.8-.1-17.72,4.88-4.82,12.14-4.79,17.48.01,2.02,1.82,3.78,5.46,5.96,5.14,2.3-.34,4.23-3.51,6.25-5.51,6.19-6.14,12.32-12.34,18.51-18.48,5.74-5.68,13.03-6.02,18.24-.92,5.34,5.23,5.09,12.66-.75,18.53-10.89,10.96-21.84,21.85-32.75,32.78-2.66,2.66-5.7,4.4-9.61,4.24Z"/>
</svg>