<?xml version="1.0" encoding="UTF-8"?>
<svg id="Layer_1" data-name="Layer 1" xmlns="http://www.w3.org/2000/svg" viewBox="0 0 500 500">
  <defs>
    <style>
      .cls-1 {
        fill: #112148;
      }

      .cls-2 {
        fill: #3b9bbc;
      }
    </style>
  </defs>
  <path class="cls-1" d="M58.3,267.19c0-32.7.06-65.4-.08-98.11-.01-3.63.7-4.86,4.65-4.83,28.54.19,57.09.11,85.63.1,18.51,0,29.52-10.96,29.53-29.38.01-24.39.06-48.78-.06-73.16-.01-2.99.58-3.98,3.82-3.97,43.37.12,86.74.01,130.12.12,21.22.05,38.93,17.76,39.03,38.95.13,25.63-.02,51.27.11,76.91.02,3.1-.77,3.92-3.89,3.9-20.37-.15-40.74-.1-61.11-.07-26.67.04-47.7,16.59-53.52,42.13-.92,4.06-1.31,8.19-1.31,12.36.02,52.38.02,104.76,0,157.14,0,4.18.39,8.3,1.37,12.35.4,1.68-.03,2.32-1.72,2.21-.83-.05-1.66,0-2.49,0-42.96,0-85.91.01-128.87,0-24.11-.01-41.19-17.19-41.2-41.42-.01-31.73,0-63.46,0-95.2ZM151.09,244.19c16.63,0,33.25-.06,49.87.06,2.8.02,3.87-.56,3.76-3.6-.24-6.64-.2-13.3-.01-19.95.08-2.64-.81-3.21-3.3-3.21-33.25.08-66.5.09-99.75-.02-3.1-.01-3.62,1.09-3.54,3.82.18,6.37.25,12.75-.02,19.11-.14,3.2.9,3.88,3.94,3.85,16.35-.15,32.7-.07,49.04-.07ZM151.41,284.07c-16.63,0-33.25.03-49.88-.04-2.31-.01-3.51.27-3.42,3.08.21,6.92.14,13.85.03,20.78-.03,2.12.55,2.87,2.78,2.86,33.67-.06,67.33-.06,101,0,2.25,0,2.81-.76,2.77-2.87-.11-6.65-.2-13.31.03-19.95.11-3.06-.67-3.98-3.85-3.94-16.48.17-32.97.08-49.46.08Z"/>
  <path class="cls-2" d="M252.94,322.26c0-26.05-.01-52.1,0-78.15.01-24.24,17.08-41.4,41.21-41.41,34.64-.02,69.29-.02,103.93,0,23.9.01,41.09,17.19,41.09,41.1.02,52.38.02,104.76,0,157.14,0,23.98-17.13,41.19-40.99,41.21-34.78.02-69.56.03-104.34,0-23.6-.02-40.87-17.29-40.89-40.9-.03-26.33,0-52.66,0-78.99ZM346.07,282.52c12.19,0,24.38-.05,36.57.04,2.32.02,3.5-.28,3.42-3.09-.21-6.92-.14-13.85-.03-20.78.03-2.13-.55-2.87-2.78-2.86-24.8.07-49.59.07-74.39,0-2.25,0-2.8.78-2.77,2.88.11,6.79.15,13.58-.02,20.36-.07,2.66.64,3.54,3.42,3.51,12.19-.15,24.38-.06,36.57-.06ZM319.63,309.1c-3.32,0-6.65.13-9.97-.04-2.53-.13-3.7.39-3.6,3.32.22,6.78.16,13.57.02,20.35-.05,2.33.62,3.11,3.01,3.06,6.92-.15,13.85-.15,20.77,0,2.48.06,2.99-.88,2.95-3.12-.12-6.92-.12-13.85,0-20.77.04-2.15-.58-2.95-2.8-2.84-3.45.16-6.92.04-10.38.04ZM372.83,309.1c-3.6,0-7.2.07-10.8-.03-1.86-.05-2.75.37-2.72,2.49.11,7.2.1,14.4,0,21.6-.03,1.98.61,2.64,2.6,2.61,7.2-.09,14.4-.07,21.6-.01,1.67.01,2.52-.36,2.5-2.28-.08-7.34-.08-14.68,0-22.02.02-1.79-.58-2.45-2.39-2.4-3.6.1-7.2.03-10.8.03ZM319.86,362.32c-3.6,0-7.21.14-10.8-.05-2.44-.13-3.02.81-2.98,3.09.13,6.92.11,13.85,0,20.77-.03,2.11.52,2.92,2.77,2.88,7.06-.13,14.12-.13,21.18,0,2.26.04,2.8-.78,2.76-2.88-.11-6.92-.12-13.85,0-20.77.04-2.29-.55-3.23-2.99-3.08-3.31.19-6.64.05-9.97.05ZM373.69,362.32c-4.32,0-7.93.11-11.52-.04-2.13-.09-2.9.55-2.86,2.78.13,7.06.13,14.12,0,21.18-.04,2.27.81,2.78,2.89,2.75,7.06-.1,14.12-.09,21.18,0,1.94.02,2.71-.54,2.64-2.57-.13-3.73,0-7.48-.05-11.21-.06-4.13,1.38-9.64-.71-12.02-2.43-2.76-8.07-.46-11.58-.87Z"/>
  <path class="cls-2" d="M108.18,140.97c-11.37,0-22.74.02-34.12,0-5.78-.01-9.88-2.7-11.74-7.63-1.84-4.87-.62-9.7,3.87-13.46,23.25-19.46,46.56-38.84,69.87-58.24,3.84-3.2,8.2-3.86,12.67-1.75,4.6,2.17,6.8,6.01,6.79,11.2-.05,19.2,0,38.4-.03,57.6-.01,7.52-4.84,12.26-12.45,12.27-11.62.03-23.23,0-34.85,0Z"/>
</svg>