<?xml version="1.0" encoding="UTF-8"?>
<svg id="Layer_1" data-name="Layer 1" xmlns="http://www.w3.org/2000/svg" viewBox="0 0 500 500">
  <defs>
    <style>
      .cls-1 {
        fill: #112148;
      }

      .cls-2 {
        fill: #3b9bbc;
      }
    </style>
  </defs>
  <path class="cls-2" d="M303.77,130.25c5.11,0,10.23.1,15.34-.05,2.18-.06,2.78.69,2.7,2.77-.15,3.49.05,6.99-.07,10.47-.07,2.07.41,3.01,2.76,3.37,22.87,3.48,43.47,12.36,61.68,26.6,2.35,1.84,3.76,2.03,5.75-.31,2.17-2.56,4.65-4.87,7.12-7.16,4.05-3.75,9.55-3.77,13.07-.16,3.43,3.51,3.41,8.85-.19,12.8-2.27,2.48-4.59,4.95-7.15,7.12-2.12,1.8-1.97,2.93-.15,4.97,15.14,16.96,25.17,36.59,30.47,58.71,17.33,72.22-29.67,146.78-102.32,162.21-71.33,15.15-140.99-27.16-159.24-97.81-11.67-45.17-1.47-86.06,28.39-121.95,3.16-3.8,3.23-3.74-.37-7.34-2.03-2.03-4.14-3.98-6.04-6.13-3.51-3.97-3.37-9.38.19-12.78,3.45-3.31,8.69-3.38,12.51.05,2.87,2.58,5.59,5.34,8.23,8.17,1.38,1.48,2.38,1.62,4.03.32,18.67-14.74,39.76-23.94,63.31-27.41,1.88-.28,2.11-1.29,2.08-2.82-.05-3.49.17-7-.07-10.47-.19-2.74.84-3.34,3.38-3.24,4.86.19,9.73.06,14.59.06ZM193.02,280.01c.02,60.83,49.99,110.82,110.68,110.72,61.2-.09,110.81-49.68,110.91-110.87.1-60.72-49.89-110.72-110.68-110.72-61.09,0-110.93,49.82-110.91,110.87Z"/>
  <path class="cls-1" d="M303.8,85.34c9.72,0,19.44-.03,29.16,0,6.18.02,9.71,3.54,9.75,9.7.04,5.61.06,11.22,0,16.82-.06,5.71-3.64,9.34-9.34,9.35-19.69.04-39.38.04-59.07,0-5.71-.01-9.31-3.64-9.37-9.32-.06-5.73-.06-11.47,0-17.2.06-5.7,3.65-9.31,9.35-9.34,9.85-.06,19.69-.02,29.54-.02Z"/>
  <path class="cls-1" d="M109.58,253.01c12.46,0,24.92-.01,37.38,0,6.19,0,10.12,3.52,10.11,8.97,0,5.45-3.94,8.95-10.14,8.95-25.17.01-50.34.01-75.51,0-6.19,0-10.12-3.53-10.12-8.98,0-5.45,3.93-8.93,10.14-8.94,12.71-.02,25.42,0,38.13,0Z"/>
  <path class="cls-1" d="M130.02,235.02c-9.59,0-19.18.02-28.78,0-6.13-.02-10.06-3.62-10-9.1.06-5.29,3.96-8.82,9.88-8.82,19.31-.02,38.62-.02,57.93,0,6.13,0,10.06,3.62,9.99,9.09-.06,5.29-3.96,8.82-9.88,8.84-9.72.03-19.43,0-29.15,0Z"/>
  <path class="cls-1" d="M118.15,288.94c9.72,0,19.43-.02,29.15,0,5.87.02,9.76,3.62,9.78,8.93.01,5.32-3.88,8.98-9.72,8.99-19.43.03-38.87.03-58.3,0-5.87,0-9.76-3.62-9.78-8.94-.01-5.32,3.87-8.96,9.73-8.98,9.72-.03,19.43,0,29.15,0Z"/>
  <path class="cls-1" d="M133.14,324.87c6.85,0,13.7-.04,20.55.01,5.53.05,9.37,3.77,9.37,8.95,0,5.18-3.84,8.94-9.37,8.96-13.7.05-27.4.05-41.1,0-5.53-.02-9.37-3.77-9.37-8.96,0-5.18,3.83-8.9,9.37-8.95,6.85-.06,13.7-.01,20.55-.01Z"/>
  <path class="cls-1" d="M303.8,228.96c0,15.71.09,31.42-.07,47.13-.03,3.04.65,3.95,3.84,3.94,31.3-.13,62.59-.02,93.89-.16,3.49-.02,4.32.96,4.18,4.31-1.81,43.32-31.37,81.82-74.18,93.75-57.6,16.04-115.96-19.97-127.68-78.56-11.1-55.46,27.09-110.72,82.73-119.76,4.68-.76,9.36-1.26,14.1-1.5,2.73-.14,3.28.8,3.26,3.35-.11,15.83-.06,31.67-.06,47.51Z"/>
</svg>