<?xml version="1.0" encoding="UTF-8"?>
<svg id="Layer_1" data-name="Layer 1" xmlns="http://www.w3.org/2000/svg" viewBox="0 0 500 500">
  <defs>
    <style>
      .cls-1 {
        fill: #112148;
      }

      .cls-2 {
        fill: #3b9bbc;
      }
    </style>
  </defs>
  <path class="cls-1" d="M333.79,164.06c2.19,2.18,2.27,7.31,2.54,10.39.97,11.29,1.52,47.08-1.02,56.81-5.94,22.8-48.29,35.72-48.66,62.85,4.47,44.62,11,89.24,13.81,133.92l-119.3,1.98,16.01-138.09c-.87-17.39-18.89-23.02-22.59-37.23-2.84-10.91-.84-22.31-1.27-33.35,7.76,2.36,16.34-7.03,21.06-7.57,4.29-.49,9.13,4.2,17.08,3.12s13.93-8.58,16.71-9.16c5.37-1.11,11.53,7.74,24.43.45,2.7-1.53,5.07-6.07,7.39-6.52,4.62-.89,15.11,9.79,27.6-.23,3.43-2.75,3.55-7.02,6.89-8,3.44,15.22-15.37,12.57-26.48,20.21-11.11,7.64-28.27,43.86-12.49,41.31,4.07-.66,7.71-22.87,17.06-30.77,11.3-9.55,21.16-5.62,29.88-9.88,5.49-2.69,5.39-24.11,3.02-28.85-1.84-3.69-11.44-5.55-15.61-8.24-14.26-9.2-15.26-26.88,3.38-25.38,4.37.35,38.7,10.4,40.56,12.25Z"/>
  <path class="cls-1" d="M230.88,144.7c1.69-8.13,15.28-10.09,19.74-3.83,3.42,4.81,3.21,45.86.62,52.03-4.6,10.94-20.36,6.07-20.36,1.51,0-12.73-2.22-39.04,0-49.7Z"/>
  <path class="cls-1" d="M199.07,152.66c2.21-7.86,19.88-5.35,19.88,0v47.72c0,6.49-19.88,6.49-19.88,0,0-10.3-2.05-40.4,0-47.72Z"/>
  <path class="cls-1" d="M184.68,206.85c-3.4,3.4-14.91,3.36-17.58-.85-2.71-4.28-2.73-34.97-1.4-40.98,2.58-11.61,19.27-11.37,21.39-.39,1.11,5.74.79,39.02-2.42,42.22Z"/>
  <path class="cls-1" d="M284.55,141.69c-21.36,6.43-20.66,26.73-6,40.9,3.87,3.74,11.14,2.8,1.91,9.75-22.42,16.87-19.16-38.68-17.3-49.15,3.97-22.38,24.88-6.05,21.39-1.49Z"/>
  <path class="cls-2" d="M368.07,179.51l-4.07,15.85c-16.26-2.07-20.22-2.05-17.8-19.84l21.87,3.99Z"/>
  <path class="cls-2" d="M155.32,177.5c2.46,17.91-1.63,17.7-17.88,19.89l-3.99-15.89,21.87-4Z"/>
  <g>
    <path class="cls-2" d="M59.38,152.14c-53.99,9.06-54.68,97.88,4.02,106.36,83.12,12.02,85.74-121.43-4.02-106.36ZM81.35,226.99l-8.99-12.98c-.16,0-.31,0-.47,0h-9.26v12.97h-10.78v-46.31h20.05c4.15,0,7.72.67,10.72,2.02,3,1.35,5.31,3.28,6.95,5.79,1.63,2.51,2.45,5.49,2.45,8.93s-.82,6.47-2.45,8.96c-1.63,2.49-3.95,4.39-6.95,5.69-.02,0-.04.02-.06.03l10.32,14.89h-11.51Z"/>
    <path class="cls-2" d="M78.71,191.49c-1.68-1.39-4.15-2.08-7.41-2.08h-8.67v16.08h8.67c3.26,0,5.73-.71,7.41-2.12,1.68-1.41,2.51-3.4,2.51-5.95s-.84-4.53-2.51-5.92Z"/>
  </g>
  <g>
    <path class="cls-2" d="M435.43,191.49c-1.68-1.39-4.15-2.08-7.41-2.08h-8.67v16.08h8.67c3.26,0,5.73-.71,7.41-2.12,1.68-1.41,2.51-3.4,2.51-5.95s-.84-4.53-2.51-5.92Z"/>
    <path class="cls-2" d="M415.25,152.14c-12.69,2.12-27.72,14.76-33.64,26.01-26.96,51.25,30.35,102.91,76.57,72.59,49.7-32.6,21.26-109.34-42.93-98.6ZM438.08,226.99l-8.99-12.98c-.16,0-.31,0-.47,0h-9.26v12.97h-10.78v-46.31h20.05c4.15,0,7.72.67,10.72,2.02,3,1.35,5.31,3.28,6.95,5.79,1.63,2.51,2.45,5.49,2.45,8.93s-.82,6.47-2.45,8.96c-1.63,2.49-3.95,4.39-6.95,5.69-.02,0-.04.02-.06.03l10.32,14.89h-11.51Z"/>
  </g>
</svg>