<?xml version="1.0" encoding="UTF-8"?>
<svg id="Layer_1" data-name="Layer 1" xmlns="http://www.w3.org/2000/svg" viewBox="0 0 500 500">
  <defs>
    <style>
      .cls-1 {
        fill: #112148;
      }

      .cls-2 {
        fill: #3b9bbc;
      }
    </style>
  </defs>
  <path class="cls-2" d="M132.12,432.88c0-7.02-.04-14.04.03-21.07.11-12.47,9.2-21.74,21.61-21.75,64.15-.05,128.3-.05,192.45,0,12.41.01,21.49,9.28,21.61,21.75.06,7.02.02,14.04.03,21.07h-235.72Z"/>
  <path class="cls-2" d="M67.12,239.3c13.41,0,26.83.08,40.24-.05,2.58-.02,3.52.52,3.39,3.29-.24,5.09-.2,10.21-.01,15.31.09,2.42-.77,2.93-3.02,2.92-13.53-.09-27.06-.04-40.59-.03v-21.43Z"/>
  <path class="cls-1" d="M250.1,368.58c-30.95,0-61.89-.04-92.84.07-2.88,0-3.78-.58-3.77-3.64.11-38.21,0-76.41.09-114.62.11-46.52,32.14-85.63,77.66-95.01,42.12-8.68,86.51,13.35,105.23,52.12,6.63,13.73,9.95,28.13,9.94,43.36-.04,37.97-.06,75.94.06,113.91,0,3.13-.73,3.91-3.89,3.9-30.83-.13-61.65-.08-92.48-.08ZM260.7,250.04c0-9.76,0-19.51,0-29.27,0-1.58.26-3.03-2.23-2.96-5.71.15-11.42.11-17.13.01-1.85-.03-2.12.79-2.12,2.36.04,19.87.05,39.74-.01,59.61,0,1.89.58,2.45,2.44,2.41,5.11-.11,10.24-.21,15.35.03,2.89.14,3.86-.56,3.79-3.64-.22-9.51-.08-19.04-.08-28.56ZM250.3,303.81c0-.08,0-.15,0-.23-2.85,0-5.71.08-8.56-.03-1.74-.06-2.57.31-2.53,2.32.12,5.59.11,11.18,0,16.77-.03,1.86.53,2.47,2.41,2.44,5.59-.11,11.18-.12,16.77,0,1.98.04,2.41-.74,2.34-2.51-.11-2.85.08-5.71-.06-8.56-.16-3.4,1.54-7.94-.73-9.86-1.93-1.63-6.34-.34-9.65-.34Z"/>
  <path class="cls-2" d="M260.68,89.08c0,6.3-.09,12.59.05,18.89.05,2.18-.55,2.87-2.78,2.8-5.34-.16-10.69-.12-16.03-.01-1.92.04-2.7-.39-2.68-2.52.09-12.83.09-25.66,0-38.49-.01-2.01.55-2.67,2.59-2.62,5.46.13,10.93.14,16.39,0,2.16-.06,2.52.82,2.5,2.71-.09,6.41-.04,12.83-.04,19.24Z"/>
  <path class="cls-2" d="M411.07,260.72c-6.41,0-12.83-.08-19.24.04-2.05.04-2.63-.62-2.59-2.62.12-5.46.1-10.93,0-16.39-.03-1.8.43-2.48,2.37-2.47,12.95.08,25.9.07,38.84,0,1.89-.01,2.44.59,2.4,2.44-.1,5.46-.16,10.93.02,16.39.08,2.4-.93,2.68-2.93,2.65-6.29-.1-12.59-.04-18.89-.04Z"/>
  <path class="cls-2" d="M158.94,144.01c-.51.58-.87,1.04-1.28,1.46-4.03,4.03-8.11,8.01-12.06,12.11-1.28,1.33-2.06,1.32-3.37,0-9.02-9.12-18.09-18.18-27.2-27.19-1.23-1.21-1.2-1.92,0-3.09,4.17-4.05,8.28-8.18,12.35-12.33,1.03-1.06,1.7-1.17,2.83-.03,9.11,9.19,18.28,18.32,27.43,27.48.47.48.86,1.04,1.32,1.6Z"/>
  <path class="cls-2" d="M356.07,158.97c-.58-.48-1.14-.89-1.63-1.38-4.04-4.02-8.03-8.09-12.12-12.06-1.17-1.14-1.33-1.88-.08-3.12,9.2-9.1,18.35-18.26,27.46-27.44,1.05-1.06,1.71-1.22,2.83-.07,4.14,4.25,8.33,8.46,12.59,12.59,1.2,1.17.85,1.83-.15,2.82-9.18,9.12-18.31,18.29-27.47,27.43-.41.41-.89.76-1.43,1.22Z"/>
</svg>