<?xml version="1.0" encoding="UTF-8"?>
<svg id="Layer_1" data-name="Layer 1" xmlns="http://www.w3.org/2000/svg" viewBox="0 0 500 500">
  <defs>
    <style>
      .cls-1 {
        fill: #112148;
      }

      .cls-2 {
        fill: #3b9bbc;
      }
    </style>
  </defs>
  <path class="cls-1" d="M358.8,392.82c-.15.02-.3.04-.45.06,2.47-8.96-.35-19.17-7.06-25.59-6.71-6.43-17.04-8.79-25.88-5.94-6.35-8.18-18.17-11.62-27.92-8.11-5.21-6.96-14.38-10.73-22.98-9.44l.03-9.85c20.36.05,40.72.1,61.08.16,7.79.02,16.53-.35,21.84-6.05,4.82-5.18,5.1-12.99,5.11-20.07.05-72.89.1-145.77.15-218.66,0-9.89-.99-21.64-9.56-26.59-4.28-2.48-9.49-2.55-14.44-2.55-58.32-.02-116.63-.05-174.95-.07-6.63,0-13.83.18-19.02,4.32-6.92,5.52-7.5,15.64-7.5,24.5.02,72.83.04,145.67.07,218.5,0,7.31.3,15.39,5.34,20.68,5.38,5.65,14.11,6.01,21.91,5.99,20.27-.04,40.54-.09,60.8-.13,0,15.4,0,30.81,0,46.21-8.92-8.32-20.07-15.06-32.25-15.58-8.61-.37-17.67,3.01-23.49,9.47-2.61,2.89-5.9,6.69-5.83,10.95.08,4.59,4.17,7.76,7.45,10.35-9.9,1.16-20.14,1.17-29.59-1.99-9.45-3.16-18.07-9.86-21.76-19.12-2.58-6.47-2.62-13.64-2.62-20.61-.03-90.19-.06-180.38-.09-270.57,0-11.7.34-24.44,7.77-33.48,9.54-11.63,26.69-12.56,41.73-12.55,57.03.03,114.06.06,171.09.08,10.7,0,22.21.26,30.86,6.56,12.96,9.43,14.16,27.97,14.16,44-.01,85.94-.02,171.89-.04,257.83,0,9.77-.05,19.79-3.52,28.92-3.42,8.99-10.95,17.06-20.44,18.39Z"/>
  <path class="cls-2" d="M268.87,351.76c10.03-5.63,21.87-1.06,26.66,9.07,9.53-6.76,23.54-2.48,27.81,8.33,11.75-8.05,27.84-.66,29.51,13.41l-.02,63.93c-1.56,9.51-8.76,15.77-18.32,16.47h-84.37c-5.89-.44-10.74-3.43-14.94-7.38-11.03-11.88-22.06-23.76-33.1-35.64-5.97-6.43-11.94-12.84-17.91-19.27-3.9-4.2-8.21-8.17-11.76-12.68-.81-1.03-1.58-2.15-1.82-3.43-.29-1.61.32-3.27,1.29-4.59,7.32-9.95,21.4-11.68,32.08-7.06,5.5,2.38,10.53,5.82,15.17,9.59,2.27,1.85,4.46,3.8,6.57,5.82.89.85,5.32,4.22,5.32,5.41,0,0-.01-92.87-.01-92.87-.09-13.87,11.35-25.12,25.46-20.13,6.65,2.35,12.38,10.42,12.38,17.5v53.52Z"/>
  <path class="cls-1" d="M273.84,293.08c-5.19-23.32-36.99-26.46-46.37-4.1-.4.96-.94,3.89-1.57,4.1h-28.27c-9.28-1.16-16.53-8.33-18.01-17.54l-.02-74.9c1.19-9.48,8.85-16.95,18.34-17.97h104.04c10.78,1.3,17.99,9.5,18.72,20.23,1.55,22.69-1.21,47.13,0,70-.31,10.14-8.49,19.42-18.72,20.23-9.02.71-19.02-.52-28.14-.06ZM247.23,214.19c-32.26,3.68-24.19,55.04,8.86,46.68,27.59-6.98,20.34-50.01-8.86-46.68Z"/>
  <path class="cls-2" d="M295.35,157.73h-23.45v-20.23c0-5.81-7.2-14.05-12.23-16.52-13.72-6.74-31.65,3.42-31.65,18.79v36.88h-23.45v-38.38c2.91-45.98,64.03-59.72,85.54-18.98,6.53,12.38,5.25,24.89,5.23,38.45Z"/>
</svg>