<?xml version="1.0" encoding="UTF-8"?>
<svg id="Layer_1" data-name="Layer 1" xmlns="http://www.w3.org/2000/svg" viewBox="0 0 500 500">
  <defs>
    <style>
      .cls-1 {
        fill: #112148;
      }

      .cls-2 {
        fill: #3b9bbc;
      }
    </style>
  </defs>
  <path class="cls-2" d="M416.2,104.33c-10.85,9.1-20.64,17.33-30.45,25.53-38.22,31.95-76.43,63.9-114.67,95.81-14.8,12.35-20.64,12.52-35.22.36-46.97-39.14-93.83-78.4-140.73-117.62-1.35-1.13-2.63-2.36-4.54-4.08h325.62Z"/>
  <path class="cls-1" d="M416.81,344.15H89.13c.47-2,2.18-2.85,3.45-3.91,41.1-34.42,82.24-68.79,123.29-103.27,2.48-2.09,4.07-2.45,6.57-.12,4.39,4.09,9.27,7.58,14.51,10.54,10.92,6.17,21.84,6.1,32.74-.07,5.24-2.97,10.06-6.54,14.47-10.6,2.28-2.11,3.84-1.95,6.19.02,37.35,31.38,74.78,62.67,112.18,93.98,4.91,4.11,9.78,8.26,14.67,12.39-.14.34-.27.69-.41,1.03Z"/>
  <path class="cls-1" d="M77.3,115.7c8.25,6.87,15.65,13,23.01,19.17,34.11,28.54,68.2,57.1,102.34,85.59,2.22,1.85,3.5,2.8.44,5.35-41.47,34.53-82.84,69.19-124.23,103.8-.35.29-.84.42-1.56.76V115.7Z"/>
  <path class="cls-1" d="M428.32,330.13c-9.11-7.6-17.5-14.58-25.87-21.59-32.57-27.24-65.09-54.55-97.77-81.66-3.67-3.05-3.49-4.33.12-7.33,39.7-32.99,79.24-66.19,118.84-99.29,1.2-1,2.32-3.01,4.03-2.33,1.51.6.92,2.68.92,4.11.03,68.3.02,136.6.01,204.9,0,.65-.11,1.3-.28,3.19Z"/>
</svg>