<?xml version="1.0" encoding="UTF-8"?>
<svg id="Layer_1" data-name="Layer 1" xmlns="http://www.w3.org/2000/svg" viewBox="0 0 500 500">
  <defs>
    <style>
      .cls-1 {
        fill: #112148;
      }

      .cls-2 {
        fill: #3b9bbc;
      }
    </style>
  </defs>
  <path class="cls-1" d="M255.05,64.13c8.63,1.95,15.67,7.05,22.98,11.61,49.77,31.1,99.55,62.2,149.32,93.29,8.71,5.44,9.89,10.69,4.39,19.47-3.06,4.89-6.09,9.81-9.17,14.7-4.46,7.07-10.36,8.42-17.47,3.98-48.76-30.48-97.56-60.89-146.22-91.52-6.34-3.99-11.56-3.89-17.9.1-48.34,30.44-96.84,60.63-145.29,90.9-8.33,5.2-13.62,3.95-18.91-4.46-3.94-6.27-7.91-12.52-11.87-18.78,0-2.17,0-4.34,0-6.51,1.8-3.68,4.8-6.05,8.24-8.19,49.83-31.06,99.61-62.2,149.41-93.33,7.11-4.44,13.97-9.38,22.37-11.26h10.12Z"/>
  <path class="cls-2" d="M187.82,64.13q6.01,3.75-.2,7.66c-21.61,13.52-43.23,27.04-64.87,40.53-.97.6-1.82,1.59-3.51,1.4,0-6.11,0-12.21,0-18.3,0-5.54.28-11.1-.07-16.61-.42-6.7,1.77-11.68,7.93-14.67h60.73Z"/>
  <path class="cls-2" d="M289.68,246.4l117.09-.16c9.1,1.21,14.73,7.71,15.51,16.77v154.87c-1.03,10.57-8.45,16.56-18.78,17.46-16.5,1.43-35.4-.75-52.1-.71-19.4.05-39.86,2.24-59.29.71-11.29-.89-17.23-6.88-18.12-18.12l.03-154.18c1.09-9.2,6.35-15.22,15.65-16.64ZM294.92,268.11c-2.54.8-2.9,1.63-3.14,4.1-.47,4.68-.73,22.26.05,26.38.28,1.46,1.84,2.74,3.09,3.5l104.63.15c2.55-.15,4.06-1.49,4.64-3.92.81-3.43.83-22.28.25-26.03-.32-2.08-1.71-3.61-3.73-4.18h-105.79ZM294.94,328.74c-2.28.42-3.37,1.14-3.74,3.51-.39,2.48-.44,14.64.95,16.09,1.88,1.95,17.48,1.97,19.4.32,2.1-1.81,1.98-16.28.06-18.46-1.95-2.22-13.67-2-16.67-1.45ZM326.56,328.74c-5.94,1.06-4.99,10.41-4.44,15.32.37,3.32,1.37,5.2,4.93,5.62,2.67.31,13.82.4,15.47-1.02,1.98-1.7,2.01-17.02.34-18.74-1.79-1.85-13.51-1.67-16.3-1.17ZM356.87,328.74c-.9.17-2.18.46-2.78,1.17-1.54,1.83-1.54,16.57,0,18.41,1.7,2.02,17.28,1.89,19.38.31,1.94-1.46,1.64-12.3,1.35-15.12-.32-3.16-.92-4.57-4.27-4.95-2.92-.34-10.89-.35-13.68.17ZM384.86,330.05c-1.43,1.43-1.35,16.81.51,18.61,1.69,1.63,17.76,1.62,19.41-.34s1.59-16.49-.6-18.47-17.23-1.89-19.32.2ZM294.26,359.69c-1.86.43-2.78,1.69-3.06,3.52-.43,2.73-.56,14.07,1.24,15.81,2.38,2.31,16.33,2.34,18.83.31s2.34-15.9.34-18.17c-1.86-2.12-14.55-2.12-17.35-1.47ZM325.89,359.69c-5.18,1.14-4.68,16.74-2.5,19.35,1.97,2.35,19.47,3.27,20.46-2.05.52-2.79.42-13.89-1.29-15.81-1.97-2.22-13.69-2.15-16.67-1.49ZM356.85,359.69c-3.43.75-3.59,5.01-3.75,8.1-.12,2.32.14,9.94,1.64,11.52,1.89,1.99,16.61,1.9,18.73.3,1.97-1.48,1.89-15.85.74-17.8-1.79-3.04-14.16-2.83-17.36-2.12ZM387.81,359.69c-5.31,1.18-4.64,16.78-2.5,19.35,1.96,2.35,19,3.09,20.34-1.51.68-2.33.44-14.56-1.15-16.37-1.87-2.13-13.89-2.09-16.69-1.47ZM294.94,390.67c-2.28.42-3.37,1.14-3.74,3.51-.42,2.64-.4,14.23.98,16.06.65.86,1.64,1.15,2.64,1.31,2.43.38,14.87.67,16.49-.55,2.26-1.72,2.25-16.31.59-18.5-2.04-2.69-13.6-2.44-16.96-1.82ZM326.56,390.67c-3.41.6-3.98,2.32-4.36,5.52s-.61,14.16,3.03,15.26c3.2.97,14.38,1.4,17.03-.47,2.38-1.68,2.24-16.4.61-18.49-2.02-2.58-13.05-2.4-16.31-1.82ZM354.56,410.78c1.41,1.41,17.23,1.27,18.93-.2,1.87-1.61,1.69-12.91,1.35-15.8-.4-3.43-1.74-4.01-4.92-4.3-2.9-.27-13.46-.5-15.22,1.31-2.29,2.36-2.34,16.78-.14,18.99ZM387.81,390.65c-5.1,1.14-4.27,12.46-3.78,16.67.72,6.25,6.62,4.4,10.89,4.27,5.27-.16,10.28,1.76,10.89-4.91.28-3.1.52-12.46-1.33-14.54-1.97-2.22-13.7-2.15-16.67-1.49Z"/>
  <path class="cls-1" d="M260.56,262.23c-13.53,0-27.05,0-40.58-.08-2.83-.02-2.74,1.38-2.74,3.32.02,40.6.04,81.2-.04,121.8,0,2.85.79,3.63,3.63,3.61,13.24-.1,26.48-.08,39.73-.08v-128.57Z"/>
  <path class="cls-1" d="M277.77,230.25h95.55c-.03-4.39-.02-8.78.14-13.16.11-3.18-.93-4.94-3.63-6.62-38.93-24.19-77.79-48.49-116.61-72.84-2.31-1.45-3.88-1.63-6.33-.09-39.01,24.52-78.1,48.94-117.22,73.28-2.38,1.48-3.14,3.06-3.13,5.78.1,26.86.06,53.72.06,80.58,0,26.98-.02,53.96.01,80.95,0,8.35,4.41,12.69,12.72,12.69,17.23.01,34.45.02,51.68,0,5.22,0,4.68.64,4.68-4.56.01-44.57,0-89.14.01-133.71,0-7.22,4.21-11.97,11.06-11.99,18.42-.06,36.85-.06,55.27-.05,2.67-6.04,8.71-10.26,15.73-10.26Z"/>
</svg>