<?xml version="1.0" encoding="UTF-8"?>
<svg id="Layer_1" data-name="Layer 1" xmlns="http://www.w3.org/2000/svg" viewBox="0 0 500 500">
  <defs>
    <style>
      .cls-1 {
        fill: #112148;
      }

      .cls-2 {
        fill: #3b9bbc;
      }
    </style>
  </defs>
  <path class="cls-1" d="M243.83,263.46c24.03,0,48.06-.08,72.1.03,16.36.07,30.45,12.63,32.7,28.83,2.24,16.12-7.76,31.71-23.32,36.46-3.91,1.2-7.89,1.39-11.93,1.39-23.34-.02-46.68-.03-70.01,0-6.12.01-9.37,4.4-7.16,9.47,1.47,3.37,4.35,3.86,7.59,3.85,18.89-.03,37.79.05,56.68-.05,8.72-.04,17.48.69,26.11-1.49,30.49-7.69,44.92-42.05,28.75-68.97-1.68-2.8-1.55-4.22.77-6.5,13.19-12.93,26.08-26.18,39.29-39.09,14.15-13.83,36.59-12.15,47.84,3.45,6.54,9.07,7.03,19.01,3.5,29.33-1.54,4.5-4,8.51-6.7,12.4-18.14,26.1-36.32,52.18-54.35,78.35-10.78,15.65-24.41,27.18-43.46,31.25-4.49.96-9.04,1.32-13.64,1.31-36.81-.04-73.63-.19-110.44.15-5.81.05-9.59-1.6-13.6-5.65-27.71-28.08-55.65-55.93-83.66-83.72-2.58-2.56-2.26-3.74.14-6.06,11.45-11.07,23.88-20.32,39.98-23.4,4.79-.92,9.6-1.38,14.48-1.37,22.78.05,45.56.02,68.35.02Z"/>
  <path class="cls-2" d="M148.89,176.7c-2.62.16-4.54-1.09-5.97-3.14-5.17-7.39-10.37-14.77-15.43-22.23-2.94-4.34-1.96-7.77,2.91-11.17,21.86-15.23,43.73-30.46,65.6-45.69,19.93-13.88,39.86-27.77,59.79-41.65,5.7-3.97,6.9-3.98,12.64.01,41.57,28.94,83.13,57.89,124.69,86.84,6.27,4.37,6.75,7.12,2.41,13.37-4.12,5.93-8.24,11.85-12.36,17.77-5.02,7.21-7.42,7.65-14.5,2.71-34.17-23.8-68.37-47.54-102.44-71.48-3.19-2.24-5.15-2.14-8.27.05-34.19,24-68.49,47.82-102.78,71.68-1.91,1.33-3.68,3.04-6.28,2.91Z"/>
  <path class="cls-2" d="M302.13,212.29c0-10.97,0-21.94,0-32.92,0-7.06-2.21-9.33-9.11-9.33-20.69-.01-41.39-.02-62.08,0-6.43,0-8.83,2.37-8.84,8.76-.02,22.36-.09,44.72.08,67.08.03,3.5-.92,4.35-4.36,4.32-15.41-.16-30.83-.07-46.25.08-2.2.02-2.87-.53-2.86-2.72.06-21.67.06-43.33,0-65,0-1.81.8-2.7,2.15-3.63,29.63-20.6,59.24-41.21,88.8-61.89,1.98-1.38,3.29-1.11,5.13.18,29.34,20.51,58.72,40.96,88.14,61.36,1.76,1.22,2.61,2.41,2.6,4.67-.1,20.83-.11,41.67.01,62.5.02,2.58-1.16,4.08-2.8,5.64-2.71,2.59-4.9,6.34-8.11,7.63-3.54,1.42-6.26-2.94-9.55-4.41-9.15-4.09-18.72-4.97-28.48-4.46-3.69.19-4.65-.85-4.56-4.54.27-11.1.1-22.22.1-33.33Z"/>
  <path class="cls-1" d="M162.04,450.15c-2.27.08-3.94-1.08-5.46-2.6-35.08-35.07-70.17-70.13-105.23-105.22-3.86-3.87-3.81-7.23.13-11.19,12.74-12.8,25.51-25.58,38.32-38.32,3.97-3.95,7.14-3.96,11.11,0,35,34.95,69.98,69.93,104.94,104.92,4.08,4.08,4.05,7.4-.03,11.51-12.64,12.71-25.34,25.36-38,38.04-1.61,1.61-3.32,2.97-5.78,2.84Z"/>
  <path class="cls-1" d="M355.41,97.3c-17.77-12.38-34.68-24.2-51.65-35.95-2.75-1.9-1.83-4.55-1.31-6.74.74-3.12,3.17-4.7,6.52-4.7,9.71.02,19.42,0,29.12,0,3.61,0,7.21-.04,10.82.06,3.72.11,6.34,2.16,6.4,5.78.23,13.54.09,27.08.09,41.54Z"/>
</svg>