<?xml version="1.0" encoding="UTF-8"?>
<svg id="Layer_1" data-name="Layer 1" xmlns="http://www.w3.org/2000/svg" viewBox="0 0 500 500">
  <defs>
    <style>
      .cls-1 {
        fill: #112148;
      }

      .cls-2 {
        fill: #3b9bbc;
      }
    </style>
  </defs>
  <path class="cls-2" d="M208.48,93.12c38.26,0,76.53-.02,114.79,0,11.88,0,15.64,3.57,15.66,15.34.07,47.96.23,95.93-.05,143.89-.17,28.91-19.05,47.45-48.06,47.56-44.55.17-89.11.18-133.66-.04-11.17-.05-20.85,2.69-29.95,9.47-18.68,13.92-37.88,27.14-56.82,40.71-4.62,3.31-9.17,6.14-15.11,3.14-6.19-3.13-6.75-8.56-6.74-14.63.08-66.05.03-132.09.06-198.14.01-27.62,19.16-47.15,46.65-47.27,37.74-.17,75.48-.04,113.22-.05ZM201.38,181.04c20.67,0,41.35,0,62.02,0,1.83,0,3.67.1,5.49-.05,7.96-.65,12.73-5.33,12.57-12.23-.16-6.85-5.06-11.23-13.24-11.24-41.35-.08-82.7-.04-124.05-.04-3.66,0-7.33-.06-10.99.07-6.86.24-10.82,4.15-11.31,10.68-.5,6.61,3.25,10.84,9.68,12.33,2.25.52,4.67.45,7.02.46,20.94.03,41.87.02,62.81.02ZM202.04,212.55c-21.98,0-43.97-.04-65.95.02-9.25.03-14.52,4.44-14.38,11.75.13,6.83,5.57,11.72,13.97,11.74,43.97.11,87.93.11,131.9,0,8.99-.02,14.22-5.05,13.89-12.46-.31-7.04-5.28-10.99-14.27-11.02-21.72-.06-43.44-.02-65.16-.02Z"/>
  <path class="cls-1" d="M451.39,330.56c0,33.3-.07,66.59.06,99.89.02,5.86-.73,11.07-6.41,14.08-5.7,3.02-10.49.69-15.21-2.71-19.34-13.93-38.85-27.62-58.09-41.68-7.95-5.81-16.41-8.5-26.3-8.45-45.36.23-90.71.19-136.07.06-23.25-.07-40.8-12.84-46.57-33.67-2.77-9.99-1.74-20.3-1.7-30.5.02-5.67,4.6-3.96,7.59-3.97,40.38-.1,80.75-.21,121.13,0,16.52.09,31.66-3.68,44.88-13.79,19.04-14.55,27.87-34.1,27.85-57.87-.02-20.19.19-40.38-.11-60.56-.08-5.56,1.69-7.15,7.13-6.98,12.31.37,24.64,0,36.96.16,24.77.31,44.72,20.39,44.82,45.31.14,33.56.03,67.12.04,100.68Z"/>
</svg>