<?xml version="1.0" encoding="UTF-8"?>
<svg id="Layer_1" data-name="Layer 1" xmlns="http://www.w3.org/2000/svg" viewBox="0 0 500 500">
  <defs>
    <style>
      .cls-1 {
        fill: #112148;
      }

      .cls-2 {
        fill: #3b9bbc;
      }
    </style>
  </defs>
  <path class="cls-1" d="M246.44,73.1l34.62,65.48,75.76-42.46c-1.26-4.2-2.24-7.2-.91-11.62,2.3-7.61,10.32-11.73,17.92-9.58,16.21,4.58,12.64,29.67-5.88,28.12-1.65-.14-3.22-1.09-4.11-1.18-.36-.04-.54.03-.73.35l-41.4,82.71c38.58,24.21,65.79,64.65,72.27,110.04,15.6,109.24-82.7,199.79-190.41,174.62-78.5-18.34-129.71-94.33-118.43-174.23,6.43-45.53,33.65-86.03,72.23-110.44l-41.74-83.01c-12.32,5.31-24.7-6.55-19.42-19.09,4.57-10.87,20.55-11.34,26.01-.94,2.55,4.85,1.89,9.3.1,14.25l75.78,42.49,34.58-65.47c-14.79-8.07-5.98-30.58,10.55-26.53,12.7,3.11,14.84,20.74,3.22,26.51ZM230.99,190.07c-88.7,5.04-144.62,99.87-107.84,180.78,40.3,88.64,162.05,101.17,219.69,22.46,64.5-88.07-3.68-209.38-111.86-203.23Z"/>
  <path class="cls-2" d="M283.25,130.51l-14.11-27.61,19.18-18.09c.38-.76-1.65-3.12-2.15-4.33-4.67-11.3,5.06-22.69,16.89-19.72,12.72,3.2,14.58,20.33,3.21,26.67-.82.46-3.42,1.1-3.56,1.67l5.97,27-25.42,14.42Z"/>
  <path class="cls-2" d="M170.47,116.29l5.98-27.18c-.15-.5-3.51-1.72-4.29-2.2-9.28-5.6-8.84-20.24.96-25.08,14.42-7.12,27.73,10.27,17.57,22.45,5.67,6.31,12.5,12,18.77,17.9l.53,1.33-14.29,26.94-25.23-14.17Z"/>
  <g>
    <path class="cls-2" d="M257.61,283.67c-4.04-3.35-9.99-5.02-17.86-5.02h-20.89v38.75h20.89c7.86,0,13.82-1.7,17.86-5.1,4.04-3.4,6.06-8.18,6.06-14.35s-2.02-10.92-6.06-14.27Z"/>
    <path class="cls-2" d="M236.25,207.46c-89.19,2.81-138.66,105.42-84.61,176.96,47.04,62.26,143.27,56.78,182.88-10.35,44.21-74.91-11.66-169.33-98.28-166.6ZM263.99,369.21l-21.67-31.27c-.38,0-.75.02-1.13.02h-22.32v31.25h-25.99v-111.61h48.31c9.99,0,18.6,1.62,25.83,4.86,7.23,3.24,12.81,7.89,16.74,13.95,3.93,6.06,5.9,13.23,5.9,21.53s-1.97,15.6-5.9,21.6c-3.93,6.01-9.51,10.58-16.74,13.71-.05.02-.1.04-.16.06l24.87,35.89h-27.74Z"/>
  </g>
</svg>