<svg xmlns="http://www.w3.org/2000/svg" xmlns:xlink="http://www.w3.org/1999/xlink" width="500" zoomAndPan="magnify" viewBox="0 0 375 194.87999" height="250" preserveAspectRatio="xMidYMid meet" version="1.0"><defs><g/><clipPath id="0d05632310"><path d="M 74 56.25 L 125.90625 56.25 L 125.90625 113.558594 L 74 113.558594 Z M 74 56.25 " clip-rule="nonzero"/></clipPath><clipPath id="49478b257a"><path d="M 109.6875 78.324219 L 91.304688 78.324219 C 89.746094 78.324219 88.644531 76.765625 89.195312 75.3125 C 91.164062 70.085938 95.511719 67.015625 101.394531 67.015625 C 106.625 67.015625 110.789062 70.03125 111.890625 75.726562 C 112.152344 77.082031 111.066406 78.324219 109.6875 78.324219 M 101.710938 56.554688 C 85.496094 56.554688 74.074219 68.292969 74.074219 85.046875 C 74.074219 100.519531 85.277344 113.539062 103.3125 113.539062 C 113.007812 113.539062 120.03125 109.550781 123.242188 107.277344 C 124.394531 106.464844 124.738281 104.90625 124.070312 103.667969 L 121.476562 98.847656 C 120.695312 97.40625 118.867188 96.933594 117.488281 97.808594 C 114.714844 99.574219 109.859375 102.011719 104.273438 102.011719 C 97.257812 102.011719 90.796875 98.339844 88.636719 91.195312 C 88.09375 89.402344 89.476562 87.601562 91.339844 87.601562 L 122.910156 87.601562 C 124.386719 87.601562 125.609375 86.457031 125.714844 84.976562 C 125.777344 84.03125 125.828125 83.035156 125.828125 82.371094 C 125.828125 67.96875 117.398438 56.554688 101.710938 56.554688 " clip-rule="nonzero"/></clipPath><clipPath id="249213603f"><path d="M 0 0.367188 L 51.90625 0.367188 L 51.90625 57.558594 L 0 57.558594 Z M 0 0.367188 " clip-rule="nonzero"/></clipPath><clipPath id="f6a90f051f"><path d="M 35.6875 22.324219 L 17.304688 22.324219 C 15.746094 22.324219 14.644531 20.765625 15.195312 19.3125 C 17.164062 14.085938 21.511719 11.015625 27.394531 11.015625 C 32.625 11.015625 36.789062 14.03125 37.890625 19.726562 C 38.152344 21.082031 37.066406 22.324219 35.6875 22.324219 M 27.710938 0.554688 C 11.496094 0.554688 0.0742188 12.292969 0.0742188 29.046875 C 0.0742188 44.519531 11.277344 57.539062 29.3125 57.539062 C 39.007812 57.539062 46.03125 53.550781 49.242188 51.277344 C 50.394531 50.464844 50.738281 48.90625 50.070312 47.667969 L 47.476562 42.847656 C 46.695312 41.40625 44.867188 40.933594 43.488281 41.808594 C 40.714844 43.574219 35.859375 46.011719 30.273438 46.011719 C 23.257812 46.011719 16.796875 42.339844 14.636719 35.195312 C 14.09375 33.402344 15.476562 31.601562 17.339844 31.601562 L 48.910156 31.601562 C 50.386719 31.601562 51.609375 30.457031 51.714844 28.976562 C 51.777344 28.03125 51.828125 27.035156 51.828125 26.371094 C 51.828125 11.96875 43.398438 0.554688 27.710938 0.554688 " clip-rule="nonzero"/></clipPath><clipPath id="11fdd5b75d"><rect x="0" width="52" y="0" height="58"/></clipPath><clipPath id="d4ae637e8d"><path d="M 182.210938 56.25 L 234.492188 56.25 L 234.492188 113.558594 L 182.210938 113.558594 Z M 182.210938 56.25 " clip-rule="nonzero"/></clipPath><clipPath id="80178cd735"><path d="M 218.066406 78.324219 L 199.683594 78.324219 C 198.128906 78.324219 197.023438 76.765625 197.578125 75.3125 C 199.542969 70.085938 203.890625 67.015625 209.777344 67.015625 C 215.003906 67.015625 219.167969 70.03125 220.269531 75.726562 C 220.53125 77.082031 219.449219 78.324219 218.066406 78.324219 M 210.089844 56.554688 C 193.878906 56.554688 182.457031 68.292969 182.457031 85.046875 C 182.457031 100.519531 193.660156 113.539062 211.691406 113.539062 C 221.390625 113.539062 228.414062 109.550781 231.621094 107.277344 C 232.777344 106.464844 233.117188 104.90625 232.453125 103.667969 L 229.855469 98.847656 C 229.078125 97.40625 227.25 96.933594 225.867188 97.808594 C 223.09375 99.574219 218.242188 102.011719 212.652344 102.011719 C 205.640625 102.011719 199.175781 98.339844 197.015625 91.195312 C 196.472656 89.402344 197.855469 87.601562 199.71875 87.601562 L 231.289062 87.601562 C 232.765625 87.601562 233.992188 86.457031 234.097656 84.976562 C 234.15625 84.03125 234.210938 83.035156 234.210938 82.371094 C 234.210938 67.96875 225.78125 56.554688 210.089844 56.554688 " clip-rule="nonzero"/></clipPath><clipPath id="5a82779797"><path d="M 0.402344 0.367188 L 52.210938 0.367188 L 52.210938 57.558594 L 0.402344 57.558594 Z M 0.402344 0.367188 " clip-rule="nonzero"/></clipPath><clipPath id="356944b0a0"><path d="M 36.066406 22.324219 L 17.683594 22.324219 C 16.128906 22.324219 15.023438 20.765625 15.578125 19.3125 C 17.542969 14.085938 21.890625 11.015625 27.777344 11.015625 C 33.003906 11.015625 37.167969 14.03125 38.269531 19.726562 C 38.53125 21.082031 37.449219 22.324219 36.066406 22.324219 M 28.089844 0.554688 C 11.878906 0.554688 0.457031 12.292969 0.457031 29.046875 C 0.457031 44.519531 11.660156 57.539062 29.691406 57.539062 C 39.390625 57.539062 46.414062 53.550781 49.621094 51.277344 C 50.777344 50.464844 51.117188 48.90625 50.453125 47.667969 L 47.855469 42.847656 C 47.078125 41.40625 45.25 40.933594 43.867188 41.808594 C 41.09375 43.574219 36.242188 46.011719 30.652344 46.011719 C 23.640625 46.011719 17.175781 42.339844 15.015625 35.195312 C 14.472656 33.402344 15.855469 31.601562 17.71875 31.601562 L 49.289062 31.601562 C 50.765625 31.601562 51.992188 30.457031 52.097656 28.976562 C 52.15625 28.03125 52.210938 27.035156 52.210938 26.371094 C 52.210938 11.96875 43.78125 0.554688 28.089844 0.554688 " clip-rule="nonzero"/></clipPath><clipPath id="bfbd8b49d2"><rect x="0" width="53" y="0" height="58"/></clipPath><clipPath id="76a1b0ac3d"><path d="M 128 57.589844 L 181 57.589844 L 181 112.554688 L 128 112.554688 Z M 128 57.589844 " clip-rule="nonzero"/></clipPath><clipPath id="f70ae509e6"><path d="M 131.226562 57.832031 L 139.078125 57.832031 C 140.375 57.832031 141.519531 58.652344 141.929688 59.878906 L 152.554688 91.554688 C 153.621094 94.753906 154.367188 99.773438 154.480469 99.773438 L 154.6875 99.773438 C 154.792969 99.773438 155.546875 94.753906 156.613281 91.554688 L 167.238281 59.878906 C 167.648438 58.652344 168.796875 57.832031 170.089844 57.832031 L 177.960938 57.832031 C 180.042969 57.832031 181.484375 59.894531 180.785156 61.847656 L 163.410156 110.269531 C 162.980469 111.457031 161.851562 112.253906 160.582031 112.253906 L 148.785156 112.253906 C 147.527344 112.253906 146.390625 111.46875 145.960938 110.277344 L 128.402344 61.863281 C 127.691406 59.90625 129.144531 57.839844 131.226562 57.839844 " clip-rule="nonzero"/></clipPath><clipPath id="6255a54f3d"><path d="M 0 0.804688 L 53 0.804688 L 53 55.492188 L 0 55.492188 Z M 0 0.804688 " clip-rule="nonzero"/></clipPath><clipPath id="44fc079fa1"><path d="M 3.226562 0.832031 L 11.078125 0.832031 C 12.375 0.832031 13.519531 1.652344 13.929688 2.878906 L 24.554688 34.554688 C 25.621094 37.753906 26.367188 42.773438 26.480469 42.773438 L 26.6875 42.773438 C 26.792969 42.773438 27.546875 37.753906 28.613281 34.554688 L 39.238281 2.878906 C 39.648438 1.652344 40.796875 0.832031 42.089844 0.832031 L 49.960938 0.832031 C 52.042969 0.832031 53.484375 2.894531 52.785156 4.847656 L 35.410156 53.269531 C 34.980469 54.457031 33.851562 55.253906 32.582031 55.253906 L 20.785156 55.253906 C 19.527344 55.253906 18.390625 54.46875 17.960938 53.277344 L 0.402344 4.863281 C -0.308594 2.90625 1.144531 0.839844 3.226562 0.839844 " clip-rule="nonzero"/></clipPath><clipPath id="6099c3be49"><rect x="0" width="53" y="0" height="56"/></clipPath><clipPath id="de3cfd8c54"><path d="M 241.863281 36.476562 L 291 36.476562 L 291 112.554688 L 241.863281 112.554688 Z M 241.863281 36.476562 " clip-rule="nonzero"/></clipPath><clipPath id="baeafc3593"><path d="M 243.898438 36.492188 L 253.492188 36.492188 C 254.585938 36.492188 255.46875 37.375 255.46875 38.46875 L 255.46875 75.058594 C 255.46875 76.152344 256.351562 77.035156 257.445312 77.035156 L 261.144531 77.035156 C 261.800781 77.035156 262.414062 76.714844 262.78125 76.171875 L 274.726562 58.6875 C 275.09375 58.148438 275.707031 57.824219 276.363281 57.824219 L 286.542969 57.824219 C 288.152344 57.824219 289.085938 59.632812 288.160156 60.945312 L 273.1875 82.171875 L 273.1875 82.378906 L 290.53125 109.203125 C 291.378906 110.523438 290.433594 112.253906 288.867188 112.253906 L 278.03125 112.253906 C 277.34375 112.253906 276.695312 111.894531 276.335938 111.300781 L 263.097656 89.421875 C 262.738281 88.824219 262.097656 88.46875 261.398438 88.46875 L 257.457031 88.46875 C 256.363281 88.46875 255.480469 89.351562 255.480469 90.441406 L 255.480469 110.277344 C 255.480469 111.371094 254.59375 112.253906 253.503906 112.253906 L 243.898438 112.253906 C 242.808594 112.253906 241.921875 111.371094 241.921875 110.277344 L 241.921875 38.46875 C 241.921875 37.375 242.808594 36.492188 243.898438 36.492188 " clip-rule="nonzero"/></clipPath><clipPath id="594597bec5"><path d="M 0.886719 0.476562 L 50 0.476562 L 50 76.492188 L 0.886719 76.492188 Z M 0.886719 0.476562 " clip-rule="nonzero"/></clipPath><clipPath id="7932b22df1"><path d="M 2.898438 0.492188 L 12.492188 0.492188 C 13.585938 0.492188 14.46875 1.375 14.46875 2.46875 L 14.46875 39.058594 C 14.46875 40.152344 15.351562 41.035156 16.445312 41.035156 L 20.144531 41.035156 C 20.800781 41.035156 21.414062 40.714844 21.78125 40.171875 L 33.726562 22.6875 C 34.09375 22.148438 34.707031 21.824219 35.363281 21.824219 L 45.542969 21.824219 C 47.152344 21.824219 48.085938 23.632812 47.160156 24.945312 L 32.1875 46.171875 L 32.1875 46.378906 L 49.53125 73.203125 C 50.378906 74.523438 49.433594 76.253906 47.867188 76.253906 L 37.03125 76.253906 C 36.34375 76.253906 35.695312 75.894531 35.335938 75.300781 L 22.097656 53.421875 C 21.738281 52.824219 21.097656 52.46875 20.398438 52.46875 L 16.457031 52.46875 C 15.363281 52.46875 14.480469 53.351562 14.480469 54.441406 L 14.480469 74.277344 C 14.480469 75.371094 13.59375 76.253906 12.503906 76.253906 L 2.898438 76.253906 C 1.808594 76.253906 0.921875 75.371094 0.921875 74.277344 L 0.921875 2.46875 C 0.921875 1.375 1.808594 0.492188 2.898438 0.492188 " clip-rule="nonzero"/></clipPath><clipPath id="c0121fc787"><rect x="0" width="50" y="0" height="77"/></clipPath><clipPath id="bff463dca4"><path d="M 24.027344 36.476562 L 73 36.476562 L 73 112.554688 L 24.027344 112.554688 Z M 24.027344 36.476562 " clip-rule="nonzero"/></clipPath><clipPath id="c33cd5e637"><path d="M 26.019531 36.492188 C 24.945312 36.492188 24.0625 37.359375 24.042969 38.445312 L 24.042969 110.3125 C 24.0625 111.386719 24.945312 112.261719 26.019531 112.261719 L 35.613281 112.261719 C 36.707031 112.261719 37.589844 111.378906 37.589844 110.285156 L 37.589844 90.441406 C 37.589844 89.351562 38.472656 88.46875 39.566406 88.46875 L 43.511719 88.46875 C 44.199219 88.46875 44.847656 88.824219 45.207031 89.421875 L 58.464844 111.300781 C 58.824219 111.894531 59.46875 112.253906 60.160156 112.253906 L 70.988281 112.253906 C 72.554688 112.253906 73.507812 110.515625 72.648438 109.203125 L 55.308594 82.378906 L 55.308594 82.171875 L 70.289062 60.953125 C 71.214844 59.640625 70.28125 57.832031 68.671875 57.832031 L 58.492188 57.832031 C 57.835938 57.832031 57.222656 58.15625 56.855469 58.699219 L 44.910156 76.179688 C 44.542969 76.722656 43.929688 77.046875 43.273438 77.046875 L 39.574219 77.046875 C 38.480469 77.046875 37.597656 76.164062 37.597656 75.070312 L 37.597656 38.46875 C 37.597656 37.375 36.707031 36.492188 35.613281 36.492188 Z M 26.019531 36.492188 " clip-rule="nonzero"/></clipPath><clipPath id="ed2c75b72d"><path d="M 0.0273438 0.476562 L 49 0.476562 L 49 76.492188 L 0.0273438 76.492188 Z M 0.0273438 0.476562 " clip-rule="nonzero"/></clipPath><clipPath id="c8dff957bf"><path d="M 2.019531 0.492188 C 0.945312 0.492188 0.0625 1.359375 0.0429688 2.445312 L 0.0429688 74.3125 C 0.0625 75.386719 0.945312 76.261719 2.019531 76.261719 L 11.613281 76.261719 C 12.707031 76.261719 13.589844 75.378906 13.589844 74.285156 L 13.589844 54.441406 C 13.589844 53.351562 14.472656 52.46875 15.566406 52.46875 L 19.511719 52.46875 C 20.199219 52.46875 20.847656 52.824219 21.207031 53.421875 L 34.464844 75.300781 C 34.824219 75.894531 35.46875 76.253906 36.160156 76.253906 L 46.988281 76.253906 C 48.554688 76.253906 49.507812 74.515625 48.648438 73.203125 L 31.308594 46.378906 L 31.308594 46.171875 L 46.289062 24.953125 C 47.214844 23.640625 46.28125 21.832031 44.671875 21.832031 L 34.492188 21.832031 C 33.835938 21.832031 33.222656 22.15625 32.855469 22.699219 L 20.910156 40.179688 C 20.542969 40.722656 19.929688 41.046875 19.273438 41.046875 L 15.574219 41.046875 C 14.480469 41.046875 13.597656 40.164062 13.597656 39.070312 L 13.597656 2.46875 C 13.597656 1.375 12.707031 0.492188 11.613281 0.492188 Z M 2.019531 0.492188 " clip-rule="nonzero"/></clipPath><clipPath id="5b03708103"><rect x="0" width="49" y="0" height="77"/></clipPath><clipPath id="da2c1a3f6d"><path d="M 291.128906 56.25 L 351.117188 56.25 L 351.117188 113.558594 L 291.128906 113.558594 Z M 291.128906 56.25 " clip-rule="nonzero"/></clipPath><clipPath id="c55d749aab"><path d="M 332.453125 68.457031 C 333.039062 68.457031 333.652344 68.703125 334.28125 69.351562 C 336.050781 71.140625 336.234375 73.074219 334.78125 75.304688 C 329.273438 83.78125 323.851562 92.324219 318.4375 100.859375 C 317.675781 102.074219 316.992188 102.582031 316.320312 102.582031 C 315.53125 102.582031 314.761719 101.882812 313.878906 100.761719 C 302.738281 86.605469 302.738281 86.492188 317.632812 77.183594 C 317.945312 76.984375 318.253906 76.800781 318.566406 76.589844 L 318.59375 76.632812 C 322.1875 74.386719 325.746094 72.105469 329.351562 69.875 C 330.339844 69.261719 331.363281 68.457031 332.4375 68.457031 Z M 321.070312 56.554688 C 304.539062 56.554688 291.203125 68.386719 291.195312 85.039062 C 291.1875 101.792969 304.515625 113.539062 321.164062 113.546875 C 321.171875 113.546875 321.171875 113.546875 321.183594 113.546875 C 335.699219 113.546875 347.757812 104.496094 350.480469 90.941406 C 350.847656 89.121094 351.019531 87.320312 351.039062 85.554688 L 351.039062 85.195312 C 350.941406 69.882812 338.140625 57.035156 322.046875 56.582031 C 321.714844 56.574219 321.390625 56.5625 321.058594 56.5625 Z M 321.070312 56.554688 " clip-rule="nonzero"/></clipPath><clipPath id="6a2eb10bad"><path d="M 0.128906 0.367188 L 60.117188 0.367188 L 60.117188 57.558594 L 0.128906 57.558594 Z M 0.128906 0.367188 " clip-rule="nonzero"/></clipPath><clipPath id="dcae02c2cf"><path d="M 41.453125 12.457031 C 42.039062 12.457031 42.652344 12.703125 43.28125 13.351562 C 45.050781 15.140625 45.234375 17.074219 43.78125 19.304688 C 38.273438 27.78125 32.851562 36.324219 27.4375 44.859375 C 26.675781 46.074219 25.992188 46.582031 25.320312 46.582031 C 24.53125 46.582031 23.761719 45.882812 22.878906 44.761719 C 11.738281 30.605469 11.738281 30.492188 26.632812 21.183594 C 26.945312 20.984375 27.253906 20.800781 27.566406 20.589844 L 27.59375 20.632812 C 31.1875 18.386719 34.746094 16.105469 38.351562 13.875 C 39.339844 13.261719 40.363281 12.457031 41.4375 12.457031 Z M 30.070312 0.554688 C 13.539062 0.554688 0.203125 12.386719 0.195312 29.039062 C 0.1875 45.792969 13.515625 57.539062 30.164062 57.546875 C 30.171875 57.546875 30.171875 57.546875 30.183594 57.546875 C 44.699219 57.546875 56.757812 48.496094 59.480469 34.941406 C 59.847656 33.121094 60.019531 31.320312 60.039062 29.554688 L 60.039062 29.195312 C 59.941406 13.882812 47.140625 1.035156 31.046875 0.582031 C 30.714844 0.574219 30.390625 0.5625 30.058594 0.5625 Z M 30.070312 0.554688 " clip-rule="nonzero"/></clipPath><clipPath id="2a1e56c7de"><rect x="0" width="61" y="0" height="58"/></clipPath><clipPath id="4a29320b97"><path d="M 0.339844 5 L 13 5 L 13 20 L 0.339844 20 Z M 0.339844 5 " clip-rule="nonzero"/></clipPath><clipPath id="414d774100"><rect x="0" width="328" y="0" height="26"/></clipPath></defs><g clip-path="url(#0d05632310)"><g clip-path="url(#49478b257a)"><g transform="matrix(1, 0, 0, 1, 74, 56)"><g clip-path="url(#11fdd5b75d)"><g clip-path="url(#249213603f)"><g clip-path="url(#f6a90f051f)"><rect x="-156.5" width="540" fill="#000000" height="280.627186" y="-98.873598" fill-opacity="1"/></g></g></g></g></g></g><g clip-path="url(#d4ae637e8d)"><g clip-path="url(#80178cd735)"><g transform="matrix(1, 0, 0, 1, 182, 56)"><g clip-path="url(#bfbd8b49d2)"><g clip-path="url(#5a82779797)"><g clip-path="url(#356944b0a0)"><rect x="-264.5" width="540" fill="#000000" height="280.627186" y="-98.873598" fill-opacity="1"/></g></g></g></g></g></g><g clip-path="url(#76a1b0ac3d)"><g clip-path="url(#f70ae509e6)"><g transform="matrix(1, 0, 0, 1, 128, 57)"><g clip-path="url(#6099c3be49)"><g clip-path="url(#6255a54f3d)"><g clip-path="url(#44fc079fa1)"><rect x="-210.5" width="540" fill="#000000" height="280.627186" y="-99.873598" fill-opacity="1"/></g></g></g></g></g></g><g clip-path="url(#de3cfd8c54)"><g clip-path="url(#baeafc3593)"><g transform="matrix(1, 0, 0, 1, 241, 36)"><g clip-path="url(#c0121fc787)"><g clip-path="url(#594597bec5)"><g clip-path="url(#7932b22df1)"><rect x="-323.5" width="540" fill="#000000" height="280.627186" y="-78.873598" fill-opacity="1"/></g></g></g></g></g></g><g clip-path="url(#bff463dca4)"><g clip-path="url(#c33cd5e637)"><g transform="matrix(1, 0, 0, 1, 24, 36)"><g clip-path="url(#5b03708103)"><g clip-path="url(#ed2c75b72d)"><g clip-path="url(#c8dff957bf)"><rect x="-106.5" width="540" fill="#000000" height="280.627186" y="-78.873598" fill-opacity="1"/></g></g></g></g></g></g><g clip-path="url(#da2c1a3f6d)"><g clip-path="url(#c55d749aab)"><g transform="matrix(1, 0, 0, 1, 291, 56)"><g clip-path="url(#2a1e56c7de)"><g clip-path="url(#6a2eb10bad)"><g clip-path="url(#dcae02c2cf)"><rect x="-373.5" width="540" fill="#000000" height="280.627186" y="-98.873598" fill-opacity="1"/></g></g></g></g></g></g><g transform="matrix(1, 0, 0, 1, 24, 130)"><g clip-path="url(#414d774100)"><g clip-path="url(#4a29320b97)"><g fill="#000000" fill-opacity="1"><g transform="translate(0.834851, 19.637084)"><g><path d="M 4.9375 0 L 4.9375 -6.015625 L 0.15625 -14.21875 L 2.421875 -14.21875 L 5.0625 -9.546875 C 5.207031 -9.285156 5.34375 -9.015625 5.46875 -8.734375 C 5.601562 -8.453125 5.710938 -8.21875 5.796875 -8.03125 C 5.878906 -7.84375 5.921875 -7.75 5.921875 -7.75 L 5.96875 -7.75 C 5.96875 -7.75 6.003906 -7.84375 6.078125 -8.03125 C 6.160156 -8.21875 6.269531 -8.445312 6.40625 -8.71875 C 6.539062 -9 6.679688 -9.273438 6.828125 -9.546875 L 9.421875 -14.21875 L 11.6875 -14.21875 L 6.921875 -6.015625 L 6.921875 0 Z M 4.9375 0 "/></g></g></g></g><g fill="#000000" fill-opacity="1"><g transform="translate(15.715237, 19.645135)"><g><path d="M 0.96875 -7.203125 C 0.96875 -8.222656 1.148438 -9.171875 1.515625 -10.046875 C 1.890625 -10.929688 2.410156 -11.703125 3.078125 -12.359375 C 3.753906 -13.023438 4.535156 -13.539062 5.421875 -13.90625 C 6.304688 -14.28125 7.257812 -14.46875 8.28125 -14.46875 C 9.3125 -14.46875 10.265625 -14.28125 11.140625 -13.90625 C 12.023438 -13.539062 12.800781 -13.023438 13.46875 -12.359375 C 14.132812 -11.703125 14.648438 -10.929688 15.015625 -10.046875 C 15.378906 -9.160156 15.5625 -8.207031 15.5625 -7.1875 C 15.5625 -6.144531 15.378906 -5.171875 15.015625 -4.265625 C 14.648438 -3.367188 14.132812 -2.582031 13.46875 -1.90625 C 12.800781 -1.238281 12.023438 -0.710938 11.140625 -0.328125 C 10.265625 0.046875 9.3125 0.234375 8.28125 0.234375 C 7.257812 0.234375 6.304688 0.046875 5.421875 -0.328125 C 4.535156 -0.710938 3.753906 -1.238281 3.078125 -1.90625 C 2.410156 -2.582031 1.890625 -3.375 1.515625 -4.28125 C 1.148438 -5.1875 0.96875 -6.160156 0.96875 -7.203125 Z M 3.015625 -7.203125 C 3.015625 -6.148438 3.25 -5.195312 3.71875 -4.34375 C 4.195312 -3.488281 4.832031 -2.816406 5.625 -2.328125 C 6.425781 -1.835938 7.3125 -1.59375 8.28125 -1.59375 C 9.25 -1.59375 10.128906 -1.835938 10.921875 -2.328125 C 11.710938 -2.816406 12.34375 -3.488281 12.8125 -4.34375 C 13.28125 -5.195312 13.515625 -6.148438 13.515625 -7.203125 C 13.515625 -8.242188 13.28125 -9.171875 12.8125 -9.984375 C 12.34375 -10.804688 11.710938 -11.453125 10.921875 -11.921875 C 10.128906 -12.398438 9.25 -12.640625 8.28125 -12.640625 C 7.3125 -12.640625 6.425781 -12.398438 5.625 -11.921875 C 4.832031 -11.453125 4.195312 -10.804688 3.71875 -9.984375 C 3.25 -9.171875 3.015625 -8.242188 3.015625 -7.203125 Z M 3.015625 -7.203125 "/></g></g></g><g fill="#000000" fill-opacity="1"><g transform="translate(35.28672, 19.655725)"><g><path d="M 1.734375 -5.03125 L 1.734375 -14.21875 L 3.71875 -14.21875 L 3.71875 -5.03125 C 3.71875 -3.945312 4.039062 -3.101562 4.6875 -2.5 C 5.34375 -1.894531 6.21875 -1.59375 7.3125 -1.59375 C 8.414062 -1.59375 9.296875 -1.894531 9.953125 -2.5 C 10.609375 -3.113281 10.9375 -3.972656 10.9375 -5.078125 L 10.9375 -14.21875 L 12.9375 -14.21875 L 12.9375 -5.03125 C 12.9375 -3.988281 12.695312 -3.070312 12.21875 -2.28125 C 11.75 -1.488281 11.09375 -0.867188 10.25 -0.421875 C 9.414062 0.015625 8.441406 0.234375 7.328125 0.234375 C 6.222656 0.234375 5.25 0.015625 4.40625 -0.421875 C 3.5625 -0.867188 2.90625 -1.488281 2.4375 -2.28125 C 1.96875 -3.070312 1.734375 -3.988281 1.734375 -5.03125 Z M 1.734375 -5.03125 "/></g></g></g><g fill="#000000" fill-opacity="1"><g transform="translate(52.985795, 19.665301)"><g><path d="M 1.9375 0 L 1.9375 -14.21875 L 6.28125 -14.21875 C 7.03125 -14.21875 7.59375 -14.191406 7.96875 -14.140625 C 8.351562 -14.085938 8.675781 -14.003906 8.9375 -13.890625 C 9.664062 -13.628906 10.25 -13.15625 10.6875 -12.46875 C 11.125 -11.789062 11.34375 -10.984375 11.34375 -10.046875 C 11.34375 -9.148438 11.109375 -8.347656 10.640625 -7.640625 C 10.179688 -6.941406 9.5625 -6.460938 8.78125 -6.203125 L 8.78125 -6.15625 C 8.78125 -6.15625 8.816406 -6.101562 8.890625 -6 C 8.960938 -5.90625 9.066406 -5.742188 9.203125 -5.515625 L 12.21875 0 L 9.96875 0 L 6.96875 -5.65625 L 3.921875 -5.65625 L 3.921875 0 Z M 3.921875 -7.390625 L 6.78125 -7.390625 C 7.5625 -7.390625 8.175781 -7.617188 8.625 -8.078125 C 9.082031 -8.546875 9.3125 -9.175781 9.3125 -9.96875 C 9.3125 -11.019531 8.929688 -11.753906 8.171875 -12.171875 C 7.984375 -12.273438 7.75 -12.351562 7.46875 -12.40625 C 7.1875 -12.457031 6.769531 -12.484375 6.21875 -12.484375 L 3.921875 -12.484375 Z M 3.921875 -7.390625 "/></g></g></g><g fill="#000000" fill-opacity="1"><g transform="translate(68.933252, 19.673929)"><g/></g></g><g fill="#000000" fill-opacity="1"><g transform="translate(77.149453, 19.678374)"><g><path d="M 1.9375 0 L 1.9375 -14.21875 L 9.765625 -14.21875 L 9.765625 -12.484375 L 3.921875 -12.484375 L 3.921875 -7.8125 L 8.90625 -7.8125 L 8.90625 -6.078125 L 3.921875 -6.078125 L 3.921875 0 Z M 1.9375 0 "/></g></g></g><g fill="#000000" fill-opacity="1"><g transform="translate(90.680894, 19.685696)"><g><path d="M 1.9375 0 L 1.9375 -14.21875 L 3.921875 -14.21875 L 3.921875 0 Z M 1.9375 0 "/></g></g></g><g fill="#000000" fill-opacity="1"><g transform="translate(99.581633, 19.690511)"><g><path d="M 1.9375 0 L 1.9375 -14.21875 L 3.90625 -14.21875 L 10.234375 -4.96875 C 10.410156 -4.71875 10.585938 -4.429688 10.765625 -4.109375 C 10.941406 -3.785156 11.09375 -3.503906 11.21875 -3.265625 C 11.351562 -3.035156 11.421875 -2.921875 11.421875 -2.921875 L 11.453125 -2.921875 C 11.453125 -2.921875 11.441406 -3.035156 11.421875 -3.265625 C 11.410156 -3.503906 11.390625 -3.785156 11.359375 -4.109375 C 11.328125 -4.429688 11.3125 -4.71875 11.3125 -4.96875 L 11.3125 -14.21875 L 13.3125 -14.21875 L 13.3125 0 L 11.359375 0 L 5.015625 -9.21875 C 4.835938 -9.488281 4.65625 -9.785156 4.46875 -10.109375 C 4.289062 -10.429688 4.140625 -10.707031 4.015625 -10.9375 C 3.890625 -11.175781 3.828125 -11.296875 3.828125 -11.296875 L 3.78125 -11.296875 C 3.78125 -11.296875 3.789062 -11.175781 3.8125 -10.9375 C 3.84375 -10.707031 3.867188 -10.429688 3.890625 -10.109375 C 3.910156 -9.785156 3.921875 -9.488281 3.921875 -9.21875 L 3.921875 0 Z M 1.9375 0 "/></g></g></g><g fill="#000000" fill-opacity="1"><g transform="translate(117.864573, 19.700403)"><g><path d="M 10.40625 0 L 8.984375 -4.09375 L 3.625 -4.09375 L 2.21875 0 L 0.15625 0 L 5.28125 -14.21875 L 7.375 -14.21875 L 12.484375 0 Z M 6.34375 -12.265625 L 6.296875 -12.265625 C 6.296875 -12.265625 6.265625 -12.144531 6.203125 -11.90625 C 6.148438 -11.675781 6.078125 -11.398438 5.984375 -11.078125 C 5.898438 -10.765625 5.816406 -10.488281 5.734375 -10.25 L 4.15625 -5.734375 L 8.453125 -5.734375 L 6.890625 -10.25 C 6.804688 -10.488281 6.722656 -10.765625 6.640625 -11.078125 C 6.566406 -11.398438 6.5 -11.675781 6.4375 -11.90625 C 6.375 -12.144531 6.34375 -12.265625 6.34375 -12.265625 Z M 6.34375 -12.265625 "/></g></g></g><g fill="#000000" fill-opacity="1"><g transform="translate(133.550303, 19.70889)"><g><path d="M 1.9375 0 L 1.9375 -14.21875 L 3.90625 -14.21875 L 10.234375 -4.96875 C 10.410156 -4.71875 10.585938 -4.429688 10.765625 -4.109375 C 10.941406 -3.785156 11.09375 -3.503906 11.21875 -3.265625 C 11.351562 -3.035156 11.421875 -2.921875 11.421875 -2.921875 L 11.453125 -2.921875 C 11.453125 -2.921875 11.441406 -3.035156 11.421875 -3.265625 C 11.410156 -3.503906 11.390625 -3.785156 11.359375 -4.109375 C 11.328125 -4.429688 11.3125 -4.71875 11.3125 -4.96875 L 11.3125 -14.21875 L 13.3125 -14.21875 L 13.3125 0 L 11.359375 0 L 5.015625 -9.21875 C 4.835938 -9.488281 4.65625 -9.785156 4.46875 -10.109375 C 4.289062 -10.429688 4.140625 -10.707031 4.015625 -10.9375 C 3.890625 -11.175781 3.828125 -11.296875 3.828125 -11.296875 L 3.78125 -11.296875 C 3.78125 -11.296875 3.789062 -11.175781 3.8125 -10.9375 C 3.84375 -10.707031 3.867188 -10.429688 3.890625 -10.109375 C 3.910156 -9.785156 3.921875 -9.488281 3.921875 -9.21875 L 3.921875 0 Z M 1.9375 0 "/></g></g></g><g fill="#000000" fill-opacity="1"><g transform="translate(151.833235, 19.718782)"><g><path d="M 0.96875 -7.1875 C 0.96875 -8.21875 1.144531 -9.171875 1.5 -10.046875 C 1.863281 -10.929688 2.375 -11.703125 3.03125 -12.359375 C 3.6875 -13.023438 4.453125 -13.539062 5.328125 -13.90625 C 6.203125 -14.28125 7.160156 -14.46875 8.203125 -14.46875 C 9.054688 -14.46875 9.804688 -14.367188 10.453125 -14.171875 C 11.097656 -13.984375 11.640625 -13.765625 12.078125 -13.515625 C 12.515625 -13.273438 12.835938 -13.0625 13.046875 -12.875 C 13.265625 -12.6875 13.375 -12.59375 13.375 -12.59375 L 12.390625 -11.09375 C 12.390625 -11.09375 12.289062 -11.171875 12.09375 -11.328125 C 11.894531 -11.484375 11.613281 -11.664062 11.25 -11.875 C 10.894531 -12.082031 10.460938 -12.257812 9.953125 -12.40625 C 9.453125 -12.5625 8.894531 -12.640625 8.28125 -12.640625 C 7.21875 -12.640625 6.289062 -12.398438 5.5 -11.921875 C 4.71875 -11.441406 4.109375 -10.785156 3.671875 -9.953125 C 3.234375 -9.128906 3.015625 -8.210938 3.015625 -7.203125 C 3.015625 -6.203125 3.234375 -5.273438 3.671875 -4.421875 C 4.117188 -3.566406 4.738281 -2.878906 5.53125 -2.359375 C 6.332031 -1.847656 7.253906 -1.59375 8.296875 -1.59375 C 8.972656 -1.59375 9.578125 -1.6875 10.109375 -1.875 C 10.648438 -2.0625 11.109375 -2.273438 11.484375 -2.515625 C 11.867188 -2.753906 12.164062 -2.96875 12.375 -3.15625 C 12.582031 -3.34375 12.6875 -3.4375 12.6875 -3.4375 L 13.75 -2.015625 C 13.75 -2.015625 13.628906 -1.898438 13.390625 -1.671875 C 13.148438 -1.441406 12.796875 -1.175781 12.328125 -0.875 C 11.867188 -0.582031 11.289062 -0.320312 10.59375 -0.09375 C 9.90625 0.125 9.117188 0.234375 8.234375 0.234375 C 7.171875 0.234375 6.191406 0.046875 5.296875 -0.328125 C 4.410156 -0.703125 3.644531 -1.226562 3 -1.90625 C 2.351562 -2.582031 1.851562 -3.367188 1.5 -4.265625 C 1.144531 -5.171875 0.96875 -6.144531 0.96875 -7.1875 Z M 0.96875 -7.1875 "/></g></g></g><g fill="#000000" fill-opacity="1"><g transform="translate(169.411512, 19.728293)"><g><path d="M 1.9375 0 L 1.9375 -14.21875 L 3.921875 -14.21875 L 3.921875 0 Z M 1.9375 0 "/></g></g></g><g fill="#000000" fill-opacity="1"><g transform="translate(178.312251, 19.733109)"><g><path d="M 10.40625 0 L 8.984375 -4.09375 L 3.625 -4.09375 L 2.21875 0 L 0.15625 0 L 5.28125 -14.21875 L 7.375 -14.21875 L 12.484375 0 Z M 6.34375 -12.265625 L 6.296875 -12.265625 C 6.296875 -12.265625 6.265625 -12.144531 6.203125 -11.90625 C 6.148438 -11.675781 6.078125 -11.398438 5.984375 -11.078125 C 5.898438 -10.765625 5.816406 -10.488281 5.734375 -10.25 L 4.15625 -5.734375 L 8.453125 -5.734375 L 6.890625 -10.25 C 6.804688 -10.488281 6.722656 -10.765625 6.640625 -11.078125 C 6.566406 -11.398438 6.5 -11.675781 6.4375 -11.90625 C 6.375 -12.144531 6.34375 -12.265625 6.34375 -12.265625 Z M 6.34375 -12.265625 "/></g></g></g><g fill="#000000" fill-opacity="1"><g transform="translate(193.997966, 19.741596)"><g><path d="M 1.9375 0 L 1.9375 -14.21875 L 3.921875 -14.21875 L 3.921875 -1.734375 L 10.296875 -1.734375 L 10.296875 0 Z M 1.9375 0 "/></g></g></g><g fill="#000000" fill-opacity="1"><g transform="translate(207.690476, 19.749004)"><g/></g></g><g fill="#000000" fill-opacity="1"><g transform="translate(215.906677, 19.753449)"><g><path d="M 1.9375 0 L 1.9375 -14.21875 L 7.125 -14.21875 C 8 -14.21875 8.769531 -14.03125 9.4375 -13.65625 C 10.113281 -13.289062 10.640625 -12.773438 11.015625 -12.109375 C 11.398438 -11.453125 11.59375 -10.671875 11.59375 -9.765625 C 11.59375 -8.867188 11.398438 -8.082031 11.015625 -7.40625 C 10.640625 -6.726562 10.113281 -6.195312 9.4375 -5.8125 C 8.769531 -5.4375 8 -5.25 7.125 -5.25 L 3.921875 -5.25 L 3.921875 0 Z M 3.921875 -6.984375 L 6.8125 -6.984375 C 7.664062 -6.984375 8.335938 -7.234375 8.828125 -7.734375 C 9.316406 -8.234375 9.5625 -8.910156 9.5625 -9.765625 C 9.5625 -10.628906 9.316406 -11.296875 8.828125 -11.765625 C 8.335938 -12.242188 7.671875 -12.484375 6.828125 -12.484375 L 3.921875 -12.484375 Z M 3.921875 -6.984375 "/></g></g></g><g fill="#000000" fill-opacity="1"><g transform="translate(231.169596, 19.761707)"><g><path d="M 1.9375 0 L 1.9375 -14.21875 L 3.921875 -14.21875 L 3.921875 -1.734375 L 10.296875 -1.734375 L 10.296875 0 Z M 1.9375 0 "/></g></g></g><g fill="#000000" fill-opacity="1"><g transform="translate(244.862091, 19.769116)"><g><path d="M 10.40625 0 L 8.984375 -4.09375 L 3.625 -4.09375 L 2.21875 0 L 0.15625 0 L 5.28125 -14.21875 L 7.375 -14.21875 L 12.484375 0 Z M 6.34375 -12.265625 L 6.296875 -12.265625 C 6.296875 -12.265625 6.265625 -12.144531 6.203125 -11.90625 C 6.148438 -11.675781 6.078125 -11.398438 5.984375 -11.078125 C 5.898438 -10.765625 5.816406 -10.488281 5.734375 -10.25 L 4.15625 -5.734375 L 8.453125 -5.734375 L 6.890625 -10.25 C 6.804688 -10.488281 6.722656 -10.765625 6.640625 -11.078125 C 6.566406 -11.398438 6.5 -11.675781 6.4375 -11.90625 C 6.375 -12.144531 6.34375 -12.265625 6.34375 -12.265625 Z M 6.34375 -12.265625 "/></g></g></g><g fill="#000000" fill-opacity="1"><g transform="translate(260.547835, 19.777603)"><g><path d="M 1.9375 0 L 1.9375 -14.21875 L 3.90625 -14.21875 L 10.234375 -4.96875 C 10.410156 -4.71875 10.585938 -4.429688 10.765625 -4.109375 C 10.941406 -3.785156 11.09375 -3.503906 11.21875 -3.265625 C 11.351562 -3.035156 11.421875 -2.921875 11.421875 -2.921875 L 11.453125 -2.921875 C 11.453125 -2.921875 11.441406 -3.035156 11.421875 -3.265625 C 11.410156 -3.503906 11.390625 -3.785156 11.359375 -4.109375 C 11.328125 -4.429688 11.3125 -4.71875 11.3125 -4.96875 L 11.3125 -14.21875 L 13.3125 -14.21875 L 13.3125 0 L 11.359375 0 L 5.015625 -9.21875 C 4.835938 -9.488281 4.65625 -9.785156 4.46875 -10.109375 C 4.289062 -10.429688 4.140625 -10.707031 4.015625 -10.9375 C 3.890625 -11.175781 3.828125 -11.296875 3.828125 -11.296875 L 3.78125 -11.296875 C 3.78125 -11.296875 3.789062 -11.175781 3.8125 -10.9375 C 3.84375 -10.707031 3.867188 -10.429688 3.890625 -10.109375 C 3.910156 -9.785156 3.921875 -9.488281 3.921875 -9.21875 L 3.921875 0 Z M 1.9375 0 "/></g></g></g><g fill="#000000" fill-opacity="1"><g transform="translate(278.830767, 19.787495)"><g><path d="M 1.9375 0 L 1.9375 -14.21875 L 3.90625 -14.21875 L 10.234375 -4.96875 C 10.410156 -4.71875 10.585938 -4.429688 10.765625 -4.109375 C 10.941406 -3.785156 11.09375 -3.503906 11.21875 -3.265625 C 11.351562 -3.035156 11.421875 -2.921875 11.421875 -2.921875 L 11.453125 -2.921875 C 11.453125 -2.921875 11.441406 -3.035156 11.421875 -3.265625 C 11.410156 -3.503906 11.390625 -3.785156 11.359375 -4.109375 C 11.328125 -4.429688 11.3125 -4.71875 11.3125 -4.96875 L 11.3125 -14.21875 L 13.3125 -14.21875 L 13.3125 0 L 11.359375 0 L 5.015625 -9.21875 C 4.835938 -9.488281 4.65625 -9.785156 4.46875 -10.109375 C 4.289062 -10.429688 4.140625 -10.707031 4.015625 -10.9375 C 3.890625 -11.175781 3.828125 -11.296875 3.828125 -11.296875 L 3.78125 -11.296875 C 3.78125 -11.296875 3.789062 -11.175781 3.8125 -10.9375 C 3.84375 -10.707031 3.867188 -10.429688 3.890625 -10.109375 C 3.910156 -9.785156 3.921875 -9.488281 3.921875 -9.21875 L 3.921875 0 Z M 1.9375 0 "/></g></g></g><g fill="#000000" fill-opacity="1"><g transform="translate(297.1137, 19.797387)"><g><path d="M 1.9375 0 L 1.9375 -14.21875 L 10.1875 -14.21875 L 10.1875 -12.484375 L 3.921875 -12.484375 L 3.921875 -8.03125 L 9.015625 -8.03125 L 9.015625 -6.296875 L 3.921875 -6.296875 L 3.921875 -1.734375 L 10.53125 -1.734375 L 10.53125 0 Z M 1.9375 0 "/></g></g></g><g fill="#000000" fill-opacity="1"><g transform="translate(311.692095, 19.805274)"><g><path d="M 1.9375 0 L 1.9375 -14.21875 L 6.28125 -14.21875 C 7.03125 -14.21875 7.59375 -14.191406 7.96875 -14.140625 C 8.351562 -14.085938 8.675781 -14.003906 8.9375 -13.890625 C 9.664062 -13.628906 10.25 -13.15625 10.6875 -12.46875 C 11.125 -11.789062 11.34375 -10.984375 11.34375 -10.046875 C 11.34375 -9.148438 11.109375 -8.347656 10.640625 -7.640625 C 10.179688 -6.941406 9.5625 -6.460938 8.78125 -6.203125 L 8.78125 -6.15625 C 8.78125 -6.15625 8.816406 -6.101562 8.890625 -6 C 8.960938 -5.90625 9.066406 -5.742188 9.203125 -5.515625 L 12.21875 0 L 9.96875 0 L 6.96875 -5.65625 L 3.921875 -5.65625 L 3.921875 0 Z M 3.921875 -7.390625 L 6.78125 -7.390625 C 7.5625 -7.390625 8.175781 -7.617188 8.625 -8.078125 C 9.082031 -8.546875 9.3125 -9.175781 9.3125 -9.96875 C 9.3125 -11.019531 8.929688 -11.753906 8.171875 -12.171875 C 7.984375 -12.273438 7.75 -12.351562 7.46875 -12.40625 C 7.1875 -12.457031 6.769531 -12.484375 6.21875 -12.484375 L 3.921875 -12.484375 Z M 3.921875 -7.390625 "/></g></g></g></g></g></svg>