<svg xmlns="http://www.w3.org/2000/svg" xmlns:xlink="http://www.w3.org/1999/xlink" width="500" zoomAndPan="magnify" viewBox="0 0 375 194.87999" height="250" preserveAspectRatio="xMidYMid meet" version="1.0"><defs><g/><clipPath id="82b3182152"><path d="M 73.488281 56.355469 L 125.632812 56.355469 L 125.632812 113.886719 L 73.488281 113.886719 Z M 73.488281 56.355469 " clip-rule="nonzero"/></clipPath><clipPath id="03e44dc263"><path d="M 109.347656 78.515625 L 90.894531 78.515625 C 89.332031 78.515625 88.226562 76.953125 88.777344 75.496094 C 90.753906 70.246094 95.117188 67.164062 101.027344 67.164062 C 106.277344 67.164062 110.453125 70.191406 111.5625 75.90625 C 111.824219 77.269531 110.734375 78.515625 109.347656 78.515625 M 101.34375 56.664062 C 85.066406 56.664062 73.601562 68.445312 73.601562 85.265625 C 73.601562 100.796875 84.847656 113.867188 102.949219 113.867188 C 112.683594 113.867188 119.734375 109.863281 122.957031 107.582031 C 124.113281 106.765625 124.457031 105.203125 123.789062 103.957031 L 121.183594 99.117188 C 120.402344 97.671875 118.566406 97.195312 117.179688 98.074219 C 114.394531 99.847656 109.523438 102.296875 103.914062 102.296875 C 96.875 102.296875 90.386719 98.609375 88.21875 91.4375 C 87.671875 89.636719 89.058594 87.828125 90.929688 87.828125 L 122.621094 87.828125 C 124.105469 87.828125 125.335938 86.679688 125.441406 85.195312 C 125.5 84.246094 125.554688 83.246094 125.554688 82.578125 C 125.554688 68.121094 117.089844 56.664062 101.34375 56.664062 " clip-rule="nonzero"/></clipPath><clipPath id="2b45954ab6"><path d="M 0.511719 0.605469 L 52.558594 0.605469 L 52.558594 57.886719 L 0.511719 57.886719 Z M 0.511719 0.605469 " clip-rule="nonzero"/></clipPath><clipPath id="6e9f27c865"><path d="M 36.347656 22.515625 L 17.894531 22.515625 C 16.332031 22.515625 15.226562 20.953125 15.777344 19.496094 C 17.753906 14.246094 22.117188 11.164062 28.027344 11.164062 C 33.277344 11.164062 37.453125 14.191406 38.5625 19.90625 C 38.824219 21.269531 37.734375 22.515625 36.347656 22.515625 M 28.34375 0.664062 C 12.066406 0.664062 0.601562 12.445312 0.601562 29.265625 C 0.601562 44.796875 11.847656 57.867188 29.949219 57.867188 C 39.683594 57.867188 46.734375 53.863281 49.957031 51.582031 C 51.113281 50.765625 51.457031 49.203125 50.789062 47.957031 L 48.183594 43.117188 C 47.402344 41.671875 45.566406 41.195312 44.179688 42.074219 C 41.394531 43.847656 36.523438 46.296875 30.914062 46.296875 C 23.875 46.296875 17.386719 42.609375 15.21875 35.4375 C 14.671875 33.636719 16.058594 31.828125 17.929688 31.828125 L 49.621094 31.828125 C 51.105469 31.828125 52.335938 30.679688 52.441406 29.195312 C 52.5 28.246094 52.554688 27.246094 52.554688 26.578125 C 52.554688 12.121094 44.089844 0.664062 28.34375 0.664062 " clip-rule="nonzero"/></clipPath><clipPath id="b6625a6709"><rect x="0" width="53" y="0" height="58"/></clipPath><clipPath id="aae3ba159f"><path d="M 182.152344 56.355469 L 234.636719 56.355469 L 234.636719 113.886719 L 182.152344 113.886719 Z M 182.152344 56.355469 " clip-rule="nonzero"/></clipPath><clipPath id="f2e7f3d8d6"><path d="M 218.148438 78.515625 L 199.695312 78.515625 C 198.132812 78.515625 197.023438 76.953125 197.578125 75.496094 C 199.554688 70.246094 203.917969 67.164062 209.824219 67.164062 C 215.074219 67.164062 219.253906 70.191406 220.359375 75.90625 C 220.625 77.269531 219.535156 78.515625 218.148438 78.515625 M 210.140625 56.664062 C 193.863281 56.664062 182.398438 68.445312 182.398438 85.265625 C 182.398438 100.796875 193.644531 113.867188 211.746094 113.867188 C 221.484375 113.867188 228.535156 109.863281 231.753906 107.582031 C 232.914062 106.765625 233.257812 105.203125 232.589844 103.957031 L 229.980469 99.117188 C 229.199219 97.671875 227.367188 97.195312 225.980469 98.074219 C 223.195312 99.847656 218.324219 102.296875 212.714844 102.296875 C 205.671875 102.296875 199.183594 98.609375 197.015625 91.4375 C 196.472656 89.636719 197.859375 87.828125 199.730469 87.828125 L 231.421875 87.828125 C 232.90625 87.828125 234.132812 86.679688 234.238281 85.195312 C 234.300781 84.246094 234.355469 83.246094 234.355469 82.578125 C 234.355469 68.121094 225.890625 56.664062 210.140625 56.664062 " clip-rule="nonzero"/></clipPath><clipPath id="a7aa15c275"><path d="M 0.164062 0.605469 L 52.449219 0.605469 L 52.449219 57.886719 L 0.164062 57.886719 Z M 0.164062 0.605469 " clip-rule="nonzero"/></clipPath><clipPath id="3426d7ca5f"><path d="M 36.148438 22.515625 L 17.695312 22.515625 C 16.132812 22.515625 15.023438 20.953125 15.578125 19.496094 C 17.554688 14.246094 21.917969 11.164062 27.824219 11.164062 C 33.074219 11.164062 37.253906 14.191406 38.359375 19.90625 C 38.625 21.269531 37.535156 22.515625 36.148438 22.515625 M 28.140625 0.664062 C 11.863281 0.664062 0.398438 12.445312 0.398438 29.265625 C 0.398438 44.796875 11.644531 57.867188 29.746094 57.867188 C 39.484375 57.867188 46.535156 53.863281 49.753906 51.582031 C 50.914062 50.765625 51.257812 49.203125 50.589844 47.957031 L 47.980469 43.117188 C 47.199219 41.671875 45.367188 41.195312 43.980469 42.074219 C 41.195312 43.847656 36.324219 46.296875 30.714844 46.296875 C 23.671875 46.296875 17.183594 42.609375 15.015625 35.4375 C 14.472656 33.636719 15.859375 31.828125 17.730469 31.828125 L 49.421875 31.828125 C 50.90625 31.828125 52.132812 30.679688 52.238281 29.195312 C 52.300781 28.246094 52.355469 27.246094 52.355469 26.578125 C 52.355469 12.121094 43.890625 0.664062 28.140625 0.664062 " clip-rule="nonzero"/></clipPath><clipPath id="f2ab0bdd89"><rect x="0" width="53" y="0" height="58"/></clipPath><clipPath id="87cf3da8af"><path d="M 127.652344 57.703125 L 181 57.703125 L 181 112.878906 L 127.652344 112.878906 Z M 127.652344 57.703125 " clip-rule="nonzero"/></clipPath><clipPath id="3efaf5f3be"><path d="M 130.972656 57.945312 L 138.855469 57.945312 C 140.152344 57.945312 141.304688 58.769531 141.71875 60 L 152.382812 91.796875 C 153.453125 95.011719 154.199219 100.050781 154.316406 100.050781 L 154.527344 100.050781 C 154.632812 100.050781 155.386719 95.011719 156.457031 91.796875 L 167.125 60 C 167.535156 58.769531 168.6875 57.945312 169.984375 57.945312 L 177.886719 57.945312 C 179.976562 57.945312 181.425781 60.015625 180.722656 61.972656 L 163.277344 110.585938 C 162.847656 111.777344 161.714844 112.578125 160.441406 112.578125 L 148.601562 112.578125 C 147.335938 112.578125 146.195312 111.785156 145.765625 110.59375 L 128.136719 61.992188 C 127.425781 60.027344 128.882812 57.953125 130.972656 57.953125 " clip-rule="nonzero"/></clipPath><clipPath id="8cc7d35f62"><path d="M 0.652344 0.804688 L 54 0.804688 L 54 55.730469 L 0.652344 55.730469 Z M 0.652344 0.804688 " clip-rule="nonzero"/></clipPath><clipPath id="722cfbc5ec"><path d="M 3.972656 0.945312 L 11.855469 0.945312 C 13.152344 0.945312 14.304688 1.769531 14.71875 3 L 25.382812 34.796875 C 26.453125 38.011719 27.199219 43.050781 27.316406 43.050781 L 27.527344 43.050781 C 27.632812 43.050781 28.386719 38.011719 29.457031 34.796875 L 40.125 3 C 40.535156 1.769531 41.6875 0.945312 42.984375 0.945312 L 50.886719 0.945312 C 52.976562 0.945312 54.425781 3.015625 53.722656 4.972656 L 36.277344 53.585938 C 35.847656 54.777344 34.714844 55.578125 33.441406 55.578125 L 21.601562 55.578125 C 20.335938 55.578125 19.195312 54.785156 18.765625 53.59375 L 1.136719 4.992188 C 0.425781 3.027344 1.882812 0.953125 3.972656 0.953125 " clip-rule="nonzero"/></clipPath><clipPath id="208a496ba3"><rect x="0" width="54" y="0" height="56"/></clipPath><clipPath id="bc23c438b4"><path d="M 242.035156 36.507812 L 291.492188 36.507812 L 291.492188 112.878906 L 242.035156 112.878906 Z M 242.035156 36.507812 " clip-rule="nonzero"/></clipPath><clipPath id="5619ee49bc"><path d="M 244.082031 36.523438 L 253.710938 36.523438 C 254.808594 36.523438 255.695312 37.410156 255.695312 38.507812 L 255.695312 75.238281 C 255.695312 76.335938 256.582031 77.222656 257.679688 77.222656 L 261.394531 77.222656 C 262.050781 77.222656 262.667969 76.898438 263.035156 76.355469 L 275.027344 58.804688 C 275.394531 58.261719 276.011719 57.9375 276.667969 57.9375 L 286.886719 57.9375 C 288.503906 57.9375 289.441406 59.753906 288.511719 61.070312 L 273.484375 82.378906 L 273.484375 82.585938 L 290.890625 109.511719 C 291.742188 110.839844 290.796875 112.578125 289.222656 112.578125 L 278.347656 112.578125 C 277.652344 112.578125 277.003906 112.21875 276.644531 111.621094 L 263.351562 89.65625 C 262.992188 89.058594 262.351562 88.699219 261.648438 88.699219 L 257.6875 88.699219 C 256.589844 88.699219 255.703125 89.585938 255.703125 90.683594 L 255.703125 110.59375 C 255.703125 111.691406 254.816406 112.578125 253.722656 112.578125 L 244.082031 112.578125 C 242.984375 112.578125 242.097656 111.691406 242.097656 110.59375 L 242.097656 38.507812 C 242.097656 37.410156 242.984375 36.523438 244.082031 36.523438 " clip-rule="nonzero"/></clipPath><clipPath id="765d5ff814"><path d="M 0.0351562 0.507812 L 49.492188 0.507812 L 49.492188 76.730469 L 0.0351562 76.730469 Z M 0.0351562 0.507812 " clip-rule="nonzero"/></clipPath><clipPath id="a2584837a5"><path d="M 2.082031 0.523438 L 11.710938 0.523438 C 12.808594 0.523438 13.695312 1.410156 13.695312 2.507812 L 13.695312 39.238281 C 13.695312 40.335938 14.582031 41.222656 15.679688 41.222656 L 19.394531 41.222656 C 20.050781 41.222656 20.667969 40.898438 21.035156 40.355469 L 33.027344 22.804688 C 33.394531 22.261719 34.011719 21.9375 34.667969 21.9375 L 44.886719 21.9375 C 46.503906 21.9375 47.441406 23.753906 46.511719 25.070312 L 31.484375 46.378906 L 31.484375 46.585938 L 48.890625 73.511719 C 49.742188 74.839844 48.796875 76.578125 47.222656 76.578125 L 36.347656 76.578125 C 35.652344 76.578125 35.003906 76.21875 34.644531 75.621094 L 21.351562 53.65625 C 20.992188 53.058594 20.351562 52.699219 19.648438 52.699219 L 15.6875 52.699219 C 14.589844 52.699219 13.703125 53.585938 13.703125 54.683594 L 13.703125 74.59375 C 13.703125 75.691406 12.816406 76.578125 11.722656 76.578125 L 2.082031 76.578125 C 0.984375 76.578125 0.0976562 75.691406 0.0976562 74.59375 L 0.0976562 2.507812 C 0.0976562 1.410156 0.984375 0.523438 2.082031 0.523438 " clip-rule="nonzero"/></clipPath><clipPath id="bd7810631b"><rect x="0" width="50" y="0" height="77"/></clipPath><clipPath id="7aa64dbeb1"><path d="M 23.359375 36.507812 L 72.8125 36.507812 L 72.8125 112.878906 L 23.359375 112.878906 Z M 23.359375 36.507812 " clip-rule="nonzero"/></clipPath><clipPath id="0c9dfd7e3e"><path d="M 25.359375 36.523438 C 24.277344 36.523438 23.390625 37.394531 23.375 38.480469 L 23.375 110.628906 C 23.390625 111.707031 24.277344 112.585938 25.359375 112.585938 L 34.988281 112.585938 C 36.085938 112.585938 36.972656 111.699219 36.972656 110.601562 L 36.972656 90.683594 C 36.972656 89.585938 37.859375 88.699219 38.957031 88.699219 L 42.917969 88.699219 C 43.609375 88.699219 44.261719 89.058594 44.621094 89.65625 L 57.929688 111.621094 C 58.289062 112.21875 58.9375 112.578125 59.632812 112.578125 L 70.5 112.578125 C 72.070312 112.578125 73.027344 110.832031 72.167969 109.511719 L 54.761719 82.585938 L 54.761719 82.378906 L 69.796875 61.078125 C 70.730469 59.761719 69.789062 57.945312 68.175781 57.945312 L 57.957031 57.945312 C 57.296875 57.945312 56.683594 58.269531 56.3125 58.8125 L 44.320312 76.363281 C 43.953125 76.90625 43.339844 77.234375 42.679688 77.234375 L 38.964844 77.234375 C 37.867188 77.234375 36.980469 76.347656 36.980469 75.25 L 36.980469 38.507812 C 36.980469 37.410156 36.085938 36.523438 34.988281 36.523438 Z M 25.359375 36.523438 " clip-rule="nonzero"/></clipPath><clipPath id="70411e7833"><path d="M 0.359375 0.507812 L 49.8125 0.507812 L 49.8125 76.730469 L 0.359375 76.730469 Z M 0.359375 0.507812 " clip-rule="nonzero"/></clipPath><clipPath id="550ebe5f72"><path d="M 2.359375 0.523438 C 1.277344 0.523438 0.390625 1.394531 0.375 2.480469 L 0.375 74.628906 C 0.390625 75.707031 1.277344 76.585938 2.359375 76.585938 L 11.988281 76.585938 C 13.085938 76.585938 13.972656 75.699219 13.972656 74.601562 L 13.972656 54.683594 C 13.972656 53.585938 14.859375 52.699219 15.957031 52.699219 L 19.917969 52.699219 C 20.609375 52.699219 21.261719 53.058594 21.621094 53.65625 L 34.929688 75.621094 C 35.289062 76.21875 35.9375 76.578125 36.632812 76.578125 L 47.5 76.578125 C 49.070312 76.578125 50.027344 74.832031 49.167969 73.511719 L 31.761719 46.585938 L 31.761719 46.378906 L 46.796875 25.078125 C 47.730469 23.761719 46.789062 21.945312 45.175781 21.945312 L 34.957031 21.945312 C 34.296875 21.945312 33.683594 22.269531 33.3125 22.8125 L 21.320312 40.363281 C 20.953125 40.90625 20.339844 41.234375 19.679688 41.234375 L 15.964844 41.234375 C 14.867188 41.234375 13.980469 40.347656 13.980469 39.25 L 13.980469 2.507812 C 13.980469 1.410156 13.085938 0.523438 11.988281 0.523438 Z M 2.359375 0.523438 " clip-rule="nonzero"/></clipPath><clipPath id="a3870ec2b7"><rect x="0" width="50" y="0" height="77"/></clipPath><clipPath id="58a23430e4"><path d="M 291.492188 56.355469 L 351.710938 56.355469 L 351.710938 113.886719 L 291.492188 113.886719 Z M 291.492188 56.355469 " clip-rule="nonzero"/></clipPath><clipPath id="e20a559bb7"><path d="M 332.980469 68.613281 C 333.566406 68.613281 334.179688 68.855469 334.8125 69.507812 C 336.585938 71.304688 336.769531 73.246094 335.3125 75.484375 C 329.78125 83.992188 324.339844 92.570312 318.90625 101.136719 C 318.140625 102.359375 317.457031 102.867188 316.78125 102.867188 C 315.992188 102.867188 315.21875 102.164062 314.332031 101.042969 C 303.148438 86.828125 303.148438 86.714844 318.097656 77.371094 C 318.414062 77.171875 318.722656 76.988281 319.039062 76.777344 L 319.0625 76.820312 C 322.671875 74.5625 326.246094 72.273438 329.863281 70.035156 C 330.855469 69.417969 331.882812 68.613281 332.960938 68.613281 Z M 321.546875 56.664062 C 304.957031 56.664062 291.566406 68.542969 291.558594 85.257812 C 291.550781 102.078125 304.929688 113.867188 321.644531 113.875 C 321.652344 113.875 321.652344 113.875 321.664062 113.875 C 336.234375 113.875 348.34375 104.789062 351.074219 91.183594 C 351.441406 89.355469 351.617188 87.546875 351.632812 85.773438 L 351.632812 85.414062 C 351.539062 70.042969 338.683594 57.144531 322.53125 56.6875 C 322.199219 56.679688 321.871094 56.671875 321.539062 56.671875 Z M 321.546875 56.664062 " clip-rule="nonzero"/></clipPath><clipPath id="d4613ecc5a"><path d="M 0.535156 0.605469 L 60.710938 0.605469 L 60.710938 57.886719 L 0.535156 57.886719 Z M 0.535156 0.605469 " clip-rule="nonzero"/></clipPath><clipPath id="4897b1f627"><path d="M 41.980469 12.613281 C 42.566406 12.613281 43.179688 12.855469 43.8125 13.507812 C 45.585938 15.304688 45.769531 17.246094 44.3125 19.484375 C 38.78125 27.992188 33.339844 36.570312 27.90625 45.136719 C 27.140625 46.359375 26.457031 46.867188 25.78125 46.867188 C 24.992188 46.867188 24.21875 46.164062 23.332031 45.042969 C 12.148438 30.828125 12.148438 30.714844 27.097656 21.371094 C 27.414062 21.171875 27.722656 20.988281 28.039062 20.777344 L 28.0625 20.820312 C 31.671875 18.5625 35.246094 16.273438 38.863281 14.035156 C 39.855469 13.417969 40.882812 12.613281 41.960938 12.613281 Z M 30.546875 0.664062 C 13.957031 0.664062 0.566406 12.542969 0.558594 29.257812 C 0.550781 46.078125 13.929688 57.867188 30.644531 57.875 C 30.652344 57.875 30.652344 57.875 30.664062 57.875 C 45.234375 57.875 57.34375 48.789062 60.074219 35.183594 C 60.441406 33.355469 60.617188 31.546875 60.632812 29.773438 L 60.632812 29.414062 C 60.539062 14.042969 47.683594 1.144531 31.53125 0.6875 C 31.199219 0.679688 30.871094 0.671875 30.539062 0.671875 Z M 30.546875 0.664062 " clip-rule="nonzero"/></clipPath><clipPath id="31ca8e7645"><rect x="0" width="61" y="0" height="58"/></clipPath><clipPath id="0961b2375c"><path d="M 0.339844 5 L 13 5 L 13 20 L 0.339844 20 Z M 0.339844 5 " clip-rule="nonzero"/></clipPath><clipPath id="40b26fa0a0"><rect x="0" width="328" y="0" height="26"/></clipPath></defs><g clip-path="url(#82b3182152)"><g clip-path="url(#03e44dc263)"><g transform="matrix(1, 0, 0, 1, 73, 56)"><g clip-path="url(#b6625a6709)"><g clip-path="url(#2b45954ab6)"><g clip-path="url(#6e9f27c865)"><rect x="-155.5" width="540" fill="#ffffff" height="280.627186" y="-98.873598" fill-opacity="1"/></g></g></g></g></g></g><g clip-path="url(#aae3ba159f)"><g clip-path="url(#f2e7f3d8d6)"><g transform="matrix(1, 0, 0, 1, 182, 56)"><g clip-path="url(#f2ab0bdd89)"><g clip-path="url(#a7aa15c275)"><g clip-path="url(#3426d7ca5f)"><rect x="-264.5" width="540" fill="#ffffff" height="280.627186" y="-98.873598" fill-opacity="1"/></g></g></g></g></g></g><g clip-path="url(#87cf3da8af)"><g clip-path="url(#3efaf5f3be)"><g transform="matrix(1, 0, 0, 1, 127, 57)"><g clip-path="url(#208a496ba3)"><g clip-path="url(#8cc7d35f62)"><g clip-path="url(#722cfbc5ec)"><rect x="-209.5" width="540" fill="#ffffff" height="280.627186" y="-99.873598" fill-opacity="1"/></g></g></g></g></g></g><g clip-path="url(#bc23c438b4)"><g clip-path="url(#5619ee49bc)"><g transform="matrix(1, 0, 0, 1, 242, 36)"><g clip-path="url(#bd7810631b)"><g clip-path="url(#765d5ff814)"><g clip-path="url(#a2584837a5)"><rect x="-324.5" width="540" fill="#ffffff" height="280.627186" y="-78.873598" fill-opacity="1"/></g></g></g></g></g></g><g clip-path="url(#7aa64dbeb1)"><g clip-path="url(#0c9dfd7e3e)"><g transform="matrix(1, 0, 0, 1, 23, 36)"><g clip-path="url(#a3870ec2b7)"><g clip-path="url(#70411e7833)"><g clip-path="url(#550ebe5f72)"><rect x="-105.5" width="540" fill="#ffffff" height="280.627186" y="-78.873598" fill-opacity="1"/></g></g></g></g></g></g><g clip-path="url(#58a23430e4)"><g clip-path="url(#e20a559bb7)"><g transform="matrix(1, 0, 0, 1, 291, 56)"><g clip-path="url(#31ca8e7645)"><g clip-path="url(#d4613ecc5a)"><g clip-path="url(#4897b1f627)"><rect x="-373.5" width="540" fill="#439bbb" height="280.627186" y="-98.873598" fill-opacity="1"/></g></g></g></g></g></g><g transform="matrix(1, 0, 0, 1, 24, 130)"><g clip-path="url(#40b26fa0a0)"><g clip-path="url(#0961b2375c)"><g fill="#ffffff" fill-opacity="1"><g transform="translate(0.83355, 19.624978)"><g><path d="M 4.9375 0 L 4.9375 -6.015625 L 0.15625 -14.21875 L 2.421875 -14.21875 L 5.0625 -9.546875 C 5.207031 -9.285156 5.34375 -9.015625 5.46875 -8.734375 C 5.601562 -8.453125 5.710938 -8.21875 5.796875 -8.03125 C 5.878906 -7.84375 5.921875 -7.75 5.921875 -7.75 L 5.96875 -7.75 C 5.96875 -7.75 6.003906 -7.84375 6.078125 -8.03125 C 6.160156 -8.21875 6.269531 -8.445312 6.40625 -8.71875 C 6.539062 -9 6.679688 -9.273438 6.828125 -9.546875 L 9.421875 -14.21875 L 11.6875 -14.21875 L 6.921875 -6.015625 L 6.921875 0 Z M 4.9375 0 "/></g></g></g></g><g fill="#ffffff" fill-opacity="1"><g transform="translate(15.710702, 19.633027)"><g><path d="M 0.96875 -7.203125 C 0.96875 -8.222656 1.148438 -9.171875 1.515625 -10.046875 C 1.890625 -10.929688 2.410156 -11.703125 3.078125 -12.359375 C 3.753906 -13.023438 4.535156 -13.539062 5.421875 -13.90625 C 6.304688 -14.28125 7.257812 -14.46875 8.28125 -14.46875 C 9.3125 -14.46875 10.265625 -14.28125 11.140625 -13.90625 C 12.023438 -13.539062 12.800781 -13.023438 13.46875 -12.359375 C 14.132812 -11.703125 14.648438 -10.929688 15.015625 -10.046875 C 15.378906 -9.160156 15.5625 -8.207031 15.5625 -7.1875 C 15.5625 -6.144531 15.378906 -5.171875 15.015625 -4.265625 C 14.648438 -3.367188 14.132812 -2.582031 13.46875 -1.90625 C 12.800781 -1.238281 12.023438 -0.710938 11.140625 -0.328125 C 10.265625 0.046875 9.3125 0.234375 8.28125 0.234375 C 7.257812 0.234375 6.304688 0.046875 5.421875 -0.328125 C 4.535156 -0.710938 3.753906 -1.238281 3.078125 -1.90625 C 2.410156 -2.582031 1.890625 -3.375 1.515625 -4.28125 C 1.148438 -5.1875 0.96875 -6.160156 0.96875 -7.203125 Z M 3.015625 -7.203125 C 3.015625 -6.148438 3.25 -5.195312 3.71875 -4.34375 C 4.195312 -3.488281 4.832031 -2.816406 5.625 -2.328125 C 6.425781 -1.835938 7.3125 -1.59375 8.28125 -1.59375 C 9.25 -1.59375 10.128906 -1.835938 10.921875 -2.328125 C 11.710938 -2.816406 12.34375 -3.488281 12.8125 -4.34375 C 13.28125 -5.195312 13.515625 -6.148438 13.515625 -7.203125 C 13.515625 -8.242188 13.28125 -9.171875 12.8125 -9.984375 C 12.34375 -10.804688 11.710938 -11.453125 10.921875 -11.921875 C 10.128906 -12.398438 9.25 -12.640625 8.28125 -12.640625 C 7.3125 -12.640625 6.425781 -12.398438 5.625 -11.921875 C 4.832031 -11.453125 4.195312 -10.804688 3.71875 -9.984375 C 3.25 -9.171875 3.015625 -8.242188 3.015625 -7.203125 Z M 3.015625 -7.203125 "/></g></g></g><g fill="#ffffff" fill-opacity="1"><g transform="translate(35.277932, 19.643614)"><g><path d="M 1.734375 -5.03125 L 1.734375 -14.21875 L 3.71875 -14.21875 L 3.71875 -5.03125 C 3.71875 -3.945312 4.039062 -3.101562 4.6875 -2.5 C 5.34375 -1.894531 6.21875 -1.59375 7.3125 -1.59375 C 8.414062 -1.59375 9.296875 -1.894531 9.953125 -2.5 C 10.609375 -3.113281 10.9375 -3.972656 10.9375 -5.078125 L 10.9375 -14.21875 L 12.9375 -14.21875 L 12.9375 -5.03125 C 12.9375 -3.988281 12.695312 -3.070312 12.21875 -2.28125 C 11.75 -1.488281 11.09375 -0.867188 10.25 -0.421875 C 9.414062 0.015625 8.441406 0.234375 7.328125 0.234375 C 6.222656 0.234375 5.25 0.015625 4.40625 -0.421875 C 3.5625 -0.867188 2.90625 -1.488281 2.4375 -2.28125 C 1.96875 -3.070312 1.734375 -3.988281 1.734375 -5.03125 Z M 1.734375 -5.03125 "/></g></g></g><g fill="#ffffff" fill-opacity="1"><g transform="translate(52.97316, 19.653188)"><g><path d="M 1.9375 0 L 1.9375 -14.21875 L 6.28125 -14.21875 C 7.03125 -14.21875 7.59375 -14.191406 7.96875 -14.140625 C 8.351562 -14.085938 8.675781 -14.003906 8.9375 -13.890625 C 9.664062 -13.628906 10.25 -13.15625 10.6875 -12.46875 C 11.125 -11.789062 11.34375 -10.984375 11.34375 -10.046875 C 11.34375 -9.148438 11.109375 -8.347656 10.640625 -7.640625 C 10.179688 -6.941406 9.5625 -6.460938 8.78125 -6.203125 L 8.78125 -6.15625 C 8.78125 -6.15625 8.816406 -6.101562 8.890625 -6 C 8.960938 -5.90625 9.066406 -5.742188 9.203125 -5.515625 L 12.21875 0 L 9.96875 0 L 6.96875 -5.65625 L 3.921875 -5.65625 L 3.921875 0 Z M 3.921875 -7.390625 L 6.78125 -7.390625 C 7.5625 -7.390625 8.175781 -7.617188 8.625 -8.078125 C 9.082031 -8.546875 9.3125 -9.175781 9.3125 -9.96875 C 9.3125 -11.019531 8.929688 -11.753906 8.171875 -12.171875 C 7.984375 -12.273438 7.75 -12.351562 7.46875 -12.40625 C 7.1875 -12.457031 6.769531 -12.484375 6.21875 -12.484375 L 3.921875 -12.484375 Z M 3.921875 -7.390625 "/></g></g></g><g fill="#ffffff" fill-opacity="1"><g transform="translate(68.917152, 19.661815)"><g/></g></g><g fill="#ffffff" fill-opacity="1"><g transform="translate(77.131568, 19.666259)"><g><path d="M 1.9375 0 L 1.9375 -14.21875 L 9.765625 -14.21875 L 9.765625 -12.484375 L 3.921875 -12.484375 L 3.921875 -7.8125 L 8.90625 -7.8125 L 8.90625 -6.078125 L 3.921875 -6.078125 L 3.921875 0 Z M 1.9375 0 "/></g></g></g><g fill="#ffffff" fill-opacity="1"><g transform="translate(90.660068, 19.673579)"><g><path d="M 1.9375 0 L 1.9375 -14.21875 L 3.921875 -14.21875 L 3.921875 0 Z M 1.9375 0 "/></g></g></g><g fill="#ffffff" fill-opacity="1"><g transform="translate(99.558873, 19.678393)"><g><path d="M 1.9375 0 L 1.9375 -14.21875 L 3.90625 -14.21875 L 10.234375 -4.96875 C 10.410156 -4.71875 10.585938 -4.429688 10.765625 -4.109375 C 10.941406 -3.785156 11.09375 -3.503906 11.21875 -3.265625 C 11.351562 -3.035156 11.421875 -2.921875 11.421875 -2.921875 L 11.453125 -2.921875 C 11.453125 -2.921875 11.441406 -3.035156 11.421875 -3.265625 C 11.410156 -3.503906 11.390625 -3.785156 11.359375 -4.109375 C 11.328125 -4.429688 11.3125 -4.71875 11.3125 -4.96875 L 11.3125 -14.21875 L 13.3125 -14.21875 L 13.3125 0 L 11.359375 0 L 5.015625 -9.21875 C 4.835938 -9.488281 4.65625 -9.785156 4.46875 -10.109375 C 4.289062 -10.429688 4.140625 -10.707031 4.015625 -10.9375 C 3.890625 -11.175781 3.828125 -11.296875 3.828125 -11.296875 L 3.78125 -11.296875 C 3.78125 -11.296875 3.789062 -11.175781 3.8125 -10.9375 C 3.84375 -10.707031 3.867188 -10.429688 3.890625 -10.109375 C 3.910156 -9.785156 3.921875 -9.488281 3.921875 -9.21875 L 3.921875 0 Z M 1.9375 0 "/></g></g></g><g fill="#ffffff" fill-opacity="1"><g transform="translate(117.837839, 19.688283)"><g><path d="M 10.40625 0 L 8.984375 -4.09375 L 3.625 -4.09375 L 2.21875 0 L 0.15625 0 L 5.28125 -14.21875 L 7.375 -14.21875 L 12.484375 0 Z M 6.34375 -12.265625 L 6.296875 -12.265625 C 6.296875 -12.265625 6.265625 -12.144531 6.203125 -11.90625 C 6.148438 -11.675781 6.078125 -11.398438 5.984375 -11.078125 C 5.898438 -10.765625 5.816406 -10.488281 5.734375 -10.25 L 4.15625 -5.734375 L 8.453125 -5.734375 L 6.890625 -10.25 C 6.804688 -10.488281 6.722656 -10.765625 6.640625 -11.078125 C 6.566406 -11.398438 6.5 -11.675781 6.4375 -11.90625 C 6.375 -12.144531 6.34375 -12.265625 6.34375 -12.265625 Z M 6.34375 -12.265625 "/></g></g></g><g fill="#ffffff" fill-opacity="1"><g transform="translate(133.52016, 19.696768)"><g><path d="M 1.9375 0 L 1.9375 -14.21875 L 3.90625 -14.21875 L 10.234375 -4.96875 C 10.410156 -4.71875 10.585938 -4.429688 10.765625 -4.109375 C 10.941406 -3.785156 11.09375 -3.503906 11.21875 -3.265625 C 11.351562 -3.035156 11.421875 -2.921875 11.421875 -2.921875 L 11.453125 -2.921875 C 11.453125 -2.921875 11.441406 -3.035156 11.421875 -3.265625 C 11.410156 -3.503906 11.390625 -3.785156 11.359375 -4.109375 C 11.328125 -4.429688 11.3125 -4.71875 11.3125 -4.96875 L 11.3125 -14.21875 L 13.3125 -14.21875 L 13.3125 0 L 11.359375 0 L 5.015625 -9.21875 C 4.835938 -9.488281 4.65625 -9.785156 4.46875 -10.109375 C 4.289062 -10.429688 4.140625 -10.707031 4.015625 -10.9375 C 3.890625 -11.175781 3.828125 -11.296875 3.828125 -11.296875 L 3.78125 -11.296875 C 3.78125 -11.296875 3.789062 -11.175781 3.8125 -10.9375 C 3.84375 -10.707031 3.867188 -10.429688 3.890625 -10.109375 C 3.910156 -9.785156 3.921875 -9.488281 3.921875 -9.21875 L 3.921875 0 Z M 1.9375 0 "/></g></g></g><g fill="#ffffff" fill-opacity="1"><g transform="translate(151.79912, 19.706658)"><g><path d="M 0.96875 -7.1875 C 0.96875 -8.21875 1.144531 -9.171875 1.5 -10.046875 C 1.863281 -10.929688 2.375 -11.703125 3.03125 -12.359375 C 3.6875 -13.023438 4.453125 -13.539062 5.328125 -13.90625 C 6.203125 -14.28125 7.160156 -14.46875 8.203125 -14.46875 C 9.054688 -14.46875 9.804688 -14.367188 10.453125 -14.171875 C 11.097656 -13.984375 11.640625 -13.765625 12.078125 -13.515625 C 12.515625 -13.273438 12.835938 -13.0625 13.046875 -12.875 C 13.265625 -12.6875 13.375 -12.59375 13.375 -12.59375 L 12.390625 -11.09375 C 12.390625 -11.09375 12.289062 -11.171875 12.09375 -11.328125 C 11.894531 -11.484375 11.613281 -11.664062 11.25 -11.875 C 10.894531 -12.082031 10.460938 -12.257812 9.953125 -12.40625 C 9.453125 -12.5625 8.894531 -12.640625 8.28125 -12.640625 C 7.21875 -12.640625 6.289062 -12.398438 5.5 -11.921875 C 4.71875 -11.441406 4.109375 -10.785156 3.671875 -9.953125 C 3.234375 -9.128906 3.015625 -8.210938 3.015625 -7.203125 C 3.015625 -6.203125 3.234375 -5.273438 3.671875 -4.421875 C 4.117188 -3.566406 4.738281 -2.878906 5.53125 -2.359375 C 6.332031 -1.847656 7.253906 -1.59375 8.296875 -1.59375 C 8.972656 -1.59375 9.578125 -1.6875 10.109375 -1.875 C 10.648438 -2.0625 11.109375 -2.273438 11.484375 -2.515625 C 11.867188 -2.753906 12.164062 -2.96875 12.375 -3.15625 C 12.582031 -3.34375 12.6875 -3.4375 12.6875 -3.4375 L 13.75 -2.015625 C 13.75 -2.015625 13.628906 -1.898438 13.390625 -1.671875 C 13.148438 -1.441406 12.796875 -1.175781 12.328125 -0.875 C 11.867188 -0.582031 11.289062 -0.320312 10.59375 -0.09375 C 9.90625 0.125 9.117188 0.234375 8.234375 0.234375 C 7.171875 0.234375 6.191406 0.046875 5.296875 -0.328125 C 4.410156 -0.703125 3.644531 -1.226562 3 -1.90625 C 2.351562 -2.582031 1.851562 -3.367188 1.5 -4.265625 C 1.144531 -5.171875 0.96875 -6.144531 0.96875 -7.1875 Z M 0.96875 -7.1875 "/></g></g></g><g fill="#ffffff" fill-opacity="1"><g transform="translate(169.373576, 19.716167)"><g><path d="M 1.9375 0 L 1.9375 -14.21875 L 3.921875 -14.21875 L 3.921875 0 Z M 1.9375 0 "/></g></g></g><g fill="#ffffff" fill-opacity="1"><g transform="translate(178.272381, 19.720981)"><g><path d="M 10.40625 0 L 8.984375 -4.09375 L 3.625 -4.09375 L 2.21875 0 L 0.15625 0 L 5.28125 -14.21875 L 7.375 -14.21875 L 12.484375 0 Z M 6.34375 -12.265625 L 6.296875 -12.265625 C 6.296875 -12.265625 6.265625 -12.144531 6.203125 -11.90625 C 6.148438 -11.675781 6.078125 -11.398438 5.984375 -11.078125 C 5.898438 -10.765625 5.816406 -10.488281 5.734375 -10.25 L 4.15625 -5.734375 L 8.453125 -5.734375 L 6.890625 -10.25 C 6.804688 -10.488281 6.722656 -10.765625 6.640625 -11.078125 C 6.566406 -11.398438 6.5 -11.675781 6.4375 -11.90625 C 6.375 -12.144531 6.34375 -12.265625 6.34375 -12.265625 Z M 6.34375 -12.265625 "/></g></g></g><g fill="#ffffff" fill-opacity="1"><g transform="translate(193.954688, 19.729466)"><g><path d="M 1.9375 0 L 1.9375 -14.21875 L 3.921875 -14.21875 L 3.921875 -1.734375 L 10.296875 -1.734375 L 10.296875 0 Z M 1.9375 0 "/></g></g></g><g fill="#ffffff" fill-opacity="1"><g transform="translate(207.644221, 19.736873)"><g/></g></g><g fill="#ffffff" fill-opacity="1"><g transform="translate(215.858637, 19.741318)"><g><path d="M 1.9375 0 L 1.9375 -14.21875 L 7.125 -14.21875 C 8 -14.21875 8.769531 -14.03125 9.4375 -13.65625 C 10.113281 -13.289062 10.640625 -12.773438 11.015625 -12.109375 C 11.398438 -11.453125 11.59375 -10.671875 11.59375 -9.765625 C 11.59375 -8.867188 11.398438 -8.082031 11.015625 -7.40625 C 10.640625 -6.726562 10.113281 -6.195312 9.4375 -5.8125 C 8.769531 -5.4375 8 -5.25 7.125 -5.25 L 3.921875 -5.25 L 3.921875 0 Z M 3.921875 -6.984375 L 6.8125 -6.984375 C 7.664062 -6.984375 8.335938 -7.234375 8.828125 -7.734375 C 9.316406 -8.234375 9.5625 -8.910156 9.5625 -9.765625 C 9.5625 -10.628906 9.316406 -11.296875 8.828125 -11.765625 C 8.335938 -12.242188 7.671875 -12.484375 6.828125 -12.484375 L 3.921875 -12.484375 Z M 3.921875 -6.984375 "/></g></g></g><g fill="#ffffff" fill-opacity="1"><g transform="translate(231.118239, 19.749574)"><g><path d="M 1.9375 0 L 1.9375 -14.21875 L 3.921875 -14.21875 L 3.921875 -1.734375 L 10.296875 -1.734375 L 10.296875 0 Z M 1.9375 0 "/></g></g></g><g fill="#ffffff" fill-opacity="1"><g transform="translate(244.807759, 19.756981)"><g><path d="M 10.40625 0 L 8.984375 -4.09375 L 3.625 -4.09375 L 2.21875 0 L 0.15625 0 L 5.28125 -14.21875 L 7.375 -14.21875 L 12.484375 0 Z M 6.34375 -12.265625 L 6.296875 -12.265625 C 6.296875 -12.265625 6.265625 -12.144531 6.203125 -11.90625 C 6.148438 -11.675781 6.078125 -11.398438 5.984375 -11.078125 C 5.898438 -10.765625 5.816406 -10.488281 5.734375 -10.25 L 4.15625 -5.734375 L 8.453125 -5.734375 L 6.890625 -10.25 C 6.804688 -10.488281 6.722656 -10.765625 6.640625 -11.078125 C 6.566406 -11.398438 6.5 -11.675781 6.4375 -11.90625 C 6.375 -12.144531 6.34375 -12.265625 6.34375 -12.265625 Z M 6.34375 -12.265625 "/></g></g></g><g fill="#ffffff" fill-opacity="1"><g transform="translate(260.490093, 19.765466)"><g><path d="M 1.9375 0 L 1.9375 -14.21875 L 3.90625 -14.21875 L 10.234375 -4.96875 C 10.410156 -4.71875 10.585938 -4.429688 10.765625 -4.109375 C 10.941406 -3.785156 11.09375 -3.503906 11.21875 -3.265625 C 11.351562 -3.035156 11.421875 -2.921875 11.421875 -2.921875 L 11.453125 -2.921875 C 11.453125 -2.921875 11.441406 -3.035156 11.421875 -3.265625 C 11.410156 -3.503906 11.390625 -3.785156 11.359375 -4.109375 C 11.328125 -4.429688 11.3125 -4.71875 11.3125 -4.96875 L 11.3125 -14.21875 L 13.3125 -14.21875 L 13.3125 0 L 11.359375 0 L 5.015625 -9.21875 C 4.835938 -9.488281 4.65625 -9.785156 4.46875 -10.109375 C 4.289062 -10.429688 4.140625 -10.707031 4.015625 -10.9375 C 3.890625 -11.175781 3.828125 -11.296875 3.828125 -11.296875 L 3.78125 -11.296875 C 3.78125 -11.296875 3.789062 -11.175781 3.8125 -10.9375 C 3.84375 -10.707031 3.867188 -10.429688 3.890625 -10.109375 C 3.910156 -9.785156 3.921875 -9.488281 3.921875 -9.21875 L 3.921875 0 Z M 1.9375 0 "/></g></g></g><g fill="#ffffff" fill-opacity="1"><g transform="translate(278.769053, 19.775355)"><g><path d="M 1.9375 0 L 1.9375 -14.21875 L 3.90625 -14.21875 L 10.234375 -4.96875 C 10.410156 -4.71875 10.585938 -4.429688 10.765625 -4.109375 C 10.941406 -3.785156 11.09375 -3.503906 11.21875 -3.265625 C 11.351562 -3.035156 11.421875 -2.921875 11.421875 -2.921875 L 11.453125 -2.921875 C 11.453125 -2.921875 11.441406 -3.035156 11.421875 -3.265625 C 11.410156 -3.503906 11.390625 -3.785156 11.359375 -4.109375 C 11.328125 -4.429688 11.3125 -4.71875 11.3125 -4.96875 L 11.3125 -14.21875 L 13.3125 -14.21875 L 13.3125 0 L 11.359375 0 L 5.015625 -9.21875 C 4.835938 -9.488281 4.65625 -9.785156 4.46875 -10.109375 C 4.289062 -10.429688 4.140625 -10.707031 4.015625 -10.9375 C 3.890625 -11.175781 3.828125 -11.296875 3.828125 -11.296875 L 3.78125 -11.296875 C 3.78125 -11.296875 3.789062 -11.175781 3.8125 -10.9375 C 3.84375 -10.707031 3.867188 -10.429688 3.890625 -10.109375 C 3.910156 -9.785156 3.921875 -9.488281 3.921875 -9.21875 L 3.921875 0 Z M 1.9375 0 "/></g></g></g><g fill="#ffffff" fill-opacity="1"><g transform="translate(297.048013, 19.785245)"><g><path d="M 1.9375 0 L 1.9375 -14.21875 L 10.1875 -14.21875 L 10.1875 -12.484375 L 3.921875 -12.484375 L 3.921875 -8.03125 L 9.015625 -8.03125 L 9.015625 -6.296875 L 3.921875 -6.296875 L 3.921875 -1.734375 L 10.53125 -1.734375 L 10.53125 0 Z M 1.9375 0 "/></g></g></g><g fill="#ffffff" fill-opacity="1"><g transform="translate(311.623239, 19.793131)"><g><path d="M 1.9375 0 L 1.9375 -14.21875 L 6.28125 -14.21875 C 7.03125 -14.21875 7.59375 -14.191406 7.96875 -14.140625 C 8.351562 -14.085938 8.675781 -14.003906 8.9375 -13.890625 C 9.664062 -13.628906 10.25 -13.15625 10.6875 -12.46875 C 11.125 -11.789062 11.34375 -10.984375 11.34375 -10.046875 C 11.34375 -9.148438 11.109375 -8.347656 10.640625 -7.640625 C 10.179688 -6.941406 9.5625 -6.460938 8.78125 -6.203125 L 8.78125 -6.15625 C 8.78125 -6.15625 8.816406 -6.101562 8.890625 -6 C 8.960938 -5.90625 9.066406 -5.742188 9.203125 -5.515625 L 12.21875 0 L 9.96875 0 L 6.96875 -5.65625 L 3.921875 -5.65625 L 3.921875 0 Z M 3.921875 -7.390625 L 6.78125 -7.390625 C 7.5625 -7.390625 8.175781 -7.617188 8.625 -8.078125 C 9.082031 -8.546875 9.3125 -9.175781 9.3125 -9.96875 C 9.3125 -11.019531 8.929688 -11.753906 8.171875 -12.171875 C 7.984375 -12.273438 7.75 -12.351562 7.46875 -12.40625 C 7.1875 -12.457031 6.769531 -12.484375 6.21875 -12.484375 L 3.921875 -12.484375 Z M 3.921875 -7.390625 "/></g></g></g></g></g></svg>