<svg xmlns="http://www.w3.org/2000/svg" xmlns:xlink="http://www.w3.org/1999/xlink" width="500" zoomAndPan="magnify" viewBox="0 0 375 194.87999" height="250" preserveAspectRatio="xMidYMid meet" version="1.0"><defs><g/><clipPath id="e9912dd87c"><path d="M 74 56.25 L 125.90625 56.25 L 125.90625 113.558594 L 74 113.558594 Z M 74 56.25 " clip-rule="nonzero"/></clipPath><clipPath id="2a70559192"><path d="M 109.683594 78.324219 L 91.300781 78.324219 C 89.746094 78.324219 88.644531 76.765625 89.195312 75.3125 C 91.164062 70.085938 95.507812 67.015625 101.394531 67.015625 C 106.625 67.015625 110.785156 70.03125 111.890625 75.726562 C 112.152344 77.082031 111.066406 78.324219 109.683594 78.324219 M 101.710938 56.554688 C 85.496094 56.554688 74.074219 68.292969 74.074219 85.046875 C 74.074219 100.519531 85.277344 113.539062 103.308594 113.539062 C 113.007812 113.539062 120.03125 109.550781 123.242188 107.277344 C 124.394531 106.464844 124.734375 104.90625 124.070312 103.667969 L 121.472656 98.847656 C 120.695312 97.40625 118.867188 96.933594 117.484375 97.808594 C 114.714844 99.574219 109.859375 102.011719 104.273438 102.011719 C 97.257812 102.011719 90.796875 98.339844 88.636719 91.195312 C 88.09375 89.402344 89.476562 87.601562 91.335938 87.601562 L 122.90625 87.601562 C 124.386719 87.601562 125.609375 86.457031 125.714844 84.976562 C 125.777344 84.035156 125.828125 83.035156 125.828125 82.371094 C 125.828125 67.96875 117.398438 56.554688 101.710938 56.554688 " clip-rule="nonzero"/></clipPath><clipPath id="2329dc873f"><path d="M 0 0.367188 L 51.90625 0.367188 L 51.90625 57.558594 L 0 57.558594 Z M 0 0.367188 " clip-rule="nonzero"/></clipPath><clipPath id="76239f2afe"><path d="M 35.683594 22.324219 L 17.300781 22.324219 C 15.746094 22.324219 14.644531 20.765625 15.195312 19.3125 C 17.164062 14.085938 21.507812 11.015625 27.394531 11.015625 C 32.625 11.015625 36.785156 14.03125 37.890625 19.726562 C 38.152344 21.082031 37.066406 22.324219 35.683594 22.324219 M 27.710938 0.554688 C 11.496094 0.554688 0.0742188 12.292969 0.0742188 29.046875 C 0.0742188 44.519531 11.277344 57.539062 29.308594 57.539062 C 39.007812 57.539062 46.03125 53.550781 49.242188 51.277344 C 50.394531 50.464844 50.734375 48.90625 50.070312 47.667969 L 47.472656 42.847656 C 46.695312 41.40625 44.867188 40.933594 43.484375 41.808594 C 40.714844 43.574219 35.859375 46.011719 30.273438 46.011719 C 23.257812 46.011719 16.796875 42.339844 14.636719 35.195312 C 14.09375 33.402344 15.476562 31.601562 17.335938 31.601562 L 48.90625 31.601562 C 50.386719 31.601562 51.609375 30.457031 51.714844 28.976562 C 51.777344 28.035156 51.828125 27.035156 51.828125 26.371094 C 51.828125 11.96875 43.398438 0.554688 27.710938 0.554688 " clip-rule="nonzero"/></clipPath><clipPath id="dcb1a388fe"><rect x="0" width="52" y="0" height="58"/></clipPath><clipPath id="c9037f829a"><path d="M 182.207031 56.25 L 234.488281 56.25 L 234.488281 113.558594 L 182.207031 113.558594 Z M 182.207031 56.25 " clip-rule="nonzero"/></clipPath><clipPath id="66fddafee3"><path d="M 218.066406 78.324219 L 199.683594 78.324219 C 198.125 78.324219 197.023438 76.765625 197.574219 75.3125 C 199.542969 70.085938 203.886719 67.015625 209.773438 67.015625 C 215.003906 67.015625 219.167969 70.03125 220.269531 75.726562 C 220.53125 77.082031 219.445312 78.324219 218.066406 78.324219 M 210.089844 56.554688 C 193.875 56.554688 182.453125 68.292969 182.453125 85.046875 C 182.453125 100.519531 193.65625 113.539062 211.6875 113.539062 C 221.386719 113.539062 228.410156 109.550781 231.621094 107.277344 C 232.773438 106.464844 233.113281 104.90625 232.449219 103.667969 L 229.851562 98.847656 C 229.074219 97.40625 227.246094 96.933594 225.867188 97.808594 C 223.09375 99.574219 218.238281 102.011719 212.652344 102.011719 C 205.636719 102.011719 199.175781 98.339844 197.015625 91.195312 C 196.472656 89.402344 197.855469 87.601562 199.71875 87.601562 L 231.289062 87.601562 C 232.765625 87.601562 233.988281 86.457031 234.09375 84.976562 C 234.15625 84.035156 234.207031 83.035156 234.207031 82.371094 C 234.207031 67.96875 225.777344 56.554688 210.089844 56.554688 " clip-rule="nonzero"/></clipPath><clipPath id="4eb50c8900"><path d="M 0.402344 0.367188 L 52.210938 0.367188 L 52.210938 57.558594 L 0.402344 57.558594 Z M 0.402344 0.367188 " clip-rule="nonzero"/></clipPath><clipPath id="724a3730cc"><path d="M 36.066406 22.324219 L 17.683594 22.324219 C 16.125 22.324219 15.023438 20.765625 15.574219 19.3125 C 17.542969 14.085938 21.886719 11.015625 27.773438 11.015625 C 33.003906 11.015625 37.167969 14.03125 38.269531 19.726562 C 38.53125 21.082031 37.445312 22.324219 36.066406 22.324219 M 28.089844 0.554688 C 11.875 0.554688 0.453125 12.292969 0.453125 29.046875 C 0.453125 44.519531 11.65625 57.539062 29.6875 57.539062 C 39.386719 57.539062 46.410156 53.550781 49.621094 51.277344 C 50.773438 50.464844 51.113281 48.90625 50.449219 47.667969 L 47.851562 42.847656 C 47.074219 41.40625 45.246094 40.933594 43.867188 41.808594 C 41.09375 43.574219 36.238281 46.011719 30.652344 46.011719 C 23.636719 46.011719 17.175781 42.339844 15.015625 35.195312 C 14.472656 33.402344 15.855469 31.601562 17.71875 31.601562 L 49.289062 31.601562 C 50.765625 31.601562 51.988281 30.457031 52.09375 28.976562 C 52.15625 28.035156 52.207031 27.035156 52.207031 26.371094 C 52.207031 11.96875 43.777344 0.554688 28.089844 0.554688 " clip-rule="nonzero"/></clipPath><clipPath id="6398ac9364"><rect x="0" width="53" y="0" height="58"/></clipPath><clipPath id="854da33a81"><path d="M 128 57.589844 L 181 57.589844 L 181 112.554688 L 128 112.554688 Z M 128 57.589844 " clip-rule="nonzero"/></clipPath><clipPath id="1c5993a1f1"><path d="M 131.222656 57.832031 L 139.078125 57.832031 C 140.371094 57.832031 141.519531 58.65625 141.929688 59.878906 L 152.554688 91.554688 C 153.621094 94.753906 154.363281 99.773438 154.476562 99.773438 L 154.6875 99.773438 C 154.792969 99.773438 155.546875 94.753906 156.613281 91.554688 L 167.238281 59.878906 C 167.648438 58.65625 168.792969 57.832031 170.089844 57.832031 L 177.960938 57.832031 C 180.039062 57.832031 181.484375 59.894531 180.785156 61.847656 L 163.40625 110.269531 C 162.976562 111.457031 161.851562 112.253906 160.582031 112.253906 L 148.785156 112.253906 C 147.527344 112.253906 146.390625 111.46875 145.960938 110.277344 L 128.398438 61.863281 C 127.691406 59.90625 129.144531 57.839844 131.222656 57.839844 " clip-rule="nonzero"/></clipPath><clipPath id="86b02eee04"><path d="M 0 0.804688 L 53 0.804688 L 53 55.492188 L 0 55.492188 Z M 0 0.804688 " clip-rule="nonzero"/></clipPath><clipPath id="78258cf02e"><path d="M 3.222656 0.832031 L 11.078125 0.832031 C 12.371094 0.832031 13.519531 1.65625 13.929688 2.878906 L 24.554688 34.554688 C 25.621094 37.753906 26.363281 42.773438 26.476562 42.773438 L 26.6875 42.773438 C 26.792969 42.773438 27.546875 37.753906 28.613281 34.554688 L 39.238281 2.878906 C 39.648438 1.65625 40.792969 0.832031 42.089844 0.832031 L 49.960938 0.832031 C 52.039062 0.832031 53.484375 2.894531 52.785156 4.847656 L 35.40625 53.269531 C 34.976562 54.457031 33.851562 55.253906 32.582031 55.253906 L 20.785156 55.253906 C 19.527344 55.253906 18.390625 54.46875 17.960938 53.277344 L 0.398438 4.863281 C -0.308594 2.90625 1.144531 0.839844 3.222656 0.839844 " clip-rule="nonzero"/></clipPath><clipPath id="81dcab918b"><rect x="0" width="53" y="0" height="56"/></clipPath><clipPath id="8c974f5f3a"><path d="M 241.863281 36.476562 L 291 36.476562 L 291 112.554688 L 241.863281 112.554688 Z M 241.863281 36.476562 " clip-rule="nonzero"/></clipPath><clipPath id="e872aa69af"><path d="M 243.898438 36.496094 L 253.492188 36.496094 C 254.585938 36.496094 255.46875 37.378906 255.46875 38.46875 L 255.46875 75.0625 C 255.46875 76.152344 256.351562 77.039062 257.445312 77.039062 L 261.144531 77.039062 C 261.800781 77.039062 262.410156 76.714844 262.777344 76.171875 L 274.726562 58.691406 C 275.09375 58.148438 275.703125 57.824219 276.359375 57.824219 L 286.539062 57.824219 C 288.148438 57.824219 289.085938 59.632812 288.15625 60.945312 L 273.1875 82.171875 L 273.1875 82.378906 L 290.527344 109.203125 C 291.375 110.523438 290.429688 112.253906 288.867188 112.253906 L 278.03125 112.253906 C 277.339844 112.253906 276.691406 111.894531 276.335938 111.300781 L 263.09375 89.421875 C 262.734375 88.824219 262.097656 88.46875 261.398438 88.46875 L 257.453125 88.46875 C 256.359375 88.46875 255.476562 89.351562 255.476562 90.445312 L 255.476562 110.277344 C 255.476562 111.371094 254.59375 112.253906 253.5 112.253906 L 243.898438 112.253906 C 242.804688 112.253906 241.921875 111.371094 241.921875 110.277344 L 241.921875 38.46875 C 241.921875 37.378906 242.804688 36.496094 243.898438 36.496094 " clip-rule="nonzero"/></clipPath><clipPath id="dedc3009df"><path d="M 0.886719 0.476562 L 50 0.476562 L 50 76.492188 L 0.886719 76.492188 Z M 0.886719 0.476562 " clip-rule="nonzero"/></clipPath><clipPath id="b436d25a65"><path d="M 2.898438 0.496094 L 12.492188 0.496094 C 13.585938 0.496094 14.46875 1.378906 14.46875 2.46875 L 14.46875 39.0625 C 14.46875 40.152344 15.351562 41.039062 16.445312 41.039062 L 20.144531 41.039062 C 20.800781 41.039062 21.410156 40.714844 21.777344 40.171875 L 33.726562 22.691406 C 34.09375 22.148438 34.703125 21.824219 35.359375 21.824219 L 45.539062 21.824219 C 47.148438 21.824219 48.085938 23.632812 47.15625 24.945312 L 32.1875 46.171875 L 32.1875 46.378906 L 49.527344 73.203125 C 50.375 74.523438 49.429688 76.253906 47.867188 76.253906 L 37.03125 76.253906 C 36.339844 76.253906 35.691406 75.894531 35.335938 75.300781 L 22.09375 53.421875 C 21.734375 52.824219 21.097656 52.46875 20.398438 52.46875 L 16.453125 52.46875 C 15.359375 52.46875 14.476562 53.351562 14.476562 54.445312 L 14.476562 74.277344 C 14.476562 75.371094 13.59375 76.253906 12.5 76.253906 L 2.898438 76.253906 C 1.804688 76.253906 0.921875 75.371094 0.921875 74.277344 L 0.921875 2.46875 C 0.921875 1.378906 1.804688 0.496094 2.898438 0.496094 " clip-rule="nonzero"/></clipPath><clipPath id="c5797fe24e"><rect x="0" width="50" y="0" height="77"/></clipPath><clipPath id="e7aa6c01a7"><path d="M 24.027344 36.476562 L 73 36.476562 L 73 112.554688 L 24.027344 112.554688 Z M 24.027344 36.476562 " clip-rule="nonzero"/></clipPath><clipPath id="e85a0c8564"><path d="M 26.019531 36.496094 C 24.945312 36.496094 24.0625 37.359375 24.042969 38.445312 L 24.042969 110.3125 C 24.0625 111.386719 24.945312 112.261719 26.019531 112.261719 L 35.613281 112.261719 C 36.707031 112.261719 37.589844 111.378906 37.589844 110.285156 L 37.589844 90.445312 C 37.589844 89.351562 38.472656 88.46875 39.566406 88.46875 L 43.511719 88.46875 C 44.199219 88.46875 44.847656 88.824219 45.207031 89.421875 L 58.464844 111.300781 C 58.824219 111.894531 59.46875 112.253906 60.160156 112.253906 L 70.988281 112.253906 C 72.554688 112.253906 73.507812 110.515625 72.648438 109.203125 L 55.308594 82.378906 L 55.308594 82.171875 L 70.289062 60.953125 C 71.214844 59.644531 70.277344 57.832031 68.671875 57.832031 L 58.492188 57.832031 C 57.835938 57.832031 57.222656 58.15625 56.855469 58.699219 L 44.910156 76.179688 C 44.542969 76.722656 43.929688 77.046875 43.273438 77.046875 L 39.574219 77.046875 C 38.480469 77.046875 37.597656 76.164062 37.597656 75.070312 L 37.597656 38.46875 C 37.597656 37.378906 36.707031 36.496094 35.613281 36.496094 Z M 26.019531 36.496094 " clip-rule="nonzero"/></clipPath><clipPath id="02e7a04a13"><path d="M 0.0273438 0.476562 L 49 0.476562 L 49 76.492188 L 0.0273438 76.492188 Z M 0.0273438 0.476562 " clip-rule="nonzero"/></clipPath><clipPath id="64e837bcfd"><path d="M 2.019531 0.496094 C 0.945312 0.496094 0.0625 1.359375 0.0429688 2.445312 L 0.0429688 74.3125 C 0.0625 75.386719 0.945312 76.261719 2.019531 76.261719 L 11.613281 76.261719 C 12.707031 76.261719 13.589844 75.378906 13.589844 74.285156 L 13.589844 54.445312 C 13.589844 53.351562 14.472656 52.46875 15.566406 52.46875 L 19.511719 52.46875 C 20.199219 52.46875 20.847656 52.824219 21.207031 53.421875 L 34.464844 75.300781 C 34.824219 75.894531 35.46875 76.253906 36.160156 76.253906 L 46.988281 76.253906 C 48.554688 76.253906 49.507812 74.515625 48.648438 73.203125 L 31.308594 46.378906 L 31.308594 46.171875 L 46.289062 24.953125 C 47.214844 23.644531 46.277344 21.832031 44.671875 21.832031 L 34.492188 21.832031 C 33.835938 21.832031 33.222656 22.15625 32.855469 22.699219 L 20.910156 40.179688 C 20.542969 40.722656 19.929688 41.046875 19.273438 41.046875 L 15.574219 41.046875 C 14.480469 41.046875 13.597656 40.164062 13.597656 39.070312 L 13.597656 2.46875 C 13.597656 1.378906 12.707031 0.496094 11.613281 0.496094 Z M 2.019531 0.496094 " clip-rule="nonzero"/></clipPath><clipPath id="eba365a56a"><rect x="0" width="49" y="0" height="77"/></clipPath><clipPath id="5864068781"><path d="M 291.125 56.25 L 351.113281 56.25 L 351.113281 113.558594 L 291.125 113.558594 Z M 291.125 56.25 " clip-rule="nonzero"/></clipPath><clipPath id="732d620118"><path d="M 332.453125 68.457031 C 333.039062 68.457031 333.648438 68.703125 334.28125 69.351562 C 336.046875 71.144531 336.230469 73.074219 334.777344 75.304688 C 329.269531 83.78125 323.847656 92.324219 318.433594 100.859375 C 317.671875 102.074219 316.992188 102.582031 316.316406 102.582031 C 315.53125 102.582031 314.761719 101.882812 313.878906 100.761719 C 302.734375 86.605469 302.734375 86.492188 317.628906 77.1875 C 317.945312 76.984375 318.25 76.800781 318.566406 76.589844 L 318.589844 76.636719 C 322.183594 74.386719 325.746094 72.105469 329.347656 69.875 C 330.335938 69.261719 331.359375 68.457031 332.433594 68.457031 Z M 321.066406 56.554688 C 304.539062 56.554688 291.199219 68.386719 291.191406 85.039062 C 291.183594 101.792969 304.511719 113.539062 321.160156 113.546875 C 321.171875 113.546875 321.171875 113.546875 321.179688 113.546875 C 335.695312 113.546875 347.757812 104.496094 350.476562 90.941406 C 350.84375 89.121094 351.019531 87.320312 351.035156 85.554688 L 351.035156 85.195312 C 350.941406 69.882812 338.136719 57.035156 322.046875 56.582031 C 321.714844 56.574219 321.390625 56.566406 321.058594 56.566406 Z M 321.066406 56.554688 " clip-rule="nonzero"/></clipPath><clipPath id="b05b9f6e1e"><path d="M 0.125 0.367188 L 60.113281 0.367188 L 60.113281 57.558594 L 0.125 57.558594 Z M 0.125 0.367188 " clip-rule="nonzero"/></clipPath><clipPath id="1b79868efe"><path d="M 41.453125 12.457031 C 42.039062 12.457031 42.648438 12.703125 43.28125 13.351562 C 45.046875 15.144531 45.230469 17.074219 43.777344 19.304688 C 38.269531 27.78125 32.847656 36.324219 27.433594 44.859375 C 26.671875 46.074219 25.992188 46.582031 25.316406 46.582031 C 24.53125 46.582031 23.761719 45.882812 22.878906 44.761719 C 11.734375 30.605469 11.734375 30.492188 26.628906 21.1875 C 26.945312 20.984375 27.25 20.800781 27.566406 20.589844 L 27.589844 20.636719 C 31.183594 18.386719 34.746094 16.105469 38.347656 13.875 C 39.335938 13.261719 40.359375 12.457031 41.433594 12.457031 Z M 30.066406 0.554688 C 13.539062 0.554688 0.199219 12.386719 0.191406 29.039062 C 0.183594 45.792969 13.511719 57.539062 30.160156 57.546875 C 30.171875 57.546875 30.171875 57.546875 30.179688 57.546875 C 44.695312 57.546875 56.757812 48.496094 59.476562 34.941406 C 59.84375 33.121094 60.019531 31.320312 60.035156 29.554688 L 60.035156 29.195312 C 59.941406 13.882812 47.136719 1.035156 31.046875 0.582031 C 30.714844 0.574219 30.390625 0.566406 30.058594 0.566406 Z M 30.066406 0.554688 " clip-rule="nonzero"/></clipPath><clipPath id="c360cd4521"><rect x="0" width="61" y="0" height="58"/></clipPath><clipPath id="7d00ac7105"><path d="M 0.339844 5 L 13 5 L 13 20 L 0.339844 20 Z M 0.339844 5 " clip-rule="nonzero"/></clipPath><clipPath id="66c732bd37"><rect x="0" width="328" y="0" height="26"/></clipPath></defs><g clip-path="url(#e9912dd87c)"><g clip-path="url(#2a70559192)"><g transform="matrix(1, 0, 0, 1, 74, 56)"><g clip-path="url(#dcb1a388fe)"><g clip-path="url(#2329dc873f)"><g clip-path="url(#76239f2afe)"><rect x="-156.5" width="540" fill="#112148" height="280.627186" y="-98.873598" fill-opacity="1"/></g></g></g></g></g></g><g clip-path="url(#c9037f829a)"><g clip-path="url(#66fddafee3)"><g transform="matrix(1, 0, 0, 1, 182, 56)"><g clip-path="url(#6398ac9364)"><g clip-path="url(#4eb50c8900)"><g clip-path="url(#724a3730cc)"><rect x="-264.5" width="540" fill="#112148" height="280.627186" y="-98.873598" fill-opacity="1"/></g></g></g></g></g></g><g clip-path="url(#854da33a81)"><g clip-path="url(#1c5993a1f1)"><g transform="matrix(1, 0, 0, 1, 128, 57)"><g clip-path="url(#81dcab918b)"><g clip-path="url(#86b02eee04)"><g clip-path="url(#78258cf02e)"><rect x="-210.5" width="540" fill="#112148" height="280.627186" y="-99.873598" fill-opacity="1"/></g></g></g></g></g></g><g clip-path="url(#8c974f5f3a)"><g clip-path="url(#e872aa69af)"><g transform="matrix(1, 0, 0, 1, 241, 36)"><g clip-path="url(#c5797fe24e)"><g clip-path="url(#dedc3009df)"><g clip-path="url(#b436d25a65)"><rect x="-323.5" width="540" fill="#112148" height="280.627186" y="-78.873598" fill-opacity="1"/></g></g></g></g></g></g><g clip-path="url(#e7aa6c01a7)"><g clip-path="url(#e85a0c8564)"><g transform="matrix(1, 0, 0, 1, 24, 36)"><g clip-path="url(#eba365a56a)"><g clip-path="url(#02e7a04a13)"><g clip-path="url(#64e837bcfd)"><rect x="-106.5" width="540" fill="#112148" height="280.627186" y="-78.873598" fill-opacity="1"/></g></g></g></g></g></g><g clip-path="url(#5864068781)"><g clip-path="url(#732d620118)"><g transform="matrix(1, 0, 0, 1, 291, 56)"><g clip-path="url(#c360cd4521)"><g clip-path="url(#b05b9f6e1e)"><g clip-path="url(#1b79868efe)"><rect x="-373.5" width="540" fill="#439bbb" height="280.627186" y="-98.873598" fill-opacity="1"/></g></g></g></g></g></g><g transform="matrix(1, 0, 0, 1, 24, 130)"><g clip-path="url(#66c732bd37)"><g clip-path="url(#7d00ac7105)"><g fill="#112148" fill-opacity="1"><g transform="translate(0.834794, 19.636715)"><g><path d="M 4.9375 0 L 4.9375 -6.015625 L 0.15625 -14.21875 L 2.421875 -14.21875 L 5.0625 -9.546875 C 5.207031 -9.285156 5.34375 -9.015625 5.46875 -8.734375 C 5.601562 -8.453125 5.710938 -8.21875 5.796875 -8.03125 C 5.878906 -7.84375 5.921875 -7.75 5.921875 -7.75 L 5.96875 -7.75 C 5.96875 -7.75 6.003906 -7.84375 6.078125 -8.03125 C 6.160156 -8.21875 6.269531 -8.445312 6.40625 -8.71875 C 6.539062 -9 6.679688 -9.273438 6.828125 -9.546875 L 9.421875 -14.21875 L 11.6875 -14.21875 L 6.921875 -6.015625 L 6.921875 0 Z M 4.9375 0 "/></g></g></g></g><g fill="#112148" fill-opacity="1"><g transform="translate(15.715041, 19.644766)"><g><path d="M 0.96875 -7.203125 C 0.96875 -8.222656 1.148438 -9.171875 1.515625 -10.046875 C 1.890625 -10.929688 2.410156 -11.703125 3.078125 -12.359375 C 3.753906 -13.023438 4.535156 -13.539062 5.421875 -13.90625 C 6.304688 -14.28125 7.257812 -14.46875 8.28125 -14.46875 C 9.3125 -14.46875 10.265625 -14.28125 11.140625 -13.90625 C 12.023438 -13.539062 12.800781 -13.023438 13.46875 -12.359375 C 14.132812 -11.703125 14.648438 -10.929688 15.015625 -10.046875 C 15.378906 -9.160156 15.5625 -8.207031 15.5625 -7.1875 C 15.5625 -6.144531 15.378906 -5.171875 15.015625 -4.265625 C 14.648438 -3.367188 14.132812 -2.582031 13.46875 -1.90625 C 12.800781 -1.238281 12.023438 -0.710938 11.140625 -0.328125 C 10.265625 0.046875 9.3125 0.234375 8.28125 0.234375 C 7.257812 0.234375 6.304688 0.046875 5.421875 -0.328125 C 4.535156 -0.710938 3.753906 -1.238281 3.078125 -1.90625 C 2.410156 -2.582031 1.890625 -3.375 1.515625 -4.28125 C 1.148438 -5.1875 0.96875 -6.160156 0.96875 -7.203125 Z M 3.015625 -7.203125 C 3.015625 -6.148438 3.25 -5.195312 3.71875 -4.34375 C 4.195312 -3.488281 4.832031 -2.816406 5.625 -2.328125 C 6.425781 -1.835938 7.3125 -1.59375 8.28125 -1.59375 C 9.25 -1.59375 10.128906 -1.835938 10.921875 -2.328125 C 11.710938 -2.816406 12.34375 -3.488281 12.8125 -4.34375 C 13.28125 -5.195312 13.515625 -6.148438 13.515625 -7.203125 C 13.515625 -8.242188 13.28125 -9.171875 12.8125 -9.984375 C 12.34375 -10.804688 11.710938 -11.453125 10.921875 -11.921875 C 10.128906 -12.398438 9.25 -12.640625 8.28125 -12.640625 C 7.3125 -12.640625 6.425781 -12.398438 5.625 -11.921875 C 4.832031 -11.453125 4.195312 -10.804688 3.71875 -9.984375 C 3.25 -9.171875 3.015625 -8.242188 3.015625 -7.203125 Z M 3.015625 -7.203125 "/></g></g></g><g fill="#112148" fill-opacity="1"><g transform="translate(35.286339, 19.655356)"><g><path d="M 1.734375 -5.03125 L 1.734375 -14.21875 L 3.71875 -14.21875 L 3.71875 -5.03125 C 3.71875 -3.945312 4.039062 -3.101562 4.6875 -2.5 C 5.34375 -1.894531 6.21875 -1.59375 7.3125 -1.59375 C 8.414062 -1.59375 9.296875 -1.894531 9.953125 -2.5 C 10.609375 -3.113281 10.9375 -3.972656 10.9375 -5.078125 L 10.9375 -14.21875 L 12.9375 -14.21875 L 12.9375 -5.03125 C 12.9375 -3.988281 12.695312 -3.070312 12.21875 -2.28125 C 11.75 -1.488281 11.09375 -0.867188 10.25 -0.421875 C 9.414062 0.015625 8.441406 0.234375 7.328125 0.234375 C 6.222656 0.234375 5.25 0.015625 4.40625 -0.421875 C 3.5625 -0.867188 2.90625 -1.488281 2.4375 -2.28125 C 1.96875 -3.070312 1.734375 -3.988281 1.734375 -5.03125 Z M 1.734375 -5.03125 "/></g></g></g><g fill="#112148" fill-opacity="1"><g transform="translate(52.985248, 19.664932)"><g><path d="M 1.9375 0 L 1.9375 -14.21875 L 6.28125 -14.21875 C 7.03125 -14.21875 7.59375 -14.191406 7.96875 -14.140625 C 8.351562 -14.085938 8.675781 -14.003906 8.9375 -13.890625 C 9.664062 -13.628906 10.25 -13.15625 10.6875 -12.46875 C 11.125 -11.789062 11.34375 -10.984375 11.34375 -10.046875 C 11.34375 -9.148438 11.109375 -8.347656 10.640625 -7.640625 C 10.179688 -6.941406 9.5625 -6.460938 8.78125 -6.203125 L 8.78125 -6.15625 C 8.78125 -6.15625 8.816406 -6.101562 8.890625 -6 C 8.960938 -5.90625 9.066406 -5.742188 9.203125 -5.515625 L 12.21875 0 L 9.96875 0 L 6.96875 -5.65625 L 3.921875 -5.65625 L 3.921875 0 Z M 3.921875 -7.390625 L 6.78125 -7.390625 C 7.5625 -7.390625 8.175781 -7.617188 8.625 -8.078125 C 9.082031 -8.546875 9.3125 -9.175781 9.3125 -9.96875 C 9.3125 -11.019531 8.929688 -11.753906 8.171875 -12.171875 C 7.984375 -12.273438 7.75 -12.351562 7.46875 -12.40625 C 7.1875 -12.457031 6.769531 -12.484375 6.21875 -12.484375 L 3.921875 -12.484375 Z M 3.921875 -7.390625 "/></g></g></g><g fill="#112148" fill-opacity="1"><g transform="translate(68.932555, 19.67356)"><g/></g></g><g fill="#112148" fill-opacity="1"><g transform="translate(77.148679, 19.678005)"><g><path d="M 1.9375 0 L 1.9375 -14.21875 L 9.765625 -14.21875 L 9.765625 -12.484375 L 3.921875 -12.484375 L 3.921875 -7.8125 L 8.90625 -7.8125 L 8.90625 -6.078125 L 3.921875 -6.078125 L 3.921875 0 Z M 1.9375 0 "/></g></g></g><g fill="#112148" fill-opacity="1"><g transform="translate(90.679993, 19.685326)"><g><path d="M 1.9375 0 L 1.9375 -14.21875 L 3.921875 -14.21875 L 3.921875 0 Z M 1.9375 0 "/></g></g></g><g fill="#112148" fill-opacity="1"><g transform="translate(99.580648, 19.690142)"><g><path d="M 1.9375 0 L 1.9375 -14.21875 L 3.90625 -14.21875 L 10.234375 -4.96875 C 10.410156 -4.71875 10.585938 -4.429688 10.765625 -4.109375 C 10.941406 -3.785156 11.09375 -3.503906 11.21875 -3.265625 C 11.351562 -3.035156 11.421875 -2.921875 11.421875 -2.921875 L 11.453125 -2.921875 C 11.453125 -2.921875 11.441406 -3.035156 11.421875 -3.265625 C 11.410156 -3.503906 11.390625 -3.785156 11.359375 -4.109375 C 11.328125 -4.429688 11.3125 -4.71875 11.3125 -4.96875 L 11.3125 -14.21875 L 13.3125 -14.21875 L 13.3125 0 L 11.359375 0 L 5.015625 -9.21875 C 4.835938 -9.488281 4.65625 -9.785156 4.46875 -10.109375 C 4.289062 -10.429688 4.140625 -10.707031 4.015625 -10.9375 C 3.890625 -11.175781 3.828125 -11.296875 3.828125 -11.296875 L 3.78125 -11.296875 C 3.78125 -11.296875 3.789062 -11.175781 3.8125 -10.9375 C 3.84375 -10.707031 3.867188 -10.429688 3.890625 -10.109375 C 3.910156 -9.785156 3.921875 -9.488281 3.921875 -9.21875 L 3.921875 0 Z M 1.9375 0 "/></g></g></g><g fill="#112148" fill-opacity="1"><g transform="translate(117.863416, 19.700034)"><g><path d="M 10.40625 0 L 8.984375 -4.09375 L 3.625 -4.09375 L 2.21875 0 L 0.15625 0 L 5.28125 -14.21875 L 7.375 -14.21875 L 12.484375 0 Z M 6.34375 -12.265625 L 6.296875 -12.265625 C 6.296875 -12.265625 6.265625 -12.144531 6.203125 -11.90625 C 6.148438 -11.675781 6.078125 -11.398438 5.984375 -11.078125 C 5.898438 -10.765625 5.816406 -10.488281 5.734375 -10.25 L 4.15625 -5.734375 L 8.453125 -5.734375 L 6.890625 -10.25 C 6.804688 -10.488281 6.722656 -10.765625 6.640625 -11.078125 C 6.566406 -11.398438 6.5 -11.675781 6.4375 -11.90625 C 6.375 -12.144531 6.34375 -12.265625 6.34375 -12.265625 Z M 6.34375 -12.265625 "/></g></g></g><g fill="#112148" fill-opacity="1"><g transform="translate(133.548998, 19.708521)"><g><path d="M 1.9375 0 L 1.9375 -14.21875 L 3.90625 -14.21875 L 10.234375 -4.96875 C 10.410156 -4.71875 10.585938 -4.429688 10.765625 -4.109375 C 10.941406 -3.785156 11.09375 -3.503906 11.21875 -3.265625 C 11.351562 -3.035156 11.421875 -2.921875 11.421875 -2.921875 L 11.453125 -2.921875 C 11.453125 -2.921875 11.441406 -3.035156 11.421875 -3.265625 C 11.410156 -3.503906 11.390625 -3.785156 11.359375 -4.109375 C 11.328125 -4.429688 11.3125 -4.71875 11.3125 -4.96875 L 11.3125 -14.21875 L 13.3125 -14.21875 L 13.3125 0 L 11.359375 0 L 5.015625 -9.21875 C 4.835938 -9.488281 4.65625 -9.785156 4.46875 -10.109375 C 4.289062 -10.429688 4.140625 -10.707031 4.015625 -10.9375 C 3.890625 -11.175781 3.828125 -11.296875 3.828125 -11.296875 L 3.78125 -11.296875 C 3.78125 -11.296875 3.789062 -11.175781 3.8125 -10.9375 C 3.84375 -10.707031 3.867188 -10.429688 3.890625 -10.109375 C 3.910156 -9.785156 3.921875 -9.488281 3.921875 -9.21875 L 3.921875 0 Z M 1.9375 0 "/></g></g></g><g fill="#112148" fill-opacity="1"><g transform="translate(151.831759, 19.718413)"><g><path d="M 0.96875 -7.1875 C 0.96875 -8.21875 1.144531 -9.171875 1.5 -10.046875 C 1.863281 -10.929688 2.375 -11.703125 3.03125 -12.359375 C 3.6875 -13.023438 4.453125 -13.539062 5.328125 -13.90625 C 6.203125 -14.28125 7.160156 -14.46875 8.203125 -14.46875 C 9.054688 -14.46875 9.804688 -14.367188 10.453125 -14.171875 C 11.097656 -13.984375 11.640625 -13.765625 12.078125 -13.515625 C 12.515625 -13.273438 12.835938 -13.0625 13.046875 -12.875 C 13.265625 -12.6875 13.375 -12.59375 13.375 -12.59375 L 12.390625 -11.09375 C 12.390625 -11.09375 12.289062 -11.171875 12.09375 -11.328125 C 11.894531 -11.484375 11.613281 -11.664062 11.25 -11.875 C 10.894531 -12.082031 10.460938 -12.257812 9.953125 -12.40625 C 9.453125 -12.5625 8.894531 -12.640625 8.28125 -12.640625 C 7.21875 -12.640625 6.289062 -12.398438 5.5 -11.921875 C 4.71875 -11.441406 4.109375 -10.785156 3.671875 -9.953125 C 3.234375 -9.128906 3.015625 -8.210938 3.015625 -7.203125 C 3.015625 -6.203125 3.234375 -5.273438 3.671875 -4.421875 C 4.117188 -3.566406 4.738281 -2.878906 5.53125 -2.359375 C 6.332031 -1.847656 7.253906 -1.59375 8.296875 -1.59375 C 8.972656 -1.59375 9.578125 -1.6875 10.109375 -1.875 C 10.648438 -2.0625 11.109375 -2.273438 11.484375 -2.515625 C 11.867188 -2.753906 12.164062 -2.96875 12.375 -3.15625 C 12.582031 -3.34375 12.6875 -3.4375 12.6875 -3.4375 L 13.75 -2.015625 C 13.75 -2.015625 13.628906 -1.898438 13.390625 -1.671875 C 13.148438 -1.441406 12.796875 -1.175781 12.328125 -0.875 C 11.867188 -0.582031 11.289062 -0.320312 10.59375 -0.09375 C 9.90625 0.125 9.117188 0.234375 8.234375 0.234375 C 7.171875 0.234375 6.191406 0.046875 5.296875 -0.328125 C 4.410156 -0.703125 3.644531 -1.226562 3 -1.90625 C 2.351562 -2.582031 1.851562 -3.367188 1.5 -4.265625 C 1.144531 -5.171875 0.96875 -6.144531 0.96875 -7.1875 Z M 0.96875 -7.1875 "/></g></g></g><g fill="#112148" fill-opacity="1"><g transform="translate(169.409871, 19.727923)"><g><path d="M 1.9375 0 L 1.9375 -14.21875 L 3.921875 -14.21875 L 3.921875 0 Z M 1.9375 0 "/></g></g></g><g fill="#112148" fill-opacity="1"><g transform="translate(178.310526, 19.732739)"><g><path d="M 10.40625 0 L 8.984375 -4.09375 L 3.625 -4.09375 L 2.21875 0 L 0.15625 0 L 5.28125 -14.21875 L 7.375 -14.21875 L 12.484375 0 Z M 6.34375 -12.265625 L 6.296875 -12.265625 C 6.296875 -12.265625 6.265625 -12.144531 6.203125 -11.90625 C 6.148438 -11.675781 6.078125 -11.398438 5.984375 -11.078125 C 5.898438 -10.765625 5.816406 -10.488281 5.734375 -10.25 L 4.15625 -5.734375 L 8.453125 -5.734375 L 6.890625 -10.25 C 6.804688 -10.488281 6.722656 -10.765625 6.640625 -11.078125 C 6.566406 -11.398438 6.5 -11.675781 6.4375 -11.90625 C 6.375 -12.144531 6.34375 -12.265625 6.34375 -12.265625 Z M 6.34375 -12.265625 "/></g></g></g><g fill="#112148" fill-opacity="1"><g transform="translate(193.996094, 19.741226)"><g><path d="M 1.9375 0 L 1.9375 -14.21875 L 3.921875 -14.21875 L 3.921875 -1.734375 L 10.296875 -1.734375 L 10.296875 0 Z M 1.9375 0 "/></g></g></g><g fill="#112148" fill-opacity="1"><g transform="translate(207.688475, 19.748634)"><g/></g></g><g fill="#112148" fill-opacity="1"><g transform="translate(215.904598, 19.753079)"><g><path d="M 1.9375 0 L 1.9375 -14.21875 L 7.125 -14.21875 C 8 -14.21875 8.769531 -14.03125 9.4375 -13.65625 C 10.113281 -13.289062 10.640625 -12.773438 11.015625 -12.109375 C 11.398438 -11.453125 11.59375 -10.671875 11.59375 -9.765625 C 11.59375 -8.867188 11.398438 -8.082031 11.015625 -7.40625 C 10.640625 -6.726562 10.113281 -6.195312 9.4375 -5.8125 C 8.769531 -5.4375 8 -5.25 7.125 -5.25 L 3.921875 -5.25 L 3.921875 0 Z M 3.921875 -6.984375 L 6.8125 -6.984375 C 7.664062 -6.984375 8.335938 -7.234375 8.828125 -7.734375 C 9.316406 -8.234375 9.5625 -8.910156 9.5625 -9.765625 C 9.5625 -10.628906 9.316406 -11.296875 8.828125 -11.765625 C 8.335938 -12.242188 7.671875 -12.484375 6.828125 -12.484375 L 3.921875 -12.484375 Z M 3.921875 -6.984375 "/></g></g></g><g fill="#112148" fill-opacity="1"><g transform="translate(231.167374, 19.761337)"><g><path d="M 1.9375 0 L 1.9375 -14.21875 L 3.921875 -14.21875 L 3.921875 -1.734375 L 10.296875 -1.734375 L 10.296875 0 Z M 1.9375 0 "/></g></g></g><g fill="#112148" fill-opacity="1"><g transform="translate(244.85974, 19.768746)"><g><path d="M 10.40625 0 L 8.984375 -4.09375 L 3.625 -4.09375 L 2.21875 0 L 0.15625 0 L 5.28125 -14.21875 L 7.375 -14.21875 L 12.484375 0 Z M 6.34375 -12.265625 L 6.296875 -12.265625 C 6.296875 -12.265625 6.265625 -12.144531 6.203125 -11.90625 C 6.148438 -11.675781 6.078125 -11.398438 5.984375 -11.078125 C 5.898438 -10.765625 5.816406 -10.488281 5.734375 -10.25 L 4.15625 -5.734375 L 8.453125 -5.734375 L 6.890625 -10.25 C 6.804688 -10.488281 6.722656 -10.765625 6.640625 -11.078125 C 6.566406 -11.398438 6.5 -11.675781 6.4375 -11.90625 C 6.375 -12.144531 6.34375 -12.265625 6.34375 -12.265625 Z M 6.34375 -12.265625 "/></g></g></g><g fill="#112148" fill-opacity="1"><g transform="translate(260.545336, 19.777232)"><g><path d="M 1.9375 0 L 1.9375 -14.21875 L 3.90625 -14.21875 L 10.234375 -4.96875 C 10.410156 -4.71875 10.585938 -4.429688 10.765625 -4.109375 C 10.941406 -3.785156 11.09375 -3.503906 11.21875 -3.265625 C 11.351562 -3.035156 11.421875 -2.921875 11.421875 -2.921875 L 11.453125 -2.921875 C 11.453125 -2.921875 11.441406 -3.035156 11.421875 -3.265625 C 11.410156 -3.503906 11.390625 -3.785156 11.359375 -4.109375 C 11.328125 -4.429688 11.3125 -4.71875 11.3125 -4.96875 L 11.3125 -14.21875 L 13.3125 -14.21875 L 13.3125 0 L 11.359375 0 L 5.015625 -9.21875 C 4.835938 -9.488281 4.65625 -9.785156 4.46875 -10.109375 C 4.289062 -10.429688 4.140625 -10.707031 4.015625 -10.9375 C 3.890625 -11.175781 3.828125 -11.296875 3.828125 -11.296875 L 3.78125 -11.296875 C 3.78125 -11.296875 3.789062 -11.175781 3.8125 -10.9375 C 3.84375 -10.707031 3.867188 -10.429688 3.890625 -10.109375 C 3.910156 -9.785156 3.921875 -9.488281 3.921875 -9.21875 L 3.921875 0 Z M 1.9375 0 "/></g></g></g><g fill="#112148" fill-opacity="1"><g transform="translate(278.828097, 19.787124)"><g><path d="M 1.9375 0 L 1.9375 -14.21875 L 3.90625 -14.21875 L 10.234375 -4.96875 C 10.410156 -4.71875 10.585938 -4.429688 10.765625 -4.109375 C 10.941406 -3.785156 11.09375 -3.503906 11.21875 -3.265625 C 11.351562 -3.035156 11.421875 -2.921875 11.421875 -2.921875 L 11.453125 -2.921875 C 11.453125 -2.921875 11.441406 -3.035156 11.421875 -3.265625 C 11.410156 -3.503906 11.390625 -3.785156 11.359375 -4.109375 C 11.328125 -4.429688 11.3125 -4.71875 11.3125 -4.96875 L 11.3125 -14.21875 L 13.3125 -14.21875 L 13.3125 0 L 11.359375 0 L 5.015625 -9.21875 C 4.835938 -9.488281 4.65625 -9.785156 4.46875 -10.109375 C 4.289062 -10.429688 4.140625 -10.707031 4.015625 -10.9375 C 3.890625 -11.175781 3.828125 -11.296875 3.828125 -11.296875 L 3.78125 -11.296875 C 3.78125 -11.296875 3.789062 -11.175781 3.8125 -10.9375 C 3.84375 -10.707031 3.867188 -10.429688 3.890625 -10.109375 C 3.910156 -9.785156 3.921875 -9.488281 3.921875 -9.21875 L 3.921875 0 Z M 1.9375 0 "/></g></g></g><g fill="#112148" fill-opacity="1"><g transform="translate(297.110858, 19.797016)"><g><path d="M 1.9375 0 L 1.9375 -14.21875 L 10.1875 -14.21875 L 10.1875 -12.484375 L 3.921875 -12.484375 L 3.921875 -8.03125 L 9.015625 -8.03125 L 9.015625 -6.296875 L 3.921875 -6.296875 L 3.921875 -1.734375 L 10.53125 -1.734375 L 10.53125 0 Z M 1.9375 0 "/></g></g></g><g fill="#112148" fill-opacity="1"><g transform="translate(311.689116, 19.804904)"><g><path d="M 1.9375 0 L 1.9375 -14.21875 L 6.28125 -14.21875 C 7.03125 -14.21875 7.59375 -14.191406 7.96875 -14.140625 C 8.351562 -14.085938 8.675781 -14.003906 8.9375 -13.890625 C 9.664062 -13.628906 10.25 -13.15625 10.6875 -12.46875 C 11.125 -11.789062 11.34375 -10.984375 11.34375 -10.046875 C 11.34375 -9.148438 11.109375 -8.347656 10.640625 -7.640625 C 10.179688 -6.941406 9.5625 -6.460938 8.78125 -6.203125 L 8.78125 -6.15625 C 8.78125 -6.15625 8.816406 -6.101562 8.890625 -6 C 8.960938 -5.90625 9.066406 -5.742188 9.203125 -5.515625 L 12.21875 0 L 9.96875 0 L 6.96875 -5.65625 L 3.921875 -5.65625 L 3.921875 0 Z M 3.921875 -7.390625 L 6.78125 -7.390625 C 7.5625 -7.390625 8.175781 -7.617188 8.625 -8.078125 C 9.082031 -8.546875 9.3125 -9.175781 9.3125 -9.96875 C 9.3125 -11.019531 8.929688 -11.753906 8.171875 -12.171875 C 7.984375 -12.273438 7.75 -12.351562 7.46875 -12.40625 C 7.1875 -12.457031 6.769531 -12.484375 6.21875 -12.484375 L 3.921875 -12.484375 Z M 3.921875 -7.390625 "/></g></g></g></g></g></svg>