<svg xmlns="http://www.w3.org/2000/svg" xmlns:xlink="http://www.w3.org/1999/xlink" width="500" zoomAndPan="magnify" viewBox="0 0 375 194.87999" height="250" preserveAspectRatio="xMidYMid meet" version="1.0"><defs><g/><clipPath id="199cc45c71"><path d="M 74 56.25 L 125.910156 56.25 L 125.910156 113.558594 L 74 113.558594 Z M 74 56.25 " clip-rule="nonzero"/></clipPath><clipPath id="cfd9442577"><path d="M 109.6875 78.320312 L 91.304688 78.320312 C 89.746094 78.320312 88.644531 76.765625 89.195312 75.3125 C 91.164062 70.082031 95.511719 67.015625 101.398438 67.015625 C 106.625 67.015625 110.789062 70.03125 111.890625 75.722656 C 112.152344 77.078125 111.070312 78.320312 109.6875 78.320312 M 101.710938 56.554688 C 85.496094 56.554688 74.074219 68.289062 74.074219 85.046875 C 74.074219 100.519531 85.277344 113.539062 103.3125 113.539062 C 113.011719 113.539062 120.03125 109.550781 123.242188 107.277344 C 124.398438 106.464844 124.738281 104.90625 124.074219 103.667969 L 121.476562 98.847656 C 120.699219 97.40625 118.871094 96.933594 117.488281 97.808594 C 114.714844 99.574219 109.863281 102.011719 104.273438 102.011719 C 97.261719 102.011719 90.796875 98.339844 88.636719 91.195312 C 88.09375 89.402344 89.476562 87.601562 91.339844 87.601562 L 122.910156 87.601562 C 124.386719 87.601562 125.613281 86.457031 125.71875 84.976562 C 125.777344 84.03125 125.832031 83.035156 125.832031 82.371094 C 125.832031 67.96875 117.402344 56.554688 101.710938 56.554688 " clip-rule="nonzero"/></clipPath><clipPath id="cd42e19d09"><path d="M 0 0.367188 L 51.910156 0.367188 L 51.910156 57.558594 L 0 57.558594 Z M 0 0.367188 " clip-rule="nonzero"/></clipPath><clipPath id="d97e2eb29a"><path d="M 35.6875 22.320312 L 17.304688 22.320312 C 15.746094 22.320312 14.644531 20.765625 15.195312 19.3125 C 17.164062 14.082031 21.511719 11.015625 27.398438 11.015625 C 32.625 11.015625 36.789062 14.03125 37.890625 19.722656 C 38.152344 21.078125 37.070312 22.320312 35.6875 22.320312 M 27.710938 0.554688 C 11.496094 0.554688 0.0742188 12.289062 0.0742188 29.046875 C 0.0742188 44.519531 11.277344 57.539062 29.3125 57.539062 C 39.011719 57.539062 46.03125 53.550781 49.242188 51.277344 C 50.398438 50.464844 50.738281 48.90625 50.074219 47.667969 L 47.476562 42.847656 C 46.699219 41.40625 44.871094 40.933594 43.488281 41.808594 C 40.714844 43.574219 35.863281 46.011719 30.273438 46.011719 C 23.261719 46.011719 16.796875 42.339844 14.636719 35.195312 C 14.09375 33.402344 15.476562 31.601562 17.339844 31.601562 L 48.910156 31.601562 C 50.386719 31.601562 51.613281 30.457031 51.71875 28.976562 C 51.777344 28.03125 51.832031 27.035156 51.832031 26.371094 C 51.832031 11.96875 43.402344 0.554688 27.710938 0.554688 " clip-rule="nonzero"/></clipPath><clipPath id="d818667037"><rect x="0" width="52" y="0" height="58"/></clipPath><clipPath id="de9807b5c2"><path d="M 182.210938 56.25 L 234.492188 56.25 L 234.492188 113.558594 L 182.210938 113.558594 Z M 182.210938 56.25 " clip-rule="nonzero"/></clipPath><clipPath id="6b79fd59e1"><path d="M 218.070312 78.320312 L 199.6875 78.320312 C 198.128906 78.320312 197.027344 76.765625 197.578125 75.3125 C 199.546875 70.082031 203.894531 67.015625 209.777344 67.015625 C 215.007812 67.015625 219.171875 70.03125 220.273438 75.722656 C 220.535156 77.078125 219.449219 78.320312 218.070312 78.320312 M 210.09375 56.554688 C 193.878906 56.554688 182.457031 68.289062 182.457031 85.046875 C 182.457031 100.519531 193.660156 113.539062 211.695312 113.539062 C 221.390625 113.539062 228.414062 109.550781 231.625 107.277344 C 232.777344 106.464844 233.121094 104.90625 232.457031 103.667969 L 229.859375 98.847656 C 229.078125 97.40625 227.25 96.933594 225.871094 97.808594 C 223.097656 99.574219 218.246094 102.011719 212.65625 102.011719 C 205.640625 102.011719 199.179688 98.339844 197.019531 91.195312 C 196.476562 89.402344 197.859375 87.601562 199.722656 87.601562 L 231.292969 87.601562 C 232.769531 87.601562 233.996094 86.457031 234.097656 84.976562 C 234.160156 84.03125 234.214844 83.035156 234.214844 82.371094 C 234.214844 67.96875 225.78125 56.554688 210.09375 56.554688 " clip-rule="nonzero"/></clipPath><clipPath id="b327fddbff"><path d="M 0.402344 0.367188 L 52.449219 0.367188 L 52.449219 57.558594 L 0.402344 57.558594 Z M 0.402344 0.367188 " clip-rule="nonzero"/></clipPath><clipPath id="b429bbf9f6"><path d="M 36.070312 22.320312 L 17.6875 22.320312 C 16.128906 22.320312 15.027344 20.765625 15.578125 19.3125 C 17.546875 14.082031 21.894531 11.015625 27.777344 11.015625 C 33.007812 11.015625 37.171875 14.03125 38.273438 19.722656 C 38.535156 21.078125 37.449219 22.320312 36.070312 22.320312 M 28.09375 0.554688 C 11.878906 0.554688 0.457031 12.289062 0.457031 29.046875 C 0.457031 44.519531 11.660156 57.539062 29.695312 57.539062 C 39.390625 57.539062 46.414062 53.550781 49.625 51.277344 C 50.777344 50.464844 51.121094 48.90625 50.457031 47.667969 L 47.859375 42.847656 C 47.078125 41.40625 45.25 40.933594 43.871094 41.808594 C 41.097656 43.574219 36.246094 46.011719 30.65625 46.011719 C 23.640625 46.011719 17.179688 42.339844 15.019531 35.195312 C 14.476562 33.402344 15.859375 31.601562 17.722656 31.601562 L 49.292969 31.601562 C 50.769531 31.601562 51.996094 30.457031 52.097656 28.976562 C 52.160156 28.03125 52.214844 27.035156 52.214844 26.371094 C 52.214844 11.96875 43.78125 0.554688 28.09375 0.554688 " clip-rule="nonzero"/></clipPath><clipPath id="5be6beeb4a"><rect x="0" width="53" y="0" height="58"/></clipPath><clipPath id="bdaa9d95b5"><path d="M 128 57.589844 L 181 57.589844 L 181 112.554688 L 128 112.554688 Z M 128 57.589844 " clip-rule="nonzero"/></clipPath><clipPath id="3169381ac2"><path d="M 131.226562 57.832031 L 139.082031 57.832031 C 140.375 57.832031 141.519531 58.652344 141.929688 59.878906 L 152.558594 91.554688 C 153.625 94.753906 154.367188 99.773438 154.480469 99.773438 L 154.691406 99.773438 C 154.796875 99.773438 155.546875 94.753906 156.613281 91.554688 L 167.242188 59.878906 C 167.652344 58.652344 168.796875 57.832031 170.09375 57.832031 L 177.960938 57.832031 C 180.042969 57.832031 181.488281 59.894531 180.789062 61.84375 L 163.410156 110.269531 C 162.980469 111.457031 161.855469 112.253906 160.585938 112.253906 L 148.789062 112.253906 C 147.527344 112.253906 146.390625 111.46875 145.964844 110.277344 L 128.402344 61.863281 C 127.695312 59.902344 129.144531 57.839844 131.226562 57.839844 " clip-rule="nonzero"/></clipPath><clipPath id="00ba018f28"><path d="M 0 0.804688 L 53 0.804688 L 53 55.492188 L 0 55.492188 Z M 0 0.804688 " clip-rule="nonzero"/></clipPath><clipPath id="f1e3fe5647"><path d="M 3.226562 0.832031 L 11.082031 0.832031 C 12.375 0.832031 13.519531 1.652344 13.929688 2.878906 L 24.558594 34.554688 C 25.625 37.753906 26.367188 42.773438 26.480469 42.773438 L 26.691406 42.773438 C 26.796875 42.773438 27.546875 37.753906 28.613281 34.554688 L 39.242188 2.878906 C 39.652344 1.652344 40.796875 0.832031 42.09375 0.832031 L 49.960938 0.832031 C 52.042969 0.832031 53.488281 2.894531 52.789062 4.84375 L 35.410156 53.269531 C 34.980469 54.457031 33.855469 55.253906 32.585938 55.253906 L 20.789062 55.253906 C 19.527344 55.253906 18.390625 54.46875 17.964844 53.277344 L 0.402344 4.863281 C -0.304688 2.902344 1.144531 0.839844 3.226562 0.839844 " clip-rule="nonzero"/></clipPath><clipPath id="64b1014dba"><rect x="0" width="53" y="0" height="56"/></clipPath><clipPath id="fd37be2d30"><path d="M 241.867188 36.476562 L 291 36.476562 L 291 112.554688 L 241.867188 112.554688 Z M 241.867188 36.476562 " clip-rule="nonzero"/></clipPath><clipPath id="a77bbc4788"><path d="M 243.902344 36.492188 L 253.496094 36.492188 C 254.589844 36.492188 255.472656 37.375 255.472656 38.46875 L 255.472656 75.058594 C 255.472656 76.152344 256.355469 77.035156 257.449219 77.035156 L 261.148438 77.035156 C 261.804688 77.035156 262.417969 76.710938 262.785156 76.171875 L 274.730469 58.6875 C 275.097656 58.144531 275.710938 57.824219 276.367188 57.824219 L 286.546875 57.824219 C 288.15625 57.824219 289.089844 59.632812 288.164062 60.945312 L 273.191406 82.167969 L 273.191406 82.378906 L 290.535156 109.203125 C 291.382812 110.523438 290.4375 112.253906 288.871094 112.253906 L 278.035156 112.253906 C 277.347656 112.253906 276.699219 111.894531 276.339844 111.300781 L 263.097656 89.417969 C 262.742188 88.824219 262.101562 88.464844 261.402344 88.464844 L 257.457031 88.464844 C 256.367188 88.464844 255.480469 89.351562 255.480469 90.441406 L 255.480469 110.277344 C 255.480469 111.371094 254.597656 112.253906 253.503906 112.253906 L 243.902344 112.253906 C 242.808594 112.253906 241.925781 111.371094 241.925781 110.277344 L 241.925781 38.46875 C 241.925781 37.375 242.808594 36.492188 243.902344 36.492188 " clip-rule="nonzero"/></clipPath><clipPath id="88520d5ee1"><path d="M 0.886719 0.476562 L 50 0.476562 L 50 76.492188 L 0.886719 76.492188 Z M 0.886719 0.476562 " clip-rule="nonzero"/></clipPath><clipPath id="2bae48268b"><path d="M 2.902344 0.492188 L 12.496094 0.492188 C 13.589844 0.492188 14.472656 1.375 14.472656 2.46875 L 14.472656 39.058594 C 14.472656 40.152344 15.355469 41.035156 16.449219 41.035156 L 20.148438 41.035156 C 20.804688 41.035156 21.417969 40.710938 21.785156 40.171875 L 33.730469 22.6875 C 34.097656 22.144531 34.710938 21.824219 35.367188 21.824219 L 45.546875 21.824219 C 47.15625 21.824219 48.089844 23.632812 47.164062 24.945312 L 32.191406 46.167969 L 32.191406 46.378906 L 49.535156 73.203125 C 50.382812 74.523438 49.4375 76.253906 47.871094 76.253906 L 37.035156 76.253906 C 36.347656 76.253906 35.699219 75.894531 35.339844 75.300781 L 22.097656 53.417969 C 21.742188 52.824219 21.101562 52.464844 20.402344 52.464844 L 16.457031 52.464844 C 15.367188 52.464844 14.480469 53.351562 14.480469 54.441406 L 14.480469 74.277344 C 14.480469 75.371094 13.597656 76.253906 12.503906 76.253906 L 2.902344 76.253906 C 1.808594 76.253906 0.925781 75.371094 0.925781 74.277344 L 0.925781 2.46875 C 0.925781 1.375 1.808594 0.492188 2.902344 0.492188 " clip-rule="nonzero"/></clipPath><clipPath id="b292c2c490"><rect x="0" width="50" y="0" height="77"/></clipPath><clipPath id="48f106083e"><path d="M 24.027344 36.476562 L 73 36.476562 L 73 112.554688 L 24.027344 112.554688 Z M 24.027344 36.476562 " clip-rule="nonzero"/></clipPath><clipPath id="8cd73e11aa"><path d="M 26.019531 36.492188 C 24.945312 36.492188 24.0625 37.359375 24.042969 38.441406 L 24.042969 110.3125 C 24.0625 111.386719 24.945312 112.261719 26.019531 112.261719 L 35.613281 112.261719 C 36.707031 112.261719 37.589844 111.378906 37.589844 110.285156 L 37.589844 90.441406 C 37.589844 89.351562 38.472656 88.464844 39.566406 88.464844 L 43.511719 88.464844 C 44.203125 88.464844 44.847656 88.824219 45.207031 89.417969 L 58.464844 111.300781 C 58.824219 111.894531 59.472656 112.253906 60.160156 112.253906 L 70.988281 112.253906 C 72.554688 112.253906 73.507812 110.515625 72.648438 109.203125 L 55.308594 82.378906 L 55.308594 82.167969 L 70.289062 60.953125 C 71.214844 59.640625 70.28125 57.832031 68.671875 57.832031 L 58.492188 57.832031 C 57.835938 57.832031 57.222656 58.15625 56.855469 58.695312 L 44.910156 76.179688 C 44.542969 76.722656 43.929688 77.046875 43.273438 77.046875 L 39.574219 77.046875 C 38.480469 77.046875 37.597656 76.160156 37.597656 75.070312 L 37.597656 38.46875 C 37.597656 37.375 36.707031 36.492188 35.613281 36.492188 Z M 26.019531 36.492188 " clip-rule="nonzero"/></clipPath><clipPath id="d72ad41ecf"><path d="M 0.0273438 0.476562 L 49 0.476562 L 49 76.492188 L 0.0273438 76.492188 Z M 0.0273438 0.476562 " clip-rule="nonzero"/></clipPath><clipPath id="2e65ed3e4e"><path d="M 2.019531 0.492188 C 0.945312 0.492188 0.0625 1.359375 0.0429688 2.441406 L 0.0429688 74.3125 C 0.0625 75.386719 0.945312 76.261719 2.019531 76.261719 L 11.613281 76.261719 C 12.707031 76.261719 13.589844 75.378906 13.589844 74.285156 L 13.589844 54.441406 C 13.589844 53.351562 14.472656 52.464844 15.566406 52.464844 L 19.511719 52.464844 C 20.203125 52.464844 20.847656 52.824219 21.207031 53.417969 L 34.464844 75.300781 C 34.824219 75.894531 35.472656 76.253906 36.160156 76.253906 L 46.988281 76.253906 C 48.554688 76.253906 49.507812 74.515625 48.648438 73.203125 L 31.308594 46.378906 L 31.308594 46.167969 L 46.289062 24.953125 C 47.214844 23.640625 46.28125 21.832031 44.671875 21.832031 L 34.492188 21.832031 C 33.835938 21.832031 33.222656 22.15625 32.855469 22.695312 L 20.910156 40.179688 C 20.542969 40.722656 19.929688 41.046875 19.273438 41.046875 L 15.574219 41.046875 C 14.480469 41.046875 13.597656 40.160156 13.597656 39.070312 L 13.597656 2.46875 C 13.597656 1.375 12.707031 0.492188 11.613281 0.492188 Z M 2.019531 0.492188 " clip-rule="nonzero"/></clipPath><clipPath id="c12019555e"><rect x="0" width="49" y="0" height="77"/></clipPath><clipPath id="4898f1b4f9"><path d="M 291.132812 56.25 L 351.121094 56.25 L 351.121094 113.558594 L 291.132812 113.558594 Z M 291.132812 56.25 " clip-rule="nonzero"/></clipPath><clipPath id="1c1f3e4660"><path d="M 332.460938 68.457031 C 333.046875 68.457031 333.65625 68.703125 334.289062 69.347656 C 336.054688 71.140625 336.238281 73.074219 334.785156 75.304688 C 329.277344 83.777344 323.855469 92.324219 318.441406 100.859375 C 317.679688 102.074219 316.996094 102.582031 316.324219 102.582031 C 315.535156 102.582031 314.765625 101.882812 313.882812 100.761719 C 302.742188 86.605469 302.742188 86.488281 317.636719 77.183594 C 317.949219 76.984375 318.257812 76.800781 318.570312 76.589844 L 318.597656 76.632812 C 322.191406 74.386719 325.75 72.105469 329.355469 69.875 C 330.34375 69.261719 331.367188 68.457031 332.441406 68.457031 Z M 321.074219 56.554688 C 304.542969 56.554688 291.207031 68.386719 291.199219 85.039062 C 291.191406 101.792969 304.519531 113.539062 321.167969 113.546875 C 321.179688 113.546875 321.179688 113.546875 321.1875 113.546875 C 335.703125 113.546875 347.765625 104.496094 350.484375 90.941406 C 350.851562 89.121094 351.027344 87.320312 351.042969 85.554688 L 351.042969 85.195312 C 350.945312 69.882812 338.144531 57.035156 322.050781 56.582031 C 321.71875 56.570312 321.394531 56.5625 321.0625 56.5625 Z M 321.074219 56.554688 " clip-rule="nonzero"/></clipPath><clipPath id="fa85f03dea"><path d="M 0.132812 0.367188 L 60.121094 0.367188 L 60.121094 57.558594 L 0.132812 57.558594 Z M 0.132812 0.367188 " clip-rule="nonzero"/></clipPath><clipPath id="c55828b5cd"><path d="M 41.460938 12.457031 C 42.046875 12.457031 42.65625 12.703125 43.289062 13.347656 C 45.054688 15.140625 45.238281 17.074219 43.785156 19.304688 C 38.277344 27.777344 32.855469 36.324219 27.441406 44.859375 C 26.679688 46.074219 25.996094 46.582031 25.324219 46.582031 C 24.535156 46.582031 23.765625 45.882812 22.882812 44.761719 C 11.742188 30.605469 11.742188 30.488281 26.636719 21.183594 C 26.949219 20.984375 27.257812 20.800781 27.570312 20.589844 L 27.597656 20.632812 C 31.191406 18.386719 34.75 16.105469 38.355469 13.875 C 39.34375 13.261719 40.367188 12.457031 41.441406 12.457031 Z M 30.074219 0.554688 C 13.542969 0.554688 0.207031 12.386719 0.199219 29.039062 C 0.191406 45.792969 13.519531 57.539062 30.167969 57.546875 C 30.179688 57.546875 30.179688 57.546875 30.1875 57.546875 C 44.703125 57.546875 56.765625 48.496094 59.484375 34.941406 C 59.851562 33.121094 60.027344 31.320312 60.042969 29.554688 L 60.042969 29.195312 C 59.945312 13.882812 47.144531 1.035156 31.050781 0.582031 C 30.71875 0.570312 30.394531 0.5625 30.0625 0.5625 Z M 30.074219 0.554688 " clip-rule="nonzero"/></clipPath><clipPath id="7b55f9b631"><rect x="0" width="61" y="0" height="58"/></clipPath><clipPath id="75f85271f2"><path d="M 0.339844 5 L 13 5 L 13 20 L 0.339844 20 Z M 0.339844 5 " clip-rule="nonzero"/></clipPath><clipPath id="002ebee4c6"><rect x="0" width="328" y="0" height="26"/></clipPath></defs><g clip-path="url(#199cc45c71)"><g clip-path="url(#cfd9442577)"><g transform="matrix(1, 0, 0, 1, 74, 56)"><g clip-path="url(#d818667037)"><g clip-path="url(#cd42e19d09)"><g clip-path="url(#d97e2eb29a)"><rect x="-156.5" width="540" fill="#112148" height="280.627186" y="-98.873598" fill-opacity="1"/></g></g></g></g></g></g><g clip-path="url(#de9807b5c2)"><g clip-path="url(#6b79fd59e1)"><g transform="matrix(1, 0, 0, 1, 182, 56)"><g clip-path="url(#5be6beeb4a)"><g clip-path="url(#b327fddbff)"><g clip-path="url(#b429bbf9f6)"><rect x="-264.5" width="540" fill="#112148" height="280.627186" y="-98.873598" fill-opacity="1"/></g></g></g></g></g></g><g clip-path="url(#bdaa9d95b5)"><g clip-path="url(#3169381ac2)"><g transform="matrix(1, 0, 0, 1, 128, 57)"><g clip-path="url(#64b1014dba)"><g clip-path="url(#00ba018f28)"><g clip-path="url(#f1e3fe5647)"><rect x="-210.5" width="540" fill="#112148" height="280.627186" y="-99.873598" fill-opacity="1"/></g></g></g></g></g></g><g clip-path="url(#fd37be2d30)"><g clip-path="url(#a77bbc4788)"><g transform="matrix(1, 0, 0, 1, 241, 36)"><g clip-path="url(#b292c2c490)"><g clip-path="url(#88520d5ee1)"><g clip-path="url(#2bae48268b)"><rect x="-323.5" width="540" fill="#112148" height="280.627186" y="-78.873598" fill-opacity="1"/></g></g></g></g></g></g><g clip-path="url(#48f106083e)"><g clip-path="url(#8cd73e11aa)"><g transform="matrix(1, 0, 0, 1, 24, 36)"><g clip-path="url(#c12019555e)"><g clip-path="url(#d72ad41ecf)"><g clip-path="url(#2e65ed3e4e)"><rect x="-106.5" width="540" fill="#112148" height="280.627186" y="-78.873598" fill-opacity="1"/></g></g></g></g></g></g><g clip-path="url(#4898f1b4f9)"><g clip-path="url(#1c1f3e4660)"><g transform="matrix(1, 0, 0, 1, 291, 56)"><g clip-path="url(#7b55f9b631)"><g clip-path="url(#fa85f03dea)"><g clip-path="url(#c55828b5cd)"><rect x="-373.5" width="540" fill="#112148" height="280.627186" y="-98.873598" fill-opacity="1"/></g></g></g></g></g></g><g transform="matrix(1, 0, 0, 1, 24, 130)"><g clip-path="url(#002ebee4c6)"><g clip-path="url(#75f85271f2)"><g fill="#112148" fill-opacity="1"><g transform="translate(0.834933, 19.637606)"><g><path d="M 4.9375 0 L 4.9375 -6.015625 L 0.15625 -14.21875 L 2.421875 -14.21875 L 5.0625 -9.546875 C 5.207031 -9.285156 5.34375 -9.015625 5.46875 -8.734375 C 5.601562 -8.453125 5.710938 -8.21875 5.796875 -8.03125 C 5.878906 -7.84375 5.921875 -7.75 5.921875 -7.75 L 5.96875 -7.75 C 5.96875 -7.75 6.003906 -7.84375 6.078125 -8.03125 C 6.160156 -8.21875 6.269531 -8.445312 6.40625 -8.71875 C 6.539062 -9 6.679688 -9.273438 6.828125 -9.546875 L 9.421875 -14.21875 L 11.6875 -14.21875 L 6.921875 -6.015625 L 6.921875 0 Z M 4.9375 0 "/></g></g></g></g><g fill="#112148" fill-opacity="1"><g transform="translate(15.715527, 19.645657)"><g><path d="M 0.96875 -7.203125 C 0.96875 -8.222656 1.148438 -9.171875 1.515625 -10.046875 C 1.890625 -10.929688 2.410156 -11.703125 3.078125 -12.359375 C 3.753906 -13.023438 4.535156 -13.539062 5.421875 -13.90625 C 6.304688 -14.28125 7.257812 -14.46875 8.28125 -14.46875 C 9.3125 -14.46875 10.265625 -14.28125 11.140625 -13.90625 C 12.023438 -13.539062 12.800781 -13.023438 13.46875 -12.359375 C 14.132812 -11.703125 14.648438 -10.929688 15.015625 -10.046875 C 15.378906 -9.160156 15.5625 -8.207031 15.5625 -7.1875 C 15.5625 -6.144531 15.378906 -5.171875 15.015625 -4.265625 C 14.648438 -3.367188 14.132812 -2.582031 13.46875 -1.90625 C 12.800781 -1.238281 12.023438 -0.710938 11.140625 -0.328125 C 10.265625 0.046875 9.3125 0.234375 8.28125 0.234375 C 7.257812 0.234375 6.304688 0.046875 5.421875 -0.328125 C 4.535156 -0.710938 3.753906 -1.238281 3.078125 -1.90625 C 2.410156 -2.582031 1.890625 -3.375 1.515625 -4.28125 C 1.148438 -5.1875 0.96875 -6.160156 0.96875 -7.203125 Z M 3.015625 -7.203125 C 3.015625 -6.148438 3.25 -5.195312 3.71875 -4.34375 C 4.195312 -3.488281 4.832031 -2.816406 5.625 -2.328125 C 6.425781 -1.835938 7.3125 -1.59375 8.28125 -1.59375 C 9.25 -1.59375 10.128906 -1.835938 10.921875 -2.328125 C 11.710938 -2.816406 12.34375 -3.488281 12.8125 -4.34375 C 13.28125 -5.195312 13.515625 -6.148438 13.515625 -7.203125 C 13.515625 -8.242188 13.28125 -9.171875 12.8125 -9.984375 C 12.34375 -10.804688 11.710938 -11.453125 10.921875 -11.921875 C 10.128906 -12.398438 9.25 -12.640625 8.28125 -12.640625 C 7.3125 -12.640625 6.425781 -12.398438 5.625 -11.921875 C 4.832031 -11.453125 4.195312 -10.804688 3.71875 -9.984375 C 3.25 -9.171875 3.015625 -8.242188 3.015625 -7.203125 Z M 3.015625 -7.203125 "/></g></g></g><g fill="#112148" fill-opacity="1"><g transform="translate(35.287283, 19.656246)"><g><path d="M 1.734375 -5.03125 L 1.734375 -14.21875 L 3.71875 -14.21875 L 3.71875 -5.03125 C 3.71875 -3.945312 4.039062 -3.101562 4.6875 -2.5 C 5.34375 -1.894531 6.21875 -1.59375 7.3125 -1.59375 C 8.414062 -1.59375 9.296875 -1.894531 9.953125 -2.5 C 10.609375 -3.113281 10.9375 -3.972656 10.9375 -5.078125 L 10.9375 -14.21875 L 12.9375 -14.21875 L 12.9375 -5.03125 C 12.9375 -3.988281 12.695312 -3.070312 12.21875 -2.28125 C 11.75 -1.488281 11.09375 -0.867188 10.25 -0.421875 C 9.414062 0.015625 8.441406 0.234375 7.328125 0.234375 C 6.222656 0.234375 5.25 0.015625 4.40625 -0.421875 C 3.5625 -0.867188 2.90625 -1.488281 2.4375 -2.28125 C 1.96875 -3.070312 1.734375 -3.988281 1.734375 -5.03125 Z M 1.734375 -5.03125 "/></g></g></g><g fill="#112148" fill-opacity="1"><g transform="translate(52.986606, 19.665822)"><g><path d="M 1.9375 0 L 1.9375 -14.21875 L 6.28125 -14.21875 C 7.03125 -14.21875 7.59375 -14.191406 7.96875 -14.140625 C 8.351562 -14.085938 8.675781 -14.003906 8.9375 -13.890625 C 9.664062 -13.628906 10.25 -13.15625 10.6875 -12.46875 C 11.125 -11.789062 11.34375 -10.984375 11.34375 -10.046875 C 11.34375 -9.148438 11.109375 -8.347656 10.640625 -7.640625 C 10.179688 -6.941406 9.5625 -6.460938 8.78125 -6.203125 L 8.78125 -6.15625 C 8.78125 -6.15625 8.816406 -6.101562 8.890625 -6 C 8.960938 -5.90625 9.066406 -5.742188 9.203125 -5.515625 L 12.21875 0 L 9.96875 0 L 6.96875 -5.65625 L 3.921875 -5.65625 L 3.921875 0 Z M 3.921875 -7.390625 L 6.78125 -7.390625 C 7.5625 -7.390625 8.175781 -7.617188 8.625 -8.078125 C 9.082031 -8.546875 9.3125 -9.175781 9.3125 -9.96875 C 9.3125 -11.019531 8.929688 -11.753906 8.171875 -12.171875 C 7.984375 -12.273438 7.75 -12.351562 7.46875 -12.40625 C 7.1875 -12.457031 6.769531 -12.484375 6.21875 -12.484375 L 3.921875 -12.484375 Z M 3.921875 -7.390625 "/></g></g></g><g fill="#112148" fill-opacity="1"><g transform="translate(68.934286, 19.674451)"><g/></g></g><g fill="#112148" fill-opacity="1"><g transform="translate(77.150602, 19.678896)"><g><path d="M 1.9375 0 L 1.9375 -14.21875 L 9.765625 -14.21875 L 9.765625 -12.484375 L 3.921875 -12.484375 L 3.921875 -7.8125 L 8.90625 -7.8125 L 8.90625 -6.078125 L 3.921875 -6.078125 L 3.921875 0 Z M 1.9375 0 "/></g></g></g><g fill="#112148" fill-opacity="1"><g transform="translate(90.682232, 19.686218)"><g><path d="M 1.9375 0 L 1.9375 -14.21875 L 3.921875 -14.21875 L 3.921875 0 Z M 1.9375 0 "/></g></g></g><g fill="#112148" fill-opacity="1"><g transform="translate(99.583095, 19.691033)"><g><path d="M 1.9375 0 L 1.9375 -14.21875 L 3.90625 -14.21875 L 10.234375 -4.96875 C 10.410156 -4.71875 10.585938 -4.429688 10.765625 -4.109375 C 10.941406 -3.785156 11.09375 -3.503906 11.21875 -3.265625 C 11.351562 -3.035156 11.421875 -2.921875 11.421875 -2.921875 L 11.453125 -2.921875 C 11.453125 -2.921875 11.441406 -3.035156 11.421875 -3.265625 C 11.410156 -3.503906 11.390625 -3.785156 11.359375 -4.109375 C 11.328125 -4.429688 11.3125 -4.71875 11.3125 -4.96875 L 11.3125 -14.21875 L 13.3125 -14.21875 L 13.3125 0 L 11.359375 0 L 5.015625 -9.21875 C 4.835938 -9.488281 4.65625 -9.785156 4.46875 -10.109375 C 4.289062 -10.429688 4.140625 -10.707031 4.015625 -10.9375 C 3.890625 -11.175781 3.828125 -11.296875 3.828125 -11.296875 L 3.78125 -11.296875 C 3.78125 -11.296875 3.789062 -11.175781 3.8125 -10.9375 C 3.84375 -10.707031 3.867188 -10.429688 3.890625 -10.109375 C 3.910156 -9.785156 3.921875 -9.488281 3.921875 -9.21875 L 3.921875 0 Z M 1.9375 0 "/></g></g></g><g fill="#112148" fill-opacity="1"><g transform="translate(117.866291, 19.700926)"><g><path d="M 10.40625 0 L 8.984375 -4.09375 L 3.625 -4.09375 L 2.21875 0 L 0.15625 0 L 5.28125 -14.21875 L 7.375 -14.21875 L 12.484375 0 Z M 6.34375 -12.265625 L 6.296875 -12.265625 C 6.296875 -12.265625 6.265625 -12.144531 6.203125 -11.90625 C 6.148438 -11.675781 6.078125 -11.398438 5.984375 -11.078125 C 5.898438 -10.765625 5.816406 -10.488281 5.734375 -10.25 L 4.15625 -5.734375 L 8.453125 -5.734375 L 6.890625 -10.25 C 6.804688 -10.488281 6.722656 -10.765625 6.640625 -11.078125 C 6.566406 -11.398438 6.5 -11.675781 6.4375 -11.90625 C 6.375 -12.144531 6.34375 -12.265625 6.34375 -12.265625 Z M 6.34375 -12.265625 "/></g></g></g><g fill="#112148" fill-opacity="1"><g transform="translate(133.552239, 19.709413)"><g><path d="M 1.9375 0 L 1.9375 -14.21875 L 3.90625 -14.21875 L 10.234375 -4.96875 C 10.410156 -4.71875 10.585938 -4.429688 10.765625 -4.109375 C 10.941406 -3.785156 11.09375 -3.503906 11.21875 -3.265625 C 11.351562 -3.035156 11.421875 -2.921875 11.421875 -2.921875 L 11.453125 -2.921875 C 11.453125 -2.921875 11.441406 -3.035156 11.421875 -3.265625 C 11.410156 -3.503906 11.390625 -3.785156 11.359375 -4.109375 C 11.328125 -4.429688 11.3125 -4.71875 11.3125 -4.96875 L 11.3125 -14.21875 L 13.3125 -14.21875 L 13.3125 0 L 11.359375 0 L 5.015625 -9.21875 C 4.835938 -9.488281 4.65625 -9.785156 4.46875 -10.109375 C 4.289062 -10.429688 4.140625 -10.707031 4.015625 -10.9375 C 3.890625 -11.175781 3.828125 -11.296875 3.828125 -11.296875 L 3.78125 -11.296875 C 3.78125 -11.296875 3.789062 -11.175781 3.8125 -10.9375 C 3.84375 -10.707031 3.867188 -10.429688 3.890625 -10.109375 C 3.910156 -9.785156 3.921875 -9.488281 3.921875 -9.21875 L 3.921875 0 Z M 1.9375 0 "/></g></g></g><g fill="#112148" fill-opacity="1"><g transform="translate(151.835428, 19.719305)"><g><path d="M 0.96875 -7.1875 C 0.96875 -8.21875 1.144531 -9.171875 1.5 -10.046875 C 1.863281 -10.929688 2.375 -11.703125 3.03125 -12.359375 C 3.6875 -13.023438 4.453125 -13.539062 5.328125 -13.90625 C 6.203125 -14.28125 7.160156 -14.46875 8.203125 -14.46875 C 9.054688 -14.46875 9.804688 -14.367188 10.453125 -14.171875 C 11.097656 -13.984375 11.640625 -13.765625 12.078125 -13.515625 C 12.515625 -13.273438 12.835938 -13.0625 13.046875 -12.875 C 13.265625 -12.6875 13.375 -12.59375 13.375 -12.59375 L 12.390625 -11.09375 C 12.390625 -11.09375 12.289062 -11.171875 12.09375 -11.328125 C 11.894531 -11.484375 11.613281 -11.664062 11.25 -11.875 C 10.894531 -12.082031 10.460938 -12.257812 9.953125 -12.40625 C 9.453125 -12.5625 8.894531 -12.640625 8.28125 -12.640625 C 7.21875 -12.640625 6.289062 -12.398438 5.5 -11.921875 C 4.71875 -11.441406 4.109375 -10.785156 3.671875 -9.953125 C 3.234375 -9.128906 3.015625 -8.210938 3.015625 -7.203125 C 3.015625 -6.203125 3.234375 -5.273438 3.671875 -4.421875 C 4.117188 -3.566406 4.738281 -2.878906 5.53125 -2.359375 C 6.332031 -1.847656 7.253906 -1.59375 8.296875 -1.59375 C 8.972656 -1.59375 9.578125 -1.6875 10.109375 -1.875 C 10.648438 -2.0625 11.109375 -2.273438 11.484375 -2.515625 C 11.867188 -2.753906 12.164062 -2.96875 12.375 -3.15625 C 12.582031 -3.34375 12.6875 -3.4375 12.6875 -3.4375 L 13.75 -2.015625 C 13.75 -2.015625 13.628906 -1.898438 13.390625 -1.671875 C 13.148438 -1.441406 12.796875 -1.175781 12.328125 -0.875 C 11.867188 -0.582031 11.289062 -0.320312 10.59375 -0.09375 C 9.90625 0.125 9.117188 0.234375 8.234375 0.234375 C 7.171875 0.234375 6.191406 0.046875 5.296875 -0.328125 C 4.410156 -0.703125 3.644531 -1.226562 3 -1.90625 C 2.351562 -2.582031 1.851562 -3.367188 1.5 -4.265625 C 1.144531 -5.171875 0.96875 -6.144531 0.96875 -7.1875 Z M 0.96875 -7.1875 "/></g></g></g><g fill="#112148" fill-opacity="1"><g transform="translate(169.41395, 19.728816)"><g><path d="M 1.9375 0 L 1.9375 -14.21875 L 3.921875 -14.21875 L 3.921875 0 Z M 1.9375 0 "/></g></g></g><g fill="#112148" fill-opacity="1"><g transform="translate(178.314814, 19.733631)"><g><path d="M 10.40625 0 L 8.984375 -4.09375 L 3.625 -4.09375 L 2.21875 0 L 0.15625 0 L 5.28125 -14.21875 L 7.375 -14.21875 L 12.484375 0 Z M 6.34375 -12.265625 L 6.296875 -12.265625 C 6.296875 -12.265625 6.265625 -12.144531 6.203125 -11.90625 C 6.148438 -11.675781 6.078125 -11.398438 5.984375 -11.078125 C 5.898438 -10.765625 5.816406 -10.488281 5.734375 -10.25 L 4.15625 -5.734375 L 8.453125 -5.734375 L 6.890625 -10.25 C 6.804688 -10.488281 6.722656 -10.765625 6.640625 -11.078125 C 6.566406 -11.398438 6.5 -11.675781 6.4375 -11.90625 C 6.375 -12.144531 6.34375 -12.265625 6.34375 -12.265625 Z M 6.34375 -12.265625 "/></g></g></g><g fill="#112148" fill-opacity="1"><g transform="translate(194.000748, 19.742118)"><g><path d="M 1.9375 0 L 1.9375 -14.21875 L 3.921875 -14.21875 L 3.921875 -1.734375 L 10.296875 -1.734375 L 10.296875 0 Z M 1.9375 0 "/></g></g></g><g fill="#112148" fill-opacity="1"><g transform="translate(207.693449, 19.749527)"><g/></g></g><g fill="#112148" fill-opacity="1"><g transform="translate(215.909764, 19.753972)"><g><path d="M 1.9375 0 L 1.9375 -14.21875 L 7.125 -14.21875 C 8 -14.21875 8.769531 -14.03125 9.4375 -13.65625 C 10.113281 -13.289062 10.640625 -12.773438 11.015625 -12.109375 C 11.398438 -11.453125 11.59375 -10.671875 11.59375 -9.765625 C 11.59375 -8.867188 11.398438 -8.082031 11.015625 -7.40625 C 10.640625 -6.726562 10.113281 -6.195312 9.4375 -5.8125 C 8.769531 -5.4375 8 -5.25 7.125 -5.25 L 3.921875 -5.25 L 3.921875 0 Z M 3.921875 -6.984375 L 6.8125 -6.984375 C 7.664062 -6.984375 8.335938 -7.234375 8.828125 -7.734375 C 9.316406 -8.234375 9.5625 -8.910156 9.5625 -9.765625 C 9.5625 -10.628906 9.316406 -11.296875 8.828125 -11.765625 C 8.335938 -12.242188 7.671875 -12.484375 6.828125 -12.484375 L 3.921875 -12.484375 Z M 3.921875 -6.984375 "/></g></g></g><g fill="#112148" fill-opacity="1"><g transform="translate(231.172897, 19.76223)"><g><path d="M 1.9375 0 L 1.9375 -14.21875 L 3.921875 -14.21875 L 3.921875 -1.734375 L 10.296875 -1.734375 L 10.296875 0 Z M 1.9375 0 "/></g></g></g><g fill="#112148" fill-opacity="1"><g transform="translate(244.865583, 19.769639)"><g><path d="M 10.40625 0 L 8.984375 -4.09375 L 3.625 -4.09375 L 2.21875 0 L 0.15625 0 L 5.28125 -14.21875 L 7.375 -14.21875 L 12.484375 0 Z M 6.34375 -12.265625 L 6.296875 -12.265625 C 6.296875 -12.265625 6.265625 -12.144531 6.203125 -11.90625 C 6.148438 -11.675781 6.078125 -11.398438 5.984375 -11.078125 C 5.898438 -10.765625 5.816406 -10.488281 5.734375 -10.25 L 4.15625 -5.734375 L 8.453125 -5.734375 L 6.890625 -10.25 C 6.804688 -10.488281 6.722656 -10.765625 6.640625 -11.078125 C 6.566406 -11.398438 6.5 -11.675781 6.4375 -11.90625 C 6.375 -12.144531 6.34375 -12.265625 6.34375 -12.265625 Z M 6.34375 -12.265625 "/></g></g></g><g fill="#112148" fill-opacity="1"><g transform="translate(260.551546, 19.778126)"><g><path d="M 1.9375 0 L 1.9375 -14.21875 L 3.90625 -14.21875 L 10.234375 -4.96875 C 10.410156 -4.71875 10.585938 -4.429688 10.765625 -4.109375 C 10.941406 -3.785156 11.09375 -3.503906 11.21875 -3.265625 C 11.351562 -3.035156 11.421875 -2.921875 11.421875 -2.921875 L 11.453125 -2.921875 C 11.453125 -2.921875 11.441406 -3.035156 11.421875 -3.265625 C 11.410156 -3.503906 11.390625 -3.785156 11.359375 -4.109375 C 11.328125 -4.429688 11.3125 -4.71875 11.3125 -4.96875 L 11.3125 -14.21875 L 13.3125 -14.21875 L 13.3125 0 L 11.359375 0 L 5.015625 -9.21875 C 4.835938 -9.488281 4.65625 -9.785156 4.46875 -10.109375 C 4.289062 -10.429688 4.140625 -10.707031 4.015625 -10.9375 C 3.890625 -11.175781 3.828125 -11.296875 3.828125 -11.296875 L 3.78125 -11.296875 C 3.78125 -11.296875 3.789062 -11.175781 3.8125 -10.9375 C 3.84375 -10.707031 3.867188 -10.429688 3.890625 -10.109375 C 3.910156 -9.785156 3.921875 -9.488281 3.921875 -9.21875 L 3.921875 0 Z M 1.9375 0 "/></g></g></g><g fill="#112148" fill-opacity="1"><g transform="translate(278.834734, 19.788018)"><g><path d="M 1.9375 0 L 1.9375 -14.21875 L 3.90625 -14.21875 L 10.234375 -4.96875 C 10.410156 -4.71875 10.585938 -4.429688 10.765625 -4.109375 C 10.941406 -3.785156 11.09375 -3.503906 11.21875 -3.265625 C 11.351562 -3.035156 11.421875 -2.921875 11.421875 -2.921875 L 11.453125 -2.921875 C 11.453125 -2.921875 11.441406 -3.035156 11.421875 -3.265625 C 11.410156 -3.503906 11.390625 -3.785156 11.359375 -4.109375 C 11.328125 -4.429688 11.3125 -4.71875 11.3125 -4.96875 L 11.3125 -14.21875 L 13.3125 -14.21875 L 13.3125 0 L 11.359375 0 L 5.015625 -9.21875 C 4.835938 -9.488281 4.65625 -9.785156 4.46875 -10.109375 C 4.289062 -10.429688 4.140625 -10.707031 4.015625 -10.9375 C 3.890625 -11.175781 3.828125 -11.296875 3.828125 -11.296875 L 3.78125 -11.296875 C 3.78125 -11.296875 3.789062 -11.175781 3.8125 -10.9375 C 3.84375 -10.707031 3.867188 -10.429688 3.890625 -10.109375 C 3.910156 -9.785156 3.921875 -9.488281 3.921875 -9.21875 L 3.921875 0 Z M 1.9375 0 "/></g></g></g><g fill="#112148" fill-opacity="1"><g transform="translate(297.117923, 19.79791)"><g><path d="M 1.9375 0 L 1.9375 -14.21875 L 10.1875 -14.21875 L 10.1875 -12.484375 L 3.921875 -12.484375 L 3.921875 -8.03125 L 9.015625 -8.03125 L 9.015625 -6.296875 L 3.921875 -6.296875 L 3.921875 -1.734375 L 10.53125 -1.734375 L 10.53125 0 Z M 1.9375 0 "/></g></g></g><g fill="#112148" fill-opacity="1"><g transform="translate(311.696521, 19.805798)"><g><path d="M 1.9375 0 L 1.9375 -14.21875 L 6.28125 -14.21875 C 7.03125 -14.21875 7.59375 -14.191406 7.96875 -14.140625 C 8.351562 -14.085938 8.675781 -14.003906 8.9375 -13.890625 C 9.664062 -13.628906 10.25 -13.15625 10.6875 -12.46875 C 11.125 -11.789062 11.34375 -10.984375 11.34375 -10.046875 C 11.34375 -9.148438 11.109375 -8.347656 10.640625 -7.640625 C 10.179688 -6.941406 9.5625 -6.460938 8.78125 -6.203125 L 8.78125 -6.15625 C 8.78125 -6.15625 8.816406 -6.101562 8.890625 -6 C 8.960938 -5.90625 9.066406 -5.742188 9.203125 -5.515625 L 12.21875 0 L 9.96875 0 L 6.96875 -5.65625 L 3.921875 -5.65625 L 3.921875 0 Z M 3.921875 -7.390625 L 6.78125 -7.390625 C 7.5625 -7.390625 8.175781 -7.617188 8.625 -8.078125 C 9.082031 -8.546875 9.3125 -9.175781 9.3125 -9.96875 C 9.3125 -11.019531 8.929688 -11.753906 8.171875 -12.171875 C 7.984375 -12.273438 7.75 -12.351562 7.46875 -12.40625 C 7.1875 -12.457031 6.769531 -12.484375 6.21875 -12.484375 L 3.921875 -12.484375 Z M 3.921875 -7.390625 "/></g></g></g></g></g></svg>