<svg xmlns="http://www.w3.org/2000/svg" xmlns:xlink="http://www.w3.org/1999/xlink" width="500" zoomAndPan="magnify" viewBox="0 0 375 194.87999" height="250" preserveAspectRatio="xMidYMid meet" version="1.0"><defs><clipPath id="23ba29050c"><path d="M 73.394531 75 L 125.582031 75 L 125.582031 132.410156 L 73.394531 132.410156 Z M 73.394531 75 " clip-rule="nonzero"/></clipPath><clipPath id="bd5f190136"><path d="M 109.285156 97.011719 L 90.816406 97.011719 C 89.253906 97.011719 88.144531 95.449219 88.699219 93.988281 C 90.675781 88.734375 95.042969 85.652344 100.953125 85.652344 C 106.207031 85.652344 110.390625 88.683594 111.496094 94.402344 C 111.761719 95.765625 110.671875 97.011719 109.285156 97.011719 M 101.269531 75.144531 C 84.984375 75.144531 73.507812 86.933594 73.507812 103.769531 C 73.507812 119.308594 84.761719 132.390625 102.878906 132.390625 C 112.621094 132.390625 119.675781 128.386719 122.902344 126.101562 C 124.0625 125.285156 124.402344 123.71875 123.734375 122.472656 L 121.125 117.632812 C 120.34375 116.183594 118.507812 115.707031 117.121094 116.585938 C 114.335938 118.359375 109.460938 120.8125 103.84375 120.8125 C 96.800781 120.8125 90.308594 117.121094 88.136719 109.945312 C 87.59375 108.144531 88.980469 106.332031 90.851562 106.332031 L 122.566406 106.332031 C 124.050781 106.332031 125.28125 105.183594 125.386719 103.699219 C 125.449219 102.75 125.503906 101.746094 125.503906 101.078125 C 125.503906 86.609375 117.03125 75.144531 101.269531 75.144531 " clip-rule="nonzero"/></clipPath><clipPath id="b3a158731d"><path d="M 0.394531 0.0742188 L 52.558594 0.0742188 L 52.558594 57.398438 L 0.394531 57.398438 Z M 0.394531 0.0742188 " clip-rule="nonzero"/></clipPath><clipPath id="8d1ca93042"><path d="M 36.285156 22.011719 L 17.816406 22.011719 C 16.253906 22.011719 15.144531 20.449219 15.699219 18.988281 C 17.675781 13.734375 22.042969 10.652344 27.953125 10.652344 C 33.207031 10.652344 37.390625 13.683594 38.496094 19.402344 C 38.761719 20.765625 37.671875 22.011719 36.285156 22.011719 M 28.269531 0.144531 C 11.984375 0.144531 0.507812 11.933594 0.507812 28.769531 C 0.507812 44.308594 11.761719 57.390625 29.878906 57.390625 C 39.621094 57.390625 46.675781 53.386719 49.902344 51.101562 C 51.0625 50.285156 51.402344 48.71875 50.734375 47.472656 L 48.125 42.632812 C 47.34375 41.183594 45.507812 40.707031 44.121094 41.585938 C 41.335938 43.359375 36.460938 45.8125 30.84375 45.8125 C 23.800781 45.8125 17.308594 42.121094 15.136719 34.945312 C 14.59375 33.144531 15.980469 31.332031 17.851562 31.332031 L 49.566406 31.332031 C 51.050781 31.332031 52.28125 30.183594 52.386719 28.699219 C 52.449219 27.75 52.503906 26.746094 52.503906 26.078125 C 52.503906 11.609375 44.03125 0.144531 28.269531 0.144531 " clip-rule="nonzero"/></clipPath><clipPath id="23ab6eb4d4"><rect x="0" width="53" y="0" height="58"/></clipPath><clipPath id="4f9b062853"><path d="M 182.140625 75 L 234.664062 75 L 234.664062 132.410156 L 182.140625 132.410156 Z M 182.140625 75 " clip-rule="nonzero"/></clipPath><clipPath id="8185997c96"><path d="M 218.164062 97.011719 L 199.695312 97.011719 C 198.132812 97.011719 197.023438 95.449219 197.578125 93.988281 C 199.554688 88.734375 203.921875 85.652344 209.835938 85.652344 C 215.089844 85.652344 219.269531 88.683594 220.378906 94.402344 C 220.640625 95.765625 219.550781 97.011719 218.164062 97.011719 M 210.152344 75.144531 C 193.863281 75.144531 182.386719 86.933594 182.386719 103.769531 C 182.386719 119.308594 193.644531 132.390625 211.757812 132.390625 C 221.5 132.390625 228.558594 128.386719 231.78125 126.101562 C 232.941406 125.285156 233.285156 123.71875 232.617188 122.472656 L 230.007812 117.632812 C 229.222656 116.183594 227.386719 115.707031 226 116.585938 C 223.214844 118.359375 218.339844 120.8125 212.726562 120.8125 C 205.679688 120.8125 199.1875 117.121094 197.015625 109.945312 C 196.472656 108.144531 197.859375 106.332031 199.730469 106.332031 L 231.445312 106.332031 C 232.933594 106.332031 234.160156 105.183594 234.265625 103.699219 C 234.328125 102.75 234.382812 101.746094 234.382812 101.078125 C 234.382812 86.609375 225.914062 75.144531 210.152344 75.144531 " clip-rule="nonzero"/></clipPath><clipPath id="6a4abd036e"><path d="M 0.164062 0.0742188 L 52.449219 0.0742188 L 52.449219 57.398438 L 0.164062 57.398438 Z M 0.164062 0.0742188 " clip-rule="nonzero"/></clipPath><clipPath id="48b8307b6b"><path d="M 36.164062 22.011719 L 17.695312 22.011719 C 16.132812 22.011719 15.023438 20.449219 15.578125 18.988281 C 17.554688 13.734375 21.921875 10.652344 27.835938 10.652344 C 33.089844 10.652344 37.269531 13.683594 38.378906 19.402344 C 38.640625 20.765625 37.550781 22.011719 36.164062 22.011719 M 28.152344 0.144531 C 11.863281 0.144531 0.386719 11.933594 0.386719 28.769531 C 0.386719 44.308594 11.644531 57.390625 29.757812 57.390625 C 39.5 57.390625 46.558594 53.386719 49.78125 51.101562 C 50.941406 50.285156 51.285156 48.71875 50.617188 47.472656 L 48.007812 42.632812 C 47.222656 41.183594 45.386719 40.707031 44 41.585938 C 41.214844 43.359375 36.339844 45.8125 30.726562 45.8125 C 23.679688 45.8125 17.1875 42.121094 15.015625 34.945312 C 14.472656 33.144531 15.859375 31.332031 17.730469 31.332031 L 49.445312 31.332031 C 50.933594 31.332031 52.160156 30.183594 52.265625 28.699219 C 52.328125 27.75 52.382812 26.746094 52.382812 26.078125 C 52.382812 11.609375 43.914062 0.144531 28.152344 0.144531 " clip-rule="nonzero"/></clipPath><clipPath id="ced12c2170"><rect x="0" width="53" y="0" height="58"/></clipPath><clipPath id="a296297b32"><path d="M 127.601562 76.183594 L 181 76.183594 L 181 131.398438 L 127.601562 131.398438 Z M 127.601562 76.183594 " clip-rule="nonzero"/></clipPath><clipPath id="2ee9e9942c"><path d="M 130.921875 76.425781 L 138.8125 76.425781 C 140.113281 76.425781 141.261719 77.253906 141.675781 78.484375 L 152.351562 110.304688 C 153.421875 113.519531 154.167969 118.5625 154.285156 118.5625 L 154.496094 118.5625 C 154.601562 118.5625 155.355469 113.519531 156.425781 110.304688 L 167.101562 78.484375 C 167.515625 77.253906 168.664062 76.425781 169.964844 76.425781 L 177.871094 76.425781 C 179.964844 76.425781 181.414062 78.5 180.710938 80.460938 L 163.253906 129.105469 C 162.824219 130.300781 161.691406 131.101562 160.414062 131.101562 L 148.5625 131.101562 C 147.300781 131.101562 146.15625 130.308594 145.726562 129.113281 L 128.085938 80.476562 C 127.375 78.507812 128.832031 76.4375 130.921875 76.4375 " clip-rule="nonzero"/></clipPath><clipPath id="fc6ab574b8"><path d="M 0.601562 0.273438 L 54 0.273438 L 54 55.199219 L 0.601562 55.199219 Z M 0.601562 0.273438 " clip-rule="nonzero"/></clipPath><clipPath id="442f425a4b"><path d="M 3.921875 0.425781 L 11.8125 0.425781 C 13.113281 0.425781 14.261719 1.253906 14.675781 2.484375 L 25.351562 34.304688 C 26.421875 37.519531 27.167969 42.5625 27.285156 42.5625 L 27.496094 42.5625 C 27.601562 42.5625 28.355469 37.519531 29.425781 34.304688 L 40.101562 2.484375 C 40.515625 1.253906 41.664062 0.425781 42.964844 0.425781 L 50.871094 0.425781 C 52.964844 0.425781 54.414062 2.5 53.710938 4.460938 L 36.253906 53.105469 C 35.824219 54.300781 34.691406 55.101562 33.414062 55.101562 L 21.5625 55.101562 C 20.300781 55.101562 19.15625 54.308594 18.726562 53.113281 L 1.085938 4.476562 C 0.375 2.507812 1.832031 0.4375 3.921875 0.4375 " clip-rule="nonzero"/></clipPath><clipPath id="6983cc5a57"><rect x="0" width="54" y="0" height="56"/></clipPath><clipPath id="2fcc3dc661"><path d="M 242.070312 54.972656 L 291.5625 54.972656 L 291.5625 131.398438 L 242.070312 131.398438 Z M 242.070312 54.972656 " clip-rule="nonzero"/></clipPath><clipPath id="d146f53116"><path d="M 244.117188 54.992188 L 253.753906 54.992188 C 254.851562 54.992188 255.738281 55.878906 255.738281 56.976562 L 255.738281 93.734375 C 255.738281 94.832031 256.625 95.71875 257.726562 95.71875 L 261.441406 95.71875 C 262.101562 95.71875 262.714844 95.394531 263.085938 94.851562 L 275.085938 77.289062 C 275.453125 76.742188 276.070312 76.417969 276.726562 76.417969 L 286.953125 76.417969 C 288.570312 76.417969 289.511719 78.238281 288.578125 79.554688 L 273.539062 100.878906 L 273.539062 101.089844 L 290.960938 128.035156 C 291.8125 129.359375 290.863281 131.101562 289.292969 131.101562 L 278.40625 131.101562 C 277.710938 131.101562 277.0625 130.738281 276.703125 130.140625 L 263.398438 108.160156 C 263.039062 107.5625 262.398438 107.203125 261.695312 107.203125 L 257.734375 107.203125 C 256.636719 107.203125 255.75 108.089844 255.75 109.1875 L 255.75 129.113281 C 255.75 130.210938 254.859375 131.101562 253.761719 131.101562 L 244.117188 131.101562 C 243.019531 131.101562 242.128906 130.210938 242.128906 129.113281 L 242.128906 56.976562 C 242.128906 55.878906 243.019531 54.992188 244.117188 54.992188 " clip-rule="nonzero"/></clipPath><clipPath id="57e65b45f6"><path d="M 0.125 0.972656 L 49.5625 0.972656 L 49.5625 77.199219 L 0.125 77.199219 Z M 0.125 0.972656 " clip-rule="nonzero"/></clipPath><clipPath id="facd487161"><path d="M 2.117188 0.992188 L 11.753906 0.992188 C 12.851562 0.992188 13.738281 1.878906 13.738281 2.976562 L 13.738281 39.734375 C 13.738281 40.832031 14.625 41.71875 15.726562 41.71875 L 19.441406 41.71875 C 20.101562 41.71875 20.714844 41.394531 21.085938 40.851562 L 33.085938 23.289062 C 33.453125 22.742188 34.070312 22.417969 34.726562 22.417969 L 44.953125 22.417969 C 46.570312 22.417969 47.511719 24.238281 46.578125 25.554688 L 31.539062 46.878906 L 31.539062 47.089844 L 48.960938 74.035156 C 49.8125 75.359375 48.863281 77.101562 47.292969 77.101562 L 36.40625 77.101562 C 35.710938 77.101562 35.0625 76.738281 34.703125 76.140625 L 21.398438 54.160156 C 21.039062 53.5625 20.398438 53.203125 19.695312 53.203125 L 15.734375 53.203125 C 14.636719 53.203125 13.75 54.089844 13.75 55.1875 L 13.75 75.113281 C 13.75 76.210938 12.859375 77.101562 11.761719 77.101562 L 2.117188 77.101562 C 1.019531 77.101562 0.128906 76.210938 0.128906 75.113281 L 0.128906 2.976562 C 0.128906 1.878906 1.019531 0.992188 2.117188 0.992188 " clip-rule="nonzero"/></clipPath><clipPath id="5233544f53"><rect x="0" width="50" y="0" height="78"/></clipPath><clipPath id="3ad8e27961"><path d="M 23.230469 54.972656 L 72.722656 54.972656 L 72.722656 131.398438 L 23.230469 131.398438 Z M 23.230469 54.972656 " clip-rule="nonzero"/></clipPath><clipPath id="2ab1d3ef30"><path d="M 25.230469 54.992188 C 24.152344 54.992188 23.265625 55.859375 23.246094 56.949219 L 23.246094 129.148438 C 23.265625 130.230469 24.152344 131.109375 25.230469 131.109375 L 34.871094 131.109375 C 35.96875 131.109375 36.855469 130.222656 36.855469 129.125 L 36.855469 109.1875 C 36.855469 108.089844 37.742188 107.203125 38.839844 107.203125 L 42.804688 107.203125 C 43.496094 107.203125 44.148438 107.5625 44.507812 108.160156 L 57.828125 130.140625 C 58.1875 130.738281 58.835938 131.101562 59.53125 131.101562 L 70.40625 131.101562 C 71.980469 131.101562 72.9375 129.351562 72.078125 128.035156 L 54.65625 101.089844 L 54.65625 100.878906 L 69.703125 79.5625 C 70.636719 78.246094 69.695312 76.425781 68.078125 76.425781 L 57.851562 76.425781 C 57.195312 76.425781 56.578125 76.753906 56.210938 77.296875 L 44.210938 94.859375 C 43.839844 95.402344 43.226562 95.730469 42.566406 95.730469 L 38.851562 95.730469 C 37.75 95.730469 36.863281 94.84375 36.863281 93.742188 L 36.863281 56.976562 C 36.863281 55.878906 35.96875 54.992188 34.871094 54.992188 Z M 25.230469 54.992188 " clip-rule="nonzero"/></clipPath><clipPath id="701699a8d0"><path d="M 0.230469 0.972656 L 49.722656 0.972656 L 49.722656 77.199219 L 0.230469 77.199219 Z M 0.230469 0.972656 " clip-rule="nonzero"/></clipPath><clipPath id="e1f3897fc5"><path d="M 2.230469 0.992188 C 1.152344 0.992188 0.265625 1.859375 0.246094 2.949219 L 0.246094 75.148438 C 0.265625 76.230469 1.152344 77.109375 2.230469 77.109375 L 11.871094 77.109375 C 12.96875 77.109375 13.855469 76.222656 13.855469 75.125 L 13.855469 55.1875 C 13.855469 54.089844 14.742188 53.203125 15.839844 53.203125 L 19.804688 53.203125 C 20.496094 53.203125 21.148438 53.5625 21.507812 54.160156 L 34.828125 76.140625 C 35.1875 76.738281 35.835938 77.101562 36.53125 77.101562 L 47.40625 77.101562 C 48.980469 77.101562 49.9375 75.351562 49.078125 74.035156 L 31.65625 47.089844 L 31.65625 46.878906 L 46.703125 25.5625 C 47.636719 24.246094 46.695312 22.425781 45.078125 22.425781 L 34.851562 22.425781 C 34.195312 22.425781 33.578125 22.753906 33.210938 23.296875 L 21.210938 40.859375 C 20.839844 41.402344 20.226562 41.730469 19.566406 41.730469 L 15.851562 41.730469 C 14.75 41.730469 13.863281 40.84375 13.863281 39.742188 L 13.863281 2.976562 C 13.863281 1.878906 12.96875 0.992188 11.871094 0.992188 Z M 2.230469 0.992188 " clip-rule="nonzero"/></clipPath><clipPath id="1a2e1ad6db"><rect x="0" width="50" y="0" height="78"/></clipPath><clipPath id="55463ec2e0"><path d="M 291.5625 75 L 351.828125 75 L 351.828125 132.410156 L 291.5625 132.410156 Z M 291.5625 75 " clip-rule="nonzero"/></clipPath><clipPath id="2cc03c40a2"><path d="M 333.078125 87.101562 C 333.667969 87.101562 334.28125 87.347656 334.914062 87.996094 C 336.691406 89.800781 336.875 91.742188 335.414062 93.980469 C 329.878906 102.492188 324.433594 111.078125 318.996094 119.652344 C 318.230469 120.875 317.546875 121.382812 316.871094 121.382812 C 316.078125 121.382812 315.304688 120.679688 314.417969 119.554688 C 303.226562 105.332031 303.226562 105.21875 318.1875 95.871094 C 318.503906 95.667969 318.8125 95.484375 319.128906 95.273438 L 319.152344 95.316406 C 322.765625 93.058594 326.339844 90.765625 329.960938 88.523438 C 330.953125 87.910156 331.980469 87.101562 333.0625 87.101562 Z M 321.640625 75.144531 C 305.035156 75.144531 291.636719 87.03125 291.628906 103.757812 C 291.621094 120.59375 305.007812 132.390625 321.738281 132.398438 C 321.746094 132.398438 321.746094 132.398438 321.753906 132.398438 C 336.339844 132.398438 348.453125 123.308594 351.1875 109.691406 C 351.554688 107.863281 351.730469 106.050781 351.75 104.277344 L 351.75 103.917969 C 351.652344 88.535156 338.789062 75.628906 322.625 75.171875 C 322.289062 75.164062 321.964844 75.152344 321.632812 75.152344 Z M 321.640625 75.144531 " clip-rule="nonzero"/></clipPath><clipPath id="0c7e0126e2"><path d="M 0.5625 0.0742188 L 60.828125 0.0742188 L 60.828125 57.410156 L 0.5625 57.410156 Z M 0.5625 0.0742188 " clip-rule="nonzero"/></clipPath><clipPath id="4f8cb37f69"><path d="M 42.078125 12.101562 C 42.667969 12.101562 43.28125 12.347656 43.914062 12.996094 C 45.691406 14.800781 45.875 16.742188 44.414062 18.980469 C 38.878906 27.492188 33.433594 36.078125 27.996094 44.652344 C 27.230469 45.875 26.546875 46.382812 25.871094 46.382812 C 25.078125 46.382812 24.304688 45.679688 23.417969 44.554688 C 12.226562 30.332031 12.226562 30.21875 27.1875 20.871094 C 27.503906 20.667969 27.8125 20.484375 28.128906 20.273438 L 28.152344 20.316406 C 31.765625 18.058594 35.339844 15.765625 38.960938 13.523438 C 39.953125 12.910156 40.980469 12.101562 42.0625 12.101562 Z M 30.640625 0.144531 C 14.035156 0.144531 0.636719 12.03125 0.628906 28.757812 C 0.621094 45.59375 14.007812 57.390625 30.738281 57.398438 C 30.746094 57.398438 30.746094 57.398438 30.753906 57.398438 C 45.339844 57.398438 57.453125 48.308594 60.1875 34.691406 C 60.554688 32.863281 60.730469 31.050781 60.75 29.277344 L 60.75 28.917969 C 60.652344 13.535156 47.789062 0.628906 31.625 0.171875 C 31.289062 0.164062 30.964844 0.152344 30.632812 0.152344 Z M 30.640625 0.144531 " clip-rule="nonzero"/></clipPath><clipPath id="53b859a309"><rect x="0" width="61" y="0" height="58"/></clipPath></defs><g clip-path="url(#23ba29050c)"><g clip-path="url(#bd5f190136)"><g transform="matrix(1, 0, 0, 1, 73, 75)"><g clip-path="url(#23ab6eb4d4)"><g clip-path="url(#b3a158731d)"><g clip-path="url(#8d1ca93042)"><rect x="-155.5" width="540" fill="#ffffff" height="280.627186" y="-117.873598" fill-opacity="1"/></g></g></g></g></g></g><g clip-path="url(#4f9b062853)"><g clip-path="url(#8185997c96)"><g transform="matrix(1, 0, 0, 1, 182, 75)"><g clip-path="url(#ced12c2170)"><g clip-path="url(#6a4abd036e)"><g clip-path="url(#48b8307b6b)"><rect x="-264.5" width="540" fill="#ffffff" height="280.627186" y="-117.873598" fill-opacity="1"/></g></g></g></g></g></g><g clip-path="url(#a296297b32)"><g clip-path="url(#2ee9e9942c)"><g transform="matrix(1, 0, 0, 1, 127, 76)"><g clip-path="url(#6983cc5a57)"><g clip-path="url(#fc6ab574b8)"><g clip-path="url(#442f425a4b)"><rect x="-209.5" width="540" fill="#ffffff" height="280.627186" y="-118.873598" fill-opacity="1"/></g></g></g></g></g></g><g clip-path="url(#2fcc3dc661)"><g clip-path="url(#d146f53116)"><g transform="matrix(1, 0, 0, 1, 242, 54)"><g clip-path="url(#5233544f53)"><g clip-path="url(#57e65b45f6)"><g clip-path="url(#facd487161)"><rect x="-324.5" width="540" fill="#ffffff" height="280.627186" y="-96.873598" fill-opacity="1"/></g></g></g></g></g></g><g clip-path="url(#3ad8e27961)"><g clip-path="url(#2ab1d3ef30)"><g transform="matrix(1, 0, 0, 1, 23, 54)"><g clip-path="url(#1a2e1ad6db)"><g clip-path="url(#701699a8d0)"><g clip-path="url(#e1f3897fc5)"><rect x="-105.5" width="540" fill="#ffffff" height="280.627186" y="-96.873598" fill-opacity="1"/></g></g></g></g></g></g><g clip-path="url(#55463ec2e0)"><g clip-path="url(#2cc03c40a2)"><g transform="matrix(1, 0, 0, 1, 291, 75)"><g clip-path="url(#53b859a309)"><g clip-path="url(#0c7e0126e2)"><g clip-path="url(#4f8cb37f69)"><rect x="-373.5" width="540" fill="#ffffff" height="280.627186" y="-117.873598" fill-opacity="1"/></g></g></g></g></g></g></svg>